<svg width="329" height="272" viewBox="0 0 329 272" fill="none" xmlns="http://www.w3.org/2000/svg">
<path d="M164.499 156.112C164.018 156.112 163.665 156.484 163.661 156.492C163.64 156.51 155.123 164.905 155.123 164.905C151.983 168.037 147.813 166.726 147.367 166.573C147.367 166.573 110.963 156.314 110.958 156.311C104.011 154.146 102.631 151.811 101.567 148.974C101.567 148.974 100.95 147.211 99.4375 146.749C99.4375 146.749 54.9361 133.253 54.9321 133.253C53.116 132.674 52.1166 132.145 51.4027 130.717C51.4027 130.717 48.96 126.274 48.9519 126.261C48.4101 125.196 47.4285 125.083 47.3719 125.075C44.0058 124.606 43.0194 122.667 42.6022 121.842L40.6171 118.24C39.9961 117.124 39.1083 117.03 39.0808 117.026C37.1669 116.901 36.2565 116.402 35.4649 115.06C35.4649 115.06 33.5243 111.726 33.5162 111.709C32.5621 109.888 32.892 108.585 33.3319 107.812C34.2601 106.225 35.9565 106.105 36.6373 106.08H143.049C146.061 106.08 148.496 107.023 150.296 108.888C151.589 110.219 152.479 111.955 152.94 114.047C152.948 114.096 153.073 114.533 153.984 114.533H175.016C175.928 114.533 176.052 114.097 176.06 114.047C176.521 111.955 177.411 110.219 178.704 108.888C180.504 107.023 182.938 106.08 185.952 106.08H292.364C293.045 106.104 294.74 106.225 295.668 107.811C296.108 108.584 296.437 109.887 295.483 111.708C295.475 111.725 293.535 115.059 293.535 115.059C292.743 116.402 291.833 116.9 289.919 117.026C289.892 117.029 289.003 117.123 288.382 118.239L286.397 121.841C285.98 122.666 284.994 124.605 281.628 125.074C281.572 125.083 280.59 125.195 280.048 126.26C280.04 126.273 277.598 130.716 277.598 130.716C276.884 132.144 275.884 132.674 274.069 133.252C274.066 133.252 229.564 146.748 229.564 146.748C228.052 147.21 227.434 148.973 227.434 148.973C226.371 151.81 224.991 154.145 218.043 156.31C218.039 156.314 181.634 166.572 181.634 166.572C181.188 166.725 177.018 168.036 173.878 164.904C173.878 164.904 165.362 156.508 165.339 156.491C165.336 156.483 164.983 156.111 164.502 156.111H164.499V156.112V156.112Z" fill="black"/>
<path fill-rule="evenodd" clip-rule="evenodd" d="M39.2248 114.993C37.8729 114.889 37.585 114.723 37.1597 114.002C37.1646 114.007 35.3954 110.969 35.2547 110.729C34.9612 110.171 34.8642 109.758 34.8771 109.466C34.9094 108.721 35.4002 108.147 36.6907 108.126L89.7274 108.131C93.3175 108.131 95.4343 111.939 95.4343 111.939C95.9712 112.969 96.529 113.987 97.1073 114.993H39.2248ZM180.1 110.337C179.078 111.393 178.367 112.79 177.994 114.493C177.995 114.493 177.93 114.797 177.822 114.993H230.096C230.834 113.741 231.539 112.469 232.21 111.179L232.211 111.177C232.276 111.056 233.158 109.421 234.832 108.127H185.948C183.486 108.127 181.515 108.872 180.1 110.337ZM291.833 114.008L293.741 110.729C294.035 110.171 294.124 109.758 294.124 109.467C294.124 109.16 294.029 108.98 293.978 108.887L293.969 108.869C293.587 108.217 292.864 108.152 292.307 108.128L239.273 108.133C235.632 108.133 233.582 111.909 233.565 111.939C233.029 112.97 232.473 113.988 231.897 114.995L289.789 114.987C291.255 114.891 291.476 114.616 291.833 114.008ZM286.661 117.228L284.64 120.894L284.639 120.896C284.363 121.438 283.938 122.275 282.588 122.756C281.46 123.048 279.213 122.862 278.436 122.765L229.194 119.385C229.831 118.41 230.422 117.472 230.959 116.582H287.086C286.939 116.775 286.795 116.985 286.661 117.228ZM275.948 129.57C276.353 128.835 278.303 125.289 278.29 125.305C278.444 125.002 278.632 124.72 278.85 124.463C278.549 124.435 278.338 124.411 278.264 124.402L228.141 120.966C227.566 121.804 226.953 122.671 226.306 123.545L273.491 130.083C275.294 130.331 275.849 129.708 275.948 129.57ZM262.062 134.766C260.285 135.252 256.811 134.702 255.605 134.443L223.182 127.558C223.892 126.697 224.572 125.843 225.218 124.998L272.604 131.568L262.062 134.766ZM240.714 139.243C240.889 139.301 243.769 140.252 245.99 139.638L257.005 136.295C256.227 136.183 255.631 136.065 255.397 136.019L255.396 136.019C255.343 136.009 255.308 136.002 255.294 136L222.021 128.935C221.03 130.087 220.01 131.213 218.961 132.309L240.662 139.225C240.666 139.225 240.67 139.229 240.67 139.229L240.706 139.24L240.714 139.243ZM229.037 144.782C227.497 145.214 225.226 144.296 224.472 143.903C224.472 143.903 218.665 141.095 212.702 138.213C214.438 136.743 216.114 135.197 217.724 133.581L240.229 140.755C240.273 140.772 240.682 140.909 241.308 141.055L229.037 144.782ZM219.607 153.606C224.223 151.814 224.908 150.026 225.564 148.29C225.624 148.112 225.96 147.209 226.702 146.335C225.149 146.036 223.867 145.367 223.798 145.331L211.363 139.318C209.139 141.118 206.819 142.789 204.416 144.323C210.268 148.649 215.407 152.449 215.415 152.457C215.435 152.476 217.701 154.217 219.607 153.606ZM208.17 156.974L206.437 157.459C204.977 157.82 203.197 156.327 202.628 155.706C202.628 155.706 199.831 152.7 196.237 148.824C198.542 147.744 200.792 146.541 202.975 145.219L214.501 153.737C214.548 153.777 215.206 154.286 216.173 154.72C213.613 155.44 208.17 156.973 208.17 156.974ZM189.894 158.633C190.304 159.402 191.715 161.466 192.932 161.268L203.41 158.314C202.373 157.709 201.643 156.95 201.524 156.827L201.524 156.827L201.511 156.813L194.731 149.504C192.024 150.698 189.248 151.717 186.418 152.556L189.894 158.633ZM181.393 164.516C180.574 164.711 179.883 164.625 179.288 164.254C178.013 163.448 177.589 161.595 177.565 161.486L175.792 154.878C178.856 154.441 181.891 153.813 184.88 152.997L188.558 159.427C188.684 159.657 189.43 161.001 190.549 161.94L181.393 164.516ZM167.312 155.614C168.984 157.257 173.915 162.118 173.915 162.118C175.671 163.894 176.092 164.319 177.481 164.727C176.474 163.55 176.112 162.068 176.06 161.833L174.248 155.076C171.974 155.351 169.658 155.529 167.312 155.614ZM165.271 154.067V133.48H168.452L173.83 153.526C171.031 153.858 168.178 154.04 165.271 154.067ZM160.549 133.48L155.167 153.526C157.965 153.854 160.817 154.04 163.731 154.065V133.48H160.549ZM153.754 163.424C153.13 164.051 152.358 164.5 151.516 164.728C152.529 163.546 152.882 162.061 152.935 161.831L154.749 155.085C157.023 155.355 159.338 155.533 161.684 155.614C159.806 157.459 153.754 163.424 153.754 163.424ZM149.706 164.254C151.014 163.428 151.432 161.494 151.432 161.474L153.205 154.877C150.139 154.444 147.102 153.817 144.111 153C142.923 155.08 141.911 156.85 141.254 157.998L141.244 158.017L141.233 158.036L141.232 158.037C140.736 158.905 140.448 159.408 140.45 159.406C140.321 159.652 139.566 160.995 138.448 161.939L147.604 164.516C148.424 164.711 149.112 164.625 149.706 164.254ZM136.064 161.268L125.588 158.313C126.649 157.689 127.393 156.906 127.48 156.814L127.486 156.809C127.486 156.809 130.48 153.578 134.265 149.504C136.972 150.696 139.747 151.717 142.575 152.559L139.114 158.617C138.692 159.402 137.281 161.466 136.064 161.268ZM112.823 154.72L122.557 157.459C124.018 157.82 125.8 156.327 126.368 155.706L132.763 148.824C130.457 147.743 128.206 146.54 126.02 145.219C123.9 146.786 121.856 148.297 120.094 149.6L120.091 149.602L119.99 149.676C116.762 152.062 114.506 153.729 114.511 153.724C113.986 154.121 113.42 154.455 112.823 154.72ZM109.378 153.606C104.781 151.814 104.092 150.031 103.439 148.299C103.173 147.58 102.786 146.915 102.294 146.336C103.309 146.129 104.293 145.787 105.222 145.32C105.217 145.321 106.055 144.917 107.423 144.256C109.781 143.117 113.716 141.216 117.637 139.318C119.857 141.121 122.175 142.792 124.579 144.323L113.597 152.441C113.561 152.478 111.284 154.226 109.378 153.606ZM92.6994 142.575L92.7163 142.581L92.7288 142.584L92.7455 142.589L92.748 142.59C96.8118 143.824 99.6262 144.678 99.9634 144.782C101.504 145.214 103.77 144.296 104.547 143.891L116.297 138.21C114.561 136.74 112.886 135.196 111.275 133.581C107.024 134.936 88.7679 140.755 88.7873 140.746C88.4267 140.869 88.0602 140.972 87.6892 141.055L92.6994 142.575ZM83.0197 139.641C79.3424 138.528 75.6655 137.412 71.9891 136.295C72.5646 136.215 73.1374 136.115 73.7066 135.995C73.7046 135.998 82.2245 134.19 91.1395 132.297L91.1524 132.295C97.0364 131.046 103.091 129.76 106.979 128.936C107.972 130.086 108.991 131.211 110.037 132.31L88.311 139.234L88.2996 139.238C88.0915 139.306 85.2334 140.247 83.0197 139.641ZM56.3942 131.568C59.9144 132.631 63.4333 133.699 66.9509 134.771C68.7306 135.252 72.1896 134.702 73.3928 134.443L105.82 127.556C105.111 126.693 104.433 125.839 103.786 124.998L56.3942 131.568ZM55.5112 130.084C53.7186 130.331 53.1558 129.72 53.0523 129.575L50.6937 125.285C50.5436 124.99 50.3601 124.714 50.1471 124.464C50.4495 124.436 100.866 120.967 100.866 120.967C101.462 121.837 102.072 122.696 102.696 123.545L55.5112 130.084ZM44.3561 120.894C44.6326 121.437 45.0612 122.274 46.4131 122.755C47.5411 123.047 49.7881 122.862 50.5611 122.763L99.8096 119.383C99.2045 118.461 98.616 117.526 98.0445 116.58H41.9078C42.2601 117.036 42.8529 118.135 43.4528 119.247L43.4528 119.247L43.4528 119.247C43.7628 119.821 44.0746 120.399 44.3561 120.894ZM148.896 110.337C147.48 108.872 145.514 108.126 143.048 108.126L94.1674 108.128C95.8484 109.427 96.7322 111.071 96.7896 111.179C96.7896 111.179 98.1067 113.639 98.9056 114.994H151.179C151.082 114.784 151.006 114.493 151.006 114.493C150.628 112.789 149.919 111.392 148.896 110.337ZM218.744 118.673V116.58H229.138C228.578 117.485 228.003 118.38 227.413 119.263L218.744 118.673ZM218.744 120.324V122.5L224.548 123.306C225.173 122.467 225.773 121.646 226.333 120.842L218.744 120.324ZM218.744 126.62V124.103L223.438 124.754C222.808 125.56 222.146 126.373 221.456 127.194C220.729 127.039 220.101 126.907 219.593 126.8C219.256 126.729 218.971 126.669 218.744 126.62ZM220.276 128.566L218.744 128.243V130.262C219.264 129.705 219.775 129.14 220.276 128.566ZM202.911 133.48H215.596C214.387 134.721 211.639 137.048 211.206 137.414L211.151 137.461C209.228 136.529 207.334 135.616 205.66 134.808C204.65 134.32 203.72 133.871 202.911 133.48ZM199.279 133.48H189.746C192.631 135.612 197.978 139.565 203.052 143.32C205.381 141.862 207.632 140.274 209.793 138.562L199.279 133.48ZM181.99 133.48H187.104L201.599 144.203C199.492 145.451 197.324 146.585 195.103 147.602C192.854 145.18 190.387 142.523 188.136 140.099C185.612 137.379 183.359 134.953 181.99 133.48ZM179.854 133.48H175.512L185.607 151.139C188.32 150.348 190.986 149.391 193.589 148.274L179.854 133.48ZM173.722 133.48L184.069 151.567C181.207 152.331 178.305 152.919 175.376 153.327L170.049 133.479H173.722V133.48ZM158.949 133.48H155.275L153.916 135.857L153.91 135.868L153.892 135.899L153.885 135.911C151.734 139.674 147.94 146.31 144.929 151.572C147.791 152.333 150.693 152.92 153.622 153.328L158.949 133.48ZM149.142 133.48H153.487L143.39 151.139C140.675 150.35 138.009 149.392 135.407 148.269C140.082 143.237 145.565 137.332 148.094 134.609L149.142 133.48ZM147.008 133.48H141.893C140.798 134.288 137.537 136.701 133.627 139.594L127.397 144.203C129.506 145.45 131.676 146.585 133.899 147.602L147.008 133.48ZM117.846 137.461C117.73 137.364 114.691 134.727 113.401 133.48H126.084L117.846 137.461ZM139.249 133.48H129.719C129.4 133.634 128.608 134.017 127.493 134.555C125.481 135.528 122.419 137.007 119.205 138.562C121.365 140.274 123.614 141.861 125.944 143.317L139.249 133.48ZM110.24 128.243V130.245C109.726 129.694 109.221 129.133 108.724 128.565C109.148 128.474 109.524 128.394 109.847 128.326L109.848 128.326C109.989 128.296 110.12 128.269 110.24 128.243ZM110.24 126.619V124.103L105.564 124.754C106.21 125.579 106.869 126.392 107.541 127.194L110.24 126.619ZM110.24 120.324V122.5L104.453 123.306C103.846 122.495 103.252 121.673 102.672 120.842L110.24 120.324ZM101.593 119.263L110.24 118.673V116.58H99.8671C100.425 117.486 101.001 118.381 101.593 119.263Z" fill="white"/>
<path d="M111.805 131.889L111.782 131.865V116.589H217.208V131.872C217.205 131.881 217.2 131.881 217.196 131.885L111.805 131.889V131.889Z" fill="url(#paint0_linear_0_2918)"/>
<path fill-rule="evenodd" clip-rule="evenodd" d="M118.787 119.028H118.347L113.842 129.44H115.062L115.081 129.38C115.446 128.113 115.916 126.899 116.372 125.735L116.466 125.488H119.95C120.488 126.766 120.978 128.066 121.419 129.383L121.44 129.44H123.124L118.787 119.028ZM116.807 124.693C116.9 124.464 118.082 121.602 118.222 121.263C118.302 121.457 118.73 122.474 119.099 123.353L119.099 123.353L119.099 123.354L119.1 123.354L119.1 123.354L119.1 123.354L119.1 123.355L119.101 123.356L119.101 123.356L119.101 123.357L119.101 123.358C119.378 124.016 119.621 124.595 119.662 124.693H116.807ZM123.646 128.739L123.609 128.699L123.901 127.288H124.169L124.194 127.329C124.817 128.38 125.457 128.81 126.421 128.81C127.474 128.81 128.3 127.907 128.3 126.762C128.3 125.528 127.332 125.131 126.299 124.718L126.275 124.708C125.139 124.241 123.861 123.714 123.861 121.93C123.861 120.165 125.132 119.028 127.102 119.028C127.731 119.028 128.615 119.218 129.189 119.753L129.236 119.798L128.815 121.112H128.546L128.526 121.056C128.225 120.271 127.632 119.843 126.846 119.843C125.863 119.843 125.145 120.522 125.145 121.462C125.145 122.688 126.129 123.092 127.172 123.521L127.202 123.533L127.22 123.54C128.402 124.023 129.618 124.52 129.618 126.188C129.618 128.21 128.137 129.619 126.024 129.619C125.378 129.619 124.178 129.339 123.646 128.739ZM137.572 119.243H130.161V120.316L130.256 120.307C131.257 120.189 132.262 120.129 133.269 120.128V129.473H134.693V120.134C135.7 120.134 136.661 120.193 137.56 120.307L137.661 120.319V119.243H137.572ZM137.336 124.346C137.336 121.218 139.535 119.028 142.679 119.028C145.399 119.028 148.147 120.602 148.146 124.123C148.146 127.408 145.936 129.618 142.651 129.618C139.474 129.618 137.336 127.501 137.336 124.346ZM145.31 127.801C144.611 128.566 143.734 128.955 142.69 128.955C140.389 128.955 138.9 127.216 138.9 124.525C138.9 121.543 140.404 119.693 142.819 119.693C143.958 119.693 145.034 120.21 145.699 121.076C146.429 122.039 146.577 123.043 146.577 124.245C146.581 124.31 146.586 124.383 146.586 124.452C146.586 125.43 146.2 126.818 145.31 127.801ZM157.135 119.243H158.018H158.106V129.441H157.544L156.786 128.526C156.786 128.526 150.738 121.61 150.686 121.549H150.666V129.44H149.694V119.243H150.375C150.375 119.243 157.068 126.729 157.119 126.79H157.135V119.243ZM173.968 119.243H173.618L171.228 123.722C171.228 123.722 169.715 126.571 169.577 126.827C168.102 124.285 166.774 121.61 165.644 119.292L165.62 119.243H165.118L165.11 119.328C164.969 120.834 164.12 126.972 163.749 129.339L163.73 129.44H164.926V129.352C164.926 127.916 165.173 125.774 165.435 123.504L165.593 122.1L165.693 122.298C166.126 123.15 167.689 126.227 168.326 127.575L169.129 129.283H169.398L169.42 129.226C170.246 127.267 171.412 125.03 173.007 122.084C173.233 123.84 173.532 127.349 173.698 129.359L173.707 129.441H175.219L175.206 129.34C174.864 126.867 174.492 123.593 174.056 119.329L174.047 119.244H173.968V119.243ZM180.294 119.028H180.737L185.07 129.439H183.384L183.365 129.383C182.924 128.065 182.435 126.766 181.898 125.487H178.412C178.384 125.564 178.328 125.709 178.328 125.709C177.869 126.883 177.397 128.101 177.031 129.38L177.015 129.44H175.787L180.294 119.028ZM178.755 124.693C178.848 124.464 180.03 121.602 180.172 121.263L181.611 124.693H178.755ZM192.252 121.566C192.252 122.983 191.186 124.031 189.405 124.403C189.574 124.617 193.312 129.44 193.312 129.441H191.452L190.533 128.138C190.533 128.138 188.855 125.895 188.86 125.9C188.491 125.452 188.122 125.003 187.755 124.553H187.34V129.441H185.919V119.244H189.013C191.194 119.244 192.252 120.009 192.252 121.566ZM187.34 123.82V119.968C187.926 119.94 188.834 119.9 189.326 119.982C190.312 120.146 190.812 120.741 190.812 121.74C190.812 122.765 190.161 123.512 189.064 123.74C188.447 123.868 187.702 123.845 187.34 123.82ZM193.055 119.243H200.47H200.559V120.319L200.459 120.307C199.559 120.193 198.595 120.134 197.593 120.134V129.473H196.162V120.128C195.156 120.129 194.151 120.189 193.152 120.307L193.055 120.316V119.243ZM201.729 129.44H203.072V119.243H201.729V129.44ZM212.606 126.79V119.243H213.577V129.441H213.024L212.265 128.526C212.265 128.526 206.209 121.61 206.157 121.549H206.14V129.44H205.168V119.243H205.851C205.851 119.243 212.542 126.729 212.594 126.79H212.606Z" fill="white"/>
<defs>
<linearGradient id="paint0_linear_0_2918" x1="-16.0803" y1="104.483" x2="-15.1252" y2="151.327" gradientUnits="userSpaceOnUse">
<stop stop-color="#339966"/>
<stop offset="1" stop-color="#004F32"/>
<stop offset="1" stop-color="#004F32"/>
</linearGradient>
</defs>
</svg>
