<svg width="192" height="192" viewBox="0 0 192 192" fill="none" xmlns="http://www.w3.org/2000/svg">
<path d="M145.737 122.104C145.736 122.104 145.735 122.104 145.735 122.104C139.616 122.104 133.792 120.035 129.081 116.233C124.612 119.835 119.097 121.895 113.3 122.089C112.998 122.1 112.699 122.104 112.4 122.104C112.4 122.104 112.399 122.104 112.398 122.104C106.279 122.104 100.456 120.035 95.7441 116.233C91.2748 119.835 85.7599 121.895 79.9626 122.089C79.6607 122.1 79.3621 122.104 79.0624 122.104C79.0624 122.104 79.0613 122.104 79.0607 122.104C72.9414 122.104 67.1185 120.035 62.4074 116.233C57.9376 119.835 52.4232 121.895 46.6253 122.089C46.324 122.1 46.0248 122.104 45.7257 122.104C45.7251 122.104 45.7246 122.104 45.724 122.104C31.3106 122.103 19.6447 110.812 19.1639 96.3993C18.6748 81.7459 30.1993 69.4265 44.8528 68.938L44.9458 68.9363L46.6259 68.938C52.4216 69.1312 57.9359 71.1918 62.4074 74.7943C66.8778 71.1918 72.3916 69.1312 78.1895 68.938L78.2825 68.9363L79.9626 68.938C85.7583 69.1312 91.2732 71.1918 95.7441 74.7938C100.214 71.1913 105.729 69.1307 111.527 68.938L111.619 68.9363L113.299 68.938C119.095 69.1312 124.61 71.1918 129.081 74.7943C133.551 71.1918 139.067 69.1307 144.865 68.938L144.957 68.9363L146.637 68.938C160.577 69.4025 171.861 80.6869 172.326 94.6268C172.814 109.28 161.29 121.6 146.637 122.089C146.334 122.099 146.036 122.104 145.737 122.104ZM133.047 112.282C136.686 115.049 141.103 116.548 145.735 116.548C145.736 116.548 145.736 116.548 145.737 116.548C145.975 116.548 146.212 116.544 146.451 116.536C158.043 116.149 167.159 106.404 166.772 94.8123C166.405 83.7998 157.502 74.8829 146.496 74.4924H145.004C140.642 74.6467 136.485 76.138 133.051 78.7428C136.706 83.2299 138.793 88.7699 138.988 94.6268C139.203 101.048 137.062 107.333 133.047 112.282ZM99.7104 112.282C103.349 115.049 107.766 116.548 112.398 116.548C112.399 116.548 112.399 116.548 112.4 116.548C112.638 116.548 112.875 116.544 113.113 116.536C117.492 116.389 121.666 114.898 125.112 112.284C121.456 107.798 119.37 102.258 119.175 96.3993C118.96 89.9792 121.102 83.6945 125.115 78.7461C121.679 76.1391 117.521 74.6473 113.158 74.4924H111.667C107.304 74.6467 103.147 76.138 99.7137 78.7428C103.369 83.2299 105.456 88.7699 105.651 94.6268C105.865 101.048 103.725 107.333 99.7104 112.282ZM66.3731 112.282C70.0113 115.049 74.4288 116.548 79.0613 116.548C79.0613 116.548 79.0624 116.548 79.063 116.548C79.3008 116.548 79.5376 116.544 79.7771 116.536C84.1556 116.389 88.3297 114.898 91.7751 112.284C88.1196 107.798 86.0329 102.258 85.8379 96.3993C85.624 89.9792 87.7642 83.6945 91.7784 78.7456C88.3425 76.1391 84.184 74.6473 79.8222 74.493H78.3299C73.9681 74.6473 69.8107 76.1385 66.3765 78.7433C70.0319 83.2304 72.1192 88.7704 72.3147 94.6273C72.5286 101.048 70.3873 107.333 66.3731 112.282ZM44.9932 74.493C33.423 74.9024 24.3307 84.6376 24.7167 96.215C25.0972 107.616 34.3243 116.547 45.7246 116.548H45.7257C45.9635 116.548 46.2009 116.544 46.4398 116.536C50.8183 116.389 54.9924 114.898 58.4378 112.284C54.7824 107.798 52.6956 102.258 52.5001 96.3993C52.2867 89.9792 54.4275 83.6945 58.4411 78.7456C55.0058 76.1391 50.8467 74.6473 46.485 74.493H44.9932ZM129.085 82.684C126.13 86.5288 124.565 91.3223 124.728 96.2155C124.876 100.661 126.402 104.876 129.079 108.344C132.033 104.499 133.599 99.7049 133.436 94.8123C133.288 90.3675 131.761 86.1533 129.085 82.684ZM62.4102 82.6834C59.4555 86.5282 57.8908 91.3217 58.054 96.215C58.2022 100.661 59.728 104.875 62.4046 108.343C65.3593 104.498 66.9246 99.7049 66.762 94.8117C66.6138 90.3675 65.088 86.1528 62.4102 82.6834ZM95.7475 82.6834C92.7928 86.5282 91.2275 91.3217 91.3907 96.215C91.5394 100.661 93.0647 104.875 95.7413 108.343C98.6954 104.498 100.261 99.7044 100.099 94.8117C99.9505 90.3675 98.4247 86.1528 95.7475 82.6834Z" fill="black"/>
</svg>
