<svg width="192" height="192" viewBox="0 0 192 192" fill="none" xmlns="http://www.w3.org/2000/svg">
<path d="M95.7449 19.1489C53.4433 19.1489 19.1489 53.4433 19.1489 95.7449C19.1489 138.047 53.4433 172.341 95.7449 172.341C138.047 172.341 172.341 138.047 172.341 95.7449C172.341 53.4433 138.047 19.1489 95.7449 19.1489ZM167.36 95.7449C167.36 135.295 135.299 167.36 95.7449 167.36C56.1904 167.36 24.1298 135.295 24.1298 95.7449C24.1298 56.1949 56.1949 24.1298 95.7449 24.1298C135.295 24.1298 167.36 56.1949 167.36 95.7449Z" fill="#6F6F6F"/>
<path d="M95.7452 50.355V52.8437C119.399 52.8437 138.647 72.087 138.647 95.7452H141.135C141.135 70.6784 120.812 50.355 95.7452 50.355ZM95.7452 138.647C72.0915 138.647 52.8437 119.403 52.8437 95.7452H50.355C50.355 120.812 70.6784 141.135 95.7452 141.135" fill="#6F6F6F"/>
<path d="M132.42 63.4218C133.459 64.5299 134.957 66.3173 135.799 67.4031L151.295 57.6353C150.521 56.6299 149.288 55.1017 148.366 54.0248L138.552 60.4682L137.882 61.0401L138.381 60.3163L142.714 51.7281L139.65 48.6851L130.998 52.9882L130.269 53.4841L130.849 52.8184L137.342 43.0773C136.199 42.1122 135.101 41.2274 133.702 40.155L123.866 55.5307C125.113 56.4824 126.755 57.881 127.803 58.8328L137.063 54.0606L137.657 53.6271L137.221 54.217L132.42 63.4218Z" fill="#6F6F6F"/>
<path d="M97.2572 43.9357L101.491 34.5164L101.761 33.6808L101.685 34.5521L102.13 47.1395C103.615 47.278 105.149 47.4836 106.661 47.7338L105.972 29.0918C103.858 28.8594 101.752 28.6941 99.6463 28.6047L95.4754 38.8864L95.327 39.6505L95.1785 38.8864L91.0121 28.6047C88.9064 28.6941 86.8007 28.8594 84.686 29.0918L83.9976 47.7338C85.5093 47.4836 87.0436 47.2825 88.5284 47.1395L88.9739 34.5521L88.8974 33.6808L89.1673 34.5164L93.4012 43.9357H97.2572Z" fill="#6F6F6F"/>
<path d="M63.0121 58.7927C65.4597 56.2323 66.8455 53.2743 64.3979 50.4503C63.0661 48.9176 60.8299 48.5825 58.9762 49.3376L58.7917 49.4091L58.8502 49.2483C59.1246 48.5199 59.3001 46.1964 57.3069 44.5922C56.335 43.8103 55.1157 43.5198 53.8829 43.6449C51.5837 43.8773 49.8154 45.4368 45.0011 50.7675C43.5478 52.3761 41.4331 54.9141 40.1643 56.5585L53.3879 69.0163C57.7703 64.1994 59.5566 62.4076 63.0121 58.7927ZM45.757 55.7453C48.4206 52.5102 51.2507 49.5745 52.5331 48.4127C52.938 48.0463 53.3789 47.6799 53.9144 47.5369C54.7827 47.3001 55.6781 47.9122 55.8806 48.797C56.0831 49.6862 55.5206 50.5307 54.8952 51.2277C53.4869 52.8051 48.3217 58.1716 48.3217 58.1716L45.757 55.7453ZM50.9358 60.6247C50.9358 60.6247 55.9661 55.3431 57.6084 53.6541C58.2608 52.9838 58.6792 52.5772 59.1291 52.3582C59.7096 52.0767 60.344 52.0186 60.9109 52.394C61.4688 52.7649 61.7253 53.4038 61.5858 54.0383C61.4193 54.7935 60.7984 55.5129 60.2855 56.0625C59.5926 56.7998 53.6264 63.1404 53.6174 63.1493L50.9358 60.6247Z" fill="#6F6F6F"/>
<path d="M95.7452 50.355V95.7452H50.355C50.355 70.6604 70.6604 50.355 95.7452 50.355Z" fill="#0066B1"/>
<path d="M141.135 95.7449C141.135 120.83 120.83 141.135 95.7451 141.135V95.7449H141.135Z" fill="#0066B1"/>
</svg>
