<svg width="192" height="192" viewBox="0 0 192 192" fill="none" xmlns="http://www.w3.org/2000/svg">
<path fill-rule="evenodd" clip-rule="evenodd" d="M94.7871 53.859C110.756 53.859 123.706 85.5791 123.706 124.693C123.706 126.066 123.687 127.428 123.656 128.782C117.613 116.564 106.943 108.447 94.7871 108.447C82.6321 108.447 71.9616 116.564 65.9187 128.782C65.8874 127.428 65.8692 126.066 65.8692 124.693C65.8692 85.5791 78.8191 53.859 94.7871 53.859ZM118.894 64.2884C146.692 70.5647 166.596 87.3858 166.596 107.147C166.596 132.266 134.44 152.637 94.7871 152.637C55.135 152.637 22.979 132.266 22.979 107.147C22.979 87.3858 42.884 70.5647 70.6811 64.2884L70.666 64.3251C76.8854 49.412 85.3979 40.2129 94.7871 40.2129C104.169 40.2129 112.675 49.3964 118.894 64.2884ZM34.2632 107.147C34.2632 120.333 44.7786 131.966 60.784 138.865C60.4651 134.258 60.2976 129.523 60.2976 124.693C60.2976 105.788 63.9254 87.5132 68.2117 73.4362C53.2605 74.1644 35.6668 89.6866 34.2632 107.147ZM66.6532 141.097C75.0596 143.9 84.6303 145.488 94.7871 145.488C104.944 145.488 114.515 143.899 122.922 141.097C123.079 139.476 123.214 137.835 123.325 136.174C117.228 125.738 106.724 118.845 94.7871 118.845C82.8509 118.845 72.3465 125.738 66.2501 136.174C66.3614 137.836 66.4955 139.477 66.6532 141.097ZM128.791 138.865C144.797 131.966 155.312 120.333 155.312 107.147C155.312 92.1843 141.772 79.2214 122.034 72.9052L128.791 138.865ZM128.791 138.865C129.11 134.257 129.277 129.523 129.277 124.693C129.277 105.178 126.573 87.207 122.034 72.904L128.791 138.865Z" fill="#ED1C24"/>
</svg>
