<svg width="354" height="354" viewBox="0 0 354 354" fill="none" xmlns="http://www.w3.org/2000/svg">
<path d="M220.168 150.019H220.167L220.35 138.886L220.168 150.019" fill="#393A3C"/>
<path d="M220.167 150.019H220.166L220.351 138.886L220.167 150.019Z" fill="#38393B"/>
<path d="M290.071 207.077H220.071V205.685H290.071L315.399 156.978L290.071 207.077Z" fill="#373739"/>
<path d="M220.166 150.019H220.163L220.351 138.886L220.166 150.019Z" fill="#373739"/>
<path d="M220.163 150.019H220.155L220.329 138.886H220.351L220.163 150.019Z" fill="#353537"/>
<path d="M38.4618 207.077L39.1196 205.685H39.1372L38.4618 207.077Z" fill="#323233"/>
<path d="M220.072 226.56H132.398V207.077H38.4618L39.1372 205.685H132.398V225.168H220.072V226.56Z" fill="#323233"/>
<path d="M220.329 138.886L220.351 137.495L220.329 138.886Z" fill="#373638"/>
<path d="M220.154 150.019H220.153L220.328 138.886L220.154 150.019" fill="#323233"/>
<path d="M220.329 138.886L220.351 137.495L220.329 138.886Z" fill="#323234"/>
<path d="M220.153 150.019H220.152L220.329 138.886L220.153 150.019Z" fill="#2F2F30"/>
<path d="M220.329 138.886L220.351 137.495L220.329 138.886Z" fill="#2E2E2F"/>
<path d="M220.152 150.019H220.151L220.329 138.886L220.152 150.019" fill="#2B2A2B"/>
<path d="M220.329 138.886L220.351 137.495L220.329 138.886Z" fill="#2B292B"/>
<path d="M290.072 205.685L314.696 156.978H315.4L290.072 205.685ZM220.151 150.02H220.148L220.329 138.886L220.151 150.02" fill="#282728"/>
<path d="M220.329 138.886L220.351 137.495L220.329 138.886Z" fill="#282627"/>
<path d="M220.148 150.019H220.147L220.329 138.886L220.148 150.019Z" fill="#242424"/>
<path d="M220.329 138.886H220.327L220.35 137.495L220.329 138.886Z" fill="#242323"/>
<path d="M220.147 150.019H220.145L220.327 138.886H220.329L220.147 150.019Z" fill="#222121"/>
<path d="M220.327 138.886L220.35 137.495L220.327 138.886Z" fill="#212020"/>
<path d="M220.146 150.019H220.144L220.328 138.886L220.146 150.019" fill="#1F1E1E"/>
<path d="M220.327 138.886L220.35 137.495L220.327 138.886Z" fill="#1E1D1D"/>
<path d="M220.144 150.019H220.141L220.327 138.886L220.144 150.019Z" fill="#1E1C1C"/>
<path d="M314.696 156.978H314.676L315.4 155.586L314.696 156.978Z" fill="#201F1F"/>
<path d="M290.071 205.685H220.071V204.294H290.071L314.675 156.978H314.695L290.071 205.685" fill="#1C1A1A"/>
<path d="M220.327 138.886L220.35 137.495L220.327 138.886Z" fill="#1C1B1B"/>
<path d="M220.141 150.019H220.14L220.328 138.886L220.141 150.019Z" fill="#1C1A1A"/>
<path d="M220.328 138.886H220.307L220.329 137.495H220.351L220.328 138.886" fill="#1B1919"/>
<path d="M220.14 150.019H220.133L220.307 138.886H220.328L220.14 150.019Z" fill="#1B1919"/>
<path d="M38.4618 205.685L39.1182 204.294H39.1372L38.4618 205.685Z" fill="#201F1F"/>
<path d="M39.1196 205.685H38.4618L39.1372 204.294H39.776L39.1196 205.685" fill="#1A1918"/>
<path d="M39.1374 205.685H39.1198L39.7762 204.294H39.8129L39.1374 205.685" fill="#1A1817"/>
<path d="M220.072 225.168H132.398V205.685H39.1377L39.8131 204.294H132.398V223.777H220.072V225.168" fill="#1A1817"/>
<path d="M220.329 137.495L220.351 136.103L220.329 137.495Z" fill="#2E2D2F"/>
<path d="M220.307 138.886L220.329 137.495L220.307 138.886Z" fill="#1A1818"/>
<path d="M220.133 150.019H220.132L220.307 138.886L220.133 150.019" fill="#1A1817"/>
<path d="M220.329 137.495L220.351 136.103L220.329 137.495Z" fill="#262526"/>
<path d="M220.307 138.886L220.329 137.495L220.307 138.886Z" fill="#191818"/>
<path d="M220.132 150.019H220.129L220.307 138.886L220.132 150.019Z" fill="#1A1817"/>
<path d="M220.329 137.495L220.351 136.103L220.329 137.495Z" fill="#212020"/>
<path d="M220.307 138.886H220.305L220.329 137.495L220.307 138.886Z" fill="#191817"/>
<path d="M220.129 150.019H220.127L220.305 138.886H220.307L220.129 150.019Z" fill="#191817"/>
<path d="M314.675 156.978H313.992L314.696 155.586H315.4L314.675 156.978" fill="#191817"/>
<path d="M290.072 204.294L313.992 156.978H314.676L290.072 204.294" fill="#191716"/>
<path d="M220.329 137.495L220.351 136.103L220.329 137.495Z" fill="#1D1B1B"/>
<path d="M220.305 138.886L220.329 137.495L220.305 138.886Z" fill="#191716"/>
<path d="M220.128 150.019H220.126L220.306 138.886L220.128 150.019Z" fill="#191716"/>
<path d="M220.329 137.495L220.351 136.103L220.329 137.495Z" fill="#1A1918"/>
<path d="M220.305 138.886L220.329 137.495L220.305 138.886Z" fill="#191716"/>
<path d="M220.127 150.019H220.125L220.306 138.886L220.127 150.019" fill="#191716"/>
<path d="M220.329 137.495H220.327L220.35 136.103L220.329 137.495Z" fill="#1A1818"/>
<path d="M220.305 138.886L220.327 137.495H220.329L220.305 138.886Z" fill="#191716"/>
<path d="M220.125 150.019H220.122L220.306 138.886L220.125 150.019Z" fill="#191716"/>
<path d="M220.327 137.495L220.35 136.103L220.327 137.495Z" fill="#191817"/>
<path d="M220.306 138.886H220.304L220.328 137.495L220.306 138.886Z" fill="#181716"/>
<path d="M220.123 150.019H220.121L220.305 138.886H220.306L220.123 150.019Z" fill="#181716"/>
<path d="M220.327 137.495L220.35 136.103L220.327 137.495Z" fill="#191716"/>
<path d="M220.304 138.886L220.328 137.495L220.304 138.886Z" fill="#181716"/>
<path d="M220.121 150.019H220.118L220.304 138.886L220.121 150.019Z" fill="#181716"/>
<path d="M314.696 155.586H314.676L315.4 154.194L314.696 155.586Z" fill="#191818"/>
<path d="M313.991 156.978H313.952L314.675 155.586H314.695L313.991 156.978" fill="#181716"/>
<path d="M290.071 204.294H220.071V202.902H290.071L313.952 156.978H313.991L290.071 204.294Z" fill="#181716"/>
<path d="M220.327 137.495L220.35 136.103L220.327 137.495Z" fill="#191716"/>
<path d="M220.304 138.886L220.328 137.495L220.304 138.886Z" fill="#181716"/>
<path d="M220.119 150.019H220.117L220.305 138.886L220.119 150.019Z" fill="#181716"/>
<path d="M220.328 137.495H220.307L220.329 136.103H220.351L220.328 137.495" fill="#181716"/>
<path d="M220.305 138.886H220.286L220.307 137.495H220.328L220.305 138.886Z" fill="#181716"/>
<path d="M220.117 150.019H220.111L220.285 138.886H220.304L220.117 150.019Z" fill="#181716"/>
<path d="M38.4618 204.294L39.1196 202.902H39.1372L38.4618 204.294Z" fill="#1A1818"/>
<path d="M39.1182 204.294H38.4618L39.1372 202.902H39.776L39.1182 204.294" fill="#181716"/>
<path d="M39.1378 204.294H39.1188L39.7766 202.902H39.8133L39.1378 204.294" fill="#181716"/>
<path d="M39.7764 204.294H39.1377L39.8131 202.902H40.4342L39.7764 204.294Z" fill="#181716"/>
<path d="M39.8134 204.294H39.7767L40.4345 202.902H40.4902L39.8134 204.294Z" fill="#181716"/>
<path d="M220.071 223.777H132.398V204.294H39.8125L40.4893 202.902H132.398V222.385H220.071V223.777Z" fill="#181716"/>
<path d="M220.329 136.103L220.351 134.711L220.329 136.103Z" fill="#272627"/>
<path d="M220.307 137.495L220.329 136.103L220.307 137.495Z" fill="#181716"/>
<path d="M220.286 138.886L220.307 137.495L220.286 138.886Z" fill="#181716"/>
<path d="M220.112 150.019H220.11L220.286 138.886L220.112 150.019" fill="#181716"/>
<path d="M220.329 136.103L220.351 134.711L220.329 136.103Z" fill="#1E1D1D"/>
<path d="M220.307 137.495L220.329 136.103L220.307 137.495Z" fill="#181616"/>
<path d="M220.285 138.886H220.283L220.307 137.495L220.285 138.886Z" fill="#181616"/>
<path d="M220.11 150.019H220.107L220.284 138.886H220.285L220.11 150.019" fill="#181616"/>
<path d="M220.329 136.103L220.351 134.711L220.329 136.103Z" fill="#1A1918"/>
<path d="M220.307 137.495H220.305L220.329 136.103L220.307 137.495Z" fill="#181616"/>
<path d="M220.283 138.886L220.305 137.495H220.307L220.283 138.886Z" fill="#181616"/>
<path d="M220.108 150.019H220.106L220.284 138.886L220.108 150.019" fill="#181616"/>
<path d="M314.675 155.586H313.992L314.696 154.194H315.4L314.675 155.586" fill="#181616"/>
<path d="M313.952 156.978H313.289L313.992 155.586H314.675L313.952 156.978Z" fill="#181616"/>
<path d="M290.072 202.902L313.289 156.978H313.953L290.072 202.902Z" fill="#181616"/>
<path d="M220.329 136.103L220.351 134.711L220.329 136.103Z" fill="#191817"/>
<path d="M220.305 137.495L220.329 136.103L220.305 137.495Z" fill="#181616"/>
<path d="M220.283 138.886L220.305 137.495L220.283 138.886Z" fill="#181616"/>
<path d="M220.106 150.019H220.103L220.284 138.886L220.106 150.019Z" fill="#181616"/>
<path d="M220.329 136.103L220.351 134.711L220.329 136.103Z" fill="#191817"/>
<path d="M220.305 137.495L220.329 136.103L220.305 137.495Z" fill="#181616"/>
<path d="M220.284 138.886H220.282L220.306 137.495L220.284 138.886Z" fill="#181616"/>
<path d="M220.103 150.019H220.101L220.282 138.886H220.283L220.103 150.019Z" fill="#181616"/>
<path d="M220.329 136.103H220.327L220.35 134.711L220.329 136.103Z" fill="#191716"/>
<path d="M220.305 137.495L220.327 136.103H220.329L220.305 137.495Z" fill="#181616"/>
<path d="M220.282 138.886L220.306 137.495L220.282 138.886Z" fill="#181616"/>
<path d="M220.102 150.019H220.099L220.283 138.886L220.102 150.019Z" fill="#181616"/>
<path d="M220.327 136.103L220.35 134.711L220.327 136.103Z" fill="#181716"/>
<path d="M220.306 137.495H220.304L220.328 136.103L220.306 137.495Z" fill="#181616"/>
<path d="M220.283 138.886H220.281L220.305 137.495H220.306L220.283 138.886Z" fill="#181616"/>
<path d="M220.099 150.019H220.097L220.281 138.886H220.282L220.099 150.019Z" fill="#181616"/>
<path d="M220.327 136.103L220.35 134.711L220.327 136.103Z" fill="#181616"/>
<path d="M220.304 137.495L220.328 136.103L220.304 137.495Z" fill="#181616"/>
<path d="M220.281 138.886L220.305 137.495L220.281 138.886Z" fill="#181616"/>
<path d="M220.098 150.019H220.095L220.281 138.886L220.098 150.019Z" fill="#181616"/>
<path d="M314.696 154.194H314.676L315.4 152.803L314.696 154.194Z" fill="#191716"/>
<path d="M313.991 155.586H313.952L314.675 154.194H314.695L313.991 155.586" fill="#181616"/>
<path d="M313.289 156.978H313.228L313.953 155.586H313.992L313.289 156.978Z" fill="#181616"/>
<path d="M290.071 202.902H220.071V201.51H290.071L313.227 156.978H313.289L290.071 202.902Z" fill="#181616"/>
<path d="M220.327 136.103L220.35 134.711L220.327 136.103Z" fill="#181616"/>
<path d="M220.304 137.495L220.328 136.103L220.304 137.495Z" fill="#181616"/>
<path d="M220.281 138.886L220.305 137.495L220.281 138.886Z" fill="#181616"/>
<path d="M220.095 150.019H220.093L220.281 138.886L220.095 150.019Z" fill="#181616"/>
<path d="M220.328 136.103H220.307L220.329 134.711H220.351L220.328 136.103" fill="#181616"/>
<path d="M220.305 137.495H220.286L220.307 136.103H220.328L220.305 137.495Z" fill="#181616"/>
<path d="M220.281 138.886H220.264L220.285 137.495H220.304L220.281 138.886" fill="#181616"/>
<path d="M220.093 150.019H220.089L220.263 138.886H220.281L220.093 150.019Z" fill="#181616"/>
<path d="M38.4618 202.902L39.1182 201.51H39.1372L38.4618 202.902Z" fill="#191716"/>
<path d="M39.1196 202.902H38.4618L39.1372 201.51H39.776L39.1196 202.902" fill="#181616"/>
<path d="M39.1374 202.902H39.1198L39.7762 201.51H39.8142L39.1374 202.902" fill="#181616"/>
<path d="M39.7764 202.902H39.1377L39.8145 201.51H40.4329L39.7764 202.902Z" fill="#181616"/>
<path d="M39.8134 202.902H39.7767L40.4331 201.51H40.4902L39.8134 202.902Z" fill="#181616"/>
<path d="M40.4336 202.902H39.8125L40.4893 201.51H41.09L40.4336 202.902" fill="#181616"/>
<path d="M40.4894 202.902H40.4337L41.0901 201.51H41.1649L40.4894 202.902" fill="#181616"/>
<path d="M220.072 222.385H132.398V202.902H40.4894L41.1648 201.51H132.398V220.992H220.072V222.385Z" fill="#181616"/>
<path d="M220.329 134.711L220.351 133.32L220.329 134.711Z" fill="#201F1F"/>
<path d="M220.307 136.103L220.329 134.711L220.307 136.103Z" fill="#181616"/>
<path d="M220.286 137.495L220.307 136.103L220.286 137.495Z" fill="#181616"/>
<path d="M220.264 138.886L220.285 137.495L220.264 138.886Z" fill="#181616"/>
<path d="M220.09 150.019H220.087L220.264 138.886L220.09 150.019Z" fill="#181616"/>
<path d="M220.329 134.711L220.351 133.32L220.329 134.711Z" fill="#1A1817"/>
<path d="M220.307 136.103L220.329 134.711L220.307 136.103Z" fill="#181616"/>
<path d="M220.285 137.495H220.283L220.307 136.103L220.285 137.495Z" fill="#181616"/>
<path d="M220.264 138.886H220.263L220.284 137.495H220.286L220.264 138.886Z" fill="#181616"/>
<path d="M220.087 150.019H220.085L220.262 138.886H220.263L220.087 150.019Z" fill="#181616"/>
<path d="M220.329 134.711L220.351 133.32L220.329 134.711Z" fill="#191817"/>
<path d="M220.307 136.103H220.305L220.329 134.711L220.307 136.103Z" fill="#181616"/>
<path d="M220.283 137.495L220.305 136.103H220.307L220.283 137.495Z" fill="#181616"/>
<path d="M220.263 138.886L220.284 137.495L220.263 138.886Z" fill="#181616"/>
<path d="M220.085 150.019H220.082L220.262 138.886L220.085 150.019Z" fill="#181616"/>
<path d="M314.675 154.194H313.992L314.696 152.803H315.4L314.675 154.194" fill="#181616"/>
<path d="M313.953 155.586H313.288L313.992 154.194H314.676L313.953 155.586Z" fill="#181616"/>
<path d="M313.228 156.978H312.585L313.288 155.586H313.953L313.228 156.978Z" fill="#181616"/>
<path d="M290.072 201.51L312.585 156.978H313.228L290.072 201.51Z" fill="#181616"/>
<path d="M220.329 134.711L220.351 133.32L220.329 134.711Z" fill="#181716"/>
<path d="M220.305 136.103L220.329 134.711L220.305 136.103Z" fill="#181616"/>
<path d="M220.283 137.495L220.305 136.103L220.283 137.495Z" fill="#181616"/>
<path d="M220.262 138.886H220.26L220.284 137.495L220.262 138.886Z" fill="#181616"/>
<path d="M220.083 150.019H220.081L220.261 138.886H220.262L220.083 150.019Z" fill="#181616"/>
<path d="M220.329 134.711L220.351 133.32L220.329 134.711Z" fill="#181616"/>
<path d="M220.305 136.103L220.329 134.711L220.305 136.103Z" fill="#181616"/>
<path d="M220.284 137.495H220.282L220.306 136.103L220.284 137.495Z" fill="#181616"/>
<path d="M220.26 138.886L220.282 137.495H220.284L220.26 138.886Z" fill="#181616"/>
<path d="M220.081 150.019H220.078L220.26 138.886L220.081 150.019Z" fill="#181616"/>
<path d="M220.329 134.711H220.327L220.35 133.32L220.329 134.711Z" fill="#181616"/>
<path d="M220.305 136.103L220.327 134.711H220.329L220.305 136.103Z" fill="#181616"/>
<path d="M220.282 137.495L220.306 136.103L220.282 137.495Z" fill="#181616"/>
<path d="M220.261 138.886H220.26L220.283 137.495L220.261 138.886Z" fill="#181616"/>
<path d="M220.079 150.019H220.077L220.26 138.886H220.261L220.079 150.019Z" fill="#181616"/>
<path d="M220.327 134.711L220.35 133.32L220.327 134.711Z" fill="#181616"/>
<path d="M220.306 136.103H220.304L220.328 134.711L220.306 136.103Z" fill="#181616"/>
<path d="M220.283 137.495H220.281L220.305 136.103H220.306L220.283 137.495Z" fill="#181616"/>
<path d="M220.26 138.886H220.259L220.282 137.495H220.283L220.26 138.886Z" fill="#181616"/>
<path d="M220.077 150.019H220.071L220.258 138.886H220.259L220.077 150.019Z" fill="#181616"/>
<path d="M220.327 134.711L220.35 133.32L220.327 134.711Z" fill="#181616"/>
<path d="M220.304 136.103L220.328 134.711L220.304 136.103Z" fill="#181616"/>
<path d="M220.281 137.495L220.305 136.103L220.281 137.495Z" fill="#181616"/>
<path d="M220.259 138.886L220.282 137.495L220.259 138.886Z" fill="#181616"/>
<path d="M220.071 150.019L220.258 138.886L220.074 150.019" fill="#181616"/>
<path d="M314.696 152.803H314.676L315.4 151.411L314.696 152.803Z" fill="#181616"/>
<path d="M313.991 154.194H313.952L314.675 152.803H314.695L313.991 154.194" fill="#181616"/>
<path d="M313.288 155.586H313.228L313.953 154.194H313.992L313.288 155.586Z" fill="#181616"/>
<path d="M312.585 156.978H312.505L313.228 155.586H313.287L312.585 156.978Z" fill="#181616"/>
<path d="M290.071 201.51H220.071V200.119H290.071L312.504 156.978H312.585L290.071 201.51" fill="#181616"/>
<path d="M220.327 134.711L220.35 133.32L220.327 134.711Z" fill="#181616"/>
<path d="M220.304 136.103L220.328 134.711L220.304 136.103Z" fill="#181616"/>
<path d="M220.281 137.495L220.305 136.103L220.281 137.495Z" fill="#181616"/>
<path d="M220.258 138.886H220.257L220.281 137.495L220.258 138.886" fill="#181616"/>
<path d="M220.071 150.019V149.879L220.256 138.886H220.258L220.071 150.019" fill="#181616"/>
<path d="M220.328 134.711H220.307L220.329 133.32H220.351L220.328 134.711" fill="#181616"/>
<path d="M220.305 136.103H220.286L220.307 134.711H220.328L220.305 136.103Z" fill="#181616"/>
<path d="M220.281 137.495H220.264L220.285 136.103H220.304L220.281 137.495" fill="#181616"/>
<path d="M220.257 138.886H220.242L220.263 137.495H220.281L220.257 138.886Z" fill="#181616"/>
<path d="M220.071 149.88V149.741L220.241 138.886H220.256L220.071 149.88Z" fill="#181616"/>
<path d="M38.4618 201.51L39.1182 200.119H39.1372L38.4618 201.51Z" fill="#181616"/>
<path d="M39.1182 201.51H38.4618L39.1372 200.119H39.776L39.1182 201.51" fill="#181616"/>
<path d="M39.1378 201.51H39.1188L39.7766 200.119H39.8133L39.1378 201.51" fill="#181616"/>
<path d="M39.7764 201.51H39.1377L39.8131 200.119H40.4342L39.7764 201.51Z" fill="#181616"/>
<path d="M39.8148 201.51H39.7767L40.4345 200.119H40.4902L39.8148 201.51Z" fill="#181616"/>
<path d="M40.4329 201.51H39.8146L40.49 200.119H41.0907L40.4329 201.51" fill="#181616"/>
<path d="M40.4898 201.51H40.4327L41.0905 200.119H41.1653L40.4898 201.51" fill="#181616"/>
<path d="M41.0901 201.51H40.4894L41.1648 200.119H41.7478L41.0901 201.51Z" fill="#181616"/>
<path d="M41.1653 201.51H41.0906L41.7484 200.119H41.8421L41.1653 201.51Z" fill="#181616"/>
<path d="M220.072 220.992H132.398V201.51H41.1653L41.8421 200.119H132.398V219.602H220.072V220.992" fill="#181616"/>
<path d="M220.329 133.32L220.351 131.928L220.329 133.32Z" fill="#1A1918"/>
<path d="M220.307 134.711L220.329 133.32L220.307 134.711Z" fill="#181616"/>
<path d="M220.286 136.103L220.307 134.711L220.286 136.103Z" fill="#181616"/>
<path d="M220.264 137.495L220.285 136.103L220.264 137.495Z" fill="#181616"/>
<path d="M220.242 138.886H220.241L220.264 137.495L220.242 138.886Z" fill="#181616"/>
<path d="M220.071 149.741V149.602L220.24 138.886H220.241L220.071 149.741Z" fill="#181616"/>
<path d="M220.329 133.32L220.351 131.928L220.329 133.32Z" fill="#191716"/>
<path d="M220.307 134.711L220.329 133.32L220.307 134.711Z" fill="#181616"/>
<path d="M220.285 136.103H220.283L220.307 134.711L220.285 136.103Z" fill="#181616"/>
<path d="M220.264 137.495H220.263L220.284 136.103H220.286L220.264 137.495Z" fill="#181616"/>
<path d="M220.241 138.886L220.262 137.495H220.264L220.241 138.886Z" fill="#181616"/>
<path d="M220.071 149.602V149.462L220.24 138.886L220.071 149.602" fill="#181616"/>
<path d="M220.329 133.32L220.351 131.928L220.329 133.32Z" fill="#181616"/>
<path d="M220.307 134.711H220.305L220.329 133.32L220.307 134.711Z" fill="#181616"/>
<path d="M220.283 136.103L220.305 134.711H220.307L220.283 136.103Z" fill="#181616"/>
<path d="M220.263 137.495L220.284 136.103L220.263 137.495Z" fill="#181616"/>
<path d="M220.24 138.886H220.239L220.262 137.495L220.24 138.886Z" fill="#181616"/>
<path d="M220.071 149.462V149.324L220.239 138.886H220.24L220.071 149.462" fill="#181616"/>
<path d="M220.329 133.32L220.351 131.928L220.329 133.32Z" fill="#181616"/>
<path d="M314.675 152.803H313.992L314.696 151.411H315.4L314.675 152.803" fill="#181616"/>
<path d="M220.305 134.711L220.329 133.32L220.305 134.711Z" fill="#181616"/>
<path d="M313.952 154.194H313.289L313.992 152.803H314.675L313.952 154.194Z" fill="#181616"/>
<path d="M313.228 155.586H312.585L313.289 154.194H313.953L313.228 155.586Z" fill="#181616"/>
<path d="M312.505 156.978H311.882L312.586 155.586H313.228L312.505 156.978" fill="#181616"/>
<path d="M290.072 200.119L311.881 156.978H312.505L290.072 200.119Z" fill="#181616"/>
<path d="M220.283 136.103L220.305 134.711L220.283 136.103Z" fill="#181616"/>
<path d="M220.262 137.495H220.26L220.284 136.103L220.262 137.495Z" fill="#181616"/>
<path d="M220.239 138.886L220.26 137.495H220.262L220.239 138.886Z" fill="#181616"/>
<path d="M220.071 149.324V149.185L220.239 138.886L220.071 149.324Z" fill="#181616"/>
<path d="M220.329 133.32L220.351 131.928L220.329 133.32Z" fill="#181616"/>
<path d="M220.305 134.711L220.329 133.32L220.305 134.711Z" fill="#181616"/>
<path d="M220.284 136.103H220.282L220.306 134.711L220.284 136.103Z" fill="#181616"/>
<path d="M220.26 137.495L220.282 136.103H220.284L220.26 137.495Z" fill="#181616"/>
<path d="M220.239 138.886H220.238L220.261 137.495L220.239 138.886Z" fill="#181616"/>
<path d="M220.071 149.185V149.045L220.237 138.886H220.239L220.071 149.185Z" fill="#181616"/>
<path d="M220.329 133.32H220.327L220.35 131.928L220.329 133.32Z" fill="#181616"/>
<path d="M220.305 134.711L220.327 133.32H220.329L220.305 134.711Z" fill="#181616"/>
<path d="M220.282 136.103L220.306 134.711L220.282 136.103Z" fill="#181616"/>
<path d="M220.261 137.495H220.26L220.283 136.103L220.261 137.495Z" fill="#181616"/>
<path d="M220.238 138.886H220.237L220.26 137.495H220.261L220.238 138.886Z" fill="#181616"/>
<path d="M220.071 149.045V148.906L220.236 138.886H220.237L220.071 149.045" fill="#181616"/>
<path d="M220.072 219.602H132.398V200.119H41.8417H41.7479H41.1649H41.0902H40.4895H40.4337H39.8127H39.776H39.1372H39.1182H38.4618L62.1198 151.411H132.537V138.886V131.928H220.35L220.327 133.32L220.305 134.711L220.282 136.103L220.259 137.495L220.236 138.886L220.072 148.906V149.045V149.185V149.324V149.462V149.602V149.741V149.879V150.019H315.399L314.695 151.411L313.991 152.803L313.289 154.194L312.585 155.586L311.881 156.978L290.071 200.119H220.072V201.51V202.902V204.294V205.685V207.077V219.602" fill="#181616"/>
<path d="M140.47 137.912H212.974V157.673L288.82 157.535H289.237L288.959 157.952L272.537 191.073L272.397 191.212H272.259L212.835 191.073V211.669V211.948H212.558H176.235H140.331H140.052V211.669V191.212L64.3464 190.239H63.9292L64.2078 189.821L80.4903 157.812L80.6289 157.673H80.7689H140.191V138.19V137.912H140.47ZM221.742 129.562H131.147V148.768H61.1459L36.2362 200.676H131.147H131.424V200.953V220.158H176.374H221.464V200.676V200.397H221.742H290.906L317.626 148.211H221.881H221.602V147.932L221.742 129.562" fill="#F5F7F9"/>
<path d="M221.742 129.562H216.175L210.191 137.912H212.973V138.19V157.673H217.288L230.926 148.211H221.602L221.742 129.562" fill="url(#paint0_linear_0_1647)"/>
<path d="M272.534 191.212L290.903 200.397L317.623 148.211L289.234 157.535L281.997 172.147L272.534 191.212" fill="url(#paint1_linear_0_1647)"/>
<path d="M279.942 176.129V175.857H280.078V175.586H280.214V175.314H280.35V175.042H280.486V174.77H280.622V174.498H280.757V174.227H280.893V173.955H281.029V173.683H281.165V173.411H281.301V173.139H281.437V172.867H281.573V172.596H281.709V172.324H281.845V172.052H281.981V171.78H282.116V171.508H282.252V171.237H282.388V170.965H282.524V170.693H282.66V170.421H282.796V170.149H282.932V169.878H283.068V169.606H283.204V169.334H283.34V169.062H283.475V168.79H283.611V168.519H283.747V168.247H283.883V167.975H284.019V167.703H284.155V167.431H284.291V167.16H284.427V166.888H284.563V166.616H284.699V166.344H284.835V166.072H284.97V165.801H285.106V165.529H285.242V165.257H285.378V164.985H285.514V164.713H285.65V164.441H285.786V164.17H285.922V163.898H286.058V163.626H286.194V163.354H286.329V163.082H286.465V162.811H286.601V162.539H286.737V162.267H286.873V161.995H287.009V161.723H287.145V161.452H287.281V161.18H287.417V160.908H287.553V160.636H287.688V160.364H287.824V160.093H287.96V159.821H288.096V159.549H288.232V159.277H288.368V159.005H288.504V158.734H288.64V158.326H288.776V158.054H288.912V157.782H289.048V157.51H289.183V157.375H289.727V157.239H290.135V157.103H290.542V156.967H290.95V156.831H291.358V156.695H291.766V156.559H292.173V156.423H292.581V156.287H292.989V156.151H293.396V156.016H293.804V155.88H294.348V155.744H294.755V155.608H295.163V155.472H295.571V155.336H295.979V155.2H296.386V155.064H296.794V154.928H297.202V154.792H297.609V154.656H298.017V154.521H298.425V154.385H298.968V154.249H299.376V154.113H299.784V153.977H300.192V153.841H300.599V153.705H301.007V153.569H301.415V153.433H301.822V153.297H302.23V153.162H302.638V153.026H303.046V152.89H303.589V152.754H303.997V152.618H304.405V152.482H304.812V152.346H305.22V152.21H305.628V152.074H306.035V151.938H306.443V151.803H306.851V151.667H307.259V151.531H307.666V151.395H308.21V151.259H308.618V151.123H309.025V150.987H309.433V150.851H309.841V150.715H310.248V150.579H310.656V150.443H311.064V150.308H311.472V150.172H311.879V150.036H312.287V149.9H312.831V149.764H313.238V149.628H313.646V149.492H314.054V149.356H314.461V149.22H314.869V149.084H315.277V148.949H315.685V148.813H316.092V148.677H316.5V148.541H316.908V148.405H317.315V148.269H317.723V148.541H317.587V148.813H317.451V149.084H317.315V149.22H317.179V149.492H317.044V149.764H316.908V150.036H316.772V150.308H316.636V150.579H316.5V150.851H316.364V151.123H316.228V151.395H316.092V151.667H315.956V151.938H315.82V152.21H315.685V152.482H315.549V152.754H315.413V153.026H315.277V153.297H315.141V153.569H315.005V153.841H314.869V154.113H314.733V154.385H314.597V154.656H314.461V154.792H314.325V155.064H314.19V155.336H314.054V155.608H313.918V155.88H313.782V156.151H313.646V156.423H313.51V156.695H313.374V156.967H313.238V157.239H313.102V157.51H312.966V157.782H312.831V158.054H312.695V158.326H312.559V158.598H312.423V158.869H312.287V159.141H312.151V159.413H312.015V159.685H311.879V159.957H311.743V160.229H311.607V160.364H311.472V160.636H311.336V160.908H311.2V161.18H311.064V161.452H310.928V161.723H310.792V161.995H310.656V162.267H310.52V162.539H310.384V162.811H310.248V163.082H310.112V163.354H309.977V163.626H309.841V163.898H309.705V164.17H309.569V164.441H309.433V164.713H309.297V164.985H309.161V165.257H309.025V165.529H308.889V165.801H308.753V165.936H308.618V166.208H308.482V166.48H308.346V166.616H308.21V166.888H308.074V167.024H307.938V167.295H307.802V167.567H307.666V167.703H307.53V167.975H307.394V168.111H307.259V168.383H307.123V168.519H306.987V168.654H306.851V168.926H306.715V169.062H306.579V169.198H306.443V169.47H306.307V169.606H306.171V169.742H306.035V170.014H305.899V170.149H305.764V170.285H305.628V170.421H305.492V170.557H305.356V170.693H305.22V170.829H305.084V170.965H304.948V171.237H304.812V171.373H304.676V171.508H304.54V171.644H304.405V171.78H304.269V171.916H303.997V172.052H303.861V172.188H303.725V172.324H303.589V172.46H303.453V172.596H303.181V172.732H303.046V172.867H302.91V173.003H302.774V173.139H302.502V173.275H302.366V173.411H302.094V173.547H301.822V173.683H301.551V173.819H301.415V173.955H301.143V174.091H300.871V174.227H300.599V174.362H300.327V174.498H299.92V174.634H299.648V174.77H299.24V174.906H298.833V175.042H298.561V175.178H297.881V175.314H297.202V175.45H296.658V175.586H295.843V175.721H294.348V175.857H288.912V175.993H282.524V176.129" fill="url(#paint2_linear_0_1647)"/>
<path d="M131.149 129.562L140.193 137.912H212.976L221.744 129.562H131.149Z" fill="url(#paint3_linear_0_1647)"/>
<path d="M176.374 129.562V137.912H212.974L221.743 129.562H176.374Z" fill="url(#paint4_linear_0_1647)"/>
<path d="M131.423 200.676L140.19 191.212L63.6496 190.516L36.2352 200.676H131.423" fill="url(#paint5_linear_0_1647)"/>
<path d="M61.1449 148.768L36.2352 200.676L63.6496 190.516L80.6279 157.674L61.1449 148.768" fill="url(#paint6_linear_0_1647)"/>
<path d="M61.1434 148.768L50.8461 170.198C51.5419 172.286 52.6549 173.677 55.7168 173.677C59.4732 173.817 63.5095 173.817 67.2672 173.956C69.3547 173.956 71.0249 173.677 72.6938 172.982L80.4879 157.535L61.1434 148.768Z" fill="url(#paint7_linear_0_1647)"/>
<path d="M131.146 129.562V148.768H61.1455L36.2358 200.676H131.146H131.424V200.953V220.158H176.374H221.463V200.676V200.397H221.742H290.906L317.626 148.211H221.881H221.602V147.932L221.742 129.562H131.146ZM130.866 129.005H222.299V129.285L222.159 147.653H318.183H318.6L318.321 148.071L291.324 200.815L291.184 200.953H291.046H222.021V220.436V220.715H221.742H176.374H131.146H130.866V220.436V201.232H35.8186H35.4L35.5386 200.815L60.7283 148.349L60.8682 148.211H61.0069H130.589V129.285V129.005H130.866" fill="#949DA7"/>
<path d="M140.097 212.007V191.214H129.769V191.078H119.168V190.942H108.568V190.807H98.1035V190.671H87.503V190.535H76.9026V190.399H66.3022V190.263H63.9918V189.991H64.1277V189.583H64.2636V189.312H64.3995V189.04H64.5354V188.768H64.6713V188.632H64.8072V188.36H64.9431V188.089H65.079V187.817H65.2149V187.545H65.3509V187.273H65.4868V187.001H65.6227V186.729H65.7586V186.458H65.8945V186.186H66.0304V185.914H66.1663V185.642H66.3022V185.37H66.4381V185.099H66.574V184.827H66.7099V184.555H66.8458V184.283H66.9817V184.011H67.1176V183.74H67.2535V183.468H67.3894V183.196H67.5253V182.924H67.6612V182.652H67.7971V182.381H67.933V182.109H68.0689V181.837H68.2048V181.565H68.3407V181.293H68.4766V181.022H68.6125V180.886H68.7484V180.614H68.8843V180.342H69.0202V180.07H69.1561V179.798H69.292V179.527H69.4279V179.255H69.5638V178.983H69.6997V178.711H69.8356V178.439H69.9716V178.168H70.1075V177.896H70.2434V177.624H70.3793V177.352H70.5152V177.08H70.6511V176.809H70.787V176.537H70.9229V176.265H71.0588V175.993H71.1947V175.721H71.3306V175.45H71.4665V175.178H71.6024V174.906H71.7383V174.634H71.8742V174.362H72.0101V174.091H72.146V173.819H72.2819V173.547H72.4178V173.275H72.5537V173.139H72.6896V172.867H72.8255V172.596H72.9614V172.324H73.0973V172.052H73.2332V171.78H73.3691V171.508H73.505V171.237H73.6409V170.965H73.7768V170.693H73.9127V170.421H74.0486V170.149H74.1845V169.878H74.3204V169.606H74.4563V169.334H74.5923V169.062H74.7282V168.79H74.8641V168.518H75V168.247H75.1359V167.975H75.2718V167.703H75.4077V167.431H75.5436V167.159H75.6795V166.888H75.8154V166.616H75.9513V166.344H76.0872V166.072H76.2231V165.8H76.359V165.529H76.4949V165.257H76.6308V165.121H76.7667V164.849H76.9026V164.577H77.0385V164.306H77.1744V164.034H77.3103V163.762H77.4462V163.49H77.5821V163.218H77.718V162.946H77.8539V162.675H77.9898V162.403H78.1257V162.131H78.2616V161.859H78.3975V161.587H78.5334V161.316H78.6693V161.044H78.8052V160.772H78.9411V160.5H79.077V160.228H79.213V159.957H79.3489V159.685H79.4848V159.413H79.6207V159.141H79.7566V158.869H79.8925V158.598H80.0284V158.326H80.1643V158.054H80.3002V157.782H80.4361V157.646H140.097V137.804H213.077V157.646H227.755V157.51H289.319V157.782H289.183V158.054H289.047V158.326H288.911V158.598H288.775V158.869H288.639V159.277H288.504V159.549H288.368V159.821H288.232V160.093H288.096V160.364H287.96V160.636H287.824V160.908H287.688V161.18H287.552V161.452H287.416V161.723H287.28V161.995H287.144V162.267H287.009V162.539H286.873V162.811H286.737V163.082H286.601V163.354H286.465V163.626H286.329V163.898H286.193V164.17H286.057V164.441H285.921V164.713H285.785V164.985H285.65V165.257H285.514V165.529H285.378V165.8H285.242V166.072H285.106V166.344H284.97V166.616H284.834V166.888H284.698V167.159H284.562V167.431H284.426V167.703H284.291V167.975H284.155V168.247H284.019V168.518H283.883V168.79H283.747V169.062H283.611V169.334H283.475V169.606H283.339V169.878H283.203V170.149H283.067V170.421H282.931V170.693H282.796V170.965H282.66V171.237H282.524V171.508H282.388V171.78H282.252V172.052H282.116V172.324H281.98V172.596H281.844V172.867H281.708V173.139H281.572V173.411H281.437V173.683H281.301V173.955H281.165V174.226H281.029V174.498H280.893V174.77H280.757V175.042H280.621V175.45H280.485V175.721H280.349V175.993H280.213V176.265H280.078V176.537H279.942V176.809H279.806V177.08H279.67V177.352H279.534V177.624H279.398V177.896H279.262V178.168H279.126V178.439H278.99V178.711H278.854V178.983H278.718V179.255H278.583V179.527H278.447V179.798H278.311V180.07H278.175V180.342H278.039V180.614H277.903V180.886H277.767V181.157H277.631V181.429H277.495V181.701H277.359V181.973H277.224V182.245H277.088V182.517H276.952V182.788H276.816V183.06H276.68V183.332H276.544V183.604H276.408V183.876H276.272V184.147H276.136V184.419H276V184.691H275.865V184.963H275.729V185.235H275.593V185.506H275.457V185.778H275.321V186.05H275.185V186.322H275.049V186.594H274.913V186.865H274.777V187.137H274.641V187.409H274.506V187.681H274.37V187.953H274.234V188.224H274.098V188.496H273.962V188.768H273.826V189.04H273.69V189.312H273.554V189.583H273.418V189.855H273.282V190.127H273.146V190.399H273.011V190.671H272.875V190.942H272.739V191.214H243.927V191.078H214.98V190.942H213.077V212.007" fill="url(#paint8_linear_0_1647)"/>
<path d="M176.251 212.007V146.502H176.115V137.804H213.081V157.646H227.758V157.51H289.323V157.782H289.187V158.054H289.051V158.326H288.915V158.598H288.779V158.869H288.643V159.277H288.507V159.549H288.371V159.821H288.235V160.093H288.099V160.364H287.963V160.636H287.828V160.908H287.692V161.18H287.556V161.452H287.42V161.723H287.284V161.995H287.148V162.267H287.012V162.539H286.876V162.811H286.74V163.082H286.604V163.354H286.469V163.626H286.333V163.898H286.197V164.17H286.061V164.441H285.925V164.713H285.789V164.985H285.653V165.257H285.517V165.529H285.381V165.8H285.245V166.072H285.11V166.344H284.974V166.616H284.838V166.888H284.702V167.159H284.566V167.431H284.43V167.703H284.294V167.975H284.158V168.247H284.022V168.518H283.886V168.79H283.75V169.062H283.615V169.334H283.479V169.606H283.343V169.878H283.207V170.149H283.071V170.421H282.935V170.693H282.799V170.965H282.663V171.237H282.527V171.508H282.391V171.78H282.256V172.052H282.12V172.324H281.984V172.596H281.848V172.867H281.712V173.139H281.576V173.411H281.44V173.683H281.304V173.955H281.168V174.226H281.032V174.498H280.897V174.77H280.761V175.042H280.625V175.45H280.489V175.721H280.353V175.993H280.217V176.265H280.081V176.537H279.945V176.809H279.809V177.08H279.673V177.352H279.537V177.624H279.402V177.896H279.266V178.168H279.13V178.439H278.994V178.711H278.858V178.983H278.722V179.255H278.586V179.527H278.45V179.798H278.314V180.07H278.178V180.342H278.043V180.614H277.907V180.886H277.771V181.157H277.635V181.429H277.499V181.701H277.363V181.973H277.227V182.245H277.091V182.517H276.955V182.788H276.819V183.06H276.684V183.332H276.548V183.604H276.412V183.876H276.276V184.147H276.14V184.419H276.004V184.691H275.868V184.963H275.732V185.235H275.596V185.506H275.46V185.778H275.325V186.05H275.189V186.322H275.053V186.594H274.917V186.865H274.781V187.137H274.645V187.409H274.509V187.681H274.373V187.953H274.237V188.224H274.101V188.496H273.965V188.768H273.83V189.04H273.694V189.312H273.558V189.583H273.422V189.855H273.286V190.127H273.15V190.399H273.014V190.671H272.878V190.942H272.742V191.214H243.931V191.078H214.984V190.942H213.081V212.007" fill="url(#paint9_linear_0_1647)"/>
<path d="M212.418 138.469H140.748V158.229H80.907L64.6245 189.96L140.469 190.516H140.748V190.794V211.252H176.373H212.418V190.656V190.377H212.695L272.258 190.516L288.401 157.952L212.695 158.091H212.418V157.812V138.469ZM140.469 137.912H212.973V157.673L288.819 157.535H289.237L288.958 157.952L272.537 191.073L272.397 191.212H272.258L212.835 191.073V211.669V211.948H212.558H176.235H140.331H140.052V211.669V191.212L64.0686 190.656H63.65L63.9286 190.238L80.4898 157.952L80.6284 157.812H80.7684H140.191V138.329V138.052H140.469V137.912" fill="#949DA7"/>
<path d="M261.401 159.344H263.627V160.457H261.401V159.344Z" fill="#E7BC5B"/>
<path d="M265.159 159.344H267.385V160.457H265.159V159.344Z" fill="#E7BC5B"/>
<path d="M269.056 159.344H271.282V160.457H269.056V159.344Z" fill="#E7BC5B"/>
<path d="M272.813 159.344H275.04V160.457H272.813V159.344Z" fill="#E7BC5B"/>
<path d="M276.57 159.344H278.798V160.457H276.57V159.344Z" fill="#E7BC5B"/>
<path d="M280.467 159.344H282.693V160.457H280.467V159.344Z" fill="#E7BC5B"/>
<path d="M284.224 159.344H286.451V160.457H284.224V159.344Z" fill="#E7BC5B"/>
<path d="M261.401 163.24H263.627V164.353H261.401V163.24Z" fill="#E7BC5B"/>
<path d="M265.159 163.24H267.385V164.353H265.159V163.24Z" fill="#E7BC5B"/>
<path d="M269.056 163.24H271.282V164.353H269.056V163.24Z" fill="#E7BC5B"/>
<path d="M272.813 163.24H275.04V164.353H272.813V163.24Z" fill="#E7BC5B"/>
<path d="M276.57 163.24H278.798V164.353H276.57V163.24Z" fill="#E7BC5B"/>
<path d="M280.467 163.24H282.693V164.353H280.467V163.24Z" fill="#E7BC5B"/>
<path d="M284.224 163.24H286.451V164.353H284.224V163.24Z" fill="#E7BC5B"/>
<path d="M261.401 166.998H263.627V168.111H261.401V166.998Z" fill="#E7BC5B"/>
<path d="M265.159 166.998H267.385V168.111H265.159V166.998Z" fill="#E7BC5B"/>
<path d="M269.056 166.998H271.282V168.111H269.056V166.998Z" fill="#E7BC5B"/>
<path d="M272.813 166.998H275.04V168.111H272.813V166.998Z" fill="#E7BC5B"/>
<path d="M276.57 166.998H278.798V168.111H276.57V166.998Z" fill="#E7BC5B"/>
<path d="M280.467 166.998H282.693V168.111H280.467V166.998Z" fill="#E7BC5B"/>
<path d="M284.224 166.998H286.451V168.111H284.224V166.998Z" fill="#E7BC5B"/>
<path d="M261.401 170.755H263.627V171.868H261.401V170.755Z" fill="#E7BC5B"/>
<path d="M265.159 170.755H267.385V171.868H265.159V170.755Z" fill="#E7BC5B"/>
<path d="M269.056 170.755H271.282V171.868H269.056V170.755Z" fill="#E7BC5B"/>
<path d="M272.813 170.755H275.04V171.868H272.813V170.755Z" fill="#E7BC5B"/>
<path d="M276.57 170.755H278.798V171.868H276.57V170.755Z" fill="#E7BC5B"/>
<path d="M280.467 170.755H282.693V171.868H280.467V170.755Z" fill="#E7BC5B"/>
<path d="M284.224 170.755H286.451V171.868H284.224V170.755Z" fill="#E7BC5B"/>
<path d="M261.401 174.652H263.627V175.765H261.401V174.652Z" fill="#E7BC5B"/>
<path d="M265.159 174.652H267.385V175.765H265.159V174.652Z" fill="#E7BC5B"/>
<path d="M269.056 174.652H271.282V175.765H269.056V174.652Z" fill="#E7BC5B"/>
<path d="M272.813 174.652H275.04V175.765H272.813V174.652Z" fill="#E7BC5B"/>
<path d="M276.57 174.652H278.798V175.765H276.57V174.652Z" fill="#E7BC5B"/>
<path d="M280.467 174.652H282.693V175.765H280.467V174.652Z" fill="#E7BC5B"/>
<path d="M284.224 174.652H286.451V175.765H284.224V174.652Z" fill="#E7BC5B"/>
<path d="M261.401 178.41H263.627V179.523H261.401V178.41Z" fill="#E7BC5B"/>
<path d="M265.159 178.41H267.385V179.523H265.159V178.41Z" fill="#E7BC5B"/>
<path d="M269.056 178.41H271.282V179.523H269.056V178.41Z" fill="#E7BC5B"/>
<path d="M272.813 178.41H275.04V179.523H272.813V178.41Z" fill="#E7BC5B"/>
<path d="M276.57 178.41H278.798V179.523H276.57V178.41Z" fill="#E7BC5B"/>
<path d="M280.467 178.41H282.693V179.523H280.467V178.41Z" fill="#E7BC5B"/>
<path d="M284.224 178.41H286.451V179.523H284.224V178.41Z" fill="#E7BC5B"/>
<path d="M261.401 182.306H263.627V183.419H261.401V182.306Z" fill="#E7BC5B"/>
<path d="M265.159 182.306H267.385V183.419H265.159V182.306Z" fill="#E7BC5B"/>
<path d="M269.056 182.306H271.282V183.419H269.056V182.306Z" fill="#E7BC5B"/>
<path d="M272.813 182.306H275.04V183.419H272.813V182.306Z" fill="#E7BC5B"/>
<path d="M276.57 182.306H278.798V183.419H276.57V182.306Z" fill="#E7BC5B"/>
<path d="M280.467 182.306H282.693V183.419H280.467V182.306Z" fill="#E7BC5B"/>
<path d="M284.224 182.306H286.451V183.419H284.224V182.306Z" fill="#E7BC5B"/>
<path d="M261.401 186.062H263.627V187.177H261.401V186.062Z" fill="#E7BC5B"/>
<path d="M265.159 186.062H267.385V187.177H265.159V186.062Z" fill="#E7BC5B"/>
<path d="M269.056 186.062H271.282V187.177H269.056V186.062Z" fill="#E7BC5B"/>
<path d="M272.813 186.062H275.04V187.177H272.813V186.062Z" fill="#E7BC5B"/>
<path d="M276.57 186.062H278.798V187.177H276.57V186.062Z" fill="#E7BC5B"/>
<path d="M280.467 186.062H282.693V187.177H280.467V186.062Z" fill="#E7BC5B"/>
<path d="M284.224 186.062H286.451V187.177H284.224V186.062Z" fill="#E7BC5B"/>
<path d="M261.401 189.821H263.627V190.934H261.401V189.821Z" fill="#E7BC5B"/>
<path d="M265.159 189.821H267.385V190.934H265.159V189.821Z" fill="#E7BC5B"/>
<path d="M269.056 189.821H271.282V190.934H269.056V189.821Z" fill="#E7BC5B"/>
<path d="M272.813 189.821H275.04V190.934H272.813V189.821Z" fill="#E7BC5B"/>
<path d="M276.57 189.821H278.798V190.934H276.57V189.821Z" fill="#E7BC5B"/>
<path d="M280.467 189.821H282.693V190.934H280.467V189.821Z" fill="#E7BC5B"/>
<path d="M284.224 189.821H286.451V190.934H284.224V189.821Z" fill="#E7BC5B"/>
<path d="M227.167 140.278H227.723V141.391H227.167V140.278Z" fill="#E7BC5B"/>
<path d="M227.167 144.174H227.723V145.287H227.167V144.174Z" fill="#E7BC5B"/>
<path d="M227.167 147.932H227.723V149.045H227.167V147.932Z" fill="#E7BC5B"/>
<path d="M227.167 151.69H227.723V152.803H227.167V151.69Z" fill="#E7BC5B"/>
<path d="M227.167 155.586H227.723V156.699H227.167V155.586Z" fill="#E7BC5B"/>
<path d="M177.624 140.278H179.85V141.391H177.624V140.278Z" fill="#E7BC5B"/>
<path d="M181.521 140.278H183.748V141.391H181.521V140.278Z" fill="#E7BC5B"/>
<path d="M185.278 140.278H187.505V141.391H185.278V140.278Z" fill="#E7BC5B"/>
<path d="M189.036 140.278H191.262V141.391H189.036V140.278Z" fill="#E7BC5B"/>
<path d="M192.932 140.278H195.158V141.391H192.932V140.278Z" fill="#E7BC5B"/>
<path d="M196.69 140.278H198.917V141.391H196.69V140.278Z" fill="#E7BC5B"/>
<path d="M200.448 140.278H202.674V141.391H200.448V140.278Z" fill="#E7BC5B"/>
<path d="M204.344 140.278H206.571V141.391H204.344V140.278Z" fill="#E7BC5B"/>
<path d="M208.102 140.278H210.328V141.391H208.102V140.278Z" fill="#E7BC5B"/>
<path d="M211.858 140.278H214.086V141.391H211.858V140.278Z" fill="#E7BC5B"/>
<path d="M215.754 140.278H217.982V141.391H215.754V140.278Z" fill="#E7BC5B"/>
<path d="M219.512 140.278H221.739V141.391H219.512V140.278Z" fill="#E7BC5B"/>
<path d="M223.271 140.278H225.496V141.391H223.271V140.278Z" fill="#E7BC5B"/>
<path d="M177.624 144.174H179.85V145.287H177.624V144.174Z" fill="#E7BC5B"/>
<path d="M181.521 144.174H183.748V145.287H181.521V144.174Z" fill="#E7BC5B"/>
<path d="M185.278 144.174H187.505V145.287H185.278V144.174Z" fill="#E7BC5B"/>
<path d="M189.036 144.174H191.262V145.287H189.036V144.174Z" fill="#E7BC5B"/>
<path d="M192.932 144.174H195.158V145.287H192.932V144.174Z" fill="#E7BC5B"/>
<path d="M196.69 144.174H198.917V145.287H196.69V144.174Z" fill="#E7BC5B"/>
<path d="M200.448 144.174H202.674V145.287H200.448V144.174Z" fill="#E7BC5B"/>
<path d="M204.344 144.174H206.571V145.287H204.344V144.174Z" fill="#E7BC5B"/>
<path d="M208.102 144.174H210.328V145.287H208.102V144.174Z" fill="#E7BC5B"/>
<path d="M211.858 144.174H214.086V145.287H211.858V144.174Z" fill="#E7BC5B"/>
<path d="M215.754 144.174H217.982V145.287H215.754V144.174Z" fill="#E7BC5B"/>
<path d="M219.512 144.174H221.739V145.287H219.512V144.174Z" fill="#E7BC5B"/>
<path d="M223.271 144.174H225.496V145.287H223.271V144.174Z" fill="#E7BC5B"/>
<path d="M177.624 147.932H179.85V149.045H177.624V147.932Z" fill="#E7BC5B"/>
<path d="M181.521 147.932H183.748V149.045H181.521V147.932Z" fill="#E7BC5B"/>
<path d="M185.278 147.932H187.505V149.045H185.278V147.932Z" fill="#E7BC5B"/>
<path d="M189.036 147.932H191.262V149.045H189.036V147.932Z" fill="#E7BC5B"/>
<path d="M192.932 147.932H195.158V149.045H192.932V147.932Z" fill="#E7BC5B"/>
<path d="M196.69 147.932H198.917V149.045H196.69V147.932Z" fill="#E7BC5B"/>
<path d="M200.448 147.932H202.674V149.045H200.448V147.932Z" fill="#E7BC5B"/>
<path d="M204.344 147.932H206.571V149.045H204.344V147.932Z" fill="#E7BC5B"/>
<path d="M208.102 147.932H210.328V149.045H208.102V147.932Z" fill="#E7BC5B"/>
<path d="M211.858 147.932H214.086V149.045H211.858V147.932Z" fill="#E7BC5B"/>
<path d="M215.754 147.932H217.982V149.045H215.754V147.932Z" fill="#E7BC5B"/>
<path d="M219.512 147.932H221.739V149.045H219.512V147.932Z" fill="#E7BC5B"/>
<path d="M223.271 147.932H225.496V149.045H223.271V147.932Z" fill="#E7BC5B"/>
<path d="M177.624 151.69H179.85V152.803H177.624V151.69Z" fill="#E7BC5B"/>
<path d="M181.521 151.69H183.748V152.803H181.521V151.69Z" fill="#E7BC5B"/>
<path d="M185.278 151.69H187.505V152.803H185.278V151.69Z" fill="#E7BC5B"/>
<path d="M189.036 151.69H191.262V152.803H189.036V151.69Z" fill="#E7BC5B"/>
<path d="M192.932 151.69H195.158V152.803H192.932V151.69Z" fill="#E7BC5B"/>
<path d="M196.69 151.69H198.917V152.803H196.69V151.69Z" fill="#E7BC5B"/>
<path d="M200.448 151.69H202.674V152.803H200.448V151.69Z" fill="#E7BC5B"/>
<path d="M204.344 151.69H206.571V152.803H204.344V151.69Z" fill="#E7BC5B"/>
<path d="M208.102 151.69H210.328V152.803H208.102V151.69Z" fill="#E7BC5B"/>
<path d="M211.858 151.69H214.086V152.803H211.858V151.69Z" fill="#E7BC5B"/>
<path d="M215.754 151.69H217.982V152.803H215.754V151.69Z" fill="#E7BC5B"/>
<path d="M219.512 151.69H221.739V152.803H219.512V151.69Z" fill="#E7BC5B"/>
<path d="M223.271 151.69H225.496V152.803H223.271V151.69Z" fill="#E7BC5B"/>
<path d="M177.624 155.586H179.85V156.699H177.624V155.586Z" fill="#E7BC5B"/>
<path d="M181.521 155.586H183.748V156.699H181.521V155.586Z" fill="#E7BC5B"/>
<path d="M185.278 155.586H187.505V156.699H185.278V155.586Z" fill="#E7BC5B"/>
<path d="M189.036 155.586H191.262V156.699H189.036V155.586Z" fill="#E7BC5B"/>
<path d="M192.932 155.586H195.158V156.699H192.932V155.586Z" fill="#E7BC5B"/>
<path d="M196.69 155.586H198.917V156.699H196.69V155.586Z" fill="#E7BC5B"/>
<path d="M200.448 155.586H202.674V156.699H200.448V155.586Z" fill="#E7BC5B"/>
<path d="M204.344 155.586H206.571V156.699H204.344V155.586Z" fill="#E7BC5B"/>
<path d="M208.102 155.586H210.328V156.699H208.102V155.586Z" fill="#E7BC5B"/>
<path d="M211.858 155.586H214.086V156.699H211.858V155.586Z" fill="#E7BC5B"/>
<path d="M215.754 155.586H217.982V156.699H215.754V155.586Z" fill="#E7BC5B"/>
<path d="M219.512 155.586H221.739V156.699H219.512V155.586Z" fill="#E7BC5B"/>
<path d="M223.271 155.586H225.496V156.699H223.271V155.586Z" fill="#E7BC5B"/>
<path d="M177.624 159.344H179.85V160.457H177.624V159.344Z" fill="#E7BC5B"/>
<path d="M181.521 159.344H183.748V160.457H181.521V159.344Z" fill="#E7BC5B"/>
<path d="M185.278 159.344H187.505V160.457H185.278V159.344Z" fill="#E7BC5B"/>
<path d="M189.036 159.344H191.262V160.457H189.036V159.344Z" fill="#E7BC5B"/>
<path d="M192.932 159.344H195.158V160.457H192.932V159.344Z" fill="#E7BC5B"/>
<path d="M196.69 159.344H198.917V160.457H196.69V159.344Z" fill="#E7BC5B"/>
<path d="M200.448 159.344H202.674V160.457H200.448V159.344Z" fill="#E7BC5B"/>
<path d="M204.344 159.344H206.571V160.457H204.344V159.344Z" fill="#E7BC5B"/>
<path d="M208.102 159.344H210.328V160.457H208.102V159.344Z" fill="#E7BC5B"/>
<path d="M211.858 159.344H214.086V160.457H211.858V159.344Z" fill="#E7BC5B"/>
<path d="M215.754 159.344H217.982V160.457H215.754V159.344Z" fill="#E7BC5B"/>
<path d="M219.512 159.344H221.739V160.457H219.512V159.344Z" fill="#E7BC5B"/>
<path d="M223.271 159.344H225.496V160.457H223.271V159.344Z" fill="#E7BC5B"/>
<path d="M227.167 159.344H229.392V160.457H227.167V159.344Z" fill="#E7BC5B"/>
<path d="M230.924 159.344H233.15V160.457H230.924V159.344Z" fill="#E7BC5B"/>
<path d="M234.822 159.344H237.046V160.457H234.822V159.344Z" fill="#E7BC5B"/>
<path d="M238.578 159.344H240.806V160.457H238.578V159.344Z" fill="#E7BC5B"/>
<path d="M242.336 159.344H244.563V160.457H242.336V159.344Z" fill="#E7BC5B"/>
<path d="M246.232 159.344H248.459V160.457H246.232V159.344Z" fill="#E7BC5B"/>
<path d="M249.989 159.344H252.215V160.457H249.989V159.344Z" fill="#E7BC5B"/>
<path d="M253.746 159.344H255.973V160.457H253.746V159.344Z" fill="#E7BC5B"/>
<path d="M257.644 159.344H259.87V160.457H257.644V159.344Z" fill="#E7BC5B"/>
<path d="M177.624 163.24H179.85V164.353H177.624V163.24Z" fill="#E7BC5B"/>
<path d="M181.521 163.24H183.748V164.353H181.521V163.24Z" fill="#E7BC5B"/>
<path d="M185.278 163.24H187.505V164.353H185.278V163.24Z" fill="#E7BC5B"/>
<path d="M189.036 163.24H191.262V164.353H189.036V163.24Z" fill="#E7BC5B"/>
<path d="M192.932 163.24H195.158V164.353H192.932V163.24Z" fill="#E7BC5B"/>
<path d="M196.69 163.24H198.917V164.353H196.69V163.24Z" fill="#E7BC5B"/>
<path d="M200.448 163.24H202.674V164.353H200.448V163.24Z" fill="#E7BC5B"/>
<path d="M204.344 163.24H206.571V164.353H204.344V163.24Z" fill="#E7BC5B"/>
<path d="M208.102 163.24H210.328V164.353H208.102V163.24Z" fill="#E7BC5B"/>
<path d="M211.858 163.24H214.086V164.353H211.858V163.24Z" fill="#E7BC5B"/>
<path d="M215.754 163.24H217.982V164.353H215.754V163.24Z" fill="#E7BC5B"/>
<path d="M219.512 163.24H221.739V164.353H219.512V163.24Z" fill="#E7BC5B"/>
<path d="M223.271 163.24H225.496V164.353H223.271V163.24Z" fill="#E7BC5B"/>
<path d="M227.167 163.24H229.392V164.353H227.167V163.24Z" fill="#E7BC5B"/>
<path d="M230.924 163.24H233.15V164.353H230.924V163.24Z" fill="#E7BC5B"/>
<path d="M234.822 163.24H237.046V164.353H234.822V163.24Z" fill="#E7BC5B"/>
<path d="M238.578 163.24H240.806V164.353H238.578V163.24Z" fill="#E7BC5B"/>
<path d="M242.336 163.24H244.563V164.353H242.336V163.24Z" fill="#E7BC5B"/>
<path d="M246.232 163.24H248.459V164.353H246.232V163.24Z" fill="#E7BC5B"/>
<path d="M249.989 163.24H252.215V164.353H249.989V163.24Z" fill="#E7BC5B"/>
<path d="M253.746 163.24H255.973V164.353H253.746V163.24Z" fill="#E7BC5B"/>
<path d="M257.644 163.24H259.87V164.353H257.644V163.24Z" fill="#E7BC5B"/>
<path d="M177.624 166.998H179.85V168.111H177.624V166.998Z" fill="#E7BC5B"/>
<path d="M181.521 166.998H183.748V168.111H181.521V166.998Z" fill="#E7BC5B"/>
<path d="M185.278 166.998H187.505V168.111H185.278V166.998Z" fill="#E7BC5B"/>
<path d="M189.036 166.998H191.262V168.111H189.036V166.998Z" fill="#E7BC5B"/>
<path d="M192.932 166.998H195.158V168.111H192.932V166.998Z" fill="#E7BC5B"/>
<path d="M196.69 166.998H198.917V168.111H196.69V166.998Z" fill="#E7BC5B"/>
<path d="M200.448 166.998H202.674V168.111H200.448V166.998Z" fill="#E7BC5B"/>
<path d="M204.344 166.998H206.571V168.111H204.344V166.998Z" fill="#E7BC5B"/>
<path d="M208.102 166.998H210.328V168.111H208.102V166.998Z" fill="#E7BC5B"/>
<path d="M211.858 166.998H214.086V168.111H211.858V166.998Z" fill="#E7BC5B"/>
<path d="M215.754 166.998H217.982V168.111H215.754V166.998Z" fill="#E7BC5B"/>
<path d="M219.512 166.998H221.739V168.111H219.512V166.998Z" fill="#E7BC5B"/>
<path d="M223.271 166.998H225.496V168.111H223.271V166.998Z" fill="#E7BC5B"/>
<path d="M227.167 166.998H229.392V168.111H227.167V166.998Z" fill="#E7BC5B"/>
<path d="M230.924 166.998H233.15V168.111H230.924V166.998Z" fill="#E7BC5B"/>
<path d="M234.822 166.998H237.046V168.111H234.822V166.998Z" fill="#E7BC5B"/>
<path d="M238.578 166.998H240.806V168.111H238.578V166.998Z" fill="#E7BC5B"/>
<path d="M242.336 166.998H244.563V168.111H242.336V166.998Z" fill="#E7BC5B"/>
<path d="M246.232 166.998H248.459V168.111H246.232V166.998Z" fill="#E7BC5B"/>
<path d="M249.989 166.998H252.215V168.111H249.989V166.998Z" fill="#E7BC5B"/>
<path d="M253.746 166.998H255.973V168.111H253.746V166.998Z" fill="#E7BC5B"/>
<path d="M257.644 166.998H259.87V168.111H257.644V166.998Z" fill="#E7BC5B"/>
<path d="M177.624 170.755H179.85V171.868H177.624V170.755Z" fill="#E7BC5B"/>
<path d="M181.521 170.755H183.748V171.868H181.521V170.755Z" fill="#E7BC5B"/>
<path d="M185.278 170.755H187.505V171.868H185.278V170.755Z" fill="#E7BC5B"/>
<path d="M189.036 170.755H191.262V171.868H189.036V170.755Z" fill="#E7BC5B"/>
<path d="M192.932 170.755H195.158V171.868H192.932V170.755Z" fill="#E7BC5B"/>
<path d="M196.69 170.755H198.917V171.868H196.69V170.755Z" fill="#E7BC5B"/>
<path d="M200.448 170.755H202.674V171.868H200.448V170.755Z" fill="#E7BC5B"/>
<path d="M204.344 170.755H206.571V171.868H204.344V170.755Z" fill="#E7BC5B"/>
<path d="M208.102 170.755H210.328V171.868H208.102V170.755Z" fill="#E7BC5B"/>
<path d="M211.858 170.755H214.086V171.868H211.858V170.755Z" fill="#E7BC5B"/>
<path d="M215.754 170.755H217.982V171.868H215.754V170.755Z" fill="#E7BC5B"/>
<path d="M219.512 170.755H221.739V171.868H219.512V170.755Z" fill="#E7BC5B"/>
<path d="M223.271 170.755H225.496V171.868H223.271V170.755Z" fill="#E7BC5B"/>
<path d="M227.167 170.755H229.392V171.868H227.167V170.755Z" fill="#E7BC5B"/>
<path d="M230.924 170.755H233.15V171.868H230.924V170.755Z" fill="#E7BC5B"/>
<path d="M234.822 170.755H237.046V171.868H234.822V170.755Z" fill="#E7BC5B"/>
<path d="M238.578 170.755H240.806V171.868H238.578V170.755Z" fill="#E7BC5B"/>
<path d="M242.336 170.755H244.563V171.868H242.336V170.755Z" fill="#E7BC5B"/>
<path d="M246.232 170.755H248.459V171.868H246.232V170.755Z" fill="#E7BC5B"/>
<path d="M249.989 170.755H252.215V171.868H249.989V170.755Z" fill="#E7BC5B"/>
<path d="M253.746 170.755H255.973V171.868H253.746V170.755Z" fill="#E7BC5B"/>
<path d="M257.644 170.755H259.87V171.868H257.644V170.755Z" fill="#E7BC5B"/>
<path d="M177.624 174.652H179.85V175.765H177.624V174.652Z" fill="#E7BC5B"/>
<path d="M181.521 174.652H183.748V175.765H181.521V174.652Z" fill="#E7BC5B"/>
<path d="M185.278 174.652H187.505V175.765H185.278V174.652Z" fill="#E7BC5B"/>
<path d="M189.036 174.652H191.262V175.765H189.036V174.652Z" fill="#E7BC5B"/>
<path d="M192.932 174.652H195.158V175.765H192.932V174.652Z" fill="#E7BC5B"/>
<path d="M196.69 174.652H198.917V175.765H196.69V174.652Z" fill="#E7BC5B"/>
<path d="M200.448 174.652H202.674V175.765H200.448V174.652Z" fill="#E7BC5B"/>
<path d="M204.344 174.652H206.571V175.765H204.344V174.652Z" fill="#E7BC5B"/>
<path d="M208.102 174.652H210.328V175.765H208.102V174.652Z" fill="#E7BC5B"/>
<path d="M211.858 174.652H214.086V175.765H211.858V174.652Z" fill="#E7BC5B"/>
<path d="M215.754 174.652H217.982V175.765H215.754V174.652Z" fill="#E7BC5B"/>
<path d="M219.512 174.652H221.739V175.765H219.512V174.652Z" fill="#E7BC5B"/>
<path d="M223.271 174.652H225.496V175.765H223.271V174.652Z" fill="#E7BC5B"/>
<path d="M227.167 174.652H229.392V175.765H227.167V174.652Z" fill="#E7BC5B"/>
<path d="M230.924 174.652H233.15V175.765H230.924V174.652Z" fill="#E7BC5B"/>
<path d="M234.822 174.652H237.046V175.765H234.822V174.652Z" fill="#E7BC5B"/>
<path d="M238.578 174.652H240.806V175.765H238.578V174.652Z" fill="#E7BC5B"/>
<path d="M242.336 174.652H244.563V175.765H242.336V174.652Z" fill="#E7BC5B"/>
<path d="M246.232 174.652H248.459V175.765H246.232V174.652Z" fill="#E7BC5B"/>
<path d="M249.989 174.652H252.215V175.765H249.989V174.652Z" fill="#E7BC5B"/>
<path d="M253.746 174.652H255.973V175.765H253.746V174.652Z" fill="#E7BC5B"/>
<path d="M257.644 174.652H259.87V175.765H257.644V174.652Z" fill="#E7BC5B"/>
<path d="M227.167 193.717H228.557V194.831H227.167V193.717Z" fill="#E7BC5B"/>
<path d="M227.167 197.474H228.557V198.588H227.167V197.474Z" fill="#E7BC5B"/>
<path d="M227.167 201.372H228.557V202.485H227.167V201.372Z" fill="#E7BC5B"/>
<path d="M227.167 205.129H228.557V206.242H227.167V205.129Z" fill="#E7BC5B"/>
<path d="M227.167 208.886H228.557V210H227.167V208.886Z" fill="#E7BC5B"/>
<path d="M177.624 178.41H179.85V179.523H177.624V178.41Z" fill="#E7BC5B"/>
<path d="M181.521 178.41H183.748V179.523H181.521V178.41Z" fill="#E7BC5B"/>
<path d="M185.278 178.41H187.505V179.523H185.278V178.41Z" fill="#E7BC5B"/>
<path d="M189.036 178.41H191.262V179.523H189.036V178.41Z" fill="#E7BC5B"/>
<path d="M192.932 178.41H195.158V179.523H192.932V178.41Z" fill="#E7BC5B"/>
<path d="M196.69 178.41H198.917V179.523H196.69V178.41Z" fill="#E7BC5B"/>
<path d="M200.448 178.41H202.674V179.523H200.448V178.41Z" fill="#E7BC5B"/>
<path d="M204.344 178.41H206.571V179.523H204.344V178.41Z" fill="#E7BC5B"/>
<path d="M208.102 178.41H210.328V179.523H208.102V178.41Z" fill="#E7BC5B"/>
<path d="M211.858 178.41H214.086V179.523H211.858V178.41Z" fill="#E7BC5B"/>
<path d="M215.754 178.41H217.982V179.523H215.754V178.41Z" fill="#E7BC5B"/>
<path d="M219.512 178.41H221.739V179.523H219.512V178.41Z" fill="#E7BC5B"/>
<path d="M223.271 178.41H225.496V179.523H223.271V178.41Z" fill="#E7BC5B"/>
<path d="M227.167 178.41H229.392V179.523H227.167V178.41Z" fill="#E7BC5B"/>
<path d="M230.924 178.41H233.15V179.523H230.924V178.41Z" fill="#E7BC5B"/>
<path d="M234.822 178.41H237.046V179.523H234.822V178.41Z" fill="#E7BC5B"/>
<path d="M238.578 178.41H240.806V179.523H238.578V178.41Z" fill="#E7BC5B"/>
<path d="M242.336 178.41H244.563V179.523H242.336V178.41Z" fill="#E7BC5B"/>
<path d="M246.232 178.41H248.459V179.523H246.232V178.41Z" fill="#E7BC5B"/>
<path d="M249.989 178.41H252.215V179.523H249.989V178.41Z" fill="#E7BC5B"/>
<path d="M253.746 178.41H255.973V179.523H253.746V178.41Z" fill="#E7BC5B"/>
<path d="M257.644 178.41H259.87V179.523H257.644V178.41Z" fill="#E7BC5B"/>
<path d="M177.624 182.306H179.85V183.419H177.624V182.306Z" fill="#E7BC5B"/>
<path d="M181.521 182.306H183.748V183.419H181.521V182.306Z" fill="#E7BC5B"/>
<path d="M185.278 182.306H187.505V183.419H185.278V182.306Z" fill="#E7BC5B"/>
<path d="M189.036 182.306H191.262V183.419H189.036V182.306Z" fill="#E7BC5B"/>
<path d="M192.932 182.306H195.158V183.419H192.932V182.306Z" fill="#E7BC5B"/>
<path d="M196.69 182.306H198.917V183.419H196.69V182.306Z" fill="#E7BC5B"/>
<path d="M200.448 182.306H202.674V183.419H200.448V182.306Z" fill="#E7BC5B"/>
<path d="M204.344 182.306H206.571V183.419H204.344V182.306Z" fill="#E7BC5B"/>
<path d="M208.102 182.306H210.328V183.419H208.102V182.306Z" fill="#E7BC5B"/>
<path d="M211.858 182.306H214.086V183.419H211.858V182.306Z" fill="#E7BC5B"/>
<path d="M215.754 182.306H217.982V183.419H215.754V182.306Z" fill="#E7BC5B"/>
<path d="M219.512 182.306H221.739V183.419H219.512V182.306Z" fill="#E7BC5B"/>
<path d="M223.271 182.306H225.496V183.419H223.271V182.306Z" fill="#E7BC5B"/>
<path d="M227.167 182.306H229.392V183.419H227.167V182.306Z" fill="#E7BC5B"/>
<path d="M230.924 182.306H233.15V183.419H230.924V182.306Z" fill="#E7BC5B"/>
<path d="M234.822 182.306H237.046V183.419H234.822V182.306Z" fill="#E7BC5B"/>
<path d="M238.578 182.306H240.806V183.419H238.578V182.306Z" fill="#E7BC5B"/>
<path d="M242.336 182.306H244.563V183.419H242.336V182.306Z" fill="#E7BC5B"/>
<path d="M246.232 182.306H248.459V183.419H246.232V182.306Z" fill="#E7BC5B"/>
<path d="M249.989 182.306H252.215V183.419H249.989V182.306Z" fill="#E7BC5B"/>
<path d="M253.746 182.306H255.973V183.419H253.746V182.306Z" fill="#E7BC5B"/>
<path d="M257.644 182.306H259.87V183.419H257.644V182.306Z" fill="#E7BC5B"/>
<path d="M177.624 186.062H179.85V187.177H177.624V186.062Z" fill="#E7BC5B"/>
<path d="M181.521 186.062H183.748V187.177H181.521V186.062Z" fill="#E7BC5B"/>
<path d="M185.278 186.062H187.505V187.177H185.278V186.062Z" fill="#E7BC5B"/>
<path d="M189.036 186.062H191.262V187.177H189.036V186.062Z" fill="#E7BC5B"/>
<path d="M192.932 186.062H195.158V187.177H192.932V186.062Z" fill="#E7BC5B"/>
<path d="M196.69 186.062H198.917V187.177H196.69V186.062Z" fill="#E7BC5B"/>
<path d="M200.448 186.062H202.674V187.177H200.448V186.062Z" fill="#E7BC5B"/>
<path d="M204.344 186.062H206.571V187.177H204.344V186.062Z" fill="#E7BC5B"/>
<path d="M208.102 186.062H210.328V187.177H208.102V186.062Z" fill="#E7BC5B"/>
<path d="M211.858 186.062H214.086V187.177H211.858V186.062Z" fill="#E7BC5B"/>
<path d="M215.754 186.062H217.982V187.177H215.754V186.062Z" fill="#E7BC5B"/>
<path d="M219.512 186.062H221.739V187.177H219.512V186.062Z" fill="#E7BC5B"/>
<path d="M223.271 186.062H225.496V187.177H223.271V186.062Z" fill="#E7BC5B"/>
<path d="M227.167 186.062H229.392V187.177H227.167V186.062Z" fill="#E7BC5B"/>
<path d="M230.924 186.062H233.15V187.177H230.924V186.062Z" fill="#E7BC5B"/>
<path d="M234.822 186.062H237.046V187.177H234.822V186.062Z" fill="#E7BC5B"/>
<path d="M238.578 186.062H240.806V187.177H238.578V186.062Z" fill="#E7BC5B"/>
<path d="M242.336 186.062H244.563V187.177H242.336V186.062Z" fill="#E7BC5B"/>
<path d="M246.232 186.062H248.459V187.177H246.232V186.062Z" fill="#E7BC5B"/>
<path d="M249.989 186.062H252.215V187.177H249.989V186.062Z" fill="#E7BC5B"/>
<path d="M253.746 186.062H255.973V187.177H253.746V186.062Z" fill="#E7BC5B"/>
<path d="M257.644 186.062H259.87V187.177H257.644V186.062Z" fill="#E7BC5B"/>
<path d="M177.624 189.821H179.85V190.934H177.624V189.821Z" fill="#E7BC5B"/>
<path d="M181.521 189.821H183.748V190.934H181.521V189.821Z" fill="#E7BC5B"/>
<path d="M185.278 189.821H187.505V190.934H185.278V189.821Z" fill="#E7BC5B"/>
<path d="M189.036 189.821H191.262V190.934H189.036V189.821Z" fill="#E7BC5B"/>
<path d="M192.932 189.821H195.158V190.934H192.932V189.821Z" fill="#E7BC5B"/>
<path d="M196.69 189.821H198.917V190.934H196.69V189.821Z" fill="#E7BC5B"/>
<path d="M200.448 189.821H202.674V190.934H200.448V189.821Z" fill="#E7BC5B"/>
<path d="M204.344 189.821H206.571V190.934H204.344V189.821Z" fill="#E7BC5B"/>
<path d="M208.102 189.821H210.328V190.934H208.102V189.821Z" fill="#E7BC5B"/>
<path d="M211.858 189.821H214.086V190.934H211.858V189.821Z" fill="#E7BC5B"/>
<path d="M215.754 189.821H217.982V190.934H215.754V189.821Z" fill="#E7BC5B"/>
<path d="M219.512 189.821H221.739V190.934H219.512V189.821Z" fill="#E7BC5B"/>
<path d="M223.271 189.821H225.496V190.934H223.271V189.821Z" fill="#E7BC5B"/>
<path d="M227.167 189.821H229.392V190.934H227.167V189.821Z" fill="#E7BC5B"/>
<path d="M230.924 189.821H233.15V190.934H230.924V189.821Z" fill="#E7BC5B"/>
<path d="M234.822 189.821H237.046V190.934H234.822V189.821Z" fill="#E7BC5B"/>
<path d="M238.578 189.821H240.806V190.934H238.578V189.821Z" fill="#E7BC5B"/>
<path d="M242.336 189.821H244.563V190.934H242.336V189.821Z" fill="#E7BC5B"/>
<path d="M246.232 189.821H248.459V190.934H246.232V189.821Z" fill="#E7BC5B"/>
<path d="M249.989 189.821H252.215V190.934H249.989V189.821Z" fill="#E7BC5B"/>
<path d="M253.746 189.821H255.973V190.934H253.746V189.821Z" fill="#E7BC5B"/>
<path d="M257.644 189.821H259.87V190.934H257.644V189.821Z" fill="#E7BC5B"/>
<path d="M177.624 193.717H179.85V194.831H177.624V193.717Z" fill="#E7BC5B"/>
<path d="M181.521 193.717H183.748V194.831H181.521V193.717Z" fill="#E7BC5B"/>
<path d="M185.278 193.717H187.505V194.831H185.278V193.717Z" fill="#E7BC5B"/>
<path d="M189.036 193.717H191.262V194.831H189.036V193.717Z" fill="#E7BC5B"/>
<path d="M192.932 193.717H195.158V194.831H192.932V193.717Z" fill="#E7BC5B"/>
<path d="M196.69 193.717H198.917V194.831H196.69V193.717Z" fill="#E7BC5B"/>
<path d="M200.448 193.717H202.674V194.831H200.448V193.717Z" fill="#E7BC5B"/>
<path d="M204.344 193.717H206.571V194.831H204.344V193.717Z" fill="#E7BC5B"/>
<path d="M208.102 193.717H210.328V194.831H208.102V193.717Z" fill="#E7BC5B"/>
<path d="M211.858 193.717H214.086V194.831H211.858V193.717Z" fill="#E7BC5B"/>
<path d="M215.754 193.717H217.982V194.831H215.754V193.717Z" fill="#E7BC5B"/>
<path d="M219.512 193.717H221.739V194.831H219.512V193.717Z" fill="#E7BC5B"/>
<path d="M223.271 193.717H225.496V194.831H223.271V193.717Z" fill="#E7BC5B"/>
<path d="M177.624 197.474H179.85V198.588H177.624V197.474Z" fill="#E7BC5B"/>
<path d="M181.521 197.474H183.748V198.588H181.521V197.474Z" fill="#E7BC5B"/>
<path d="M185.278 197.474H187.505V198.588H185.278V197.474Z" fill="#E7BC5B"/>
<path d="M189.036 197.474H191.262V198.588H189.036V197.474Z" fill="#E7BC5B"/>
<path d="M192.932 197.474H195.158V198.588H192.932V197.474Z" fill="#E7BC5B"/>
<path d="M196.69 197.474H198.917V198.588H196.69V197.474Z" fill="#E7BC5B"/>
<path d="M200.448 197.474H202.674V198.588H200.448V197.474Z" fill="#E7BC5B"/>
<path d="M204.344 197.474H206.571V198.588H204.344V197.474Z" fill="#E7BC5B"/>
<path d="M208.102 197.474H210.328V198.588H208.102V197.474Z" fill="#E7BC5B"/>
<path d="M211.858 197.474H214.086V198.588H211.858V197.474Z" fill="#E7BC5B"/>
<path d="M215.754 197.474H217.982V198.588H215.754V197.474Z" fill="#E7BC5B"/>
<path d="M219.512 197.474H221.739V198.588H219.512V197.474Z" fill="#E7BC5B"/>
<path d="M223.271 197.474H225.496V198.588H223.271V197.474Z" fill="#E7BC5B"/>
<path d="M177.624 201.372H179.85V202.485H177.624V201.372Z" fill="#E7BC5B"/>
<path d="M181.521 201.372H183.748V202.485H181.521V201.372Z" fill="#E7BC5B"/>
<path d="M185.278 201.372H187.505V202.485H185.278V201.372Z" fill="#E7BC5B"/>
<path d="M189.036 201.372H191.262V202.485H189.036V201.372Z" fill="#E7BC5B"/>
<path d="M192.932 201.372H195.158V202.485H192.932V201.372Z" fill="#E7BC5B"/>
<path d="M196.69 201.372H198.917V202.485H196.69V201.372Z" fill="#E7BC5B"/>
<path d="M200.448 201.372H202.674V202.485H200.448V201.372Z" fill="#E7BC5B"/>
<path d="M204.344 201.372H206.571V202.485H204.344V201.372Z" fill="#E7BC5B"/>
<path d="M208.102 201.372H210.328V202.485H208.102V201.372Z" fill="#E7BC5B"/>
<path d="M211.858 201.372H214.086V202.485H211.858V201.372Z" fill="#E7BC5B"/>
<path d="M215.754 201.372H217.982V202.485H215.754V201.372Z" fill="#E7BC5B"/>
<path d="M219.512 201.372H221.739V202.485H219.512V201.372Z" fill="#E7BC5B"/>
<path d="M223.271 201.372H225.496V202.485H223.271V201.372Z" fill="#E7BC5B"/>
<path d="M177.624 205.129H179.85V206.242H177.624V205.129Z" fill="#E7BC5B"/>
<path d="M181.521 205.129H183.748V206.242H181.521V205.129Z" fill="#E7BC5B"/>
<path d="M185.278 205.129H187.505V206.242H185.278V205.129Z" fill="#E7BC5B"/>
<path d="M189.036 205.129H191.262V206.242H189.036V205.129Z" fill="#E7BC5B"/>
<path d="M192.932 205.129H195.158V206.242H192.932V205.129Z" fill="#E7BC5B"/>
<path d="M196.69 205.129H198.917V206.242H196.69V205.129Z" fill="#E7BC5B"/>
<path d="M200.448 205.129H202.674V206.242H200.448V205.129Z" fill="#E7BC5B"/>
<path d="M204.344 205.129H206.571V206.242H204.344V205.129Z" fill="#E7BC5B"/>
<path d="M208.102 205.129H210.328V206.242H208.102V205.129Z" fill="#E7BC5B"/>
<path d="M211.858 205.129H214.086V206.242H211.858V205.129Z" fill="#E7BC5B"/>
<path d="M215.754 205.129H217.982V206.242H215.754V205.129Z" fill="#E7BC5B"/>
<path d="M219.512 205.129H221.739V206.242H219.512V205.129Z" fill="#E7BC5B"/>
<path d="M223.271 205.129H225.496V206.242H223.271V205.129Z" fill="#E7BC5B"/>
<path d="M177.624 208.886H179.85V210H177.624V208.886Z" fill="#E7BC5B"/>
<path d="M181.521 208.886H183.748V210H181.521V208.886Z" fill="#E7BC5B"/>
<path d="M185.278 208.886H187.505V210H185.278V208.886Z" fill="#E7BC5B"/>
<path d="M189.036 208.886H191.262V210H189.036V208.886Z" fill="#E7BC5B"/>
<path d="M192.932 208.886H195.158V210H192.932V208.886Z" fill="#E7BC5B"/>
<path d="M196.69 208.886H198.917V210H196.69V208.886Z" fill="#E7BC5B"/>
<path d="M200.448 208.886H202.674V210H200.448V208.886Z" fill="#E7BC5B"/>
<path d="M204.344 208.886H206.571V210H204.344V208.886Z" fill="#E7BC5B"/>
<path d="M208.102 208.886H210.328V210H208.102V208.886Z" fill="#E7BC5B"/>
<path d="M211.858 208.886H214.086V210H211.858V208.886Z" fill="#E7BC5B"/>
<path d="M215.754 208.886H217.982V210H215.754V208.886Z" fill="#E7BC5B"/>
<path d="M219.512 208.886H221.739V210H219.512V208.886Z" fill="#E7BC5B"/>
<path d="M223.271 208.886H225.496V210H223.271V208.886Z" fill="#E7BC5B"/>
<path d="M129.473 155.586H130.446V156.699H129.473V155.586Z" fill="#E7BC5B"/>
<path d="M129.473 151.69H130.446V152.803H129.473V151.69Z" fill="#E7BC5B"/>
<path d="M129.473 147.932H130.446V149.045H129.473V147.932Z" fill="#E7BC5B"/>
<path d="M129.473 144.174H130.446V145.287H129.473V144.174Z" fill="#E7BC5B"/>
<path d="M129.473 140.278H130.446V141.391H129.473V140.278Z" fill="#E7BC5B"/>
<path d="M131.979 140.278H134.205V141.391H131.979V140.278Z" fill="#E7BC5B"/>
<path d="M135.734 140.278H137.962V141.391H135.734V140.278Z" fill="#E7BC5B"/>
<path d="M139.632 140.278H141.858V141.391H139.632V140.278Z" fill="#E7BC5B"/>
<path d="M143.39 140.278H145.616V141.391H143.39V140.278Z" fill="#E7BC5B"/>
<path d="M147.146 140.278H149.374V141.391H147.146V140.278Z" fill="#E7BC5B"/>
<path d="M151.044 140.278H153.27V141.391H151.044V140.278Z" fill="#E7BC5B"/>
<path d="M154.801 140.278H157.028V141.391H154.801V140.278Z" fill="#E7BC5B"/>
<path d="M158.558 140.278H160.786V141.391H158.558V140.278Z" fill="#E7BC5B"/>
<path d="M162.456 140.278H164.682V141.391H162.456V140.278Z" fill="#E7BC5B"/>
<path d="M166.212 140.278H168.438V141.391H166.212V140.278Z" fill="#E7BC5B"/>
<path d="M170.109 140.278H172.336V141.391H170.109V140.278Z" fill="#E7BC5B"/>
<path d="M173.866 140.278H176.094V141.391H173.866V140.278Z" fill="#E7BC5B"/>
<path d="M131.979 144.174H134.205V145.287H131.979V144.174Z" fill="#E7BC5B"/>
<path d="M135.734 144.174H137.962V145.287H135.734V144.174Z" fill="#E7BC5B"/>
<path d="M139.632 144.174H141.858V145.287H139.632V144.174Z" fill="#E7BC5B"/>
<path d="M143.39 144.174H145.616V145.287H143.39V144.174Z" fill="#E7BC5B"/>
<path d="M147.146 144.174H149.374V145.287H147.146V144.174Z" fill="#E7BC5B"/>
<path d="M151.044 144.174H153.27V145.287H151.044V144.174Z" fill="#E7BC5B"/>
<path d="M154.801 144.174H157.028V145.287H154.801V144.174Z" fill="#E7BC5B"/>
<path d="M158.558 144.174H160.786V145.287H158.558V144.174Z" fill="#E7BC5B"/>
<path d="M162.456 144.174H164.682V145.287H162.456V144.174Z" fill="#E7BC5B"/>
<path d="M166.212 144.174H168.438V145.287H166.212V144.174Z" fill="#E7BC5B"/>
<path d="M170.109 144.174H172.336V145.287H170.109V144.174Z" fill="#E7BC5B"/>
<path d="M173.866 144.174H176.094V145.287H173.866V144.174Z" fill="#E7BC5B"/>
<path d="M131.979 147.932H134.205V149.045H131.979V147.932Z" fill="#E7BC5B"/>
<path d="M135.734 147.932H137.962V149.045H135.734V147.932Z" fill="#E7BC5B"/>
<path d="M139.632 147.932H141.858V149.045H139.632V147.932Z" fill="#E7BC5B"/>
<path d="M143.39 147.932H145.616V149.045H143.39V147.932Z" fill="#E7BC5B"/>
<path d="M147.146 147.932H149.374V149.045H147.146V147.932Z" fill="#E7BC5B"/>
<path d="M151.044 147.932H153.27V149.045H151.044V147.932Z" fill="#E7BC5B"/>
<path d="M154.801 147.932H157.028V149.045H154.801V147.932Z" fill="#E7BC5B"/>
<path d="M158.558 147.932H160.786V149.045H158.558V147.932Z" fill="#E7BC5B"/>
<path d="M162.456 147.932H164.682V149.045H162.456V147.932Z" fill="#E7BC5B"/>
<path d="M166.212 147.932H168.438V149.045H166.212V147.932Z" fill="#E7BC5B"/>
<path d="M170.109 147.932H172.336V149.045H170.109V147.932Z" fill="#E7BC5B"/>
<path d="M173.866 147.932H176.094V149.045H173.866V147.932Z" fill="#E7BC5B"/>
<path d="M131.979 151.69H134.205V152.803H131.979V151.69Z" fill="#E7BC5B"/>
<path d="M135.734 151.69H137.962V152.803H135.734V151.69Z" fill="#E7BC5B"/>
<path d="M139.632 151.69H141.858V152.803H139.632V151.69Z" fill="#E7BC5B"/>
<path d="M143.39 151.69H145.616V152.803H143.39V151.69Z" fill="#E7BC5B"/>
<path d="M147.146 151.69H149.374V152.803H147.146V151.69Z" fill="#E7BC5B"/>
<path d="M151.044 151.69H153.27V152.803H151.044V151.69Z" fill="#E7BC5B"/>
<path d="M154.801 151.69H157.028V152.803H154.801V151.69Z" fill="#E7BC5B"/>
<path d="M158.558 151.69H160.786V152.803H158.558V151.69Z" fill="#E7BC5B"/>
<path d="M162.456 151.69H164.682V152.803H162.456V151.69Z" fill="#E7BC5B"/>
<path d="M166.212 151.69H168.438V152.803H166.212V151.69Z" fill="#E7BC5B"/>
<path d="M170.109 151.69H172.336V152.803H170.109V151.69Z" fill="#E7BC5B"/>
<path d="M173.866 151.69H176.094V152.803H173.866V151.69Z" fill="#E7BC5B"/>
<path d="M131.979 155.586H134.205V156.699H131.979V155.586Z" fill="#E7BC5B"/>
<path d="M135.734 155.586H137.962V156.699H135.734V155.586Z" fill="#E7BC5B"/>
<path d="M139.632 155.586H141.858V156.699H139.632V155.586Z" fill="#E7BC5B"/>
<path d="M143.39 155.586H145.616V156.699H143.39V155.586Z" fill="#E7BC5B"/>
<path d="M147.146 155.586H149.374V156.699H147.146V155.586Z" fill="#E7BC5B"/>
<path d="M151.044 155.586H153.27V156.699H151.044V155.586Z" fill="#E7BC5B"/>
<path d="M154.801 155.586H157.028V156.699H154.801V155.586Z" fill="#E7BC5B"/>
<path d="M158.558 155.586H160.786V156.699H158.558V155.586Z" fill="#E7BC5B"/>
<path d="M162.456 155.586H164.682V156.699H162.456V155.586Z" fill="#E7BC5B"/>
<path d="M166.212 155.586H168.438V156.699H166.212V155.586Z" fill="#E7BC5B"/>
<path d="M170.109 155.586H172.336V156.699H170.109V155.586Z" fill="#E7BC5B"/>
<path d="M173.866 155.586H176.094V156.699H173.866V155.586Z" fill="#E7BC5B"/>
<path d="M93.8466 159.344H96.0727V160.457H93.8466V159.344Z" fill="#E7BC5B"/>
<path d="M97.7435 159.344H99.971V160.457H97.7435V159.344Z" fill="#E7BC5B"/>
<path d="M101.501 159.344H103.729V160.457H101.501V159.344Z" fill="#E7BC5B"/>
<path d="M105.397 159.344H107.624V160.457H105.397V159.344Z" fill="#E7BC5B"/>
<path d="M109.155 159.344H111.382V160.457H109.155V159.344Z" fill="#E7BC5B"/>
<path d="M112.912 159.344H115.138V160.457H112.912V159.344Z" fill="#E7BC5B"/>
<path d="M116.809 159.344H119.035V160.457H116.809V159.344Z" fill="#E7BC5B"/>
<path d="M120.567 159.344H122.794V160.457H120.567V159.344Z" fill="#E7BC5B"/>
<path d="M124.324 159.344H126.55V160.457H124.324V159.344Z" fill="#E7BC5B"/>
<path d="M128.221 159.344H130.447V160.457H128.221V159.344Z" fill="#E7BC5B"/>
<path d="M131.979 159.344H134.205V160.457H131.979V159.344Z" fill="#E7BC5B"/>
<path d="M135.734 159.344H137.962V160.457H135.734V159.344Z" fill="#E7BC5B"/>
<path d="M139.632 159.344H141.858V160.457H139.632V159.344Z" fill="#E7BC5B"/>
<path d="M143.39 159.344H145.616V160.457H143.39V159.344Z" fill="#E7BC5B"/>
<path d="M147.146 159.344H149.374V160.457H147.146V159.344Z" fill="#E7BC5B"/>
<path d="M151.044 159.344H153.27V160.457H151.044V159.344Z" fill="#E7BC5B"/>
<path d="M154.801 159.344H157.028V160.457H154.801V159.344Z" fill="#E7BC5B"/>
<path d="M158.558 159.344H160.786V160.457H158.558V159.344Z" fill="#E7BC5B"/>
<path d="M162.456 159.344H164.682V160.457H162.456V159.344Z" fill="#E7BC5B"/>
<path d="M166.212 159.344H168.438V160.457H166.212V159.344Z" fill="#E7BC5B"/>
<path d="M170.109 159.344H172.336V160.457H170.109V159.344Z" fill="#E7BC5B"/>
<path d="M173.866 159.344H176.094V160.457H173.866V159.344Z" fill="#E7BC5B"/>
<path d="M93.8466 163.24H96.0727V164.353H93.8466V163.24Z" fill="#E7BC5B"/>
<path d="M97.7435 163.24H99.971V164.353H97.7435V163.24Z" fill="#E7BC5B"/>
<path d="M101.501 163.24H103.729V164.353H101.501V163.24Z" fill="#E7BC5B"/>
<path d="M105.397 163.24H107.624V164.353H105.397V163.24Z" fill="#E7BC5B"/>
<path d="M109.155 163.24H111.382V164.353H109.155V163.24Z" fill="#E7BC5B"/>
<path d="M112.912 163.24H115.138V164.353H112.912V163.24Z" fill="#E7BC5B"/>
<path d="M116.809 163.24H119.035V164.353H116.809V163.24Z" fill="#E7BC5B"/>
<path d="M120.567 163.24H122.794V164.353H120.567V163.24Z" fill="#E7BC5B"/>
<path d="M124.324 163.24H126.55V164.353H124.324V163.24Z" fill="#E7BC5B"/>
<path d="M128.221 163.24H130.447V164.353H128.221V163.24Z" fill="#E7BC5B"/>
<path d="M131.979 163.24H134.205V164.353H131.979V163.24Z" fill="#E7BC5B"/>
<path d="M135.734 163.24H137.962V164.353H135.734V163.24Z" fill="#E7BC5B"/>
<path d="M139.632 163.24H141.858V164.353H139.632V163.24Z" fill="#E7BC5B"/>
<path d="M143.39 163.24H145.616V164.353H143.39V163.24Z" fill="#E7BC5B"/>
<path d="M147.146 163.24H149.374V164.353H147.146V163.24Z" fill="#E7BC5B"/>
<path d="M151.044 163.24H153.27V164.353H151.044V163.24Z" fill="#E7BC5B"/>
<path d="M154.801 163.24H157.028V164.353H154.801V163.24Z" fill="#E7BC5B"/>
<path d="M158.558 163.24H160.786V164.353H158.558V163.24Z" fill="#E7BC5B"/>
<path d="M162.456 163.24H164.682V164.353H162.456V163.24Z" fill="#E7BC5B"/>
<path d="M166.212 163.24H168.438V164.353H166.212V163.24Z" fill="#E7BC5B"/>
<path d="M170.109 163.24H172.336V164.353H170.109V163.24Z" fill="#E7BC5B"/>
<path d="M173.866 163.24H176.094V164.353H173.866V163.24Z" fill="#E7BC5B"/>
<path d="M93.8466 166.998H96.0727V168.111H93.8466V166.998Z" fill="#E7BC5B"/>
<path d="M97.7435 166.998H99.971V168.111H97.7435V166.998Z" fill="#E7BC5B"/>
<path d="M101.501 166.998H103.729V168.111H101.501V166.998Z" fill="#E7BC5B"/>
<path d="M105.397 166.998H107.624V168.111H105.397V166.998Z" fill="#E7BC5B"/>
<path d="M109.155 166.998H111.382V168.111H109.155V166.998Z" fill="#E7BC5B"/>
<path d="M112.912 166.998H115.138V168.111H112.912V166.998Z" fill="#E7BC5B"/>
<path d="M116.809 166.998H119.035V168.111H116.809V166.998Z" fill="#E7BC5B"/>
<path d="M120.567 166.998H122.794V168.111H120.567V166.998Z" fill="#E7BC5B"/>
<path d="M124.324 166.998H126.55V168.111H124.324V166.998Z" fill="#E7BC5B"/>
<path d="M128.221 166.998H130.447V168.111H128.221V166.998Z" fill="#E7BC5B"/>
<path d="M131.979 166.998H134.205V168.111H131.979V166.998Z" fill="#E7BC5B"/>
<path d="M135.734 166.998H137.962V168.111H135.734V166.998Z" fill="#E7BC5B"/>
<path d="M139.632 166.998H141.858V168.111H139.632V166.998Z" fill="#E7BC5B"/>
<path d="M143.39 166.998H145.616V168.111H143.39V166.998Z" fill="#E7BC5B"/>
<path d="M147.146 166.998H149.374V168.111H147.146V166.998Z" fill="#E7BC5B"/>
<path d="M151.044 166.998H153.27V168.111H151.044V166.998Z" fill="#E7BC5B"/>
<path d="M154.801 166.998H157.028V168.111H154.801V166.998Z" fill="#E7BC5B"/>
<path d="M158.558 166.998H160.786V168.111H158.558V166.998Z" fill="#E7BC5B"/>
<path d="M162.456 166.998H164.682V168.111H162.456V166.998Z" fill="#E7BC5B"/>
<path d="M166.212 166.998H168.438V168.111H166.212V166.998Z" fill="#E7BC5B"/>
<path d="M170.109 166.998H172.336V168.111H170.109V166.998Z" fill="#E7BC5B"/>
<path d="M173.866 166.998H176.094V168.111H173.866V166.998Z" fill="#E7BC5B"/>
<path d="M93.8466 170.755H96.0727V171.868H93.8466V170.755Z" fill="#E7BC5B"/>
<path d="M97.7435 170.755H99.971V171.868H97.7435V170.755Z" fill="#E7BC5B"/>
<path d="M101.501 170.755H103.729V171.868H101.501V170.755Z" fill="#E7BC5B"/>
<path d="M105.397 170.755H107.624V171.868H105.397V170.755Z" fill="#E7BC5B"/>
<path d="M109.155 170.755H111.382V171.868H109.155V170.755Z" fill="#E7BC5B"/>
<path d="M112.912 170.755H115.138V171.868H112.912V170.755Z" fill="#E7BC5B"/>
<path d="M116.809 170.755H119.035V171.868H116.809V170.755Z" fill="#E7BC5B"/>
<path d="M120.567 170.755H122.794V171.868H120.567V170.755Z" fill="#E7BC5B"/>
<path d="M124.324 170.755H126.55V171.868H124.324V170.755Z" fill="#E7BC5B"/>
<path d="M128.221 170.755H130.447V171.868H128.221V170.755Z" fill="#E7BC5B"/>
<path d="M131.979 170.755H134.205V171.868H131.979V170.755Z" fill="#E7BC5B"/>
<path d="M135.734 170.755H137.962V171.868H135.734V170.755Z" fill="#E7BC5B"/>
<path d="M139.632 170.755H141.858V171.868H139.632V170.755Z" fill="#E7BC5B"/>
<path d="M143.39 170.755H145.616V171.868H143.39V170.755Z" fill="#E7BC5B"/>
<path d="M147.146 170.755H149.374V171.868H147.146V170.755Z" fill="#E7BC5B"/>
<path d="M151.044 170.755H153.27V171.868H151.044V170.755Z" fill="#E7BC5B"/>
<path d="M154.801 170.755H157.028V171.868H154.801V170.755Z" fill="#E7BC5B"/>
<path d="M158.558 170.755H160.786V171.868H158.558V170.755Z" fill="#E7BC5B"/>
<path d="M162.456 170.755H164.682V171.868H162.456V170.755Z" fill="#E7BC5B"/>
<path d="M166.212 170.755H168.438V171.868H166.212V170.755Z" fill="#E7BC5B"/>
<path d="M170.109 170.755H172.336V171.868H170.109V170.755Z" fill="#E7BC5B"/>
<path d="M173.866 170.755H176.094V171.868H173.866V170.755Z" fill="#E7BC5B"/>
<path d="M93.8466 174.652H96.0727V175.765H93.8466V174.652Z" fill="#E7BC5B"/>
<path d="M97.7435 174.652H99.971V175.765H97.7435V174.652Z" fill="#E7BC5B"/>
<path d="M101.501 174.652H103.729V175.765H101.501V174.652Z" fill="#E7BC5B"/>
<path d="M105.397 174.652H107.624V175.765H105.397V174.652Z" fill="#E7BC5B"/>
<path d="M109.155 174.652H111.382V175.765H109.155V174.652Z" fill="#E7BC5B"/>
<path d="M112.912 174.652H115.138V175.765H112.912V174.652Z" fill="#E7BC5B"/>
<path d="M116.809 174.652H119.035V175.765H116.809V174.652Z" fill="#E7BC5B"/>
<path d="M120.567 174.652H122.794V175.765H120.567V174.652Z" fill="#E7BC5B"/>
<path d="M124.324 174.652H126.55V175.765H124.324V174.652Z" fill="#E7BC5B"/>
<path d="M128.221 174.652H130.447V175.765H128.221V174.652Z" fill="#E7BC5B"/>
<path d="M131.979 174.652H134.205V175.765H131.979V174.652Z" fill="#E7BC5B"/>
<path d="M135.734 174.652H137.962V175.765H135.734V174.652Z" fill="#E7BC5B"/>
<path d="M139.632 174.652H141.858V175.765H139.632V174.652Z" fill="#E7BC5B"/>
<path d="M143.39 174.652H145.616V175.765H143.39V174.652Z" fill="#E7BC5B"/>
<path d="M147.146 174.652H149.374V175.765H147.146V174.652Z" fill="#E7BC5B"/>
<path d="M151.044 174.652H153.27V175.765H151.044V174.652Z" fill="#E7BC5B"/>
<path d="M154.801 174.652H157.028V175.765H154.801V174.652Z" fill="#E7BC5B"/>
<path d="M158.558 174.652H160.786V175.765H158.558V174.652Z" fill="#E7BC5B"/>
<path d="M162.456 174.652H164.682V175.765H162.456V174.652Z" fill="#E7BC5B"/>
<path d="M166.212 174.652H168.438V175.765H166.212V174.652Z" fill="#E7BC5B"/>
<path d="M170.109 174.652H172.336V175.765H170.109V174.652Z" fill="#E7BC5B"/>
<path d="M173.866 174.652H176.094V175.765H173.866V174.652Z" fill="#E7BC5B"/>
<path d="M93.8466 178.41H96.0727V179.523H93.8466V178.41Z" fill="#E7BC5B"/>
<path d="M97.7435 178.41H99.971V179.523H97.7435V178.41Z" fill="#E7BC5B"/>
<path d="M101.501 178.41H103.729V179.523H101.501V178.41Z" fill="#E7BC5B"/>
<path d="M105.397 178.41H107.624V179.523H105.397V178.41Z" fill="#E7BC5B"/>
<path d="M109.155 178.41H111.382V179.523H109.155V178.41Z" fill="#E7BC5B"/>
<path d="M112.912 178.41H115.138V179.523H112.912V178.41Z" fill="#E7BC5B"/>
<path d="M116.809 178.41H119.035V179.523H116.809V178.41Z" fill="#E7BC5B"/>
<path d="M120.567 178.41H122.794V179.523H120.567V178.41Z" fill="#E7BC5B"/>
<path d="M124.324 178.41H126.55V179.523H124.324V178.41Z" fill="#E7BC5B"/>
<path d="M128.221 178.41H130.447V179.523H128.221V178.41Z" fill="#E7BC5B"/>
<path d="M131.979 178.41H134.205V179.523H131.979V178.41Z" fill="#E7BC5B"/>
<path d="M135.734 178.41H137.962V179.523H135.734V178.41Z" fill="#E7BC5B"/>
<path d="M139.632 178.41H141.858V179.523H139.632V178.41Z" fill="#E7BC5B"/>
<path d="M143.39 178.41H145.616V179.523H143.39V178.41Z" fill="#E7BC5B"/>
<path d="M147.146 178.41H149.374V179.523H147.146V178.41Z" fill="#E7BC5B"/>
<path d="M151.044 178.41H153.27V179.523H151.044V178.41Z" fill="#E7BC5B"/>
<path d="M154.801 178.41H157.028V179.523H154.801V178.41Z" fill="#E7BC5B"/>
<path d="M158.558 178.41H160.786V179.523H158.558V178.41Z" fill="#E7BC5B"/>
<path d="M162.456 178.41H164.682V179.523H162.456V178.41Z" fill="#E7BC5B"/>
<path d="M166.212 178.41H168.438V179.523H166.212V178.41Z" fill="#E7BC5B"/>
<path d="M170.109 178.41H172.336V179.523H170.109V178.41Z" fill="#E7BC5B"/>
<path d="M173.866 178.41H176.094V179.523H173.866V178.41Z" fill="#E7BC5B"/>
<path d="M93.8466 182.306H96.0727V183.419H93.8466V182.306Z" fill="#E7BC5B"/>
<path d="M97.7435 182.306H99.971V183.419H97.7435V182.306Z" fill="#E7BC5B"/>
<path d="M101.501 182.306H103.729V183.419H101.501V182.306Z" fill="#E7BC5B"/>
<path d="M105.397 182.306H107.624V183.419H105.397V182.306Z" fill="#E7BC5B"/>
<path d="M109.155 182.306H111.382V183.419H109.155V182.306Z" fill="#E7BC5B"/>
<path d="M112.912 182.306H115.138V183.419H112.912V182.306Z" fill="#E7BC5B"/>
<path d="M116.809 182.306H119.035V183.419H116.809V182.306Z" fill="#E7BC5B"/>
<path d="M120.567 182.306H122.794V183.419H120.567V182.306Z" fill="#E7BC5B"/>
<path d="M124.324 182.306H126.55V183.419H124.324V182.306Z" fill="#E7BC5B"/>
<path d="M128.221 182.306H130.447V183.419H128.221V182.306Z" fill="#E7BC5B"/>
<path d="M131.979 182.306H134.205V183.419H131.979V182.306Z" fill="#E7BC5B"/>
<path d="M135.734 182.306H137.962V183.419H135.734V182.306Z" fill="#E7BC5B"/>
<path d="M139.632 182.306H141.858V183.419H139.632V182.306Z" fill="#E7BC5B"/>
<path d="M143.39 182.306H145.616V183.419H143.39V182.306Z" fill="#E7BC5B"/>
<path d="M147.146 182.306H149.374V183.419H147.146V182.306Z" fill="#E7BC5B"/>
<path d="M151.044 182.306H153.27V183.419H151.044V182.306Z" fill="#E7BC5B"/>
<path d="M154.801 182.306H157.028V183.419H154.801V182.306Z" fill="#E7BC5B"/>
<path d="M158.558 182.306H160.786V183.419H158.558V182.306Z" fill="#E7BC5B"/>
<path d="M162.456 182.306H164.682V183.419H162.456V182.306Z" fill="#E7BC5B"/>
<path d="M166.212 182.306H168.438V183.419H166.212V182.306Z" fill="#E7BC5B"/>
<path d="M170.109 182.306H172.336V183.419H170.109V182.306Z" fill="#E7BC5B"/>
<path d="M173.866 182.306H176.094V183.419H173.866V182.306Z" fill="#E7BC5B"/>
<path d="M93.8466 186.062H96.0727V187.177H93.8466V186.062Z" fill="#E7BC5B"/>
<path d="M97.7435 186.062H99.971V187.177H97.7435V186.062Z" fill="#E7BC5B"/>
<path d="M101.501 186.062H103.729V187.177H101.501V186.062Z" fill="#E7BC5B"/>
<path d="M105.397 186.062H107.624V187.177H105.397V186.062Z" fill="#E7BC5B"/>
<path d="M109.155 186.062H111.382V187.177H109.155V186.062Z" fill="#E7BC5B"/>
<path d="M112.912 186.062H115.138V187.177H112.912V186.062Z" fill="#E7BC5B"/>
<path d="M116.809 186.062H119.035V187.177H116.809V186.062Z" fill="#E7BC5B"/>
<path d="M120.567 186.062H122.794V187.177H120.567V186.062Z" fill="#E7BC5B"/>
<path d="M124.324 186.062H126.55V187.177H124.324V186.062Z" fill="#E7BC5B"/>
<path d="M128.221 186.062H130.447V187.177H128.221V186.062Z" fill="#E7BC5B"/>
<path d="M131.979 186.062H134.205V187.177H131.979V186.062Z" fill="#E7BC5B"/>
<path d="M135.734 186.062H137.962V187.177H135.734V186.062Z" fill="#E7BC5B"/>
<path d="M139.632 186.062H141.858V187.177H139.632V186.062Z" fill="#E7BC5B"/>
<path d="M143.39 186.062H145.616V187.177H143.39V186.062Z" fill="#E7BC5B"/>
<path d="M147.146 186.062H149.374V187.177H147.146V186.062Z" fill="#E7BC5B"/>
<path d="M151.044 186.062H153.27V187.177H151.044V186.062Z" fill="#E7BC5B"/>
<path d="M154.801 186.062H157.028V187.177H154.801V186.062Z" fill="#E7BC5B"/>
<path d="M158.558 186.062H160.786V187.177H158.558V186.062Z" fill="#E7BC5B"/>
<path d="M162.456 186.062H164.682V187.177H162.456V186.062Z" fill="#E7BC5B"/>
<path d="M166.212 186.062H168.438V187.177H166.212V186.062Z" fill="#E7BC5B"/>
<path d="M170.109 186.062H172.336V187.177H170.109V186.062Z" fill="#E7BC5B"/>
<path d="M173.866 186.062H176.094V187.177H173.866V186.062Z" fill="#E7BC5B"/>
<path d="M93.8466 189.821H96.0727V190.934H93.8466V189.821Z" fill="#E7BC5B"/>
<path d="M97.7435 189.821H99.971V190.934H97.7435V189.821Z" fill="#E7BC5B"/>
<path d="M101.501 189.821H103.729V190.934H101.501V189.821Z" fill="#E7BC5B"/>
<path d="M105.397 189.821H107.624V190.934H105.397V189.821Z" fill="#E7BC5B"/>
<path d="M109.155 189.821H111.382V190.934H109.155V189.821Z" fill="#E7BC5B"/>
<path d="M112.912 189.821H115.138V190.934H112.912V189.821Z" fill="#E7BC5B"/>
<path d="M116.809 189.821H119.035V190.934H116.809V189.821Z" fill="#E7BC5B"/>
<path d="M120.567 189.821H122.794V190.934H120.567V189.821Z" fill="#E7BC5B"/>
<path d="M124.324 189.821H126.55V190.934H124.324V189.821Z" fill="#E7BC5B"/>
<path d="M128.221 189.821H130.447V190.934H128.221V189.821Z" fill="#E7BC5B"/>
<path d="M131.979 189.821H134.205V190.934H131.979V189.821Z" fill="#E7BC5B"/>
<path d="M135.734 189.821H137.962V190.934H135.734V189.821Z" fill="#E7BC5B"/>
<path d="M139.632 189.821H141.858V190.934H139.632V189.821Z" fill="#E7BC5B"/>
<path d="M143.39 189.821H145.616V190.934H143.39V189.821Z" fill="#E7BC5B"/>
<path d="M147.146 189.821H149.374V190.934H147.146V189.821Z" fill="#E7BC5B"/>
<path d="M151.044 189.821H153.27V190.934H151.044V189.821Z" fill="#E7BC5B"/>
<path d="M154.801 189.821H157.028V190.934H154.801V189.821Z" fill="#E7BC5B"/>
<path d="M158.558 189.821H160.786V190.934H158.558V189.821Z" fill="#E7BC5B"/>
<path d="M162.456 189.821H164.682V190.934H162.456V189.821Z" fill="#E7BC5B"/>
<path d="M166.212 189.821H168.438V190.934H166.212V189.821Z" fill="#E7BC5B"/>
<path d="M170.109 189.821H172.336V190.934H170.109V189.821Z" fill="#E7BC5B"/>
<path d="M173.866 189.821H176.094V190.934H173.866V189.821Z" fill="#E7BC5B"/>
<path d="M93.8466 193.717H96.0727V194.831H93.8466V193.717Z" fill="#E7BC5B"/>
<path d="M97.7435 193.717H99.971V194.831H97.7435V193.717Z" fill="#E7BC5B"/>
<path d="M101.501 193.717H103.729V194.831H101.501V193.717Z" fill="#E7BC5B"/>
<path d="M105.397 193.717H107.624V194.831H105.397V193.717Z" fill="#E7BC5B"/>
<path d="M109.155 193.717H111.382V194.831H109.155V193.717Z" fill="#E7BC5B"/>
<path d="M112.912 193.717H115.138V194.831H112.912V193.717Z" fill="#E7BC5B"/>
<path d="M116.809 193.717H119.035V194.831H116.809V193.717Z" fill="#E7BC5B"/>
<path d="M120.567 193.717H122.794V194.831H120.567V193.717Z" fill="#E7BC5B"/>
<path d="M124.324 193.717H126.55V194.831H124.324V193.717Z" fill="#E7BC5B"/>
<path d="M128.221 193.717H130.447V194.831H128.221V193.717Z" fill="#E7BC5B"/>
<path d="M131.979 193.717H134.205V194.831H131.979V193.717Z" fill="#E7BC5B"/>
<path d="M135.734 193.717H137.962V194.831H135.734V193.717Z" fill="#E7BC5B"/>
<path d="M139.632 193.717H141.858V194.831H139.632V193.717Z" fill="#E7BC5B"/>
<path d="M143.39 193.717H145.616V194.831H143.39V193.717Z" fill="#E7BC5B"/>
<path d="M147.146 193.717H149.374V194.831H147.146V193.717Z" fill="#E7BC5B"/>
<path d="M151.044 193.717H153.27V194.831H151.044V193.717Z" fill="#E7BC5B"/>
<path d="M154.801 193.717H157.028V194.831H154.801V193.717Z" fill="#E7BC5B"/>
<path d="M158.558 193.717H160.786V194.831H158.558V193.717Z" fill="#E7BC5B"/>
<path d="M162.456 193.717H164.682V194.831H162.456V193.717Z" fill="#E7BC5B"/>
<path d="M166.212 193.717H168.438V194.831H166.212V193.717Z" fill="#E7BC5B"/>
<path d="M170.109 193.717H172.336V194.831H170.109V193.717Z" fill="#E7BC5B"/>
<path d="M173.866 193.717H176.094V194.831H173.866V193.717Z" fill="#E7BC5B"/>
<path d="M128.221 197.474H130.447V198.588H128.221V197.474Z" fill="#E7BC5B"/>
<path d="M131.979 197.474H134.205V198.588H131.979V197.474Z" fill="#E7BC5B"/>
<path d="M135.734 197.474H137.962V198.588H135.734V197.474Z" fill="#E7BC5B"/>
<path d="M139.632 197.474H141.858V198.588H139.632V197.474Z" fill="#E7BC5B"/>
<path d="M143.39 197.474H145.616V198.588H143.39V197.474Z" fill="#E7BC5B"/>
<path d="M147.146 197.474H149.374V198.588H147.146V197.474Z" fill="#E7BC5B"/>
<path d="M151.044 197.474H153.27V198.588H151.044V197.474Z" fill="#E7BC5B"/>
<path d="M154.801 197.474H157.028V198.588H154.801V197.474Z" fill="#E7BC5B"/>
<path d="M158.558 197.474H160.786V198.588H158.558V197.474Z" fill="#E7BC5B"/>
<path d="M162.456 197.474H164.682V198.588H162.456V197.474Z" fill="#E7BC5B"/>
<path d="M166.212 197.474H168.438V198.588H166.212V197.474Z" fill="#E7BC5B"/>
<path d="M170.109 197.474H172.336V198.588H170.109V197.474Z" fill="#E7BC5B"/>
<path d="M173.866 197.474H176.094V198.588H173.866V197.474Z" fill="#E7BC5B"/>
<path d="M128.221 201.372H130.447V202.485H128.221V201.372Z" fill="#E7BC5B"/>
<path d="M131.979 201.372H134.205V202.485H131.979V201.372Z" fill="#E7BC5B"/>
<path d="M135.734 201.372H137.962V202.485H135.734V201.372Z" fill="#E7BC5B"/>
<path d="M139.632 201.372H141.858V202.485H139.632V201.372Z" fill="#E7BC5B"/>
<path d="M143.39 201.372H145.616V202.485H143.39V201.372Z" fill="#E7BC5B"/>
<path d="M147.146 201.372H149.374V202.485H147.146V201.372Z" fill="#E7BC5B"/>
<path d="M151.044 201.372H153.27V202.485H151.044V201.372Z" fill="#E7BC5B"/>
<path d="M154.801 201.372H157.028V202.485H154.801V201.372Z" fill="#E7BC5B"/>
<path d="M158.558 201.372H160.786V202.485H158.558V201.372Z" fill="#E7BC5B"/>
<path d="M162.456 201.372H164.682V202.485H162.456V201.372Z" fill="#E7BC5B"/>
<path d="M166.212 201.372H168.438V202.485H166.212V201.372Z" fill="#E7BC5B"/>
<path d="M170.109 201.372H172.336V202.485H170.109V201.372Z" fill="#E7BC5B"/>
<path d="M173.866 201.372H176.094V202.485H173.866V201.372Z" fill="#E7BC5B"/>
<path d="M128.221 205.129H130.447V206.242H128.221V205.129Z" fill="#E7BC5B"/>
<path d="M131.979 205.129H134.205V206.242H131.979V205.129Z" fill="#E7BC5B"/>
<path d="M135.734 205.129H137.962V206.242H135.734V205.129Z" fill="#E7BC5B"/>
<path d="M139.632 205.129H141.858V206.242H139.632V205.129Z" fill="#E7BC5B"/>
<path d="M143.39 205.129H145.616V206.242H143.39V205.129Z" fill="#E7BC5B"/>
<path d="M147.146 205.129H149.374V206.242H147.146V205.129Z" fill="#E7BC5B"/>
<path d="M151.044 205.129H153.27V206.242H151.044V205.129Z" fill="#E7BC5B"/>
<path d="M154.801 205.129H157.028V206.242H154.801V205.129Z" fill="#E7BC5B"/>
<path d="M158.558 205.129H160.786V206.242H158.558V205.129Z" fill="#E7BC5B"/>
<path d="M162.456 205.129H164.682V206.242H162.456V205.129Z" fill="#E7BC5B"/>
<path d="M166.212 205.129H168.438V206.242H166.212V205.129Z" fill="#E7BC5B"/>
<path d="M170.109 205.129H172.336V206.242H170.109V205.129Z" fill="#E7BC5B"/>
<path d="M173.866 205.129H176.094V206.242H173.866V205.129Z" fill="#E7BC5B"/>
<path d="M128.221 208.886H130.447V210H128.221V208.886Z" fill="#E7BC5B"/>
<path d="M131.979 208.886H134.205V210H131.979V208.886Z" fill="#E7BC5B"/>
<path d="M135.734 208.886H137.962V210H135.734V208.886Z" fill="#E7BC5B"/>
<path d="M139.632 208.886H141.858V210H139.632V208.886Z" fill="#E7BC5B"/>
<path d="M143.39 208.886H145.616V210H143.39V208.886Z" fill="#E7BC5B"/>
<path d="M147.146 208.886H149.374V210H147.146V208.886Z" fill="#E7BC5B"/>
<path d="M151.044 208.886H153.27V210H151.044V208.886Z" fill="#E7BC5B"/>
<path d="M154.801 208.886H157.028V210H154.801V208.886Z" fill="#E7BC5B"/>
<path d="M158.558 208.886H160.786V210H158.558V208.886Z" fill="#E7BC5B"/>
<path d="M162.456 208.886H164.682V210H162.456V208.886Z" fill="#E7BC5B"/>
<path d="M166.212 208.886H168.438V210H166.212V208.886Z" fill="#E7BC5B"/>
<path d="M170.109 208.886H172.336V210H170.109V208.886Z" fill="#E7BC5B"/>
<path d="M173.866 208.886H176.094V210H173.866V208.886Z" fill="#E7BC5B"/>
<path d="M67.2668 159.344H69.4929V160.457H67.2668V159.344Z" fill="#E7BC5B"/>
<path d="M71.0244 159.344H73.2505V160.457H71.0244V159.344Z" fill="#E7BC5B"/>
<path d="M74.9214 159.344H77.1475V160.457H74.9214V159.344Z" fill="#E7BC5B"/>
<path d="M78.679 159.344H80.905V160.457H78.679V159.344Z" fill="#E7BC5B"/>
<path d="M82.4354 159.344H84.6629V160.457H82.4354V159.344Z" fill="#E7BC5B"/>
<path d="M86.3314 159.344H88.5589V160.457H86.3314V159.344Z" fill="#E7BC5B"/>
<path d="M90.09 159.344H92.3161V160.457H90.09V159.344Z" fill="#E7BC5B"/>
<path d="M67.2668 163.24H69.4929V164.353H67.2668V163.24Z" fill="#E7BC5B"/>
<path d="M71.0244 163.24H73.2505V164.353H71.0244V163.24Z" fill="#E7BC5B"/>
<path d="M74.9214 163.24H77.1475V164.353H74.9214V163.24Z" fill="#E7BC5B"/>
<path d="M78.679 163.24H80.905V164.353H78.679V163.24Z" fill="#E7BC5B"/>
<path d="M82.4354 163.24H84.6629V164.353H82.4354V163.24Z" fill="#E7BC5B"/>
<path d="M86.3314 163.24H88.5589V164.353H86.3314V163.24Z" fill="#E7BC5B"/>
<path d="M90.09 163.24H92.3161V164.353H90.09V163.24Z" fill="#E7BC5B"/>
<path d="M67.2668 166.998H69.4929V168.111H67.2668V166.998Z" fill="#E7BC5B"/>
<path d="M71.0244 166.998H73.2505V168.111H71.0244V166.998Z" fill="#E7BC5B"/>
<path d="M74.9214 166.998H77.1475V168.111H74.9214V166.998Z" fill="#E7BC5B"/>
<path d="M78.679 166.998H80.905V168.111H78.679V166.998Z" fill="#E7BC5B"/>
<path d="M82.4354 166.998H84.6629V168.111H82.4354V166.998Z" fill="#E7BC5B"/>
<path d="M86.3314 166.998H88.5589V168.111H86.3314V166.998Z" fill="#E7BC5B"/>
<path d="M90.09 166.998H92.3161V168.111H90.09V166.998Z" fill="#E7BC5B"/>
<path d="M67.2668 170.755H69.4929V171.868H67.2668V170.755Z" fill="#E7BC5B"/>
<path d="M71.0244 170.755H73.2505V171.868H71.0244V170.755Z" fill="#E7BC5B"/>
<path d="M74.9214 170.755H77.1475V171.868H74.9214V170.755Z" fill="#E7BC5B"/>
<path d="M78.679 170.755H80.905V171.868H78.679V170.755Z" fill="#E7BC5B"/>
<path d="M82.4354 170.755H84.6629V171.868H82.4354V170.755Z" fill="#E7BC5B"/>
<path d="M86.3314 170.755H88.5589V171.868H86.3314V170.755Z" fill="#E7BC5B"/>
<path d="M90.09 170.755H92.3161V171.868H90.09V170.755Z" fill="#E7BC5B"/>
<path d="M67.2668 174.652H69.4929V175.765H67.2668V174.652Z" fill="#E7BC5B"/>
<path d="M71.0244 174.652H73.2505V175.765H71.0244V174.652Z" fill="#E7BC5B"/>
<path d="M74.9214 174.652H77.1475V175.765H74.9214V174.652Z" fill="#E7BC5B"/>
<path d="M78.679 174.652H80.905V175.765H78.679V174.652Z" fill="#E7BC5B"/>
<path d="M82.4354 174.652H84.6629V175.765H82.4354V174.652Z" fill="#E7BC5B"/>
<path d="M86.3314 174.652H88.5589V175.765H86.3314V174.652Z" fill="#E7BC5B"/>
<path d="M90.09 174.652H92.3161V175.765H90.09V174.652Z" fill="#E7BC5B"/>
<path d="M67.2668 178.41H69.4929V179.523H67.2668V178.41Z" fill="#E7BC5B"/>
<path d="M71.0244 178.41H73.2505V179.523H71.0244V178.41Z" fill="#E7BC5B"/>
<path d="M74.9214 178.41H77.1475V179.523H74.9214V178.41Z" fill="#E7BC5B"/>
<path d="M78.679 178.41H80.905V179.523H78.679V178.41Z" fill="#E7BC5B"/>
<path d="M82.4354 178.41H84.6629V179.523H82.4354V178.41Z" fill="#E7BC5B"/>
<path d="M86.3314 178.41H88.5589V179.523H86.3314V178.41Z" fill="#E7BC5B"/>
<path d="M90.09 178.41H92.3161V179.523H90.09V178.41Z" fill="#E7BC5B"/>
<path d="M67.2668 182.306H69.4929V183.419H67.2668V182.306Z" fill="#E7BC5B"/>
<path d="M71.0244 182.306H73.2505V183.419H71.0244V182.306Z" fill="#E7BC5B"/>
<path d="M74.9214 182.306H77.1475V183.419H74.9214V182.306Z" fill="#E7BC5B"/>
<path d="M78.679 182.306H80.905V183.419H78.679V182.306Z" fill="#E7BC5B"/>
<path d="M82.4354 182.306H84.6629V183.419H82.4354V182.306Z" fill="#E7BC5B"/>
<path d="M86.3314 182.306H88.5589V183.419H86.3314V182.306Z" fill="#E7BC5B"/>
<path d="M90.09 182.306H92.3161V183.419H90.09V182.306Z" fill="#E7BC5B"/>
<path d="M67.2668 186.062H69.4929V187.177H67.2668V186.062Z" fill="#E7BC5B"/>
<path d="M71.0244 186.062H73.2505V187.177H71.0244V186.062Z" fill="#E7BC5B"/>
<path d="M74.9214 186.062H77.1475V187.177H74.9214V186.062Z" fill="#E7BC5B"/>
<path d="M78.679 186.062H80.905V187.177H78.679V186.062Z" fill="#E7BC5B"/>
<path d="M82.4354 186.062H84.6629V187.177H82.4354V186.062Z" fill="#E7BC5B"/>
<path d="M86.3314 186.062H88.5589V187.177H86.3314V186.062Z" fill="#E7BC5B"/>
<path d="M90.09 186.062H92.3161V187.177H90.09V186.062Z" fill="#E7BC5B"/>
<path d="M67.2668 189.821H69.4929V190.934H67.2668V189.821Z" fill="#E7BC5B"/>
<path d="M71.0244 189.821H73.2505V190.934H71.0244V189.821Z" fill="#E7BC5B"/>
<path d="M74.9214 189.821H77.1475V190.934H74.9214V189.821Z" fill="#E7BC5B"/>
<path d="M78.679 189.821H80.905V190.934H78.679V189.821Z" fill="#E7BC5B"/>
<path d="M82.4354 189.821H84.6629V190.934H82.4354V189.821Z" fill="#E7BC5B"/>
<path d="M86.3314 189.821H88.5589V190.934H86.3314V189.821Z" fill="#E7BC5B"/>
<path d="M90.09 189.821H92.3161V190.934H90.09V189.821Z" fill="#E7BC5B"/>
<path d="M67.2668 193.717H69.4929V194.831H67.2668V193.717Z" fill="#E7BC5B"/>
<path d="M71.0244 193.717H73.2505V194.831H71.0244V193.717Z" fill="#E7BC5B"/>
<path d="M74.9214 193.717H77.1475V194.831H74.9214V193.717Z" fill="#E7BC5B"/>
<path d="M78.679 193.717H80.905V194.831H78.679V193.717Z" fill="#E7BC5B"/>
<path d="M82.4354 193.717H84.6629V194.831H82.4354V193.717Z" fill="#E7BC5B"/>
<path d="M86.3314 193.717H88.5589V194.831H86.3314V193.717Z" fill="#E7BC5B"/>
<path d="M90.09 193.717H92.3161V194.831H90.09V193.717Z" fill="#E7BC5B"/>
<path d="M61.1477 148.768L80.4921 157.673H140.193L131.149 148.768H61.1477" fill="url(#paint10_linear_0_1647)"/>
<path d="M221.881 148.211H221.603V148.071L213.254 157.673L289.237 157.535L317.626 148.211H221.881" fill="url(#paint11_linear_0_1647)"/>
<path d="M290.904 200.397L272.536 191.212H270.866L212.972 190.933L221.462 200.397H290.904" fill="url(#paint12_linear_0_1647)"/>
<defs>
<linearGradient id="paint0_linear_0_1647" x1="227.296" y1="135.008" x2="209.056" y2="153.896" gradientUnits="userSpaceOnUse">
<stop stop-color="#55616B"/>
<stop offset="0.5025" stop-color="white"/>
<stop offset="1" stop-color="#8DADC2"/>
</linearGradient>
<linearGradient id="paint1_linear_0_1647" x1="287.606" y1="158.633" x2="307.999" y2="188.867" gradientUnits="userSpaceOnUse">
<stop stop-color="#ADBEC7"/>
<stop offset="0.4877" stop-color="#ADBEC7"/>
<stop offset="0.7438" stop-color="#87969F"/>
<stop offset="1" stop-color="#A8B8C1"/>
</linearGradient>
<linearGradient id="paint2_linear_0_1647" x1="289.563" y1="139.702" x2="310.476" y2="184.551" gradientUnits="userSpaceOnUse">
<stop stop-color="#55616B"/>
<stop offset="0.5025" stop-color="white"/>
<stop offset="1" stop-color="#8DADC2"/>
</linearGradient>
<linearGradient id="paint3_linear_0_1647" x1="131.147" y1="133.737" x2="221.744" y2="133.737" gradientUnits="userSpaceOnUse">
<stop stop-color="#55616B"/>
<stop offset="0.5025" stop-color="white"/>
<stop offset="1" stop-color="#8DADC2"/>
</linearGradient>
<linearGradient id="paint4_linear_0_1647" x1="195.452" y1="143.023" x2="200.573" y2="123.912" gradientUnits="userSpaceOnUse">
<stop stop-color="white"/>
<stop offset="0.5025" stop-color="white"/>
<stop offset="1" stop-color="#8DADC2"/>
</linearGradient>
<linearGradient id="paint5_linear_0_1647" x1="63.4974" y1="224.375" x2="112.927" y2="167.513" gradientUnits="userSpaceOnUse">
<stop stop-color="#55616B"/>
<stop offset="0.5025" stop-color="white"/>
<stop offset="1" stop-color="#8DADC2"/>
</linearGradient>
<linearGradient id="paint6_linear_0_1647" x1="46.4252" y1="156.595" x2="64.3218" y2="190.253" gradientUnits="userSpaceOnUse">
<stop stop-color="#1E1E20"/>
<stop offset="0.3892" stop-color="#A8B8C1"/>
<stop offset="0.6749" stop-color="#87969F"/>
<stop offset="1" stop-color="#ADBEC7"/>
</linearGradient>
<linearGradient id="paint7_linear_0_1647" x1="52.9376" y1="173.463" x2="76.0367" y2="152.664" gradientUnits="userSpaceOnUse">
<stop stop-color="#8DADC2"/>
<stop offset="0.4975" stop-color="white"/>
<stop offset="1" stop-color="#9BAEB9"/>
</linearGradient>
<linearGradient id="paint8_linear_0_1647" x1="177.692" y1="213.757" x2="177.692" y2="135.129" gradientUnits="userSpaceOnUse">
<stop stop-color="#C18A1B"/>
<stop offset="1" stop-color="#FAD998"/>
</linearGradient>
<linearGradient id="paint9_linear_0_1647" x1="170.939" y1="141.47" x2="292.166" y2="208.667" gradientUnits="userSpaceOnUse">
<stop stop-color="#FAD998"/>
<stop offset="1" stop-color="#C18A1B"/>
</linearGradient>
<linearGradient id="paint10_linear_0_1647" x1="94.3257" y1="165.673" x2="108.753" y2="137.357" gradientUnits="userSpaceOnUse">
<stop stop-color="#8DADC2"/>
<stop offset="0.4975" stop-color="white"/>
<stop offset="1" stop-color="#55616B"/>
</linearGradient>
<linearGradient id="paint11_linear_0_1647" x1="256.377" y1="132.589" x2="272.315" y2="168.384" gradientUnits="userSpaceOnUse">
<stop stop-color="#55616B"/>
<stop offset="0.5025" stop-color="white"/>
<stop offset="1" stop-color="#8DADC2"/>
</linearGradient>
<linearGradient id="paint12_linear_0_1647" x1="260.711" y1="214.477" x2="243.167" y2="176.854" gradientUnits="userSpaceOnUse">
<stop stop-color="#55616B"/>
<stop offset="0.5025" stop-color="white"/>
<stop offset="1" stop-color="#8DADC2"/>
</linearGradient>
</defs>
</svg>
