<svg width="192" height="192" viewBox="0 0 192 192" fill="none" xmlns="http://www.w3.org/2000/svg">
<path d="M168.507 52.1193H23.0642V138.488H168.507V52.1193Z" fill="#FF0000"/>
<path fill-rule="evenodd" clip-rule="evenodd" d="M92.2935 102.723L74.7195 104.51L43.2819 73.0726C43.2819 73.0726 63.8158 71.8023 101.17 75.1755C138.525 78.5487 159.204 84.2679 159.204 90.282C159.204 106.27 58.0966 121.914 58.0966 121.914L67.1434 107.783L32.4785 73.4616L40.6927 73.0695L73.8898 106.267C73.8898 106.267 155.345 99.0796 155.345 90.4765C155.345 85.2951 118.969 80.7458 101.173 79.2811C85.2311 77.9683 67.6327 78.0594 67.6327 78.0594L92.2966 102.726L92.2935 102.723Z" fill="white"/>
</svg>
