<svg width="192" height="192" viewBox="0 0 192 192" fill="none" xmlns="http://www.w3.org/2000/svg">
<path d="M168.511 52.1206H23.0649V138.492H168.511V52.1206Z" fill="#FF0000"/>
<path fill-rule="evenodd" clip-rule="evenodd" d="M92.296 102.726L74.7215 104.513L43.2831 73.0745C43.2831 73.0745 63.8176 71.8042 101.173 75.1775C138.528 78.5508 159.209 84.2702 159.209 90.2844C159.209 106.273 58.0982 121.917 58.0982 121.917L67.1453 107.786L32.4795 73.4635L40.6939 73.0715L73.8919 106.269C73.8919 106.269 155.349 99.0822 155.349 90.4789C155.349 85.2974 118.972 80.748 101.176 79.2832C85.2334 77.9703 67.6346 78.0615 67.6346 78.0615L92.2991 102.729L92.296 102.726Z" fill="white"/>
</svg>
