<svg width="464" height="464" viewBox="0 0 464 464" fill="none" xmlns="http://www.w3.org/2000/svg">
<path fill-rule="evenodd" clip-rule="evenodd" d="M146.155 58.4539L150.408 57.8571L158.912 56.6609L163.164 56.0628L167.416 55.4659L171.669 54.8679L175.921 54.271L180.174 53.6729L184.426 53.0761L197.183 51.2818L201.435 50.685L205.688 50.0869L209.94 49.4901L214.193 48.892L218.445 48.2939L226.949 47.0977L231.909 46.4001L236.847 47.0989L245.307 48.2951L249.537 48.892L253.767 49.4901L257.997 50.0869L262.228 50.685L266.458 51.2818L279.149 53.0761L283.379 53.6729L287.609 54.271L291.84 54.8691L296.07 55.4672L300.3 56.064L304.532 56.6609L312.991 57.8583L317.222 58.4552L321.451 59.0532L325.682 59.6501L329.913 60.2482L334.142 60.845L338.373 61.4431L342.603 62.0399L346.833 62.638L351.064 63.2361L355.294 63.8342L359.524 64.4298L363.755 65.0291L372.355 66.2417V79.0069L372.384 79.0107V100.725L372.355 100.72V106.62L372.673 106.738L373.551 128.174L373.698 145.549L373.277 162.189L372.311 178.115L370.826 193.35L368.848 207.909L366.4 221.818L363.512 235.093L360.205 247.756L356.506 259.824L352.443 271.319L348.037 282.258L343.322 292.663L338.318 302.552L333.056 311.945L327.561 320.86L321.863 329.321L315.986 337.343L309.959 344.951L303.81 352.162L297.567 358.999L291.255 365.48L284.904 371.629L278.54 377.465L272.192 383.011L265.885 388.287L259.648 393.315L253.507 398.114L247.491 402.707L241.624 407.113L235.938 411.354L227.572 417.6L216.13 409.957L207.814 404.028L199.713 397.862L191.836 391.459L184.189 384.816L176.779 377.93L169.613 370.801L162.699 363.427L156.045 355.807L149.656 347.939L143.541 339.822L137.706 331.454L132.16 322.835L126.907 313.962L121.957 304.835L117.315 295.453L112.989 285.816L108.986 275.921L105.314 265.767L101.977 255.354L98.9838 244.683L96.3396 233.749L94.0515 222.554L92.1254 211.095L90.5701 199.372L89.3877 187.385L88.5889 175.131L88.1768 162.609L88.16 149.817L88.5427 136.754L89.3321 123.421L90.7531 107.333V90.3039L90.7821 90.3002V89.1896L90.7531 89.1934V66.2392L99.3792 65.0279L103.631 64.4298L107.884 63.833L112.136 63.2349L116.388 62.638L120.641 62.0399L124.893 61.4431L129.146 60.845L133.398 60.2482L137.65 59.6501L141.903 59.0532L146.155 58.4539" fill="white"/>
<path fill-rule="evenodd" clip-rule="evenodd" d="M95.8582 110.999C186.394 72.0463 276.928 76.3526 367.465 110.999C378.517 306.62 284.816 368.661 227.417 411.768C136.92 353.194 80.991 255.961 95.8582 110.999Z" fill="#231F20"/>
<path fill-rule="evenodd" clip-rule="evenodd" d="M102.635 115.537C109.757 112.563 116.927 109.872 124.195 107.266L140.726 102.059L157.25 97.8033L173.768 94.4741L190.286 92.0553L206.803 90.5267L223.324 89.8707L239.849 90.0671L256.383 91.1009L272.928 92.9518L289.485 95.6023L306.055 99.0398L322.638 103.243L339.235 108.194C346.372 110.558 353.458 112.985 360.503 115.62L361.063 129.439L361.207 146.381L360.798 162.575L359.867 178.045L358.437 192.81L356.537 206.892L354.192 220.316L351.43 233.098L348.273 245.267L344.75 256.843L340.885 267.848L336.705 278.307L332.234 288.24L327.496 297.671L322.515 306.623L317.317 315.117L311.923 323.179L306.358 330.828L300.649 338.085L294.816 344.974L288.883 351.516L282.875 357.73L270.727 369.26L258.563 379.736C252.666 384.521 246.722 389.206 240.704 393.832C236.228 397.217 231.742 400.59 227.256 403.962L214.557 395.06L206.82 389.129L199.301 382.974L192.01 376.596L184.951 369.991L178.131 363.157L171.554 356.094L165.228 348.8L159.157 341.271L153.349 333.508L147.809 325.507L142.543 317.265L137.555 308.783L132.855 300.056L128.446 291.082L124.336 281.861L120.53 272.386L117.036 262.659L113.858 252.674L111.005 242.432L108.483 231.927L106.297 221.159L104.455 210.124L102.965 198.822L101.832 187.248L101.065 175.401L100.669 163.279L100.652 150.881L101.021 138.203L101.784 125.244L102.635 115.537ZM256.646 342.025C257.579 339.457 254.37 340.181 253.88 339.122C253.39 338.063 253.59 336.857 255.256 335.339C258.983 333.124 263.09 334.361 267.121 334.907C268.118 335.267 268.26 336.777 267.548 339.437L264.662 348.065C263.237 348.604 261.064 348.82 259.639 349.36C258.428 350.078 258.214 350.654 258.998 351.085C260.138 351.373 261.384 350.797 262.525 351.085C258.043 372.158 234.33 363.992 242.34 354.264C249.949 358.837 250.232 348.212 245.209 349.144C238.891 350.316 238.723 355.782 238.689 357.664C238.517 367.192 261.685 372.497 267.441 350.869C269.259 349.935 270.648 350.187 272.465 349.252C273.143 348.856 273.179 348.072 272.572 347.676C271.468 347.64 269.508 347.938 268.404 347.903C269.182 345.206 270.176 341.209 270.955 338.513C271.762 335.727 271.491 336.377 274.438 336.108C279.983 335.603 286.053 337.744 291.596 332.318C275.766 336.827 257.279 324.512 249.412 336.9C248.449 338.416 248.36 339.445 248.837 340.948C249.73 343.757 254.099 344.421 256.646 342.025V342.025ZM186.585 355.66C184.761 362.794 195.921 366.187 200.451 363.744C204.981 361.301 207.541 355.448 202.494 351.371C193.95 347.784 178.495 341.364 189.078 330.66C192.738 329.719 195.9 328.415 202.109 332.702C203.001 332.432 203.893 332.162 204.786 331.892C206.845 335.531 206.927 336.854 206.927 341.074C205.856 339.724 204.786 338.374 203.715 337.023C202.198 336.123 200.681 335.223 199.165 334.322C193.836 332.23 189.962 333.082 193.276 339.454C202.335 345.369 212.92 347.525 210.623 358.901C210.204 363.41 204.679 367.06 201.858 367.426C188.551 367.601 183.021 365.304 182.57 354.849C182.779 351.82 184.386 350.199 187.387 349.987C191.992 349.417 192.442 353.721 189.796 356.47C188.726 356.2 187.655 355.93 186.585 355.66V355.66ZM189.883 127.816C189.373 123.351 189.515 122.096 195.729 119.357C200.59 117.132 204.74 116.999 209.57 115.574C212.017 112.635 213.082 112.763 216.216 111.974C216.298 111.318 216.38 110.66 216.461 110.004C214.194 108.42 213.055 107.492 211.339 105.328C211.42 104.59 211.501 103.851 211.583 103.113C212.233 103.195 212.883 103.277 213.534 103.36C213.29 102.62 213.046 101.882 212.802 101.144C215.16 101.308 217.518 101.472 219.875 101.636C219.875 100.98 219.875 100.324 219.875 99.6669C219.875 98.6004 219.875 97.5338 219.875 96.4673C220.098 95.421 220.587 95.1755 221.338 95.7295C222.803 97.5339 224.266 99.3395 225.73 101.144C225.892 99.1745 226.253 97.6056 226.415 95.6363C226.457 94.59 227.025 94.3457 228.123 94.8985C229.586 97.6887 230.853 100.077 232.316 102.868C235.519 101.68 239.962 102.164 244.755 103.113C244.43 103.687 244.105 104.261 243.779 104.836C245.568 105.41 247.356 105.985 249.145 106.559C249.065 107.05 248.983 107.544 248.902 108.035C254.326 108.622 257.035 109.331 262.073 111.481C259.227 112.301 256.382 113.122 253.536 113.943C251.95 114.681 251.95 115.419 253.536 116.158C258.983 118.042 264.43 120.53 269.878 127.233C269.716 127.726 269.554 128.218 269.391 128.71C263.118 123.913 257.49 121.281 252.804 121.819C252.336 122.639 252.662 123.46 253.779 124.279C259.715 128.824 265.65 131.634 271.586 131.91C266.707 132.899 261.829 132.889 256.951 130.678C256.669 131.663 256.105 132.648 256.951 133.632C260.436 135.804 262.933 138.258 270.366 139.293C270.366 139.786 268.781 139.878 268.781 140.37C263.903 140.648 260.61 138.984 255.731 136.586C254.796 137.057 254.39 137.796 254.512 138.801C258.025 144.035 261.365 149.441 265.975 153.568C265.488 153.733 264.999 153.897 264.512 154.061C258.418 150.02 255.913 146.887 252.316 143.478C251.894 144.462 251.048 145.447 252.316 146.431C256.365 150.522 259.99 153.616 265.732 161.691C265.508 162.737 265.019 162.983 264.268 162.429C259.23 157.344 259.173 157.693 252.073 156.768C252.303 162.372 261.42 162.137 266.844 171.136C266.439 171.3 266.626 171.864 266.219 172.027C261.242 169.384 261.518 169.582 255.975 170.797C258.089 172.274 260.203 173.751 262.317 175.227C262.317 175.72 262.317 176.211 262.317 176.705C258.733 175.207 255.614 175.117 252.56 175.227C255.406 177.525 258.252 179.821 261.097 182.119C262.093 182.879 261.768 183.37 260.123 183.596C257.033 182.529 253.943 181.462 250.853 180.397C254.105 183.431 256.763 185.666 260.014 188.702C260.808 189.892 260.411 190.548 259.619 190.672C253.622 187.01 252.866 185.445 246.218 187.041C246.218 187.944 246.218 188.846 246.218 189.75C252.42 189.75 251.743 188.992 255.486 193.933C252.793 192.679 252.093 192.457 249.145 192.457C250.474 195.081 251.095 197.708 255.243 200.333C261.476 205.105 247.014 199.329 244.512 195.902C241.747 193.974 238.983 192.579 236.218 191.718C235.621 194.179 235.223 196.64 236.218 199.101C239.226 204.107 242.234 209.11 245.243 214.116C247.763 216.823 250.086 219.93 252.606 222.637C255.94 225.099 257.885 227.76 261.218 230.221C269.628 237.379 279.224 242.149 279.147 254.725C299.563 260.557 302.794 225.188 300.123 221.714C290.62 200.092 297.178 183.653 310.612 174.242C310.612 174.736 310.612 175.227 310.612 175.72C304.356 182.872 303.07 184.845 300.367 193.933C300.758 195.57 300.725 197.773 302.806 197.132C305.607 193.688 308.853 190.814 312.563 188.273C314.209 188.56 314.535 189.38 313.539 190.733C308.567 198.36 307.461 199.904 306.465 208.947C307.115 209.275 307.766 209.603 308.417 209.931C310.369 207.715 312.319 205.5 314.271 203.286C315.754 203.921 315.918 204.824 314.758 205.993C308.917 210.415 314.905 231.891 313.539 239.713C311.646 250.548 305.469 253.991 296.953 260.633C298.941 268.907 298.472 270.539 296.465 278.846C295.8 273.208 296.951 269.656 292.319 266.54C292.007 277.897 283.985 284.672 285.488 283.769C287.762 277.051 289.663 275.5 286.952 269C285.828 272.404 284.555 275.736 283.293 279.092C283.718 275.741 283.783 262.968 283.05 264.078C282.318 264.16 281.586 264.242 280.854 264.324C276.391 279.063 272.267 282.891 260.123 291.645C258.414 292.793 256.707 293.941 254.999 295.09C253.833 300.092 254.682 301.412 256.219 306.412C257.113 308.381 258.007 310.35 258.903 312.319C258.903 316.9 259.128 316.726 256.219 320.195C253.862 321.097 251.504 322 249.145 322.902C245.486 326.513 241.829 330.122 238.169 333.732C237.51 338.723 237.199 337.557 232.316 338.901C232.641 340.214 232.965 341.526 233.292 342.839C227.549 347.242 226.002 347.762 218.901 349.238C218.493 348.582 218.087 347.925 217.681 347.268C218.737 345.054 219.795 342.839 220.851 340.623C223.278 337.588 225.205 332.994 229.144 332.994C229.226 332.337 229.308 331.681 229.388 331.025C230.933 329.876 232.875 328.727 234.42 327.579C238.484 323.641 242.153 319.702 246.218 315.765C247.126 314.288 247.104 312.811 246.951 311.335C246.218 310.022 245.486 308.709 244.755 307.397C243.943 305.427 243.129 303.459 242.316 301.49C241.34 301.653 240.364 301.818 239.388 301.982C237.954 306.325 239.135 306.586 234.51 305.92C230.526 304.033 226.543 302.146 222.559 300.259C219.144 299.766 215.729 299.274 212.314 298.783C208.409 298.327 206.568 298.426 203.29 296.321C201.338 296.403 199.387 296.485 197.436 296.567C197.029 297.059 196.622 297.551 196.216 298.044C189.353 298.307 190.983 298.502 185.545 293.614C184.651 291.48 182.963 289.347 182.069 287.215C187.32 286.36 190.225 286.059 195.484 286.722C196.379 287.379 197.273 288.035 198.167 288.691C203.32 289.09 206.443 288.661 210.851 291.398C215.079 292.382 219.306 293.367 223.534 294.352C225.404 294.188 227.274 294.023 229.144 293.86C229.632 292.793 230.121 291.727 230.608 290.66C230.283 289.347 229.957 288.035 229.632 286.722C225.565 284.371 222.82 279.57 222.358 274.33C222.358 274.33 218.571 270.378 217.839 267.178C216.301 259.597 211.953 253.41 219.136 252.013C220.247 250.03 213.423 246.238 211.339 244.635C202.696 237.499 193.671 232.071 192.557 220.269C190.769 220.186 188.98 220.104 187.191 220.022C181.486 220.552 181.798 219.58 177.922 215.838C173.184 214.298 169.18 211.47 165.727 207.715C165.727 207.715 162.556 205.485 160.848 205.485C158.465 205.485 161.505 220.404 160.604 222.237C163.14 224.797 163.342 224.284 163.044 227.898C165.371 230.717 166.619 231.407 166.946 235.036C167.272 235.938 167.597 236.841 167.922 237.743C172.593 238.686 171.107 237.607 171.886 241.928C172.373 244.635 171.825 248.081 171.825 248.081C171.499 249.311 171.174 250.541 170.849 251.772C170.849 251.772 167.678 250.788 166.214 249.311C162.915 245.982 162.649 246.934 163.287 242.42C161.283 241.554 161.144 241.052 159.873 239.22C159.873 239.22 160.605 238.482 158.897 237.251C156.092 235.23 156.702 235.682 156.702 232.082C156.702 230.113 156.702 230.113 156.702 228.883C156.702 227.653 157.677 227.898 156.458 225.191C155.238 222.484 155.726 224.453 154.262 220.761C153.495 219.175 154.179 216.324 154.019 215.838C152.425 211.439 152.497 209.972 152.067 210.178C151.905 211.654 151.742 213.131 151.579 214.608C151.579 215.264 151.579 215.92 151.579 216.577C150.09 219.642 149.549 220.765 147.433 224.206C144.563 225.034 142.798 225.51 142.798 221.007C142.798 216.313 142.716 215.759 144.75 211.654C144.993 210.587 145.238 209.521 145.481 208.454C145.481 208.454 145.481 206.732 145.481 205.009C145.481 199.925 146.272 194.304 149.628 190.241C151.699 187.733 153.945 179.756 154.75 176.705C155.163 172.546 154.283 172.22 157.921 170.552C158.417 168.05 164.255 167.789 165.971 168.828C167.19 169.567 169.385 171.782 169.385 171.782C173.972 174.616 178.601 177.011 182.557 181.627C184.345 181.627 186.135 181.627 187.923 181.627C189.468 180.479 191.012 179.329 192.557 178.181C192.735 176.146 199.197 172.211 200.698 173.105C203.176 167.102 205.513 164.399 210.302 159.568C209.343 159.302 218.791 143.16 220.363 143.232C220.703 141.523 221.889 136.373 219.678 135.847C216.804 136.717 208.808 135.521 207.436 133.14C206.542 133.14 206.243 133.54 205.347 133.54C204.454 133.786 203.559 134.033 202.664 134.278C200.626 135.992 200.195 134.914 197.878 135.693C196.418 135.693 194.215 136.202 193.708 135.034C192.842 133.03 194.726 133.28 195.972 133.14C196.541 132.976 197.11 132.813 197.679 132.648C200.331 131.756 198.178 131.625 196.46 130.678C195.809 130.842 195.159 131.007 194.509 131.171C193.939 131.171 193.37 131.171 192.801 131.171C192.313 131.171 191.825 131.171 191.338 131.171C189.342 129.914 190.153 130.191 189.883 127.816V127.816ZM195.012 123.689C195.911 123.689 196.57 124.614 196.479 125.75C196.388 126.883 195.58 127.809 194.68 127.809C193.781 127.809 193.121 126.883 193.212 125.75C193.303 124.614 194.112 123.689 195.012 123.689ZM155.061 195.583C158.312 194.98 161.65 194.527 165.964 195.383C168.099 195.876 172.601 196.911 174.885 196.583C173.015 194.066 171.681 191.243 169.73 188.782C168.087 186.939 166.19 185.383 164.774 183.381C162.727 182.203 162.224 181.995 160.017 182.78C158.193 184.255 158.032 185.387 157.242 187.582C157.242 191.017 156.839 192.711 155.061 195.583V195.583ZM203.166 175.377C202.296 176.174 202.376 176.972 203.404 177.769C208.561 177.282 209.828 176.287 214.545 178.248C216.52 178.406 219.058 176.905 217.153 175.377C213.248 172.246 207.828 174.565 203.166 175.377V175.377ZM213.36 166.526C212.997 175.068 226.56 151.434 227.347 150.499C228.453 146.832 227.978 145.395 225.924 146.193C221.736 152.97 217.547 159.748 213.36 166.526ZM220.709 116.291C221.884 116.291 222.842 117.098 222.842 118.086C222.842 119.074 222.595 119.88 221.42 119.88C220.246 119.88 219.049 118.356 219.049 117.368C219.049 116.381 219.534 116.291 220.709 116.291V116.291ZM163.577 205.04C168.554 207.113 171.214 210.129 174.482 211.737C178.127 213.533 179.933 211.897 178.275 209.823C172.165 206.688 166.618 202.257 163.577 205.04ZM155.042 196.428C156.876 197.487 156.889 197.763 156.465 200.494C156.651 203.684 156.393 208.42 153.857 202.408C153.541 201.771 153.225 201.132 152.908 200.494C152.672 198.819 153.383 197.465 155.042 196.428ZM164.762 170.943C164.441 173.04 164.23 173.143 161.992 173.642C159.562 174.874 155.809 176.194 159.787 171.791C160.194 171.279 160.606 170.767 161.015 170.256C162.251 169.476 163.5 169.704 164.762 170.943ZM174.853 190.324C172.241 190.272 172.081 190.029 171.103 187.327C169.196 184.513 166.966 180.07 172.996 184.283C173.688 184.704 174.381 185.131 175.074 185.556C176.231 186.962 176.155 188.552 174.853 190.324V190.324ZM179.306 199.43C178.542 195.636 179.312 195.087 182.833 192.806C186.219 189.152 187.074 184.978 186.104 191.699C185.725 192.835 185.345 193.972 184.965 195.109C183.335 197.23 182.239 200.743 179.306 199.43ZM242.731 217C241.553 225.541 229.648 202.149 231.114 201.212C230.009 197.544 231.432 196.587 233.485 197.384C235.461 204.162 235.698 210.222 242.731 217V217ZM223.551 247.276C219.549 248.984 203.802 232.884 202.687 232.058C200.503 228.291 200.653 226.576 203.136 226.911C209.545 233.811 217.143 242.419 223.551 247.276ZM227.865 263.765C230.226 265.208 231.094 264.894 230.474 262.826C226.94 256.531 224.883 256.21 221.714 252.672C219.665 252.295 219.106 252.108 220.037 253.235C222.865 257.661 225.83 260.162 227.865 263.765V263.765ZM242.587 257.749C242.558 262.073 241.439 266.398 237.928 270.723C236.873 270.535 235.816 270.348 234.76 270.16C233.145 270.786 232.773 271.413 233.642 272.04C234.262 272.604 234.884 273.168 235.505 273.734C233.822 279.249 232.638 284.765 234.946 290.281C237.307 291.409 238.177 290.782 237.555 288.4C233.645 282.229 236.738 278.234 239.419 274.109C240.498 277.493 237.263 283.449 239.792 284.264C242.252 279.965 247.192 272.394 240.909 272.229C244.252 267.902 245.87 260.745 245.942 258.5C246.092 253.76 243.831 253.8 242.587 257.749V257.749ZM242.792 234.14C245.608 236.069 245.096 236.663 242.623 239.24C241.025 242.57 242.349 245.296 239.789 241.049C239.582 240.254 239.376 239.46 239.167 238.665C239.746 236.853 239.022 234.422 242.792 234.14V234.14ZM276.196 260.757C274.228 262.81 274.335 263.726 274.925 267.756C274.865 272.629 273.453 276.081 275.909 270.81C276.226 269.766 276.546 268.722 276.864 267.681C277.048 265.087 278.068 261.918 276.196 260.757ZM295.607 255.828C314.218 244.091 302.771 232.554 307.94 218.745C299.679 228.996 310.221 243.821 292.894 253.838C287.961 255.995 290.181 257.902 295.607 255.828ZM249.915 317.208C249.186 319.97 248.352 320.347 244.625 321.91C240.515 324.473 238.31 327.471 241.525 322.633C242.247 321.82 242.968 321.008 243.691 320.194C245.797 318.699 247.964 316.185 249.915 317.208" fill="#FFF200"/>
<path fill-rule="evenodd" clip-rule="evenodd" d="M95.9529 84.0875L232.29 63.6453L367.214 84.0875V95.7686L232.29 73.867L95.9529 95.7686V84.0875Z" fill="white"/>
<path fill-rule="evenodd" clip-rule="evenodd" d="M367.186 95.1442C367.186 99.7816 367.186 104.565 367.186 109.949C259.272 75.0319 199.174 73.0147 95.9242 109.949C95.9242 104.565 95.9242 99.7816 95.9242 95.1442L232.265 74.2575L367.186 95.1442Z" fill="#ED1C24"/>
<path fill-rule="evenodd" clip-rule="evenodd" d="M95.9242 71.2429C141.251 64.7973 186.579 58.353 231.907 51.9075C277 58.353 322.092 64.7973 367.186 71.2429C367.186 75.8438 367.186 80.0153 367.186 84.0295L232.265 64.0809L95.9242 84.0308C95.9242 80.0153 95.9242 75.8438 95.9242 71.2429Z" fill="#00A650"/>
</svg>
