<svg width="397" height="397" viewBox="0 0 397 397" fill="none" xmlns="http://www.w3.org/2000/svg">
<path d="M357.3 198.498C357.3 286.204 286.201 357.3 198.5 357.3C110.796 357.3 39.7 286.204 39.7 198.498C39.7 110.798 110.797 39.7001 198.5 39.7001C286.201 39.7001 357.3 110.799 357.3 198.498Z" fill="#231F20"/>
<path d="M351.728 198.498C351.728 283.128 283.126 351.729 198.499 351.729C113.873 351.729 45.2695 283.128 45.2695 198.498C45.2695 113.874 113.873 45.2715 198.499 45.2715C283.126 45.2715 351.728 113.874 351.728 198.498Z" fill="#BDBCBC"/>
<path d="M75.263 121.323C75.263 121.449 58.2622 124.034 58.2784 124.116C58.3613 124.538 57.3977 211.571 72.9235 207.191C83.1459 202.381 77.6455 145.672 77.6455 153.299C77.6455 163.931 78.678 181.369 82.7562 208.755C87.3533 239.606 85.4154 243.45 87.56 250.092C82.5732 245.25 74.8151 243.071 74.8151 243.071L85.8159 280.254L93.9174 280.171C93.9174 280.171 94.0337 277.673 94.1403 277.555C94.3588 277.552 102.142 278.132 107.49 287.919C138.436 344.556 219.91 322.778 198.582 324.005L232.155 319.963C133.831 336.785 115.386 291.45 110.441 282.4C107.344 277.861 98.4392 273.105 92.8419 275.813C92.8419 275.813 106.506 276.358 105.899 272.735C110.169 276.883 95.2804 266.023 95.2804 266.023L96.0297 268.378C98.339 268.611 97.299 266.119 99.7322 265.711L96.7123 264.329C96.3258 263.855 98.3907 261.39 91.0192 211.92C86.969 184.74 87.785 163.579 87.785 153.049C87.785 142.847 87.1186 142.124 87.138 142.05L81.1467 138.138L79.9968 137.904C78.3453 137.569 76.7089 137.041 75.9994 136.647C76.3676 136.1 76.5808 135.37 76.5808 134.164C76.5808 132.999 76.4548 131.48 76.2933 129.517C76.078 126.894 76.1856 117.492 75.8228 120.631C56.7302 286.321 83.1588 102.086 79.9118 105.626L81.7689 103.523C90.7608 93.1419 122.177 68.8988 203.236 67.004C288.958 64.995 289.347 96.305 289.64 96.7626L311.845 107.762C311.552 107.292 282.711 59.4225 195.657 61.4594C113.624 63.3801 89.2729 91.4818 80.1056 102.062L78.2926 104.12C74.5244 108.231 70.1997 108.267 70.1997 114.323C70.1997 117.557 66.5737 121.865 66.7944 124.54C77.3774 143.13 73.7245 133.941 75.263 121.322V121.323ZM309.677 113.352C307.807 114.155 308.089 117.189 308.478 121.385C308.766 124.513 309.096 128.06 308.478 130.534L310.62 131.072C311.328 128.232 310.976 124.485 310.674 121.178C310.481 119.077 310.183 115.897 310.63 115.333C310.684 115.406 311.301 139.012 316.165 144.638C323.902 153.595 320.044 148.441 320.044 164.048C320.044 171.74 325.798 180.705 325.568 183.845C322.702 180.216 321.887 170.88 321.158 162.506C320.305 152.756 319.575 144.338 316.107 141.541C320.381 137.792 305.529 118.157 306.544 131.453C307.242 136.104 304.966 121.01 301.663 115.872C291.546 100.127 270.588 81.7299 197.755 79.2009C130.99 76.883 97.8998 104.286 89.3946 112.647L90.5003 110.741L79.6512 105.148L76.5818 137.63L81.2253 130.301C81.2253 130.301 88.7206 116.709 88.8584 116.391C90.0276 115.01 121.665 78.781 197.678 81.4187C278.704 84.2308 293.496 107.247 299.816 117.076C302.857 121.815 303.656 127.111 304.365 131.783C305.292 137.936 306.177 143.748 313.086 142.819C313.72 142.736 314.242 142.878 314.727 143.271C317.466 145.477 318.223 154.231 318.962 162.696C319.932 173.896 320.859 184.473 326.006 187.065L327.438 187.788L327.594 186.179C327.785 184.123 332.223 135.71 318.516 119.839C313.119 113.588 311.131 112.724 309.677 113.351V113.352ZM338.984 153.482C337.595 147.045 335.512 140.777 332.772 134.79C334.328 138.378 336.816 144.774 338.984 153.482ZM332.772 134.79C332.462 134.063 332.139 133.343 331.803 132.628C332.158 133.351 332.447 134.067 332.772 134.79ZM325.868 118.761C343.982 136.227 340.731 181.298 340.731 181.298L331.919 171.061V214.731L325.819 227.011C314.972 285.011 289.219 336.188 188.225 333.458C87.2349 330.728 71.6477 276.825 62.1574 225.648C52.6682 174.473 66.2238 118.522 66.2238 118.522C36.3995 207.224 71.6477 274.094 71.6477 274.094C71.6477 274.094 88.5893 336.868 192.972 336.188C297.349 335.507 313.619 277.507 313.619 277.507L315.516 292.146C315.516 292.146 339.761 269.968 347.215 223.567C350.993 200.075 336.395 128.911 325.868 118.761V118.761ZM331.802 132.628C331.451 131.89 331.238 131.484 331.238 131.484C331.435 131.868 331.616 132.249 331.802 132.628Z" fill="#231F20"/>
<path d="M338.57 174.664C338.691 174.841 338.57 174.664 338.57 174.664V174.664ZM79.2002 101.896C79.2002 101.896 93.0019 89.168 102.856 79.7909C102.856 79.7909 89.7143 87.1579 79.2002 101.896ZM75.5274 270.813C83.3419 286.577 91.0313 296.834 91.0313 296.834C91.0313 296.834 83.7037 285.782 75.5274 270.813ZM331.516 119.313L328.948 111.83L351.884 119.983L329.694 108.61L352.23 95.2367L327.462 105.391L331.426 80.6252L323.386 104.548L317.558 102.902C305.336 84.7312 288.544 75.6369 267.414 65.5017C228.14 46.6574 175.792 51.6542 175.792 51.6542C175.792 51.6542 237.593 52.4411 284.864 80.4611C294.628 86.2485 302.768 94.2729 309.524 103.343L299.321 103.905L311.016 105.396C312.118 106.951 313.184 108.531 314.207 110.133L300.632 117.975L315.278 111.827C316.783 114.265 318.213 116.748 319.566 119.273L313.775 137.402L320.621 121.267C330.765 140.887 336.109 161.73 338.57 174.664C335.73 147.591 330.776 128.293 323.775 113.817L324.287 112.616C324.287 112.616 349.912 146.109 345.315 201.042C340.717 255.974 327.574 275.401 314.431 288.799L313.775 282.098C313.775 282.098 294.724 339.043 200.104 337.701C105.485 336.359 98.2571 305.548 98.2571 305.548L93.0003 302.864C93.0003 302.864 70.6617 285.451 56.8621 239.226C43.0621 193.003 56.2042 155.489 56.2042 155.489C56.2042 155.489 48.9767 186.304 54.2335 217.788C56.9575 234.104 66.7326 254.721 75.5274 270.813C69.0719 257.797 62.5264 241.028 60.1482 223.147C54.8888 183.623 56.2042 156.826 62.7742 136.732C69.3442 116.637 73.2882 107.925 73.2882 107.925C73.2882 107.925 45.6928 140.082 45.0349 208.411C44.3774 276.741 102.198 323.633 127.823 333.682C153.45 343.73 234.269 357.126 282.892 322.965C331.516 288.799 328.229 280.092 343.999 248.603C359.774 217.118 353.2 153.478 331.516 119.313V119.313ZM320.009 106.783C319.955 106.695 319.907 106.608 319.854 106.524L320.344 106.587L320.009 106.783ZM322.267 110.816C321.99 110.291 321.713 109.757 321.431 109.245L322.976 108.595L322.267 110.816ZM91.0313 107.925C94.971 101.226 115.341 89.168 115.341 89.168C115.341 89.168 104.169 95.8691 91.6871 110.606C79.2003 125.342 96.2864 109.265 119.285 93.8568C142.281 78.4504 174.477 79.7909 174.477 79.7909C174.477 79.7909 163.966 71.7515 123.883 84.4813L162.65 67.7329C162.65 67.7329 103.516 80.4611 86.4304 104.576C69.3442 128.692 87.0856 114.624 91.0313 107.925V107.925ZM288.821 105.807C296.072 113.336 301.293 119.983 301.293 119.983C301.293 119.983 299.156 113.211 288.821 105.807V105.807ZM64.0896 204.392C71.317 275.401 101.543 305.548 101.543 305.548C101.543 305.548 124.539 328.324 196.16 331.672C267.779 335.021 290.781 306.886 292.753 302.198C294.724 297.509 283.55 304.876 280.266 303.535C276.98 302.198 290.781 277.409 290.781 277.409C283.552 304.206 294.724 273.391 301.948 276.741C309.178 280.088 287.493 288.799 294.724 295.499C301.948 302.198 317.057 254.634 326.918 233.197C336.775 211.762 333.487 189.654 332.832 175.585C332.177 161.517 328.89 155.489 328.89 155.489L326.918 188.986C326.918 188.986 328.234 193.673 317.718 170.225L309.178 147.449C303.264 251.956 279.606 291.482 279.606 291.482C279.606 291.482 271.065 317.604 202.072 318.276C133.082 318.942 123.224 300.855 123.224 300.855C100.885 271.381 87.7431 208.411 91.0313 166.879C94.3152 125.344 91.0313 113.954 120.597 101.226C150.166 88.4999 194.845 87.1579 194.845 87.1579C248.512 85.6491 275.492 96.2542 288.821 105.807C287.103 104.018 285.345 102.268 283.55 100.558C273.694 91.1807 182.36 71.7515 134.395 90.5084C86.4304 109.265 83.1443 127.352 86.4304 182.285C89.7164 237.217 106.8 282.768 118.627 300.187C130.453 317.604 172.506 322.965 172.506 322.965C115.341 321.623 108.771 291.482 105.485 286.117C102.198 280.758 92.3424 270.038 90.3717 278.75C88.401 287.457 70.7347 234.206 74.0207 231.525C77.3047 228.845 97.5991 258.655 97.5991 258.655C97.5991 258.655 90.3717 243.914 83.1443 202.382C75.9163 160.849 87.0857 140.082 79.8582 138.742C72.6303 137.402 88.8464 200.028 68.1455 202.813C62.2478 203.608 67.1423 147.424 69.7731 136.037C72.3996 124.647 75.261 121.323 75.261 121.323C75.261 121.323 56.8621 133.383 64.0896 204.392" fill="url(#paint0_linear_11798_8877)"/>
<path d="M208.254 313.866C208.367 313.861 224.721 313.059 238.987 309.844C251.382 307.052 262.352 301.72 262.46 301.667L262.501 301.646L262.547 301.626C262.607 301.6 268.719 298.962 272.478 295.37C276.29 291.725 278.023 286.957 278.04 286.91C278.115 286.702 284.789 268.919 289.837 249.922C294.481 232.44 297.667 213.115 297.699 212.922C297.749 212.667 301.596 193.141 302.676 172.368C303.585 154.911 301.78 135.091 301.761 134.892C301.75 134.743 300.82 123.006 296.11 115.33C291.877 108.435 283.703 105.048 283.621 105.014L283.55 104.986L283.48 104.948C283.385 104.901 273.895 100.146 255.894 96.2306C241.538 93.1074 221.581 90.8777 205.057 90.5547C186.165 90.1844 165.884 91.5011 150.812 94.0774C132.733 97.1673 120.99 101.758 120.871 101.804L120.774 101.841L120.672 101.869C120.554 101.901 108.84 105.112 102.682 112.931C96.4267 120.873 95.4126 133.921 95.4039 134.052L95.3964 134.131C95.3781 134.263 94.0679 145.516 94.0679 159.307C94.0679 161.779 94.1088 164.334 94.21 166.921C94.9152 185.289 98.1267 205.649 98.159 205.852C98.1956 206.052 102.546 229.954 107.508 250.098C111.184 265.03 115.97 278.24 116.019 278.37L116.051 278.465L116.076 278.562C116.093 278.629 117.725 285.332 120.378 290.01C122.688 294.079 126.089 296.473 126.125 296.493L126.18 296.532L126.236 296.577C126.261 296.595 128.575 298.464 132.128 300.412C136.219 302.651 141.7 305.053 141.934 305.151C142.32 305.302 154.405 309.928 170.337 312.031C186.974 314.227 208.041 313.87 208.253 313.866H208.254Z" fill="url(#paint1_radial_11798_8877)" stroke="#6D0115" stroke-width="3.61582"/>
<path d="M136.052 301.067C135.331 300.736 134.938 300.545 134.938 300.545C134.897 300.527 134.691 300.438 134.358 300.285L134.238 299.569C131.385 283.838 127.03 255.095 125.606 220.047C123.844 178.833 123.912 128.32 124.079 103.853V102.083C124.56 101.922 125.059 101.758 125.573 101.593L125.581 103.366C125.412 127.625 125.331 178.52 127.103 219.986C128.551 255.645 133.039 284.747 135.875 300.208L136.052 301.067Z" fill="#6D0115"/>
<path d="M140.762 303.084C140.185 302.85 139.642 302.625 139.138 302.414L138.998 301.311C136.92 286.496 133.244 256.292 131.497 217.656C129.64 176.583 129.975 124.957 130.266 101.487L130.269 100.168C130.757 100.028 131.256 99.8878 131.766 99.7468L131.769 101.201C131.478 124.51 131.134 176.375 132.994 217.591C134.781 257.102 138.588 287.768 140.63 302.141L140.762 303.084ZM175.992 93.8071C176.369 139.305 177.456 270.55 177.774 308.569L177.803 311.781C177.316 311.729 176.818 311.673 176.314 311.615L176.276 308.564C175.959 270.573 174.873 139.667 174.495 94.0063L174.458 92.6756C174.961 92.6325 175.466 92.5906 175.97 92.5518L175.992 93.8071ZM195.497 93.2161L196.207 309.651L196.218 312.687C195.693 312.694 195.189 312.698 194.709 312.7V309.255C194.558 264.086 194.124 131.866 193.996 92.7241L193.988 91.7056L195.453 91.6884L195.497 93.2161ZM202.986 93.4142L201.912 309.655L201.908 312.583C201.39 312.597 200.885 312.609 200.388 312.62L200.409 310.242C200.598 271.833 201.265 137.328 201.486 93.1192L201.45 91.6916C201.973 91.697 202.493 91.7024 203.011 91.711L202.986 93.4142ZM223.23 308.877C224.307 291.083 226.336 253.36 227.171 210.674C228.021 167.171 227.642 117.662 227.379 94.41L227.294 92.9135C227.902 92.9674 228.503 93.0212 229.103 93.0772L229.186 94.9935C229.445 118.502 229.813 167.555 228.971 210.708C228.142 253.038 226.139 290.495 225.057 308.499L224.901 311.071C224.27 311.147 223.725 311.219 223.085 311.287L223.23 308.877ZM274.393 291.24C273.683 292.202 272.895 293.104 272.035 293.935L272.754 290.117C275.885 273.899 279.933 248.812 281.954 219.354C284.355 184.334 284.663 136.45 284.611 109.24L284.643 106.634C285.228 106.957 285.819 107.299 286.41 107.667L286.413 111.142C286.448 138.664 286.099 185.208 283.75 219.476C281.768 248.394 277.834 273.123 274.719 289.423L274.393 291.24ZM291.699 232.493C292.996 222.242 294.193 210.738 295.018 198.586C296.828 171.879 296.875 141.623 296.644 122.366L296.603 119.153C297.333 120.8 297.953 122.494 298.459 124.224L298.495 127.21C298.656 146.49 298.483 174.097 296.814 198.706C296.472 203.759 296.06 208.807 295.58 213.849L295.03 219.261C293.699 225.946 292.289 232.614 290.799 239.265L291.699 232.493Z" fill="#6D0115"/>
<path d="M268.02 297.096C267.449 297.484 266.767 297.925 265.998 298.389L266.545 295.318C269.548 278.797 274.219 248.812 276.054 213.969C278.069 175.692 278.076 130.193 277.906 106.9L277.837 103.602C278.351 103.783 278.956 104.006 279.628 104.274L279.71 107.347C279.876 130.795 279.857 175.994 277.851 214.06C276.067 247.946 271.605 277.254 268.591 294.111L268.02 297.096ZM245.919 304.671C247.338 289.278 249.94 257.413 251.19 218.972C252.594 175.817 252.599 124.677 252.496 99.9741L252.44 96.4601C253.068 96.5893 253.686 96.7184 254.292 96.8498L254.298 100.251C254.399 125.075 254.389 176.013 252.989 219.03C251.748 257.217 249.172 288.929 247.746 304.481L247.563 306.37C246.966 306.545 246.371 306.726 245.711 306.91L245.919 304.671ZM239.704 306.125C241.261 293.052 243.816 267.714 244.868 234.759C246.403 186.81 246.214 126.341 246.014 98.3603L245.979 95.2467C246.576 95.349 247.163 95.4513 247.746 95.5579L247.814 98.8114C248.013 127.006 248.195 187.103 246.665 234.82C245.627 267.266 243.139 292.351 241.568 305.657L241.278 308.066C240.679 308.212 240.039 308.374 239.41 308.518L239.704 306.125ZM234.66 307.184C235.878 293.363 237.981 265.987 238.97 232.682C240.35 186.137 239.993 127.198 239.663 96.4697L239.627 94.2735C240.233 94.3549 240.838 94.44 241.443 94.5286L241.476 97.4667C241.803 128.48 242.137 186.671 240.771 232.735C239.798 265.526 237.745 292.579 236.518 306.64L236.293 309.192C235.674 309.32 235.089 309.439 234.45 309.562L234.66 307.184ZM228.81 308.36C229.843 292.215 231.797 258.483 232.65 222.302C233.784 174.205 233.839 120.554 233.79 95.4384L233.738 93.5478C234.349 93.6167 234.955 93.6846 235.554 93.7545L235.592 95.8862C235.639 121.196 235.579 174.514 234.451 222.343C233.606 258.093 231.691 291.454 230.648 307.848L230.491 310.267C229.848 310.375 229.33 310.465 228.669 310.566L228.81 308.36ZM222.622 94.5975C222.545 120.301 222.287 178.612 221.453 228.35C220.994 255.069 220.224 281.782 219.144 308.483L219.005 311.668C218.498 311.711 217.986 311.754 217.478 311.795L217.624 308.965C218.715 282.095 219.492 255.213 219.955 228.325C220.795 178.343 221.051 119.699 221.126 94.2046L221.136 92.44C221.642 92.4755 222.146 92.5089 222.648 92.5455L222.622 94.5975ZM215.213 93.4143C215.422 116.099 215.732 160.49 215.455 202.324C215.154 247.609 214.174 290.845 213.709 309.462L213.653 312.067C213.143 312.1 212.634 312.13 212.127 312.16L212.196 309.95C212.658 291.637 213.653 248.019 213.955 202.311C214.232 160.724 213.927 116.6 213.719 93.8073L213.701 92.0223C214.202 92.0449 214.7 92.0675 215.199 92.0923L215.213 93.4143ZM209.329 93.3153C209.637 119.332 210.065 165.896 209.857 209.811C209.663 250.668 208.788 289.8 208.261 310.245L208.216 312.36L206.705 312.425L206.768 309.949C207.295 289.438 208.161 250.477 208.357 209.805C208.564 166.108 208.142 119.791 207.834 93.7093L207.799 91.8102L209.31 91.8532L209.329 93.3153ZM156.347 308.233C155.825 308.103 155.307 307.97 154.792 307.831L154.703 306.858C153.443 293.274 150.911 262.725 149.865 226.866C148.527 181.121 148.971 123.949 149.3 97.0264L149.288 95.8475C149.788 95.7613 150.29 95.6752 150.799 95.5912L150.802 96.7852C150.475 123.583 150.023 180.957 151.363 226.825C152.425 263.146 155.011 294.009 156.249 307.28L156.347 308.233ZM146.186 305.145C145.646 304.951 145.117 304.76 144.602 304.571L144.48 303.447C142.186 284.326 137.754 243.021 136.349 199.201C135.159 162.127 136.187 120.748 136.88 99.9375L136.907 98.412C137.404 98.2914 137.908 98.1697 138.418 98.0513L138.399 99.3648C137.708 119.944 136.647 161.744 137.847 199.156C139.272 243.593 143.815 285.442 146.072 304.132L146.186 305.145ZM103.513 228.933C101.683 220.018 100.613 213.507 100.594 213.393L100.336 209.488C99.2813 196.149 98.3317 181.205 98.111 168.464C97.8494 153.398 97.9603 138.334 98.1336 127.067L98.0712 125.631C98.5222 123.851 99.0802 122.1 99.7421 120.387L99.6129 128.397C99.4514 139.496 99.3588 153.966 99.6129 168.441C99.8917 184.561 101.34 204.22 102.694 219.668L103.513 228.933ZM116.547 276.505C115.508 273.458 114.318 269.865 113.085 265.94L112.17 260.669C109.834 246.855 107.761 232.182 107.174 220.912C104.117 183.446 103.962 140.198 104.155 117.177L104.193 112.942C104.668 112.422 105.16 111.932 105.66 111.47L105.669 115.476C105.455 137.983 105.54 182.435 108.669 220.813C109.353 233.954 112.067 251.741 114.857 267.379L116.547 276.505ZM123.915 284.387C120.834 269.2 117.035 246.8 115.068 221.19C112.015 181.447 112.121 134.681 112.421 111.544L112.457 106.765C112.02 106.99 111.498 107.272 110.918 107.612L110.921 111.595C110.621 134.784 110.52 181.547 113.572 221.302C115.532 246.813 119.306 269.151 122.385 284.383L124.302 293.422C124.889 294.086 125.524 294.707 126.202 295.28L123.915 284.387ZM151.041 305.93C149.647 293.402 147.184 268.031 146.164 237.41C144.485 187.031 144.365 124.15 144.399 98.0319L144.385 96.7583C143.873 96.8606 143.367 96.9628 142.869 97.0662L142.899 98.1751C142.866 124.393 142.988 187.153 144.665 237.459C145.664 267.4 148.039 292.334 149.451 305.184L149.569 306.289C150.081 306.456 150.602 306.62 151.13 306.779L151.041 305.93Z" fill="#6D0115"/>
<path d="M119.176 103.839C118.623 104.051 118.113 104.251 117.648 104.439L117.62 106.691C117.117 130.204 116.459 177.214 118.326 208.104C120.977 251.909 126.468 282.96 129.181 296.296L129.434 297.609C130.016 297.974 130.607 298.325 131.205 298.663L130.868 297.052C128.252 284.408 122.544 252.946 119.825 208.016C117.944 176.92 118.63 129.436 119.132 106.147L119.176 103.781V103.839ZM157.253 94.5995L155.738 94.817L155.762 96.0766C155.503 120.565 155.17 168.998 155.962 211.4C156.715 251.719 159.189 288.485 160.583 306.69L160.761 309.221C161.272 309.324 161.784 309.426 162.296 309.524L162.133 307.289C160.75 289.367 158.225 252.192 157.46 211.372C156.666 168.921 157.002 120.422 157.262 95.9776L157.253 94.5995ZM163.619 93.7737C163.107 93.8351 162.597 93.8965 162.089 93.96L162.084 95.1873C161.697 115.155 161.121 156.468 161.961 197.603C162.87 244.382 165.318 288.545 166.502 307.946L166.636 310.293C167.153 310.376 167.664 310.459 168.176 310.536L168.006 307.971C166.826 288.644 164.37 244.422 163.461 197.573C162.621 156.375 163.2 114.997 163.587 95.0904L163.619 93.7737ZM169.753 93.1073C169.254 93.1547 168.754 93.2074 168.255 93.258L168.245 94.5005C168.078 115.93 167.846 160.983 168.361 204.695C168.86 247.083 170.139 288.99 170.781 308.182L170.871 310.932C171.379 311.002 171.884 311.071 172.379 311.137L172.28 308.173C171.639 289.004 170.358 247.08 169.859 204.676C169.342 160.765 169.578 115.498 169.745 94.2012L169.753 93.1073ZM182.761 92.0942C182.238 92.1244 181.716 92.1534 181.195 92.1857L181.233 93.0223C181.492 132.307 182.382 266.245 182.668 309.652L182.693 312.251C183.223 312.297 183.727 312.339 184.201 312.375L184.169 309.751C183.88 266.424 182.992 132.126 182.731 92.9211L182.761 92.0942ZM189.074 91.8132C188.566 91.8294 188.055 91.8477 187.544 91.866L187.582 93.314L187.973 309.058L187.95 312.636C188.34 312.66 188.623 312.674 188.785 312.683C188.871 312.683 189.104 312.688 189.471 312.692L189.474 308.961C189.399 268.621 189.158 134.865 189.08 93.3162L189.074 91.8132ZM251.008 302.63C253.176 284.395 257.11 246.709 258.775 201.518C260.016 167.876 259.031 122.746 258.383 100.178L258.268 97.7486C258.897 97.8982 259.509 98.0468 260.106 98.1965L260.198 100.693C260.844 123.463 261.806 168.173 260.574 201.582C258.91 246.716 254.986 284.38 252.812 302.703L252.553 304.791C251.925 305.006 251.294 305.214 250.661 305.415L251.008 302.63Z" fill="#6D0115"/>
<path d="M258.527 300.024C260.28 284.152 263.356 252.776 265.21 213.641C266.988 176.063 266.896 127.547 266.68 101.825L266.643 99.9536C266.061 99.7856 265.457 99.6145 264.827 99.439L264.878 101.658C265.096 127.312 265.191 175.933 263.411 213.559C261.535 253.167 258.408 284.812 256.67 300.451L256.335 303.285C256.875 303.04 257.511 302.747 258.203 302.424L258.527 300.024ZM264.041 296.543C266.162 282.337 269.051 259.106 270.688 229.433C273.124 185.296 273.563 128.991 273.633 103.82L273.598 102.148C273.005 101.942 272.411 101.742 271.815 101.546L271.834 103.235C271.77 128.095 271.342 184.896 268.889 229.336C267.184 260.217 264.127 284.093 261.993 298.047L261.578 300.791C262.238 300.461 262.894 300.123 263.546 299.778L264.041 296.543ZM279.789 278.13C279.789 278.13 281.404 273.68 283.397 267.314L284.153 262.367C286.607 245.948 289.196 225.471 290.914 203.282C293.2 173.744 292.701 137.766 292.065 116.109L291.926 112.021C291.329 111.409 290.701 110.829 290.044 110.282L290.189 113.608C290.854 134.859 291.49 172.493 289.117 203.149C287.123 228.915 283.951 252.366 281.183 269.81L279.789 278.13Z" fill="#6D0115"/>
<path fill-rule="evenodd" clip-rule="evenodd" d="M139.32 197.973L139.369 158.74H156.821L156.728 142.986H120.447L123.726 263.559H139.669L139.319 213.559H152.687V197.973H139.32ZM181.508 263.559L181.842 142.986H163.029L165.047 263.559H181.508ZM285.039 158.177L284.94 142.986H240.203V158.194H253.207L252.832 263.559H268.76L272.142 158.177H285.039ZM206.668 198.789L206.848 157.835H216.039C220.206 166.956 222.884 179.018 224.984 198.789H206.668ZM191.981 263.556H207.222L207.391 213.698H225.652C227.087 222.498 227.439 249.662 227.525 263.556H242.308C243.704 202 239.369 167.207 227.397 142.985H190.588L191.981 263.556Z" fill="#1A1A1A"/>
<path fill-rule="evenodd" clip-rule="evenodd" d="M141.285 156.581H158.782L158.687 140.826H122.316L125.604 261.397H141.585L141.236 211.399H154.637V195.814H141.236L141.285 156.581Z" fill="url(#paint2_radial_11798_8877)"/>
<path fill-rule="evenodd" clip-rule="evenodd" d="M167.027 261.397H183.531L183.865 140.828H165.005L167.027 261.397Z" fill="url(#paint3_radial_11798_8877)"/>
<path fill-rule="evenodd" clip-rule="evenodd" d="M274.391 156.016H287.32L287.221 140.826H242.373V156.034H255.408L255.033 261.397H271L274.391 156.016Z" fill="url(#paint4_radial_11798_8877)"/>
<path fill-rule="evenodd" clip-rule="evenodd" d="M208.753 196.63L208.933 155.676H218.147C222.325 164.796 225.01 176.858 227.115 196.63H208.753ZM194.03 261.394H209.308L209.479 211.538H227.784C229.222 220.337 229.575 247.501 229.66 261.394H244.481C245.883 199.841 241.539 165.051 229.537 140.826H192.632L194.03 261.394Z" fill="url(#paint5_radial_11798_8877)"/>
<defs>
<linearGradient id="paint0_linear_11798_8877" x1="47.5186" y1="341.741" x2="349.587" y2="52.9856" gradientUnits="userSpaceOnUse">
<stop stop-color="#8C8C8C"/>
<stop offset="0.5" stop-color="#464646"/>
<stop offset="0.75" stop-color="white"/>
<stop offset="1" stop-color="white"/>
</linearGradient>
<radialGradient id="paint1_radial_11798_8877" cx="0" cy="0" r="1" gradientUnits="userSpaceOnUse" gradientTransform="translate(198.5 202.192) scale(105.508 112.775)">
<stop stop-color="#E60A47"/>
<stop offset="1" stop-color="#7C0626"/>
</radialGradient>
<radialGradient id="paint2_radial_11798_8877" cx="0" cy="0" r="1" gradientUnits="userSpaceOnUse" gradientTransform="translate(204.818 201.113) scale(82.5022 60.2862)">
<stop stop-color="#D3D1D2"/>
<stop offset="0.5" stop-color="#C9C7C8"/>
<stop offset="1" stop-color="#8D8B8C"/>
</radialGradient>
<radialGradient id="paint3_radial_11798_8877" cx="0" cy="0" r="1" gradientUnits="userSpaceOnUse" gradientTransform="translate(204.818 201.113) scale(82.5023 60.2862)">
<stop stop-color="#D3D1D2"/>
<stop offset="0.5" stop-color="#C9C7C8"/>
<stop offset="1" stop-color="#8D8B8C"/>
</radialGradient>
<radialGradient id="paint4_radial_11798_8877" cx="0" cy="0" r="1" gradientUnits="userSpaceOnUse" gradientTransform="translate(204.818 201.113) scale(82.5022 60.2862)">
<stop stop-color="#D3D1D2"/>
<stop offset="0.5" stop-color="#C9C7C8"/>
<stop offset="1" stop-color="#8D8B8C"/>
</radialGradient>
<radialGradient id="paint5_radial_11798_8877" cx="0" cy="0" r="1" gradientUnits="userSpaceOnUse" gradientTransform="translate(204.818 201.113) scale(82.5022 60.2863)">
<stop stop-color="#D3D1D2"/>
<stop offset="0.5" stop-color="#C9C7C8"/>
<stop offset="1" stop-color="#8D8B8C"/>
</radialGradient>
</defs>
</svg>
