<svg width="192" height="192" viewBox="0 0 192 192" fill="none" xmlns="http://www.w3.org/2000/svg">
<path fill-rule="evenodd" clip-rule="evenodd" d="M95.7671 124.966C138.052 124.966 172.337 112.023 172.337 96.0176C172.337 80.0125 138.052 67.0198 95.7671 67.0198C53.4325 67.0198 19.1484 80.0125 19.1484 96.0176C19.1484 112.023 53.4325 124.966 95.7671 124.966Z" fill="#425E99"/>
<path fill-rule="evenodd" clip-rule="evenodd" d="M95.7682 122.002C55.1622 122.002 22.1636 110.442 22.1636 96.0175C22.1636 81.6427 55.1622 69.9348 95.7682 69.9348C136.473 69.9348 169.422 81.6427 169.422 96.0175C169.422 110.442 136.473 122.002 95.7682 122.002Z" fill="white"/>
<path fill-rule="evenodd" clip-rule="evenodd" d="M95.768 119.977C135.139 119.977 167.099 109.257 167.099 96.0175C167.099 82.8283 135.139 72.1086 95.768 72.1086C56.3478 72.1086 24.4851 82.8283 24.4851 96.0175C24.4859 109.257 56.3478 119.977 95.768 119.977Z" fill="#425E99"/>
<path fill-rule="evenodd" clip-rule="evenodd" d="M114.444 100.809C117.803 97.6478 119.679 94.3382 124.521 94.3874C127.435 94.4365 128.176 96.7586 128.669 97.7469L135.042 86.9781H138.945L128.374 105.701C128.176 106.095 127.681 106.836 127.731 107.429C127.832 108.367 129.017 108.121 128.572 108.121C130.696 108.022 134.598 103.971 135.537 102.984C135.733 102.736 136.08 102.292 136.277 102.292C136.475 102.292 136.871 102.489 136.871 102.786C136.871 102.984 136.426 103.724 136.08 104.169C134.104 106.639 130.844 110.442 127.139 110.541C125.311 110.541 124.619 109.8 124.372 108.368C123.533 109.108 120.667 110.393 117.753 110.393C115.332 110.344 114.344 108.911 113.851 107.775C113.406 106.837 113.208 105.454 113.553 104.071C112.22 104.763 110.985 104.861 109.206 104.812C107.131 104.762 105.846 103.824 105.205 101.403C102.834 105.751 102.734 105.898 100.314 110.443H96.1154L101.5 101.305C102.193 100.069 102.538 99.0815 102.784 98.0449C102.933 97.4513 102.488 96.9076 101.845 96.8593C101.154 96.8593 100.019 97.5512 98.9312 98.5878C98.9312 98.5878 96.1653 101.552 94.1396 104.565C92.2121 107.431 88.9033 110.69 85.2973 110.69C82.6788 110.69 80.3075 109.258 79.8138 106.492C79.8138 106.492 79.5665 107.134 77.2444 108.467C77.047 108.566 76.5533 108.862 76.4059 108.764C75.9605 108.369 75.714 107.875 75.6641 107.528C75.8123 107.578 76.1087 107.331 77.047 106.59C78.8746 105.207 79.2701 104.119 79.2701 104.119C79.7139 103.18 80.5057 101.698 81.0485 100.661C82.5314 97.6969 85.0992 94.6838 89.298 94.5356C89.9899 94.5356 90.1872 94.832 90.3354 95.0793C90.7301 95.3757 90.5827 95.9685 90.5827 95.9685C87.6186 96.4131 85.5937 98.1415 84.3581 99.8217C83.6179 100.908 82.827 102.687 82.6788 103.971C82.3824 106.194 83.4198 107.675 84.951 108.021C87.816 108.466 90.1872 106.391 92.0647 103.18C92.5593 102.34 92.9048 100.166 92.9048 98.9808C92.9048 97.7952 92.2621 96.5604 91.7683 96.0659C91.7683 95.2266 92.3112 94.683 92.9531 94.683C93.1505 94.683 93.3486 94.6829 93.546 94.8803C94.5343 95.8686 95.0779 97.7461 95.0779 99.1781C95.0779 99.6727 95.0779 100.166 94.9789 100.661C97.0537 98.1415 99.6714 94.8811 101.698 94.2392C102.093 94.0418 102.488 94.0418 102.883 94.0418C106.588 93.9428 106.094 97.3023 106.094 97.3023C108.069 95.0301 109.453 94.19 111.28 94.2883C113.257 94.3874 113.948 95.7711 113.948 96.8577C113.898 98.1415 112.961 99.6236 111.332 99.6727C109.897 99.6727 109.058 98.9808 108.614 97.6969C107.675 98.0433 107.231 98.6852 107.033 99.9691C106.736 101.599 107.972 102.884 109.552 102.884C112.27 102.885 113.456 101.698 114.444 100.809ZM117.408 79.5189C117.408 81.0999 111.874 84.1131 107.181 84.1131C99.8704 84.1131 92.2629 80.6054 88.7568 79.8153C84.9526 78.926 81.4948 78.185 78.7772 78.185C69.243 78.185 64.9942 82.2856 65.1924 86.0397C65.2915 87.5709 66.5254 88.5592 68.3538 88.2128C70.3304 87.8673 73.0963 85.9898 73.7882 84.3596C73.9364 84.014 74.3319 83.9641 74.4801 84.0632C74.7765 84.3104 74.6774 84.656 74.6774 84.656C74.4301 86.5826 71.4661 91.9179 66.3289 91.9179C63.4639 91.9179 61.5372 89.2502 61.5864 86.6317C61.6355 81.7411 66.6253 76.8013 78.9254 76.8013C81.2467 76.8013 83.8652 76.9986 86.731 77.4932C90.0398 78.086 98.2893 79.4689 105.008 79.568C107.479 79.568 110.64 79.6671 113.209 79.2716C115.926 78.827 115.333 78.7279 116.42 78.7279C117.408 78.7279 117.408 79.1234 117.408 79.5189Z" fill="white"/>
<path fill-rule="evenodd" clip-rule="evenodd" d="M124.716 96.7095C122.986 96.5122 120.812 97.9942 119.035 100.168C118.145 101.255 117.207 103.33 117.058 104.564C116.861 105.8 117.207 107.035 117.652 107.38C118.096 107.726 120.073 108.763 123.135 105.652C124.864 103.922 126.543 101.106 126.543 101.106L126 100.957C127.037 99.0316 126.838 96.956 124.716 96.7095Z" fill="#425E99"/>
<path fill-rule="evenodd" clip-rule="evenodd" d="M88.6061 90.8806C88.6061 91.4243 89.3463 91.8689 89.9891 91.9188C89.8409 92.4617 89.89 92.709 89.6435 92.6599C88.1615 92.6599 87.5687 91.227 87.5687 91.227C85.5937 91.5725 83.6671 91.8198 79.7639 92.2152C69.9334 108.122 66.871 110.741 60.8439 110.741C56.546 110.741 52.7426 107.925 52.6436 102.886C52.5936 99.8236 55.0639 96.0685 59.6582 94.932C60.2019 94.932 60.3992 95.1302 60.3992 95.4266C60.3992 95.6247 60.2019 95.8712 59.7565 96.0685C58.4227 96.5631 56.1014 99.1808 56.1014 101.602C56.1014 103.43 57.2379 105.455 59.1637 105.899C59.7074 106.048 60.2019 105.998 60.6956 105.998C65.4873 105.998 70.8717 100.614 76.7007 92.4134C75.7624 92.4625 71.7609 92.908 70.7726 94.0436C70.3288 94.3892 70.0324 94.1918 69.9334 93.7964C69.9334 93.6973 70.0816 93.3517 70.2306 93.1536C71.8109 91.3752 76.5534 90.9805 77.689 90.8323C82.1351 84.0149 87.8651 79.7662 89.0507 79.8161C89.248 79.8161 89.6935 80.1125 89.4953 80.6063C89.4454 80.7053 88.9516 81.2482 88.7551 81.3964C87.7668 82.2856 84.4073 84.4595 80.7522 90.6341C83.7162 90.4859 87.174 89.8931 87.174 89.8931C87.174 89.8931 86.9767 89.2512 86.9767 88.7075C87.1249 86.5835 88.3596 85.2988 89.9407 85.5461C90.8308 85.6943 91.4228 86.4353 91.4228 87.2255C91.4228 88.0656 90.7808 89.3003 90.1381 89.8931C89.6927 90.2378 89.1981 90.5842 88.6061 90.8806Z" fill="white"/>
<path fill-rule="evenodd" clip-rule="evenodd" d="M88.358 89.7933C88.358 89.7933 88.8526 89.8433 89.5928 89.0031C89.8892 88.7067 90.3838 87.8174 90.2847 87.2245C90.2348 86.9281 90.0874 86.5825 89.7418 86.6317C88.9999 86.7807 88.5553 87.1263 88.358 87.8673C88.1115 88.6576 88.2106 89.2013 88.358 89.7933Z" fill="#425E99"/>
</svg>
