<svg width="192" height="192" viewBox="0 0 192 192" fill="none" xmlns="http://www.w3.org/2000/svg">
<path fill-rule="evenodd" clip-rule="evenodd" d="M95.7433 57.4456C53.4421 57.4456 19.1484 74.3776 19.1484 95.258C19.1484 116.14 53.4421 133.073 95.7433 133.073C138.041 133.073 172.337 116.141 172.337 95.258C172.335 74.3791 138.04 57.4456 95.7433 57.4456ZM88.4765 65.8615C97.2188 62.7708 123.192 65.8615 133.281 70.707C136.51 73.8038 118.884 83.7529 97.8973 88.0656C67.8921 94.1164 82.1524 70.9742 88.4765 65.8615ZM36.9472 110.666C30.3514 105.963 17.4361 92.5043 38.8311 78.5127C50.1328 71.9214 56.4553 70.4368 64.258 68.8247C68.0272 68.014 70.7172 68.9582 67.3532 71.7848C60.2231 79.1852 45.4224 103.668 44.0789 109.054C42.9996 112.689 40.8486 113.626 36.9472 110.666ZM98.5653 126.277C85.9202 127.619 57.8018 123.451 57.2614 119.823C57.8018 111.071 101.931 96.5407 109.867 104.614C113.234 110.936 106.776 125.872 98.5653 126.277ZM162.881 100.841C159.649 108.243 148.753 116.589 125.882 122.241C122.38 123.042 121.17 120.893 123.456 118.874C127.227 116.588 145.39 86.1817 147.676 80.1233C149.023 77.0265 151.578 78.2425 153.194 79.4508C160.461 84.1582 165.976 91.8288 162.881 100.841Z" fill="#295BA7"/>
</svg>
