<svg width="192" height="192" viewBox="0 0 192 192" fill="none" xmlns="http://www.w3.org/2000/svg">
<path d="M85.8374 108.567C86.3803 108.567 89.6815 108.55 92.3465 108.364C95.5671 108.139 97.227 107.035 98.4434 105.453C99.952 103.494 99.9422 99.8221 99.9402 96.9646C99.9383 93.7733 99.9824 84.5275 99.9687 83.7031C99.9579 82.8755 99.6448 82.4455 98.6986 82.4534C97.7513 82.4593 95.0803 82.4534 94.1634 82.4613L92.53 82.4534C91.5828 82.4457 91.2706 82.8755 91.257 83.7031V84.5894C91.2706 85.5681 91.2441 94.8964 91.2402 97.0834V98.0522C91.2147 100.067 90.9693 102.026 88.1206 102.329C86.8916 102.459 86.3283 102.517 84.8056 102.517C83.2814 102.517 82.7198 102.459 81.4741 102.329C78.6263 102.03 78.4537 100.067 78.4272 98.0522V97.0834C78.4232 94.8964 78.3967 85.5681 78.4085 84.5894V83.7031C78.3967 82.8755 78.0827 82.4455 77.1373 82.4534L75.5019 82.4613C74.5851 82.4534 71.9161 82.4593 70.9678 82.4534C70.0227 82.4457 69.7094 82.8755 69.6987 83.7031C69.6849 84.5275 69.6947 93.7733 69.6909 96.9646C69.689 99.8221 69.6811 103.494 71.1878 105.453C72.4011 107.035 74.0383 108.139 77.2483 108.364C79.9134 108.552 83.1164 108.567 83.8261 108.567H85.8375H85.8374ZM27.9486 107.368C27.93 108.266 27.6649 108.62 26.7452 108.642C25.8224 108.668 21.3079 108.654 20.4855 108.647C19.6667 108.638 19.1622 108.389 19.1602 107.511C19.1544 106.633 19.1544 84.5675 19.1484 83.7293C19.1465 82.895 19.5401 82.4995 20.4049 82.5258C21.2678 82.5465 25.7017 82.5024 26.8786 82.5229C27.769 82.516 27.9781 83.0295 27.981 83.9463C28.0026 85.1792 27.9702 106.474 27.9486 107.368ZM150.958 98.4411C150.974 100.512 151.475 101.898 153.849 102.267C155.749 102.464 158.32 102.504 160.293 102.304C162.099 102.105 163.49 101.373 163.571 99.3284C163.663 97.6018 163.671 97.3043 163.677 95.4834C163.686 91.0642 163.638 84.6453 163.653 84.0153L163.661 83.7472C163.646 82.7686 164.093 82.3553 164.921 82.3553L165.417 82.3386C166.36 82.3466 170.156 82.3555 171.075 82.3555C171.903 82.3555 172.35 82.7686 172.336 83.7473L172.324 84.0526C172.342 84.9753 172.314 94.7513 172.304 97.6361C172.252 99.085 172.149 102.46 171.033 104.6C170.061 106.457 168.321 107.885 165.364 108.179C159.679 108.745 154.496 108.51 150.505 108.343C147.539 108.189 145.628 107.525 144.042 105.763C142.248 103.743 142.154 100.29 142.18 96.3307C142.146 87.5933 142.119 85.0755 142.133 84.242V83.7472C142.119 82.7686 142.566 82.3553 143.394 82.3553L143.887 82.3386C144.839 82.3466 148.777 82.3555 149.698 82.3555C150.524 82.3555 150.974 82.7686 150.958 83.7473C150.944 84.7299 150.954 95.9194 150.958 98.3842V98.4411ZM106.741 82.4327C107.628 82.4063 123.499 82.425 128.461 82.4524C132.855 82.5015 134.479 83.1268 135.672 84.723C137.048 86.5674 137.191 88.8781 136.078 90.7794C135.28 92.1428 133.804 93.3326 131.589 94.4134C129.831 95.3166 126.753 96.6868 123.744 98.011C119.715 99.7907 116.066 101.332 115.453 101.653C114.622 102.089 114.936 102.741 115.596 102.732C117.318 102.711 133.942 102.576 134.83 102.574C135.721 102.573 136.011 102.894 136.011 103.851C136.009 104.852 136.018 106.564 136.02 107.34C136 108.274 135.702 108.529 134.818 108.538C133.808 108.549 116.099 108.554 114.839 108.559C112.04 108.553 109.157 108.563 107.437 107.73C105.289 106.686 104.563 104.595 104.561 103.128C104.663 99.5542 106.655 98.4096 110.243 96.7467C114.234 94.9356 126.013 89.8401 126.715 89.5141C127.584 89.1088 127.315 88.3116 126.508 88.3382C125.888 88.351 107.845 88.4432 106.954 88.4424C106.065 88.4393 105.5 88.296 105.5 87.4341C105.502 86.5763 105.492 84.4246 105.492 83.5392C105.492 82.6497 105.85 82.4613 106.741 82.4328V82.4327ZM60.1427 95.8728C56.1515 94.215 44.5057 90.5311 42.9606 89.7664C42.2166 89.4462 42.2667 88.4962 43.2737 88.4962C44.9936 88.5216 62.0638 88.555 62.9552 88.561C63.8454 88.563 64.2205 88.2163 64.2205 87.2573C64.2244 86.257 64.2175 84.4215 64.2057 83.6156C64.1939 82.796 63.8984 82.4857 63.1621 82.4837C62.4261 82.4837 42.7112 82.5073 42.7112 82.5073C37.2093 82.4946 35.7978 83.3043 34.239 85.1763C32.2068 87.6186 32.8527 90.9248 34.0189 92.6298C35.3323 94.537 37.5008 95.3801 40.9511 96.5876C45.1308 97.9471 54.9744 101.409 54.9744 101.409C55.8765 101.799 55.8077 102.744 54.6938 102.744C54.6938 102.744 35.9164 102.575 35.027 102.574C34.1358 102.573 33.7009 103.007 33.697 103.868C33.697 104.729 33.6891 106.307 33.6852 107.202C33.6852 108.087 33.9423 108.593 34.8337 108.624C35.7191 108.655 51.8647 108.594 56.8297 108.584C60.607 108.574 64.2556 107.407 65.0045 103.235C65.4532 99.6405 63.9316 97.4122 60.1427 95.8729" fill="#E60012"/>
</svg>
