<svg width="218" height="218" viewBox="0 0 218 218" fill="none" xmlns="http://www.w3.org/2000/svg">
<g clip-path="url(#clip0_0_2890)">
<path d="M196.2 92.8513V116.073C196.2 118.028 195.203 119.823 193.527 120.821L178.485 130.037C178.205 130.197 177.886 129.998 177.886 129.678V102.986C177.886 102.667 177.527 102.467 177.288 102.667L137.229 128.721C136.511 129.2 135.673 129.439 134.835 129.439H108.262C106.506 129.439 105.07 128.003 105.07 126.247V93.2503C105.07 92.9311 104.711 92.7316 104.471 92.8912L77.8187 108.971C77.5793 109.09 77.5793 109.41 77.7389 109.609L97.0502 128.88C97.2497 129.08 97.0901 129.439 96.8108 129.439H78.9359C77.9783 129.439 77.0606 129.08 76.3823 128.402L64.9711 117.03C64.8514 116.911 64.6519 116.871 64.4923 116.99L44.822 128.88C44.2235 129.239 43.5053 129.439 42.7871 129.439H24.992C23.2364 129.439 21.8 128.003 21.8 126.247V103.345C21.8 101.39 22.8374 99.5544 24.5132 98.5569L39.675 89.4199C39.9542 89.2603 40.2734 89.4598 40.2734 89.779V120.142C40.2734 120.462 40.6325 120.661 40.8719 120.502L91.0254 90.2179C91.6239 89.8588 92.3421 89.6593 93.0603 89.6593H119.793C121.548 89.6593 122.985 91.0957 122.985 92.8513V125.569C122.985 125.888 123.344 126.087 123.583 125.888L178.804 90.2977C179.442 89.8987 180.2 89.6593 180.958 89.6593H192.968C194.764 89.6593 196.2 91.0558 196.2 92.8513Z" fill="#C72128"/>
</g>
<defs>
<clipPath id="clip0_0_2890">
<rect width="174.4" height="40.6973" fill="white" transform="translate(21.8 89.3801)"/>
</clipPath>
</defs>
</svg>
