<svg width="192" height="192" viewBox="0 0 192 192" fill="none" xmlns="http://www.w3.org/2000/svg">
<path d="M95.8894 43.2305C88.8689 43.2305 82.1368 43.8152 76.9327 44.8755C68.163 46.6631 63.5708 48.5003 57.2775 52.7337C41.0725 63.6401 37.672 81.7127 37.672 94.9528C37.672 115.141 44.4234 129.842 57.742 138.649C65.9911 144.095 77.7784 146.523 95.9647 146.523C112.862 146.523 123.227 144.337 132.936 138.724C142.504 133.198 153.907 121.098 153.907 94.8375C153.907 75.5427 147.352 61.3768 134.42 52.7337C128.354 48.6829 124.462 46.8857 114.699 44.8659C109.576 43.812 102.902 43.2305 95.8958 43.2305H95.8894ZM95.9647 156.997C70.9309 156.997 50.3675 151.299 38.0644 140.957C26.0961 130.903 19.9278 116.046 19.2086 95.5374C18.5438 76.5775 26.3348 58.5385 39.5381 48.4586C52.0382 38.9138 69.8593 34.4673 95.6203 34.4673C122.147 34.4673 140.104 38.9426 152.133 48.5483C164.928 58.7659 172.841 77.255 172.284 95.6512C171.664 116.171 165.591 130.515 153.171 140.785C140.54 151.24 120.223 156.997 95.9647 156.997Z" fill="white"/>
<path d="M96.1587 123.354C94.9782 123.354 94.6498 122.612 93.5574 120.16C93.0705 119.064 92.3353 117.411 91.2237 115.201C86.7164 106.229 78.8117 98.9412 69.5375 95.2075C66.9202 94.1567 63.3115 93.0851 59.8213 92.0504L59.7716 92.036C52.6134 89.9057 44.5005 87.4902 38.393 83.8494L38.1655 80.0084V70.2505L44.7023 65.8505C45.1091 66.118 48.2662 68.1538 52.7335 70.1768C54.7565 71.0946 56.9717 72.0701 59.2526 73.0728L59.3808 73.1305C67.1253 76.5438 75.9045 80.412 79.4684 82.9733C85.4189 87.2435 90.9498 93.5 94.6434 100.136C95.172 101.086 95.6109 101.424 95.8464 101.424C96.045 101.424 96.5303 101.134 97.0861 100.054C100.812 92.768 107.435 86.0791 112.346 82.6801C117.082 79.4093 125.107 76.1962 132.19 73.3595L132.246 73.3371C135.509 72.0301 138.591 70.7951 140.925 69.7171C144.572 68.0289 147.018 66.3662 147.221 66.2253L153.401 70.0503V80.0084L153.175 83.6492C149.023 86.0694 146.512 87.5302 136.329 90.1475L135.821 90.2789C117.292 94.9944 105.457 103.388 100.648 115.22C100.077 116.626 99.6297 117.872 99.2725 118.87L99.2036 119.061C98.1801 121.92 97.6676 123.354 96.1587 123.354Z" fill="white"/>
<path d="M27.7354 94.5881C27.7354 137.584 56.583 148.019 77.5628 150.497C88.1872 151.753 103.567 151.675 113.408 150.517C134.201 148.084 164.535 137.723 164.535 94.5257C164.535 63.4708 149.919 37.7562 96.1335 37.7562C39.6396 37.7562 27.7354 68.904 27.7354 94.5881ZM78.4261 145.719C62.3813 143.479 37.5813 135.007 37.5813 94.263C37.5813 70.9766 48.0056 43.1029 95.9638 43.1029C139.251 43.1029 154.031 66.3812 154.031 94.1749C154.031 132.537 131.824 142.543 113.505 145.562C108.816 146.338 102.26 146.743 95.5793 146.745C89.5375 146.745 83.3916 146.411 78.4261 145.719Z" fill="url(#paint0_linear_9797_9724)"/>
<path d="M27.7354 94.5881C27.7354 137.584 56.583 148.019 77.5628 150.497C88.1872 151.753 103.567 151.675 113.408 150.517C134.201 148.084 164.535 137.723 164.535 94.5257C164.535 63.4708 149.919 37.7562 96.1335 37.7562C39.6396 37.7562 27.7354 68.904 27.7354 94.5881ZM78.4261 145.719C62.3813 143.479 37.5813 135.007 37.5813 94.263C37.5813 70.9766 48.0056 43.1029 95.9638 43.1029C139.251 43.1029 154.031 66.3812 154.031 94.1749C154.031 132.537 131.824 142.543 113.505 145.562C108.816 146.338 102.26 146.743 95.5793 146.745C89.5375 146.745 83.3916 146.411 78.4261 145.719Z" fill="url(#paint1_linear_9797_9724)"/>
<path d="M27.9214 95.4403C27.9214 138.633 54.5009 148.885 75.2917 151.321C82.3539 152.147 83.986 150.917 85.9434 150.171C93.9698 147.105 76.9063 148.303 62.2246 141.476C49.1286 135.387 37.5816 121.821 37.5816 95.0896C37.5816 65.779 52.4731 42.6689 96.209 42.5632V38.6693C42.5198 38.7045 27.9214 64.4047 27.9214 95.4403Z" fill="url(#paint2_linear_9797_9724)"/>
<path d="M39.6619 48.5489C25.0507 59.7035 19.4478 78.1717 19.4478 95.5892C19.4478 111.578 25.2573 129.625 37.2961 139.75C52.4471 152.488 72.5203 156.877 95.7362 156.877C117.398 156.877 139.078 152.006 153.025 140.469C166.345 129.45 171.909 112.316 171.909 95.7894C171.909 78.7035 165.451 60.0094 151.929 49.2136C138.021 38.1086 117.168 34.5895 95.6497 34.5895C76.9091 34.5895 53.0654 38.3136 39.6619 48.5489ZM78.4516 151.321C57.3885 149.097 27.4213 139.103 27.4213 95.2801C27.4213 69.5927 39.3255 38.4466 95.8227 38.4466C147.382 38.4466 164.219 66.3524 164.219 95.2128C164.219 141.595 126.096 149.895 113.657 151.277C107.549 151.957 101.693 152.271 95.9652 152.271C90.0339 152.271 84.2404 151.934 78.4516 151.321Z" fill="url(#paint3_linear_9797_9724)"/>
<g opacity="0.740005">
<g opacity="0.740005">
<g opacity="0.740005">
<g opacity="0.740005">
<g opacity="0.740005">
<g opacity="0.740005">
<path opacity="0.740005" fill-rule="evenodd" clip-rule="evenodd" d="M28.9997 80.9667C31.6186 73.4785 34.9038 61.0809 44.5463 52.5227C55.4142 42.877 74.52 39.4684 80.1261 38.8197C77.9365 37.5383 76.7881 37.266 73.5621 36.2297C57.8457 38.533 44.5623 42.8786 35.0479 52.8687C25.5335 62.8573 21.5163 75.3782 20.2461 83.7266C23.5313 82.5188 24.8543 82.2305 28.9997 80.9667Z" fill="url(#paint4_linear_9797_9724)"/>
</g>
</g>
</g>
</g>
</g>
</g>
<path d="M50.1995 58.1082C68.767 36.981 125.072 37.4663 141.74 58.1082C130.859 44.1184 113.502 41.0094 95.2825 41.0094C77.0561 41.0094 61.0834 45.6945 50.1995 58.1082Z" fill="url(#paint5_linear_9797_9724)"/>
<path d="M138.459 135.144C134.367 138.188 129.818 141.439 123.918 143.304C115.753 145.886 106.592 146.977 96.0111 146.977C85.4299 146.977 73.9741 146.016 64.8457 142.613C60.9759 141.172 57.4905 138.905 54.6121 136.828C53.1897 135.798 53.1065 135.729 54.3526 136.871C64.3524 146.016 76.058 148.527 95.9662 148.527C115.008 148.527 127.816 144.683 138.746 135.26C139.438 134.659 139.731 134.355 139.646 134.355C139.568 134.355 139.166 134.616 138.459 135.144Z" fill="url(#paint6_linear_9797_9724)"/>
<path d="M167.091 119.944C166.585 120.913 166.691 120.838 165.916 121.933C165.121 123.043 164.883 123.163 163.412 124.089C162.236 124.834 160.772 125.315 158.445 126.594C157.844 126.923 157.556 127.16 156.331 128.754C155.448 129.896 154.503 131.206 154.015 131.766C152.501 133.512 148.484 136.729 146.281 138.659C144.361 140.334 145.005 140.456 147.721 139.517C150.154 138.68 153.758 137.177 155.892 136.296C157.237 135.742 158.344 134.803 158.788 134.28C161.424 131.215 164.508 126.24 166.348 122.146C167.298 120.03 167.235 120.184 167.642 118.848C167.681 118.72 167.695 118.664 167.689 118.664C167.67 118.664 167.399 119.364 167.091 119.944Z" fill="url(#paint7_linear_9797_9724)"/>
<g opacity="0.899994">
<g opacity="0.899994">
<g opacity="0.899994">
<g opacity="0.899994">
<g opacity="0.899994">
<g opacity="0.899994">
<path opacity="0.899994" fill-rule="evenodd" clip-rule="evenodd" d="M27.7443 95.1584C27.7443 81.268 32.6601 63.1746 44.4987 52.6671C55.3666 43.0213 73.955 39.4109 79.5611 38.7622C77.3747 37.4808 76.2215 37.2085 72.9987 36.1722C57.2807 38.4755 43.9413 43.0533 34.4252 53.0419C24.2749 63.6984 19.5193 81.1863 19.2822 92.9112C22.0469 93.7185 24.1179 94.2951 27.7443 95.1584Z" fill="url(#paint8_linear_9797_9724)"/>
</g>
</g>
</g>
</g>
</g>
</g>
<path d="M95.8917 43.0811C89.1163 43.0811 82.3089 43.6273 76.9029 44.7293C68.2118 46.5025 63.5219 48.3509 57.1997 52.6084C41.8757 62.9205 37.5286 79.8815 37.5286 94.954C37.5286 115.661 44.4914 130.064 57.6626 138.77C67.2107 145.081 80.8881 146.673 95.967 146.673C111.541 146.673 122.579 144.89 133.014 138.855C145.083 131.879 154.056 118.171 154.056 94.8387C154.056 76.9935 148.338 61.8553 134.504 52.6084C128.278 48.4486 124.349 46.7091 114.732 44.7197C109.451 43.6305 102.688 43.0811 95.8917 43.0811ZM95.8917 43.2525H95.8982C102.906 43.2525 109.582 43.8356 114.695 44.8895C124.461 46.9093 128.347 48.7049 134.409 52.7525C147.331 61.3892 153.888 75.5503 153.888 94.8387C153.888 121.088 142.487 133.183 132.928 138.704C123.222 144.314 112.861 146.5 95.967 146.5C77.7807 146.5 65.9966 144.07 57.7555 138.629C44.4482 129.829 37.6967 115.133 37.6967 94.954C37.6967 81.7187 41.1005 63.6509 57.2926 52.7525C63.5811 48.5207 68.167 46.6867 76.9398 44.8991C82.1391 43.8388 88.8712 43.2525 95.8917 43.2525Z" fill="#343030"/>
<path d="M95.8988 42.7354H95.8924C88.8383 42.7354 82.0709 43.3232 76.8347 44.39C67.9898 46.1935 63.3575 48.0468 57.0066 52.3219C40.6222 63.3468 37.1816 81.5924 37.1816 94.9542C37.1816 115.317 44.0099 130.161 57.4759 139.062C65.8034 144.564 77.6724 147.019 95.9677 147.019C112.962 147.019 123.399 144.81 133.191 139.155C142.87 133.561 154.401 121.332 154.401 94.8389C154.401 75.3663 147.775 61.0594 134.698 52.3203C128.579 48.231 124.65 46.4178 114.801 44.382C109.658 43.32 102.945 42.7354 95.8988 42.7354ZM95.8924 43.0813C102.689 43.0813 109.451 43.6307 114.732 44.7199C124.349 46.7077 128.278 48.4472 134.504 52.6086C148.339 61.8539 154.057 76.9937 154.057 94.8389C154.057 118.172 145.086 131.878 133.015 138.855C122.579 144.889 111.542 146.673 95.9677 146.673C80.8888 146.673 67.2114 145.08 57.6633 138.77C44.4921 130.063 37.5292 115.662 37.5292 94.9542C37.5292 79.8817 41.8764 62.9207 57.2004 52.6086C63.5225 48.3511 68.2125 46.5027 76.9036 44.7295C82.3095 43.6275 89.117 43.0813 95.8924 43.0813Z" fill="#767677"/>
<path d="M95.6234 34.445C69.8576 34.445 52.0316 38.8915 39.5283 48.4396C26.3202 58.5226 18.5245 76.5696 19.1876 95.5392C19.9084 116.047 26.0768 130.916 38.0547 140.976C50.361 151.322 70.9275 157.018 95.9678 157.018C120.226 157.018 140.548 151.263 153.187 140.803C165.614 130.526 171.689 116.178 172.309 95.6513C172.865 77.2472 164.951 58.7517 152.149 48.5309C140.117 38.922 122.153 34.445 95.6234 34.445ZM95.6234 34.618C117.942 34.618 138.371 37.7495 152.042 48.6654C165.719 59.5862 172.647 78.7929 172.139 95.6465C171.564 114.704 166.402 129.652 153.082 140.669C139.135 152.208 117.63 156.85 95.9678 156.85C74.1935 156.85 52.0637 152.533 38.1604 140.845C25.4633 130.171 20.0269 114.472 19.3638 95.5328C18.7119 76.9124 26.096 58.9103 39.6308 48.5773C54.5752 37.168 75.8241 34.618 95.6234 34.618Z" fill="#343030"/>
<path d="M95.6236 34.6188C75.8243 34.6188 54.5754 37.1688 39.631 48.5781C26.0962 58.9094 18.7121 76.9131 19.364 95.5335C20.0271 114.473 25.4635 130.17 38.1606 140.844C52.0639 152.532 74.1937 156.85 95.968 156.85C117.63 156.85 139.135 152.207 153.082 140.669C166.402 129.651 171.564 114.705 172.139 95.6457C172.647 78.7936 165.72 59.5869 152.042 48.6661C138.371 37.7486 117.942 34.6188 95.6236 34.6188ZM95.6236 34.9647C122.029 34.9647 139.891 39.4032 151.829 48.9352C164.506 59.0567 172.34 77.3888 171.789 95.636C171.177 115.999 165.157 130.229 152.856 140.404C140.311 150.783 120.108 156.503 95.968 156.503C71.0463 156.503 50.5998 150.849 38.3833 140.578C26.5303 130.615 20.4212 115.871 19.7084 95.5207C19.0501 76.7177 26.7657 58.8341 39.8441 48.852C52.2513 39.3776 69.9763 34.9647 95.6236 34.9647Z" fill="#626162"/>
<g opacity="0.199997">
<g opacity="0.199997">
<g opacity="0.199997">
<g opacity="0.199997">
<g opacity="0.199997">
<g opacity="0.199997">
<path opacity="0.199997" fill-rule="evenodd" clip-rule="evenodd" d="M135.17 45.4992C138.397 45.9413 150.004 48.4624 153.939 50.8539C157.681 53.1252 157.05 53.2148 157.05 53.2148L150.079 55.8625C150.079 55.8625 145.186 50.3926 135.17 45.4992Z" fill="url(#paint9_linear_9797_9724)"/>
</g>
</g>
</g>
</g>
</g>
</g>
<g opacity="0.199997">
<g opacity="0.199997">
<g opacity="0.199997">
<g opacity="0.419998">
<g opacity="0.419998">
<g opacity="0.419998">
<g opacity="0.419998">
<g opacity="0.419998">
<g opacity="0.419998">
<path opacity="0.419998" fill-rule="evenodd" clip-rule="evenodd" d="M55.8076 45.3278C48.8976 46.9663 39.6122 49.3321 35.9458 51.7172C34.2191 52.84 29.4651 59.0564 29.4651 59.0564L36.2021 53.4438C39.4873 52.5805 39.6555 52.4075 42.1654 51.8036C44.9557 51.1309 46.5446 50.9163 49.62 48.8564C52.6986 46.795 62.7191 43.686 55.8076 45.3278Z" fill="url(#paint10_linear_9797_9724)"/>
</g>
</g>
</g>
</g>
</g>
</g>
</g>
</g>
</g>
<path d="M96.0556 38.7639C82.0723 38.7639 70.333 40.4377 61.1678 43.7406C40.2008 51.2944 28.1732 70.0061 28.1732 95.0768C28.1732 135.454 53.2118 147.243 74.2189 150.02C89.8232 152.082 100.887 152.17 114.859 150.296C137.089 147.308 163.587 135.289 163.587 95.0144C163.587 79.032 159.338 66.7065 150.603 57.3395C138.941 44.8394 121.096 38.7639 96.0556 38.7639ZM96.0989 152.642C89.2978 152.642 82.3029 152.135 74.0811 151.047C56.5499 148.728 27.1353 138.374 27.1353 95.0768C27.1353 69.5432 39.4127 50.4759 60.817 42.7667C70.096 39.4222 81.9521 37.7276 96.0556 37.7276C121.403 37.7276 139.492 43.9103 151.355 56.6315C160.283 66.2004 164.619 78.7565 164.619 95.0144C164.619 136.039 137.639 148.278 114.996 151.321C108.295 152.219 102.294 152.642 96.0989 152.642Z" fill="white"/>
<g opacity="0.5">
<g opacity="0.5">
<path opacity="0.5" d="M96.0575 37.899C81.9732 37.899 70.1346 39.592 60.8749 42.9301C39.5459 50.6121 27.3117 69.6218 27.3117 95.0769C27.3117 113.584 32.6247 127.865 43.1114 137.512C50.9104 144.69 61.3378 149.187 74.1086 150.874C82.3176 151.963 89.306 152.466 96.1071 152.466C102.296 152.466 108.29 152.051 114.979 151.15C137.548 148.114 164.452 135.914 164.452 95.0144C164.452 78.8062 160.129 66.2885 151.232 56.7484C139.399 44.0657 121.354 37.899 96.0575 37.899ZM96.1071 152.811C89.2868 152.811 82.2856 152.304 74.0621 151.218C61.2193 149.519 50.7326 144.992 42.8776 137.767C32.3172 128.049 26.9641 113.684 26.9641 95.0769C26.9641 69.4664 39.2832 50.3414 60.7564 42.6049C70.0578 39.2541 81.9332 37.553 96.0575 37.553C121.455 37.553 139.587 43.755 151.481 56.513C160.442 66.1187 164.795 78.7133 164.795 95.0144C164.795 136.165 137.729 148.441 115.022 151.491C108.322 152.394 102.309 152.811 96.1071 152.811Z" fill="#C7C7C7"/>
</g>
</g>
<path d="M24.5719 120.463C25.3791 123.109 28.9799 129.652 29.957 131.055C37.1809 141.427 48.044 147.656 58.3112 150.778C58.8686 150.944 70.8466 154.34 71.2662 153.972C72.7078 152.703 59.6903 147.286 59.3476 147.148C54.5775 145.208 48.3403 141.479 44.9558 138.715C42.6909 136.862 38.1483 132.66 36.7212 130.783C35.27 128.866 33.5609 125.893 31.3329 125.025C29.9441 124.483 28.8357 124.024 27.447 123.404C25.6578 122.609 25.2078 121.15 24.7448 120.175C24.4613 119.566 24.2915 119.221 24.2515 119.221C24.2099 119.221 24.3108 119.604 24.5719 120.463Z" fill="url(#paint11_linear_9797_9724)"/>
<g opacity="0.899994">
<g opacity="0.899994">
<g opacity="0.899994">
<g opacity="0.899994">
<g opacity="0.899994">
<g opacity="0.899994">
<path opacity="0.899994" fill-rule="evenodd" clip-rule="evenodd" d="M162.762 81.1365C160.142 73.6515 156.857 61.2523 147.214 52.6957C136.346 43.0515 117.244 39.643 111.637 38.9943C113.822 37.7129 114.972 37.439 118.201 36.4026C133.919 38.7044 147.259 43.2822 156.775 53.2723C164.764 61.6623 168.269 71.4635 170.071 79.469C167.311 80.2731 166.385 80.2731 162.762 81.1365Z" fill="url(#paint12_linear_9797_9724)"/>
</g>
</g>
</g>
</g>
</g>
</g>
<path d="M117.653 85.7225C117.584 85.7545 117.522 85.7785 117.472 85.8106C113.843 87.6206 96.3675 106.795 95.9351 107.228C95.509 107.659 76.8213 92.5171 76.4753 91.9117C76.1326 91.3062 44.3233 79.8489 44.3233 79.8489L36.6365 79.1585C36.6365 79.1585 37.1522 81.1431 39.1384 83.9077C47.128 88.958 62.9501 92.3794 71.1399 95.6774C81.05 99.6626 87.9503 108.679 91.5623 115.129C93.9825 119.449 94.4519 123.247 96.1353 123.247C97.8235 123.247 98.7702 119.23 99.8962 116.636C105.466 103.782 112.303 96.0843 136.299 89.996C151.092 86.2415 153.225 83.1613 153.225 83.1613L156.39 75.6747C156.39 75.6747 122.133 83.7523 117.653 85.7225Z" fill="url(#paint13_linear_9797_9724)"/>
<path d="M35.3986 76.8566C36.6719 80.1963 38.7927 83.8883 38.7927 83.8883C38.7927 83.8883 42.4959 85.8296 47.2115 87.3834C57.8616 90.904 71.3067 92.8742 75.1798 94.7258C89.1359 101.408 92.349 107.662 95.6198 113.146C94.1814 109.524 92.9176 106.138 87.9009 99.9075C80.661 90.9088 76.0063 88.8265 65.6221 84.9967C62.047 83.6769 57.0719 81.7115 51.0541 79.4691C45.0379 77.225 37.4376 73.227 32.7701 70.094C32.7284 70.094 34.3526 74.1256 35.3986 76.8566Z" fill="url(#paint14_linear_9797_9724)"/>
<path d="M150.546 64.2957C140.373 72.1187 125.081 75.295 115.232 81.1366C109.92 84.2888 107.718 86.4352 104.889 89.6307C101.341 93.6335 98.2514 98.1248 96.8931 100.47C96.1979 101.677 96.0538 101.677 95.9417 101.677C95.9417 103.135 95.9849 113.008 95.9737 113.184C95.9737 113.233 96.5679 112.693 98.9385 108.434C104.051 99.2781 110.859 90.3963 126.513 84.5323C130.136 83.182 135.869 81.199 141.975 78.9213C148.076 76.6436 154.696 72.926 159.43 69.7481C159.467 69.7208 159.85 68.2632 160.044 66.567C160.251 64.733 160.119 63.1873 160.063 61.5631C159.969 58.6671 159.211 56.4231 159.211 56.4231C159.211 56.4231 157.342 59.074 150.546 64.2957Z" fill="url(#paint15_linear_9797_9724)"/>
<path d="M158.928 70.1117C154.26 73.2447 146.144 76.9928 140.131 79.2369C134.112 81.4793 130.57 82.4692 126.998 83.7859C116.931 87.5003 110.531 91.3718 103.11 100.595C98.0916 106.83 97.2779 110.168 96.1006 112.946C96.1006 114.557 96.2015 122.922 96.2015 122.922C96.2015 122.922 96.7461 123.032 97.1529 122.383C97.3227 122.121 97.1786 119.439 97.1337 117.484C97.1033 115.861 97.2346 115.414 98.098 113.824C98.7675 112.589 99.538 111.2 100.057 110.386C104.273 103.833 112.227 98.868 120.034 95.1263C126.854 91.8603 137.147 89.6739 143.987 87.4122C148.697 85.8537 153.046 83.6737 153.046 83.6737C153.046 83.6737 154.835 81.0677 156.112 77.728C157.16 74.9954 158.974 70.1117 158.929 70.1117C158.928 70.1117 158.928 70.1117 158.928 70.1117Z" fill="url(#paint16_linear_9797_9724)"/>
<path d="M31.982 61.0458C31.9291 62.67 31.8859 64.7058 32.0925 66.5382C32.2863 68.2361 31.9419 69.2227 32.2174 69.4069C36.9667 72.5656 43.8318 76.4306 49.9393 78.7067C56.042 80.9796 62.7709 83.5697 66.3877 84.9216C74.909 88.1123 83.9878 91.3606 93.4237 108.259C95.7959 112.521 96.001 113.18 95.9962 113.132C95.9881 112.952 95.9449 103.502 95.9449 101.69C95.7014 101.69 95.0944 101.822 94.412 100.595C93.0986 98.2177 90.8833 94.7563 87.329 90.7536C84.5003 87.5597 81.7597 84.9216 76.4483 81.7709C71.0552 78.5706 64.5233 75.7083 58.1419 73.0477C52.8769 70.8517 47.4854 68.0006 43.0741 65.1879C35.847 60.5861 32.6659 56.0339 32.6659 56.0339C32.6659 56.0339 32.0797 58.1498 31.982 61.0458Z" fill="url(#paint17_linear_9797_9724)"/>
<path fill-rule="evenodd" clip-rule="evenodd" d="M81.5718 85.2281C85.8885 89.7739 87.7914 91.9042 90.7819 97.6609C92.8401 101.609 93.2598 101.922 95.8498 111.939L95.1931 102.066C95.1931 102.066 91.6196 96.4532 89.3739 93.6309C87.1971 90.8967 84.1058 87.4113 81.5718 85.2281Z" fill="#4D4B4C"/>
<path d="M96.1627 123.375C94.9742 123.375 94.6362 122.63 93.5406 120.169C93.0152 118.986 92.296 117.373 91.2068 115.211C86.7027 106.244 78.8028 98.9613 69.5335 95.2292C66.9562 94.1945 63.49 93.1613 59.8204 92.0737C52.6397 89.937 44.4996 87.5183 38.3745 83.8647L38.5555 83.5636C44.6374 87.1996 52.7551 89.6102 59.9165 91.7422C63.5958 92.8362 67.0716 93.8693 69.6648 94.9104C79.0063 98.6746 86.975 106.014 91.5144 115.054C92.602 117.223 93.3276 118.849 93.8545 120.028C94.987 122.555 95.224 123.031 96.1627 123.031C97.4457 123.031 97.9022 121.754 98.9033 118.954C99.2797 117.908 99.7426 116.606 100.356 115.099C103.465 107.446 109.534 101.152 118.4 96.3937C125.532 92.5671 132.428 90.8099 135.744 89.9642L136.258 89.8393C146.407 87.23 148.896 85.7724 153.031 83.3634L153.201 83.6645C149.046 86.0848 146.538 87.5488 136.34 90.1708L135.832 90.3022C117.306 95.0162 105.48 103.405 100.675 115.23C100.068 116.725 99.6048 118.024 99.23 119.068C98.2033 121.937 97.6891 123.375 96.1627 123.375Z" fill="#343030"/>
<path d="M96.1808 123.097C95.0676 123.097 94.7424 122.365 93.6725 119.936C93.1407 118.722 92.4023 117.056 91.281 114.828C86.7705 105.841 78.8562 98.5418 69.5644 94.8033C67.0241 93.7813 63.6139 92.7995 60.0036 91.7631C52.7588 89.6793 44.5498 87.3183 38.3174 83.4196L38.4087 83.2754C44.6187 87.1613 52.8149 89.5175 60.05 91.5982C63.6636 92.6361 67.0801 93.618 69.6301 94.6447C78.9555 98.3992 86.9051 105.726 91.438 114.755C92.5576 116.984 93.2961 118.65 93.8278 119.868C94.8914 122.273 95.1797 122.922 96.1808 122.922C97.5007 122.922 97.9764 121.557 98.9278 118.842C99.3171 117.739 99.7912 116.368 100.437 114.785C103.539 107.151 109.591 100.876 118.437 96.1279C125.557 92.3045 132.446 90.549 135.762 89.7081L136.276 89.5767C146.5 86.9451 149.321 85.4618 153.426 83.0656L153.519 83.2162C149.514 85.5467 146.55 87.1116 136.319 89.7417L135.807 89.8731C117.255 94.6014 105.41 103.004 100.598 114.848C99.9546 116.43 99.4788 117.795 99.0912 118.898C98.1157 121.692 97.6192 123.097 96.1808 123.097Z" fill="#767677"/>
<path d="M95.9683 113.29C95.7617 113.29 95.5743 113.165 95.4926 112.974C95.4686 112.926 93.3719 107.987 89.1112 101.934C86.377 98.0477 83.5547 95.4897 81.0576 93.2312L80.8926 93.0807C78.5364 90.9407 75.7237 88.7607 67.2873 85.5781C65.9354 85.0719 64.0998 84.4088 62.0848 83.6768C57.6383 82.0686 52.1106 80.0664 49.3396 78.8331C47.7186 78.1139 46.458 77.5709 45.4137 77.1192C41.0585 75.2451 40.2753 74.9072 32.5612 70.0314C32.3161 69.8792 32.2441 69.5589 32.3962 69.3154C32.5516 69.0752 32.8735 68.9999 33.1154 69.1553C40.7574 73.9861 41.5342 74.3209 45.8189 76.1677C46.8745 76.621 48.1351 77.164 49.7577 77.888C52.4951 79.1038 58.0083 81.0979 62.4372 82.7029C64.4586 83.4349 66.299 84.1012 67.6493 84.609C76.2587 87.8558 79.1563 90.1014 81.5893 92.3102L81.7559 92.4608C84.2867 94.7577 87.1555 97.3574 89.9553 101.333C93.0964 105.794 95.0793 109.667 95.9427 111.478C96.75 109.667 98.6529 105.807 102.113 101.07C105.079 97.0034 108.565 93.3674 112.188 90.5595C116.255 87.4089 121.053 85.4467 125.62 83.704C128.486 82.6132 130.782 81.8123 133.011 81.0355C137.065 79.6243 140.568 78.4038 145.924 75.9451C154.671 71.9327 158.663 69.1665 158.701 69.1392C158.932 68.9743 159.257 69.0335 159.42 69.2658C159.582 69.5028 159.526 69.8248 159.295 69.9882C159.132 70.1035 155.203 72.8313 146.361 76.8869C140.95 79.3648 137.427 80.595 133.347 82.019C131.133 82.7878 128.843 83.5887 125.99 84.6715C121.497 86.3853 116.774 88.3123 112.825 91.378C109.271 94.1314 105.861 97.6921 102.952 101.677C98.3085 108.041 96.4681 112.906 96.4504 112.952C96.3752 113.152 96.1942 113.287 95.9747 113.29H95.9683Z" fill="white"/>
<path d="M95.8499 102.097C95.4126 102.097 94.8985 101.591 94.3667 100.639C90.6875 94.0382 85.195 87.825 79.2814 83.582C75.7271 81.0304 66.9094 77.1445 59.1281 73.7168C56.7943 72.69 54.5919 71.7194 52.5993 70.816C47.8661 68.6712 44.1052 66.1789 44.0684 66.1533L44.2622 65.8666C44.299 65.8906 48.0343 68.3701 52.7467 70.5004C54.7328 71.4038 56.9385 72.3745 59.269 73.4012C67.0648 76.8354 75.9001 80.7293 79.4848 83.3017C85.4321 87.5688 90.9694 93.8284 94.6678 100.469C95.1932 101.414 95.6241 101.746 95.8499 101.746C96.0437 101.746 96.5195 101.461 97.0705 100.389C100.806 93.0932 107.426 86.4043 112.337 83.0134C117.075 79.7346 125.108 76.5182 132.197 73.6799C135.476 72.3665 138.572 71.1235 140.919 70.0423C144.729 68.2756 147.788 66.1901 147.814 66.1693L148.014 66.4544C147.982 66.4752 144.905 68.5767 141.063 70.3547C138.71 71.4423 135.607 72.6852 132.322 74.0003C125.252 76.8322 117.243 80.0405 112.532 83.2953C107.658 86.6606 101.081 93.303 97.3764 100.548C96.8766 101.53 96.3192 102.097 95.8499 102.097Z" fill="#767677"/>
<path d="M95.8501 101.749C95.4128 101.749 94.8986 101.246 94.3668 100.295C90.6876 93.694 85.192 87.4744 79.2815 83.2378C75.7272 80.6862 66.9095 76.7987 59.1282 73.371C56.7944 72.3426 54.592 71.3736 52.5994 70.4702C47.8663 68.3254 44.5474 66.131 44.5154 66.1086L44.706 65.8235C44.738 65.8427 48.0344 68.0227 52.7468 70.1562C54.733 71.0564 56.9322 72.0271 59.2659 73.0522C67.0617 76.4896 75.9002 80.3786 79.4849 82.9575C85.4322 87.2245 90.9695 93.481 94.668 100.125C95.1933 101.07 95.6242 101.402 95.8501 101.402C96.0439 101.402 96.5196 101.117 97.0706 100.045C100.799 92.749 107.426 86.0601 112.337 82.6627C117.075 79.3904 125.101 76.1756 132.184 73.3389C135.469 72.0239 138.572 70.7825 140.919 69.6965C144.729 67.9314 147.201 66.2159 147.226 66.1983L147.427 66.4818C147.401 66.4994 144.905 68.2309 141.063 70.0089C138.71 71.0981 135.601 72.3426 132.316 73.6593C125.245 76.4896 117.237 79.6963 112.532 82.9511C107.658 86.3164 101.081 92.962 97.3765 100.204C96.8768 101.185 96.3194 101.749 95.8501 101.749Z" fill="#343030"/>
<path d="M96.0689 111.35L95.8367 102.153H96.1634L96.0689 111.35Z" fill="white"/>
<path d="M42.3178 55.8418C47.373 50.5368 53.7047 46.4315 61.1705 43.7406C70.3357 40.4377 82.0734 38.7623 96.0583 38.7623C120.379 38.7623 137.904 44.4966 149.573 56.2743C149.586 56.2887 149.711 56.3928 149.849 56.5242C150.1 56.3736 150.563 55.9235 150.688 55.9123C150.55 55.7617 150.412 55.6496 150.374 55.608C138.498 43.5804 120.711 37.726 96.0583 37.726C81.9549 37.726 70.0987 39.4222 60.8197 42.7667C53.0768 45.5537 46.5384 49.832 41.3391 55.3565C41.3295 55.3661 41.2543 55.3997 41.2879 55.4446C41.3359 55.5055 41.5105 55.5887 41.6323 55.6736C41.8149 55.8066 42.0055 55.9828 42.1304 56.0196C42.1865 56.0388 42.2874 55.8739 42.3178 55.8418Z" fill="white"/>
<path d="M96.0574 38.5901C120.441 38.5901 137.985 44.3356 149.699 56.1534L149.735 56.1854C149.768 56.2159 149.811 56.2559 149.867 56.3056C149.949 56.2431 150.054 56.1598 150.149 56.0781C150.254 55.9916 150.343 55.9243 150.405 55.8747C150.375 55.8427 150.343 55.8138 150.319 55.7898C150.286 55.7642 150.261 55.7433 150.248 55.7273C138.405 43.7318 120.68 37.8982 96.0574 37.8982C81.9732 37.8982 70.1346 39.5912 60.8749 42.9293C53.2729 45.6667 46.7666 49.8649 41.5288 55.4054C41.5417 55.4134 41.5513 55.4198 41.5609 55.4246C41.6234 55.4598 41.6794 55.4967 41.7355 55.5335C41.7915 55.5768 41.8476 55.62 41.9037 55.6649C41.9725 55.7177 42.0542 55.7818 42.1135 55.8218C42.1263 55.8074 42.1359 55.793 42.1423 55.7834C42.1615 55.7562 42.1824 55.7305 42.1952 55.7193C47.3256 50.3374 53.6926 46.2513 61.1071 43.578C70.298 40.2688 82.0549 38.5901 96.0574 38.5901ZM149.83 56.738L149.735 56.6499C149.643 56.565 149.554 56.4898 149.505 56.4465C149.479 56.4193 149.454 56.4017 149.454 56.3969C137.81 44.648 120.346 38.9361 96.0574 38.9361C82.0949 38.9361 70.3765 40.6068 61.2256 43.9032C53.8544 46.5589 47.5386 50.6145 42.4418 55.9612C42.3522 56.0829 42.2673 56.1934 42.1391 56.1934L42.0798 56.1838C41.9613 56.1486 41.8348 56.0493 41.689 55.9356C41.6346 55.8955 41.5849 55.8523 41.5321 55.8138C41.4856 55.7818 41.4343 55.7514 41.3847 55.7209C41.2726 55.6536 41.1973 55.6104 41.154 55.5527L41.1028 55.4903L41.106 55.383C41.1252 55.2868 41.2037 55.2372 41.2341 55.218C46.4975 49.623 53.0727 45.3704 60.7563 42.6041C70.0577 39.2533 81.9331 37.5538 96.0574 37.5538C120.779 37.5538 138.586 43.421 150.493 55.4871C150.506 55.4983 150.524 55.5127 150.543 55.5335C150.612 55.5928 150.713 55.6841 150.812 55.7962L151.044 56.0525L150.7 56.0845C150.668 56.1021 150.487 56.2463 150.368 56.3456C150.218 56.4705 150.061 56.5987 149.942 56.6724L149.83 56.738Z" fill="#C7C7C7"/>
<path d="M114.86 150.296C108.21 151.191 102.253 151.606 96.107 151.606C89.3508 151.606 82.3959 151.1 74.2222 150.02C53.2135 147.243 28.1749 135.454 28.1749 95.0766C28.1749 85.8601 29.8023 77.5069 32.9017 70.2461C40.297 74.9137 41.1283 75.2725 45.4146 77.1193C46.4413 77.5614 47.7195 78.114 49.3373 78.8332C52.1131 80.0665 57.6472 82.0687 62.0889 83.6801C64.0718 84.3961 65.9395 85.072 67.2882 85.5782C75.723 88.7608 78.5389 90.9408 80.8951 93.0808L81.0665 93.2313C83.5572 95.4898 86.3779 98.0478 89.1121 101.934C93.3728 107.987 95.4695 112.927 95.4951 112.975C95.5752 113.165 95.7642 113.29 95.9708 113.29H95.9756C96.1951 113.287 96.3825 113.152 96.4578 112.955C96.4706 112.906 98.3046 108.041 102.953 101.677C105.863 97.6922 109.28 94.1283 112.826 91.3781C116.774 88.3124 121.5 86.3854 125.991 84.6716C128.844 83.5888 131.134 82.7879 133.356 82.0126C137.435 80.5919 140.958 79.3649 146.364 76.887C153.985 73.3872 157.951 70.882 159.008 70.1837C162.08 77.2602 163.589 85.4869 163.589 95.0141C163.589 135.292 137.091 147.308 114.86 150.296ZM158.534 69.2531C157.694 69.8121 153.684 72.3877 145.926 75.9452C140.57 78.4023 137.065 79.6228 133.011 81.0356C130.79 81.8124 128.488 82.6133 125.623 83.7041C121.054 85.4436 116.255 87.4058 112.189 90.558C108.565 93.3675 105.082 97.0035 102.115 101.07C98.6554 105.807 96.7525 109.667 95.9452 111.479C95.0818 109.667 93.0989 105.794 89.9578 101.333C87.158 97.3575 84.2892 94.7578 81.76 92.4609L81.5919 92.3103C79.1572 90.1015 76.2612 87.8559 67.6518 84.6091C66.2999 84.1013 64.429 83.4238 62.4461 82.7062C58.0156 81.098 52.4976 79.1039 49.7602 77.8849C48.136 77.1641 46.853 76.6131 45.8214 76.1678C41.5864 74.3418 40.7759 73.9911 33.3774 69.3171C32.607 68.8382 32.245 69.1233 31.9614 69.7864C28.8012 77.1834 27.137 85.6919 27.137 95.0766C27.137 113.635 32.4756 127.956 42.9927 137.642C50.8205 144.843 61.2816 149.354 74.0828 151.047C82.3046 152.134 89.3059 152.642 96.107 152.642C102.296 152.642 108.303 152.219 114.998 151.322C137.642 148.277 164.627 136.04 164.627 95.0141C164.627 85.3283 163.081 76.9527 159.947 69.7416C159.609 68.9663 159.034 68.9183 158.534 69.2531Z" fill="white"/>
<g opacity="0.800003">
<g opacity="0.800003">
<g opacity="0.800003">
<g opacity="0.800003">
<g opacity="0.800003">
<g opacity="0.800003">
<path opacity="0.800003" d="M32.9841 70.5009C29.9056 77.7889 28.3503 86.054 28.3503 95.0767C28.3503 135.329 53.3072 147.079 74.2422 149.846C82.4143 150.927 89.3595 151.431 96.1093 151.431C102.249 151.431 108.199 151.015 114.837 150.121C136.999 147.145 163.422 135.167 163.422 95.0142C163.422 85.519 161.951 77.4782 158.937 70.4401C157.673 71.2634 153.705 73.7076 146.435 77.0441C141.023 79.5268 137.494 80.7538 133.414 82.1745C131.199 82.9498 128.91 83.7458 126.056 84.8334C121.569 86.5425 116.865 88.463 112.936 91.516C109.394 94.2566 105.997 97.8045 103.093 101.783C98.4511 108.141 96.6363 112.965 96.6235 113.015C96.5162 113.281 96.2727 113.458 95.9844 113.465C95.6913 113.465 95.4414 113.297 95.3341 113.04C95.3149 112.992 93.2502 108.11 88.9703 102.035C86.2489 98.1649 83.4347 95.6117 80.9503 93.3612L80.7805 93.2058C78.4372 91.0851 75.6373 88.9131 67.2281 85.7416C65.8826 85.2339 64.0134 84.5579 62.0352 83.8419C57.5871 82.2306 52.0531 80.2268 49.2708 78.9902C47.6386 78.2646 46.3684 77.7184 45.3481 77.278C41.1371 75.4648 40.2369 75.0755 32.9841 70.5009ZM96.1093 151.776C89.3435 151.776 82.3823 151.274 74.1989 150.19C53.1262 147.404 28.0027 135.579 28.0027 95.0767C28.0027 85.9322 29.598 77.5551 32.7471 70.179L32.8288 69.9916L32.997 70.1021C40.3827 74.7648 41.1627 75.0996 45.4859 76.9608C46.5062 77.4029 47.7764 77.9491 49.4118 78.6763C52.1812 79.9064 57.7089 81.9086 62.1537 83.5168C64.1319 84.2328 66.0027 84.9087 67.3482 85.4197C75.8167 88.6104 78.6438 90.8032 81.0128 92.9495L81.181 93.1017C83.6781 95.3682 86.5084 97.9326 89.2554 101.834C93.5642 107.953 95.6352 112.858 95.6528 112.909C95.7041 113.034 95.8354 113.119 95.9732 113.119C96.1222 113.116 96.2423 113.028 96.2984 112.893C96.3096 112.847 98.1324 107.99 102.813 101.577C105.734 97.5754 109.162 94.0003 112.723 91.2405C116.69 88.1619 121.427 86.2286 125.931 84.5115C128.79 83.4239 131.087 82.6246 133.302 81.8494C137.375 80.4318 140.891 79.2081 146.291 76.7301C153.912 73.2351 157.878 70.7252 158.917 70.038L159.086 69.9259L159.167 70.1149C162.259 77.2427 163.766 85.3844 163.766 95.0142C163.766 135.414 137.182 147.467 114.888 150.464C108.23 151.359 102.262 151.776 96.1093 151.776Z" fill="url(#paint18_linear_9797_9724)"/>
</g>
</g>
</g>
</g>
</g>
</g>
<path d="M153.483 83.0945C153.47 83.0945 153.458 83.0913 153.446 83.0817C153.402 83.0624 153.384 83.0096 153.408 82.9663C153.427 82.9311 155.361 79.372 156.198 77.4195C157.031 75.4637 158.833 70.4614 158.852 70.4102C158.864 70.3669 158.921 70.3413 158.958 70.3589C159.001 70.3749 159.027 70.423 159.014 70.4694C158.995 70.5207 157.193 75.5262 156.355 77.4883C155.517 79.4489 153.583 83.0128 153.565 83.0512C153.546 83.0753 153.515 83.0945 153.483 83.0945Z" fill="#4D4B4C"/>
<path d="M32.495 56.4776C31.3674 61.512 31.6301 65.7454 31.9857 69.3638C32.1058 68.9826 32.519 68.8929 32.8074 68.9185C32.8074 68.9185 32.3492 66.5126 32.306 64.2686C32.2419 61.134 32.3396 58.0666 32.6888 56.4568C32.7433 56.2005 32.7241 56.0548 32.676 56.0548C32.6296 56.0548 32.5575 56.1845 32.495 56.4776Z" fill="url(#paint19_linear_9797_9724)"/>
<path fill-rule="evenodd" clip-rule="evenodd" d="M159.472 57.0137C159.341 56.4099 159.222 56.4323 159.328 56.9272C159.679 58.537 159.853 61.5227 159.836 64.6557C159.816 66.8966 159.478 69.1294 159.478 69.1294C159.478 69.1294 159.922 69.4465 160.079 69.9719C160.63 64.4443 160.191 60.2381 159.472 57.0137Z" fill="#DBDCDC"/>
<path d="M151.192 55.6559C150.609 55.8465 149.909 56.3751 149.622 56.7579C149.339 57.1424 147.005 60.7415 145.534 62.7693L147.762 66.2964L153.844 61.5632L159.068 56.4952L156.423 53.4855C154.346 54.264 151.773 55.4621 151.192 55.6559Z" fill="url(#paint20_linear_9797_9724)"/>
<path d="M32.8611 56.0193L38.0844 61.0872L44.1663 65.822L46.3911 62.2966C44.9239 60.2671 42.595 56.6696 42.3066 56.2836C42.0215 55.9007 41.3168 55.3722 40.7353 55.18C40.1571 54.9877 37.5815 53.7896 35.5104 53.0128L32.8611 56.0193Z" fill="url(#paint21_linear_9797_9724)"/>
<path d="M32.6655 56.0338C33.6698 57.2656 34.8439 58.7135 37.5525 61.1018C40.4901 63.6934 44.0876 66.1521 44.0876 66.1521C44.0876 66.1521 44.8645 64.8947 45.2729 64.2812C45.683 63.671 46.5463 62.3816 46.5463 62.3816C46.5463 62.3816 46.0706 62.5882 45.4171 62.1669C42.9616 60.5828 37.1232 55.6254 35.6592 53.9179C35.1915 53.3717 35.3405 53.1763 35.3405 53.1763C35.3405 53.1763 33.1941 55.4299 32.6655 56.0338Z" fill="url(#paint22_linear_9797_9724)"/>
<path d="M156.388 53.4552C155.368 53.822 151.946 55.0954 151.157 55.3981C150.795 55.5391 150.269 55.5054 149.955 55.1995C138.086 43.4474 120.43 37.7275 96.0532 37.7275C81.9497 37.7275 70.0935 39.4222 60.8146 42.7667C53.4064 45.4336 47.0987 49.4684 42.0084 54.6533C41.8001 54.8695 41.4461 55.0281 41.1354 54.9272C40.6661 54.7702 36.6905 53.4536 35.5581 52.9634L35.4556 53.0723C36.391 53.476 40.232 55.2299 40.7478 55.4029C41.3052 55.5855 41.9779 56.0997 42.2342 56.444C42.4184 56.6971 46.5477 62.3449 46.5477 62.3449L46.607 62.2744C46.607 62.2744 43.6646 57.8968 42.7596 56.5946C42.4632 56.1621 42.444 55.6992 42.7628 55.3725C47.7458 50.2949 53.919 46.3498 61.1637 43.7421C70.3306 40.4377 82.0683 38.7623 96.0532 38.7623C120.092 38.7623 137.499 44.3668 149.167 55.8754C149.531 56.2326 149.518 56.585 149.305 56.9134C148.868 57.6053 146.42 61.5488 145.527 62.8142L145.57 62.8911C146.541 61.5312 149.669 56.9822 149.755 56.8621C150.013 56.5161 150.707 56.0484 151.245 55.821C151.501 55.7104 155.413 54.011 156.444 53.5192L156.388 53.4552Z" fill="white"/>
<path d="M156.052 54.5665C154.601 56.2324 149.052 61.0472 146.594 62.6314C145.943 63.0526 145.516 62.8716 145.516 62.8716L147.901 66.5269C147.901 66.5269 151.449 64.1675 154.383 61.5758C157.092 59.186 156.999 59.0659 159.268 56.5095L156.528 53.3572C156.528 53.3572 156.654 53.8714 156.052 54.5665Z" fill="url(#paint23_linear_9797_9724)"/>
<path d="M38.4332 83.2446C38.4044 83.2446 38.374 83.2286 38.3579 83.2014C38.3387 83.1629 36.3974 79.599 35.5613 77.6385C34.7268 75.6779 32.9248 70.6724 32.9056 70.6228C32.8896 70.5747 32.912 70.5283 32.9552 70.5107C33.0017 70.4931 33.0529 70.5171 33.0673 70.5635C33.0866 70.6132 34.8853 75.6139 35.7215 77.5696C36.556 79.5238 38.4893 83.0812 38.5085 83.1197C38.5341 83.1629 38.5181 83.2126 38.4733 83.2382C38.4621 83.2446 38.4492 83.2446 38.4332 83.2446Z" fill="#4D4B4C"/>
<defs>
<linearGradient id="paint0_linear_9797_9724" x1="80.8716" y1="37.5702" x2="111.529" y2="151.986" gradientUnits="userSpaceOnUse">
<stop stop-color="#343030"/>
<stop offset="0.212121" stop-color="#343030"/>
<stop offset="0.292878" stop-color="#343030"/>
<stop offset="0.593939" stop-color="#626162"/>
<stop offset="0.985882" stop-color="white"/>
<stop offset="1" stop-color="white"/>
</linearGradient>
<linearGradient id="paint1_linear_9797_9724" x1="80.8716" y1="37.5702" x2="111.529" y2="151.986" gradientUnits="userSpaceOnUse">
<stop stop-color="#343030"/>
<stop offset="0.0077052" stop-color="#343030"/>
<stop offset="0.563636" stop-color="#4D4B4C"/>
<stop offset="0.657288" stop-color="#626162"/>
<stop offset="0.709091" stop-color="#626162"/>
<stop offset="0.836364" stop-color="white"/>
<stop offset="0.890909" stop-color="white"/>
<stop offset="1" stop-color="#9FA5AD"/>
</linearGradient>
<linearGradient id="paint2_linear_9797_9724" x1="80.0726" y1="34.3448" x2="50.2858" y2="145.511" gradientUnits="userSpaceOnUse">
<stop stop-color="#413E3E"/>
<stop offset="0.606061" stop-color="#413E3E"/>
<stop offset="0.66633" stop-color="#413E3E"/>
<stop offset="0.709091" stop-color="#626162"/>
<stop offset="0.866667" stop-color="#EEEFEF"/>
<stop offset="1" stop-color="#DBDCDC"/>
</linearGradient>
<linearGradient id="paint3_linear_9797_9724" x1="117.918" y1="156.76" x2="73.2571" y2="34.0551" gradientUnits="userSpaceOnUse">
<stop stop-color="#4B4949"/>
<stop offset="0.0363636" stop-color="#4B4949"/>
<stop offset="0.193939" stop-color="#4D4B4C"/>
<stop offset="0.637608" stop-color="white"/>
<stop offset="0.727273" stop-color="white"/>
<stop offset="1" stop-color="#7B8187"/>
</linearGradient>
<linearGradient id="paint4_linear_9797_9724" x1="41.7405" y1="89.8898" x2="58.376" y2="31.8752" gradientUnits="userSpaceOnUse">
<stop stop-color="white"/>
<stop offset="0.412548" stop-color="white"/>
<stop offset="0.460606" stop-color="white"/>
<stop offset="0.983265" stop-color="#9D9E9D"/>
<stop offset="1" stop-color="#9D9E9D"/>
</linearGradient>
<linearGradient id="paint5_linear_9797_9724" x1="50.1985" y1="49.5586" x2="141.74" y2="49.5586" gradientUnits="userSpaceOnUse">
<stop stop-color="#343030"/>
<stop offset="0.208776" stop-color="#8A8A8A"/>
<stop offset="0.50303" stop-color="#8A8A8A"/>
<stop offset="1" stop-color="#343030"/>
</linearGradient>
<linearGradient id="paint6_linear_9797_9724" x1="139.66" y1="141.441" x2="53.4779" y2="141.441" gradientUnits="userSpaceOnUse">
<stop stop-color="#343030"/>
<stop offset="0.0345635" stop-color="#343030"/>
<stop offset="0.50303" stop-color="#767677"/>
<stop offset="1" stop-color="#343030"/>
</linearGradient>
<linearGradient id="paint7_linear_9797_9724" x1="154.326" y1="123.528" x2="158.695" y2="135.531" gradientUnits="userSpaceOnUse">
<stop stop-color="#343030"/>
<stop offset="0.236364" stop-color="#343030"/>
<stop offset="0.321887" stop-color="#343030"/>
<stop offset="0.442424" stop-color="#343030"/>
<stop offset="0.496029" stop-color="#343030"/>
<stop offset="0.690909" stop-color="#343030"/>
<stop offset="1" stop-color="#343030"/>
</linearGradient>
<linearGradient id="paint8_linear_9797_9724" x1="64.7224" y1="30.5285" x2="27.5901" y2="97.517" gradientUnits="userSpaceOnUse">
<stop stop-color="white"/>
<stop offset="0.0344226" stop-color="white"/>
<stop offset="0.369697" stop-color="white"/>
<stop offset="1" stop-color="#9D9E9D"/>
</linearGradient>
<linearGradient id="paint9_linear_9797_9724" x1="135.169" y1="50.6809" x2="157.09" y2="50.6809" gradientUnits="userSpaceOnUse">
<stop stop-color="#343030"/>
<stop offset="0.415038" stop-color="#343030"/>
<stop offset="1" stop-color="#343030"/>
</linearGradient>
<linearGradient id="paint10_linear_9797_9724" x1="43.8274" y1="44.8663" x2="43.8274" y2="59.0566" gradientUnits="userSpaceOnUse">
<stop stop-color="#343030"/>
<stop offset="0.508342" stop-color="#343030"/>
<stop offset="1" stop-color="#343030"/>
</linearGradient>
<linearGradient id="paint11_linear_9797_9724" x1="50.6116" y1="128.816" x2="44.4233" y2="145.818" gradientUnits="userSpaceOnUse">
<stop stop-color="#343030"/>
<stop offset="0.0484848" stop-color="#343030"/>
<stop offset="0.226567" stop-color="#4D4B4C"/>
<stop offset="0.260606" stop-color="#4D4B4C"/>
<stop offset="0.363018" stop-color="#4D4B4C"/>
<stop offset="0.533333" stop-color="#343030"/>
<stop offset="0.635848" stop-color="#343030"/>
<stop offset="0.739394" stop-color="#626162"/>
<stop offset="0.791753" stop-color="#343030"/>
<stop offset="1" stop-color="#343030"/>
</linearGradient>
<linearGradient id="paint12_linear_9797_9724" x1="148.497" y1="85.6553" x2="133.145" y2="32.1184" gradientUnits="userSpaceOnUse">
<stop stop-color="white"/>
<stop offset="0.0428872" stop-color="white"/>
<stop offset="0.460606" stop-color="#767677"/>
<stop offset="0.472351" stop-color="#767677"/>
<stop offset="0.472727" stop-color="#767677"/>
<stop offset="0.727189" stop-color="#767677"/>
<stop offset="1" stop-color="#9D9E9D"/>
</linearGradient>
<linearGradient id="paint13_linear_9797_9724" x1="36.6358" y1="99.4611" x2="156.39" y2="99.4611" gradientUnits="userSpaceOnUse">
<stop stop-color="#343030"/>
<stop offset="0.200463" stop-color="#969797"/>
<stop offset="0.483" stop-color="#969797"/>
<stop offset="0.49697" stop-color="white"/>
<stop offset="0.498" stop-color="#343030"/>
<stop offset="0.512076" stop-color="#343030"/>
<stop offset="0.551515" stop-color="#626162"/>
<stop offset="0.558821" stop-color="#6B6A6A"/>
<stop offset="0.587879" stop-color="#6B6A6A"/>
<stop offset="1" stop-color="#343030"/>
</linearGradient>
<linearGradient id="paint14_linear_9797_9724" x1="37.9447" y1="96.7223" x2="90.4448" y2="86.5173" gradientUnits="userSpaceOnUse">
<stop stop-color="#343030"/>
<stop offset="0.827164" stop-color="#626162"/>
<stop offset="1" stop-color="#626162"/>
</linearGradient>
<linearGradient id="paint15_linear_9797_9724" x1="95.9417" y1="84.8053" x2="160.156" y2="84.8053" gradientUnits="userSpaceOnUse">
<stop stop-color="#343030"/>
<stop offset="0.14366" stop-color="#D2D9E4"/>
<stop offset="0.606061" stop-color="#D2D9E4"/>
<stop offset="0.824242" stop-color="white"/>
<stop offset="1" stop-color="white"/>
</linearGradient>
<linearGradient id="paint16_linear_9797_9724" x1="122.863" y1="81.1366" x2="132.287" y2="111.962" gradientUnits="userSpaceOnUse">
<stop stop-color="#343030"/>
<stop offset="0.140861" stop-color="#343030"/>
<stop offset="0.339394" stop-color="#343030"/>
<stop offset="0.52811" stop-color="#5C5B5B"/>
<stop offset="0.569697" stop-color="#5C5B5B"/>
<stop offset="0.806061" stop-color="#343030"/>
<stop offset="1" stop-color="#343030"/>
</linearGradient>
<linearGradient id="paint17_linear_9797_9724" x1="95.9971" y1="84.5857" x2="31.9403" y2="84.5857" gradientUnits="userSpaceOnUse">
<stop stop-color="#343030"/>
<stop offset="0.115462" stop-color="#80868D"/>
<stop offset="0.212121" stop-color="#80868D"/>
<stop offset="0.541622" stop-color="white"/>
<stop offset="0.890909" stop-color="white"/>
<stop offset="1" stop-color="#B2B2B2"/>
</linearGradient>
<linearGradient id="paint18_linear_9797_9724" x1="28.0027" y1="110.851" x2="163.766" y2="110.851" gradientUnits="userSpaceOnUse">
<stop stop-color="#626162"/>
<stop offset="0.0596454" stop-color="#626162"/>
<stop offset="0.569697" stop-color="white"/>
<stop offset="0.897077" stop-color="white"/>
<stop offset="1" stop-color="#343030"/>
</linearGradient>
<linearGradient id="paint19_linear_9797_9724" x1="32.2435" y1="69.3631" x2="32.2435" y2="56.0543" gradientUnits="userSpaceOnUse">
<stop stop-color="#F8F9F9"/>
<stop offset="0.552541" stop-color="#F8F9F9"/>
<stop offset="1" stop-color="#F8F9F9"/>
</linearGradient>
<linearGradient id="paint20_linear_9797_9724" x1="145.535" y1="59.8918" x2="159.069" y2="59.8918" gradientUnits="userSpaceOnUse">
<stop stop-color="#343030"/>
<stop offset="0.388562" stop-color="#343030"/>
<stop offset="1" stop-color="#626162"/>
</linearGradient>
<linearGradient id="paint21_linear_9797_9724" x1="46.3938" y1="59.4198" x2="32.8633" y2="59.4198" gradientUnits="userSpaceOnUse">
<stop stop-color="#343030"/>
<stop offset="0.388562" stop-color="#343030"/>
<stop offset="1" stop-color="#626162"/>
</linearGradient>
<linearGradient id="paint22_linear_9797_9724" x1="32.6657" y1="59.6641" x2="46.5465" y2="59.6641" gradientUnits="userSpaceOnUse">
<stop stop-color="#B2B2B2"/>
<stop offset="0.452389" stop-color="#626162"/>
<stop offset="0.527273" stop-color="#626162"/>
<stop offset="1" stop-color="#626162"/>
</linearGradient>
<linearGradient id="paint23_linear_9797_9724" x1="159.268" y1="59.9413" x2="145.516" y2="59.9413" gradientUnits="userSpaceOnUse">
<stop stop-color="#9D9E9D"/>
<stop offset="0.421336" stop-color="#626162"/>
<stop offset="0.527273" stop-color="#626162"/>
<stop offset="1" stop-color="#626162"/>
</linearGradient>
</defs>
</svg>
