<svg width="192" height="192" viewBox="0 0 192 192" fill="none" xmlns="http://www.w3.org/2000/svg">
<path fill-rule="evenodd" clip-rule="evenodd" d="M95.7425 170.661C137.151 170.661 170.661 137.151 170.661 95.7425C170.661 54.3339 137.151 20.824 95.7425 20.824C54.3339 20.824 20.824 54.3339 20.824 95.7425C20.824 137.151 54.3339 170.661 95.7425 170.661ZM25.3718 95.7425C25.3718 56.7274 56.7275 25.3718 95.7426 25.3718C134.758 25.3718 166.113 56.7274 166.113 95.7425C166.113 134.518 134.758 166.113 95.7426 166.113C56.9668 166.113 25.3718 134.758 25.3718 95.7425Z" fill="url(#paint0_linear_9797_9726)"/>
<path fill-rule="evenodd" clip-rule="evenodd" d="M25.3718 95.7424C25.3718 56.7273 56.7275 25.3716 95.7426 25.3716C134.758 25.3716 166.113 56.7273 166.113 95.7424C166.113 134.518 134.758 166.113 95.7426 166.113C56.9669 166.113 25.3718 134.757 25.3718 95.7424ZM29.9196 95.7424C29.9196 132.125 59.3604 161.565 95.7426 161.565C132.125 161.565 161.566 132.125 161.566 95.7424C161.566 59.3602 132.125 29.9193 95.7426 29.9193C59.3604 29.9193 29.9196 59.3602 29.9196 95.7424Z" fill="url(#paint1_linear_9797_9726)"/>
<path opacity="0.4" fill-rule="evenodd" clip-rule="evenodd" d="M172.337 95.7425C172.337 53.6158 137.869 19.1484 95.7425 19.1484C53.6158 19.1484 19.1484 53.6158 19.1484 95.7425C19.1484 137.869 53.6158 172.337 95.7425 172.337C137.869 172.337 172.337 137.869 172.337 95.7425ZM170.661 95.7425C170.661 137.151 137.151 170.661 95.7426 170.661C54.3339 170.661 20.824 137.151 20.824 95.7425C20.824 54.3338 54.3339 20.8239 95.7426 20.8239C137.151 20.8239 170.661 54.3338 170.661 95.7425Z" fill="url(#paint2_linear_9797_9726)"/>
<path fill-rule="evenodd" clip-rule="evenodd" d="M95.7425 24.4143C56.2487 24.4143 24.4143 56.7274 24.4143 95.9819C24.4143 135.236 56.2487 167.071 95.7425 167.071C135.236 167.071 167.071 135.236 167.071 95.9819C167.071 56.4881 135.236 24.4143 95.7425 24.4143ZM26.0899 95.9819C26.0899 76.8334 33.9886 59.3603 46.6745 46.6744C59.121 33.9886 76.5941 26.0898 95.7426 26.0898C114.891 26.0898 132.364 33.9886 144.811 46.6744C157.257 59.3603 165.156 76.8334 165.156 95.9819C165.156 115.13 157.497 132.603 144.811 145.05C132.364 157.736 114.891 165.395 95.7426 165.395C76.5941 165.395 59.121 157.496 46.4352 145.05C33.9886 132.603 26.0899 115.13 26.0899 95.9819Z" fill="white"/>
<path opacity="0.4" fill-rule="evenodd" clip-rule="evenodd" d="M49.068 142.417C61.5146 154.864 78.0302 161.805 95.7426 161.805C113.455 161.805 129.971 154.864 142.417 142.417C154.864 129.971 161.805 113.455 161.805 95.7426C161.805 78.0302 154.864 61.5146 142.417 49.068C129.971 36.6215 113.455 29.6802 95.7426 29.6802C78.0302 29.6802 61.5146 36.6215 49.068 49.068C36.6215 61.5146 29.6802 78.0302 29.6802 95.7426C29.6802 113.455 36.6215 129.971 49.068 142.417ZM140.981 141.22C129.013 153.188 112.737 159.89 95.7426 159.89C78.7483 159.89 62.472 153.188 50.2649 140.981C38.297 129.013 31.5951 112.737 31.5951 95.7425C31.5951 78.7482 38.297 62.472 50.5042 50.7435C62.472 38.7757 78.7483 32.0737 95.7426 32.0737C112.737 32.0737 128.774 38.5364 140.981 50.7435C152.949 62.7114 159.651 78.9876 159.651 95.9819C159.651 112.976 153.188 129.013 140.981 141.22Z" fill="url(#paint3_linear_9797_9726)"/>
<path d="M153.906 126.859C152.709 125.901 106.514 89.2797 106.514 89.2797L95.7426 27.7651C95.0245 28.0045 94.0671 28.7226 93.5884 29.68L85.929 89.5191L38.2971 126.141C38.2971 126.141 37.3397 127.337 36.8609 128.055C36.6216 128.534 36.6216 129.252 36.6216 129.97L95.5033 105.795L154.385 129.97C154.864 128.774 154.385 127.577 153.906 126.859Z" fill="white"/>
<path d="M96.2214 97.6573L95.7427 108.668L149.837 130.449C151.752 131.407 153.188 130.928 154.624 129.97L96.9395 97.418C96.7001 97.1786 96.2214 97.418 96.2214 97.6573Z" fill="#565F64"/>
<path d="M96.2212 97.6573C96.2212 97.6573 99.3328 103.163 102.923 106.992C107.95 112.497 114.652 116.327 114.652 116.327L149.837 130.449C151.752 131.407 153.188 130.928 154.624 129.97L96.9393 97.418C96.6999 97.1786 96.2212 97.418 96.2212 97.6573Z" fill="url(#paint4_linear_9797_9726)"/>
<path d="M154.385 127.816C154.385 127.577 154.145 127.338 153.906 126.859L104.599 90.7161L97.8967 95.0245C97.8967 95.0245 98.3754 95.2638 98.6148 95.0245C99.3329 94.7851 100.769 94.5458 102.205 95.0245C103.402 95.5032 154.385 128.056 154.385 127.816C154.385 128.056 154.385 128.056 154.385 127.816Z" fill="#A4AAAE" fill-opacity="0.6"/>
<path d="M152.71 125.662L106.753 89.2799L104.599 90.716L153.906 127.098C153.667 126.62 153.188 126.141 152.71 125.662Z" fill="#333E46"/>
<path d="M96.9393 94.067L96.7 94.3064C96.7 94.3064 96.7 94.7851 97.1787 94.5457C97.418 94.3064 104.359 90.716 106.753 89.2799L98.3754 31.8343C98.1361 29.6801 97.1787 28.7227 95.5032 28.0046L96.4606 94.5457L96.9393 94.067Z" fill="#565F64"/>
<path fill-rule="evenodd" clip-rule="evenodd" d="M92.8702 34.946V31.8343C93.1096 30.6376 93.349 29.6801 94.067 29.2014L93.8277 33.7492L91.6735 92.1522L88.5618 89.7586C87.8438 89.2799 87.6044 88.5618 87.6044 87.8437L92.8702 34.946ZM87.1257 90.716L89.998 93.1096C90.716 93.8277 90.4767 94.3064 89.5193 94.7851L38.5363 126.859L36.8608 127.816C37.1002 126.859 38.5363 125.901 38.5363 125.901L87.1257 90.716Z" fill="#A4AAAE" fill-opacity="0.6"/>
<path d="M95.0246 97.6573C95.0246 97.418 94.7852 97.1786 94.5458 97.418L36.6216 130.21C38.0577 131.167 39.4939 131.407 41.4087 130.689L95.5033 108.907L95.0246 97.6573Z" fill="#565F64"/>
<path d="M96.7 94.3064L96.9393 94.067L96.7 94.3064C96.7 94.3064 96.7 94.5458 96.9393 94.5458H97.1787C97.418 94.3064 104.359 90.7161 106.753 89.2799L105.795 82.3386L98.3754 31.8344C98.3754 30.877 98.1361 30.1589 97.6574 29.6802C97.6574 29.6802 101.248 78.0302 101.248 83.296C101.248 90.2373 96.7 94.3064 96.7 94.3064H96.7Z" fill="url(#paint5_linear_9797_9726)"/>
<path d="M95.0246 97.6573C95.0246 97.418 94.7852 97.1786 94.5458 97.418L36.6216 130.21C38.0577 131.167 39.4939 131.407 41.4087 130.689L95.5033 108.907L95.0246 97.6573Z" fill="url(#paint6_linear_9797_9726)" fill-opacity="0.8"/>
<path opacity="0.8" d="M41.4086 130.449L95.5031 108.668L95.0244 98.136C94.067 101.008 92.3915 104.12 87.8437 106.513C84.4927 108.428 52.419 124.226 40.9298 129.731C40.2118 130.21 39.2543 130.449 38.7756 130.688C39.7331 131.167 40.4511 130.928 41.4086 130.449Z" fill="url(#paint7_linear_9797_9726)"/>
<path d="M96.9393 94.067L96.7 94.3064C96.7 94.3064 96.7 94.7851 97.1787 94.5457C97.418 94.3064 104.359 90.716 106.753 89.2799L98.3754 31.8343C98.1361 29.6801 97.1787 28.7227 95.5032 28.0046L96.4606 94.5457L96.9393 94.067Z" fill="url(#paint8_linear_9797_9726)"/>
<path d="M96.9393 94.067L96.7 94.3064C96.7 94.3064 96.7 94.7851 97.1787 94.5457C97.418 94.3064 104.359 90.716 106.753 89.2799L98.3754 31.8343C98.1361 29.6801 97.1787 28.7227 95.5032 28.0046L96.4606 94.5457L96.9393 94.067Z" fill="url(#paint9_linear_9797_9726)"/>
<path d="M31.3557 125.423C29.6802 121.593 20.1059 102.923 30.6376 67.0198H26.5685C24.4143 74.2005 22.7388 78.5089 21.7814 84.9715C21.7814 84.9715 21.3027 87.3651 21.0633 89.998C20.824 92.6309 20.824 94.0671 20.824 95.7425C20.824 110.104 24.4143 118.481 24.4143 118.481C28.244 130.449 34.946 141.22 44.0415 149.358C51.9403 156.3 64.1475 161.566 74.2005 163.48C72.525 163.241 43.8022 151.034 31.3557 125.423Z" fill="url(#paint10_linear_9797_9726)"/>
<path d="M96.6999 97.1786H94.5457C94.7851 97.1786 95.0244 97.1786 95.0244 97.418L95.5031 108.428H95.7425L96.2212 97.418C96.2212 97.1786 96.4606 96.9393 96.6999 97.1786Z" fill="url(#paint11_linear_9797_9726)"/>
<path d="M119.678 24.6536C144.811 34.2278 168.507 60.557 168.507 93.8276C168.507 134.039 136.433 166.831 95.7427 166.831V170.661C136.433 170.661 170.661 137.151 170.661 95.7424C170.661 62.7112 149.598 34.9459 119.678 24.6536Z" fill="url(#paint12_linear_9797_9726)"/>
<path d="M159.89 67.4983C143.135 28.9619 105.317 26.8077 103.163 26.5684H102.923C131.885 31.8342 150.316 50.7434 156.779 70.6099V70.8493C159.651 78.5087 161.087 86.6468 161.326 95.503C161.566 103.88 159.651 113.215 156.06 121.832C155.821 123.029 155.582 124.465 155.342 124.465H159.172C170.661 102.923 165.635 81.1416 159.89 67.4983Z" fill="url(#paint13_linear_9797_9726)"/>
<path fill-rule="evenodd" clip-rule="evenodd" d="M95.7425 24.4143C56.2487 24.4143 24.4143 56.7274 24.4143 95.9819C24.4143 135.236 56.2487 167.071 95.7425 167.071C135.236 167.071 167.071 135.236 167.071 95.9819C167.071 56.4881 135.236 24.4143 95.7425 24.4143ZM26.0899 95.9819C26.0899 76.8334 33.9886 59.3603 46.6745 46.6744C59.121 33.9886 76.5941 26.0898 95.7426 26.0898C114.891 26.0898 132.364 33.9886 144.811 46.6744C157.257 59.3603 165.156 76.8334 165.156 95.9819C165.156 115.13 157.497 132.603 144.811 145.05C132.364 157.736 114.891 165.395 95.7426 165.395C76.5941 165.395 59.121 157.496 46.4352 145.05C33.9886 132.603 26.0899 115.13 26.0899 95.9819Z" fill="#FBFBFB"/>
<path d="M38.0576 126.38L86.8863 91.1948C89.5193 92.6309 93.8277 94.5458 94.3064 94.5458C94.7851 94.7851 94.7851 94.3064 94.7851 94.3064L88.8012 89.2799C88.0831 88.8012 87.8438 88.0832 87.8438 87.3651L93.5883 29.6802C93.349 29.9195 93.349 30.3982 93.1096 30.6376C92.8702 31.1163 92.8702 31.3557 92.8702 31.8344L84.4928 89.5193L38.5363 125.662C38.297 125.901 38.0576 126.141 38.0576 126.38Z" fill="#333F47"/>
<defs>
<linearGradient id="paint0_linear_9797_9726" x1="-9.82323" y1="105.077" x2="105.077" y2="201.308" gradientUnits="userSpaceOnUse">
<stop stop-color="white"/>
<stop offset="0.1" stop-color="#E7E8E6"/>
<stop offset="0.1" stop-color="#CDD0D0"/>
<stop offset="0.2" stop-color="#B5BBBD"/>
<stop offset="0.2" stop-color="#A5ACAF"/>
<stop offset="0.3" stop-color="#9BA3A7"/>
<stop offset="0.3" stop-color="#98A0A4"/>
<stop offset="0.4" stop-color="#828A8F"/>
<stop offset="0.5" stop-color="#667075"/>
<stop offset="0.6" stop-color="#535C63"/>
<stop offset="0.7" stop-color="#475158"/>
<stop offset="0.8" stop-color="#434D54"/>
<stop offset="1" stop-color="#475157"/>
</linearGradient>
<linearGradient id="paint1_linear_9797_9726" x1="-3.42036" y1="104.261" x2="104.29" y2="194.738" gradientUnits="userSpaceOnUse">
<stop stop-color="#0B1F2A"/>
<stop offset="0.2" stop-color="#333F47"/>
<stop offset="0.5" stop-color="#777F84"/>
<stop offset="0.5" stop-color="#81898D"/>
<stop offset="0.7" stop-color="#B3B8B8"/>
<stop offset="0.8" stop-color="#D2D5D3"/>
<stop offset="0.8" stop-color="#DEE0DD"/>
<stop offset="1" stop-color="#FBFBFB"/>
</linearGradient>
<linearGradient id="paint2_linear_9797_9726" x1="193.966" y1="141.491" x2="141.547" y2="-2.59949" gradientUnits="userSpaceOnUse">
<stop stop-color="#E1E3E1"/>
<stop offset="0.1" stop-color="#C1C5C4"/>
<stop offset="0.3" stop-color="#9BA1A2"/>
<stop offset="0.5" stop-color="#7D8487"/>
<stop offset="0.7" stop-color="#687074" stop-opacity="0.01"/>
<stop offset="0.8" stop-color="#5B6469" stop-opacity="0.01"/>
<stop offset="1" stop-color="#576065" stop-opacity="0.01"/>
</linearGradient>
<linearGradient id="paint3_linear_9797_9726" x1="5.50996" y1="71.5676" x2="71.5676" y2="185.975" gradientUnits="userSpaceOnUse">
<stop stop-color="#E1E3E1"/>
<stop offset="0.1" stop-color="#C1C5C4"/>
<stop offset="0.3" stop-color="#9BA1A2"/>
<stop offset="0.5" stop-color="#7D8487"/>
<stop offset="0.7" stop-color="#687074" stop-opacity="0.01"/>
<stop offset="0.8" stop-color="#5B6469" stop-opacity="0.01"/>
<stop offset="1" stop-color="#576065" stop-opacity="0.01"/>
</linearGradient>
<linearGradient id="paint4_linear_9797_9726" x1="119.818" y1="112.266" x2="118.361" y2="119.494" gradientUnits="userSpaceOnUse">
<stop stop-color="#27343C"/>
<stop offset="1" stop-color="#00111E" stop-opacity="0.01"/>
</linearGradient>
<linearGradient id="paint5_linear_9797_9726" x1="114.72" y1="67.2081" x2="107.613" y2="66.9337" gradientUnits="userSpaceOnUse">
<stop offset="0.1" stop-color="#02131F"/>
<stop offset="0.9" stop-color="#02131F" stop-opacity="0.01"/>
</linearGradient>
<linearGradient id="paint6_linear_9797_9726" x1="93.1967" y1="103.237" x2="86.0401" y2="109.447" gradientUnits="userSpaceOnUse">
<stop offset="0.2" stop-color="#02131F"/>
<stop offset="0.9" stop-color="#02131F" stop-opacity="0.01"/>
</linearGradient>
<linearGradient id="paint7_linear_9797_9726" x1="72.0165" y1="119.033" x2="71.5191" y2="115.317" gradientUnits="userSpaceOnUse">
<stop stop-color="#02131F"/>
<stop offset="0.1" stop-color="#02131F"/>
<stop offset="1" stop-color="#02131F" stop-opacity="0.01"/>
</linearGradient>
<linearGradient id="paint8_linear_9797_9726" x1="104.283" y1="36.259" x2="96.1421" y2="36.2863" gradientUnits="userSpaceOnUse">
<stop offset="0.3" stop-color="#02131F"/>
<stop offset="0.3" stop-color="#02131F"/>
<stop offset="0.8" stop-color="#02131F" stop-opacity="0.01"/>
</linearGradient>
<linearGradient id="paint9_linear_9797_9726" x1="104.557" y1="43.91" x2="99.047" y2="43.9305" gradientUnits="userSpaceOnUse">
<stop offset="0.4" stop-color="#27343C"/>
<stop offset="1" stop-color="#3B474E" stop-opacity="0.01"/>
</linearGradient>
<linearGradient id="paint10_linear_9797_9726" x1="7.62474" y1="158.074" x2="78.9864" y2="170.683" gradientUnits="userSpaceOnUse">
<stop stop-color="#24303A" stop-opacity="0.01"/>
<stop stop-color="#25323B" stop-opacity="0.01"/>
<stop offset="0.1" stop-color="#27343C"/>
</linearGradient>
<linearGradient id="paint11_linear_9797_9726" x1="96.8344" y1="108.668" x2="96.8344" y2="97.1786" gradientUnits="userSpaceOnUse">
<stop offset="0.3" stop-color="#A5ABAF"/>
<stop offset="1" stop-color="#A5ABAF" stop-opacity="0.01"/>
</linearGradient>
<linearGradient id="paint12_linear_9797_9726" x1="95.7427" y1="24.6536" x2="95.7427" y2="170.661" gradientUnits="userSpaceOnUse">
<stop stop-color="#DEE0DD"/>
<stop stop-color="#C5C9C7"/>
<stop stop-color="#9EA4A5"/>
<stop stop-color="#82898C"/>
<stop stop-color="#71797D"/>
<stop stop-color="#6B7378"/>
<stop offset="0.2" stop-color="#333F47"/>
<stop offset="0.5" stop-color="#27343C"/>
<stop offset="0.8" stop-color="#333F47"/>
<stop offset="1" stop-color="#434D54"/>
</linearGradient>
<linearGradient id="paint13_linear_9797_9726" x1="140.983" y1="13.4802" x2="96.3672" y2="40.7248" gradientUnits="userSpaceOnUse">
<stop offset="0.7" stop-color="#27343C"/>
<stop offset="0.7" stop-color="#2B373F"/>
<stop offset="0.7" stop-color="#36424A"/>
<stop offset="0.7" stop-color="#49545B"/>
<stop offset="0.8" stop-color="#646D73" stop-opacity="0.01"/>
<stop offset="0.8" stop-color="#868D92" stop-opacity="0.01"/>
<stop offset="0.8" stop-color="#B0B5B8" stop-opacity="0.01"/>
<stop offset="0.8" stop-color="#E1E3E4" stop-opacity="0.01"/>
<stop offset="0.8" stop-color="white" stop-opacity="0.01"/>
</linearGradient>
</defs>
</svg>
