<svg width="437" height="442" viewBox="0 0 437 442" fill="none" xmlns="http://www.w3.org/2000/svg">
<path fill-rule="evenodd" clip-rule="evenodd" d="M218.5 285.6C182.279 285.6 152.95 255.935 152.95 219.3C152.95 182.665 182.279 153 218.5 153C254.721 153 284.05 182.665 284.05 219.3C284.05 255.935 254.721 285.6 218.5 285.6ZM393.3 177.48H283.041C269.427 155.805 245.476 141.44 218.248 141.44C191.019 141.44 167.068 155.805 153.454 177.48H43.7L54.8771 188.785H147.487C145.807 192.865 144.462 197.115 143.454 201.535H67.4828L78.6599 212.84H141.773C141.605 214.88 141.521 217.005 141.521 219.13C141.521 221.34 141.605 223.465 141.773 225.59H91.2657L102.443 236.895H143.538C144.546 241.315 145.891 245.565 147.656 249.645H114.965L126.142 260.95H153.622C167.236 282.54 191.187 296.82 218.332 296.82C245.56 296.82 269.427 282.455 283.041 260.95H310.942L322.119 249.645H288.84C290.521 245.565 291.95 241.315 292.958 236.895H334.641L345.818 225.59H294.723C294.891 223.465 294.975 221.34 294.975 219.13C294.975 217.005 294.891 214.88 294.723 212.84H358.424L369.601 201.535H293.042C292.034 197.115 290.689 192.865 289.008 188.785H382.207L393.3 177.48ZM248.586 226.78L248.67 201.195H255.477V236.13L247.241 236.3L233.375 211.565V236.13H226.568V201.195H234.719L248.586 226.78ZM184.464 228.395L193.288 201.195H203.373V236.13H195.978V210.205L188.246 236.13H180.599L172.867 210.205V236.13H165.472V201.195H175.556L184.464 228.395ZM218.416 201.195V236.13H211.441V201.195H218.416ZM270.52 201.195V236.13H263.545V201.195H270.52Z" fill="#231F20"/>
</svg>
