<svg width="192" height="192" viewBox="0 0 192 192" fill="none" xmlns="http://www.w3.org/2000/svg">
<path d="M108.417 101.76C108.296 101.791 107.809 101.791 107.597 101.791H91.9131V105.438H107.87C107.992 105.438 108.934 105.438 109.116 105.408C112.369 105.104 113.858 102.399 113.858 100.028C113.858 97.5964 112.308 94.9825 109.36 94.7089C108.782 94.6481 108.296 94.6481 108.083 94.6481H97.6577C97.2017 94.6481 96.685 94.6177 96.5027 94.5569C95.682 94.3442 95.3781 93.6147 95.3781 93.0068C95.3781 92.4597 95.682 91.7302 96.5331 91.4871C96.7762 91.4263 97.0498 91.3959 97.6273 91.3959H112.673V87.8093H97.3841C96.7458 87.8093 96.2595 87.8397 95.8644 87.9005C93.2504 88.2652 91.4268 90.3625 91.4268 93.0372C91.4268 95.2256 92.7945 97.7788 95.8036 98.2043C96.3507 98.2651 97.1106 98.2651 97.4449 98.2651H107.597C107.779 98.2651 108.235 98.2651 108.326 98.2955C109.481 98.4475 109.876 99.2985 109.876 100.058C109.876 100.788 109.42 101.578 108.417 101.76Z" fill="black"/>
<path d="M78.6923 101.76C78.5707 101.791 78.0844 101.791 77.902 101.791H62.188V105.438H78.1452C78.2668 105.438 79.209 105.438 79.3914 105.408C82.6436 105.104 84.1329 102.399 84.1329 100.028C84.1329 97.5964 82.5828 94.9825 79.6345 94.7089C79.057 94.6481 78.5707 94.6481 78.358 94.6481H67.9326C67.4767 94.6481 66.9599 94.6177 66.7776 94.5569C65.9569 94.3442 65.653 93.6147 65.653 93.0068C65.653 92.4597 65.9569 91.7302 66.808 91.4871C67.0511 91.4263 67.3247 91.3959 67.9022 91.3959H82.9475V87.8093H67.659C67.0207 87.8093 66.5344 87.8397 66.1393 87.9005C63.5253 88.2652 61.7017 90.3625 61.7017 93.0372C61.7017 95.2256 63.0694 97.7788 66.0785 98.2043C66.6256 98.2651 67.3855 98.2651 67.7198 98.2651H77.8716C78.054 98.2651 78.5099 98.2651 78.6011 98.2955C79.7561 98.4475 80.1512 99.2985 80.1512 100.058C80.1512 100.788 79.7257 101.578 78.6923 101.76Z" fill="black"/>
<path d="M54.0123 87.6877H50.061V105.529H54.0123V87.6877Z" fill="black"/>
<path d="M41.3366 105.529V87.6877H37.3853V101.001L24.2244 87.6877H19.1484V105.529H23.0997V92.1558L36.3518 105.529H41.3366Z" fill="black"/>
<path d="M168.416 87.6877V101.001L155.255 87.6877H150.179V105.529H154.13V92.1558L167.352 105.529H172.337V87.6877H168.416Z" fill="black"/>
<path d="M129.602 87.6877L118.478 105.529H123.28L125.256 102.338H138.234L140.21 105.529H144.982L133.857 87.6877H129.602ZM136.198 98.9642H127.292L131.76 91.791L136.198 98.9642Z" fill="black"/>
<path d="M41.1242 77.567C49.0876 54.3151 71.0325 38.6922 95.7738 38.6922C120.515 38.6922 142.49 54.3151 150.423 77.567L150.484 77.7494H167.9V75.6522L160.667 74.8011C156.198 74.2844 155.256 72.3087 154.04 69.8164L153.737 69.2085C143.281 46.9596 120.515 32.5525 95.7738 32.5525C71.0022 32.5525 48.2669 46.9596 37.8111 69.2693L37.5072 69.8772C36.2914 72.3695 35.3492 74.3452 30.8812 74.8619L23.6472 75.7129V77.8102H41.033L41.1242 77.567Z" fill="black"/>
<path d="M150.484 115.499L150.423 115.682C142.459 138.933 120.514 154.526 95.7732 154.526C71.0319 154.526 49.0566 138.903 41.1236 115.651L41.0628 115.469H23.677V117.566L30.9109 118.417C35.379 118.934 36.3212 120.909 37.537 123.402L37.8409 124.01C48.2967 146.319 71.0623 160.726 95.8036 160.726C120.545 160.726 143.311 146.319 153.766 124.04L154.07 123.432C155.286 120.94 156.228 118.964 160.696 118.447L167.93 117.596V115.499H150.484Z" fill="black"/>
</svg>
