<svg width="192" height="192" viewBox="0 0 192 192" fill="none" xmlns="http://www.w3.org/2000/svg">
<path d="M99.415 106.513L79.8203 139.298C84.7947 140.221 90.1164 140.713 95.7396 140.713C131.404 140.713 154.927 120.938 154.927 96.5446C154.927 80.3223 144.993 65.3615 125.823 57.294C142.846 68.9933 144.06 104.776 99.415 106.513Z" fill="url(#paint0_radial_9797_9718)"/>
<path d="M36.5579 96.5445C36.5579 109.247 42.9362 120.697 54.0872 128.755L78.9548 91.5176C80.4984 89.207 82.8555 88.8021 86.7962 88.8021C133.102 88.8021 124.974 52.3763 95.7445 52.3763C60.0799 52.3763 36.5579 72.1513 36.5579 96.5445Z" fill="url(#paint1_radial_9797_9718)"/>
<path d="M99.415 106.513L79.8203 139.298C84.7947 140.221 90.1164 140.713 95.7396 140.713C131.404 140.713 154.927 120.938 154.927 96.5445C154.927 90.716 153.644 85.0507 151.112 79.8088C147.079 78.3509 142.285 77.0001 136.591 75.8637C138.111 89.8159 128.484 105.382 99.415 106.513Z" fill="url(#paint2_radial_9797_9718)"/>
<path d="M40.5968 79.7274C37.9596 84.9109 36.5579 90.591 36.5579 96.5445C36.5579 109.247 42.9362 120.697 54.0872 128.755L78.9548 91.5176C80.4984 89.207 82.8555 88.8021 86.7962 88.8021C107.538 88.8021 117.358 81.4941 119.252 73.4244C112.347 72.7971 104.55 72.4402 95.7445 72.4402C69.3178 72.4402 51.9687 75.6574 40.5968 79.7274Z" fill="url(#paint3_radial_9797_9718)"/>
<path d="M114.867 59.6206C114.867 59.6206 109.3 57.4016 100.767 57.4016C65.1028 57.4016 41.5801 77.1765 41.5801 101.57C41.5801 113.99 45.384 120.271 45.384 120.271C45.384 120.271 39.9582 113.392 38.4375 104.271C38.0887 102.18 37.8855 100.048 37.8855 97.8751C37.8855 73.4819 61.4082 53.707 97.0729 53.707C99.7344 53.707 102.231 53.9701 104.508 54.5575C111.641 56.3996 114.867 59.6206 114.867 59.6206Z" fill="url(#paint4_linear_9797_9718)"/>
<path d="M152.355 82.6548C149.606 75.7223 143.181 64.8557 127.167 58.6237C127.167 58.6237 131.682 61.9961 134.979 67.5542C142.445 70.4715 148.312 76.7538 152.355 82.6548Z" fill="url(#paint5_linear_9797_9718)"/>
<path d="M97.0726 53.7067C61.4079 53.7067 37.8852 73.4816 37.8852 97.8748C37.8852 110.578 44.2643 122.028 55.4153 130.086L80.2836 92.8487C81.8272 90.5373 84.1836 90.1317 88.1243 90.1317C134.43 90.1317 126.302 53.7067 97.0726 53.7067ZM81.1533 140.628C86.1277 141.552 91.4494 142.042 97.0726 142.042C132.737 142.042 156.26 122.268 156.26 97.8748C156.26 81.6518 146.325 66.6924 127.156 58.6234C144.179 70.3235 145.393 106.106 100.748 107.844L81.1533 140.628ZM172.336 96.2691C172.336 125.112 138.044 148.495 95.7425 148.495C53.4409 148.495 20.4785 126.443 20.4785 97.5984C20.4785 68.7548 54.771 45.3717 97.0726 45.3717C139.374 45.3717 172.336 67.4247 172.336 96.2691Z" fill="#000F24"/>
<path d="M95.7425 52.3766C60.0779 52.3766 36.5551 72.1515 36.5551 96.5447C36.5551 109.247 42.9342 120.698 54.0852 128.756L78.9535 91.5186C80.4971 89.2073 82.8535 88.8016 86.7942 88.8016C133.1 88.8016 124.972 52.3766 95.7425 52.3766ZM79.8232 139.298C84.7976 140.221 90.1193 140.713 95.7425 140.713C131.407 140.713 154.93 120.938 154.93 96.5447C154.93 80.3218 144.996 65.3624 125.826 57.2934C142.849 68.9934 144.063 104.776 99.4179 106.514L79.8232 139.298ZM172.337 96.2684C172.337 125.113 138.045 148.495 95.7425 148.495C53.4409 148.495 19.1484 125.113 19.1484 96.2684C19.1484 67.4247 53.4409 44.0416 95.7425 44.0416C138.045 44.0416 172.337 67.4247 172.337 96.2684Z" fill="url(#paint6_radial_9797_9718)"/>
<path d="M86.7935 88.8021C82.8536 88.8021 80.4964 89.207 78.9528 91.5176L54.0845 128.755C42.9335 120.697 36.5544 109.247 36.5544 96.5445C36.5544 90.591 37.9561 84.9117 40.5933 79.7281C21.0201 86.7346 19.1484 96.2688 19.1484 96.2688C19.1484 124.521 52.0488 147.534 93.1504 148.465C94.0105 148.485 94.875 148.495 95.7425 148.495C138.045 148.495 172.336 125.113 172.336 96.2688C172.336 96.2688 170.483 86.8077 151.116 79.8087C153.649 85.0506 154.931 90.7159 154.931 96.5445C154.931 120.938 131.408 140.713 95.7425 140.713C90.1186 140.713 84.7976 140.221 79.8232 139.298L99.4186 106.513C128.488 105.382 138.114 89.8159 136.594 75.8636C131.552 74.8572 125.803 74.0193 119.25 73.4244C117.356 81.4942 107.536 88.8021 86.7935 88.8021Z" fill="url(#paint7_radial_9797_9718)" fill-opacity="0.8"/>
<defs>
<radialGradient id="paint0_radial_9797_9718" cx="0" cy="0" r="1" gradientUnits="userSpaceOnUse" gradientTransform="translate(117.373 103.663) scale(53.2022 53.2022)">
<stop stop-color="#EE2528"/>
<stop offset="0.2" stop-color="#EE2528"/>
<stop offset="0.85" stop-color="#A6191A"/>
<stop offset="1" stop-color="#A6191A"/>
</radialGradient>
<radialGradient id="paint1_radial_9797_9718" cx="0" cy="0" r="1" gradientUnits="userSpaceOnUse" gradientTransform="translate(80.7257 85.9041) scale(53.2025 53.2025)">
<stop stop-color="#40BA4E"/>
<stop offset="0.2" stop-color="#40BA4E"/>
<stop offset="0.28938" stop-color="#40BA4E"/>
<stop offset="0.85" stop-color="#237D2A"/>
<stop offset="1" stop-color="#237D2A"/>
</radialGradient>
<radialGradient id="paint2_radial_9797_9718" cx="0" cy="0" r="1" gradientUnits="userSpaceOnUse" gradientTransform="translate(117.373 103.663) scale(53.2022 53.2022)">
<stop stop-color="#ED1C24"/>
<stop offset="0.2" stop-color="#ED1C24"/>
<stop offset="0.85" stop-color="#870E12"/>
<stop offset="1" stop-color="#870E12"/>
</radialGradient>
<radialGradient id="paint3_radial_9797_9718" cx="0" cy="0" r="1" gradientUnits="userSpaceOnUse" gradientTransform="translate(80.7257 85.9041) scale(53.2025 53.2025)">
<stop stop-color="#33B540"/>
<stop offset="0.2" stop-color="#33B540"/>
<stop offset="0.28938" stop-color="#33B540"/>
<stop offset="0.85" stop-color="#005524"/>
<stop offset="1" stop-color="#005524"/>
</radialGradient>
<linearGradient id="paint4_linear_9797_9718" x1="45.7497" y1="53.4626" x2="78.1697" y2="88.3765" gradientUnits="userSpaceOnUse">
<stop stop-color="white" stop-opacity="0.3"/>
<stop offset="1" stop-color="white" stop-opacity="0"/>
</linearGradient>
<linearGradient id="paint5_linear_9797_9718" x1="144.961" y1="64.8236" x2="132.178" y2="78.5492" gradientUnits="userSpaceOnUse">
<stop stop-color="white" stop-opacity="0.3"/>
<stop offset="1" stop-color="white" stop-opacity="0"/>
</linearGradient>
<radialGradient id="paint6_radial_9797_9718" cx="0" cy="0" r="1" gradientUnits="userSpaceOnUse" gradientTransform="translate(145.209 45.6373) rotate(152.488) scale(86.3602 126.653)">
<stop stop-color="#B4C0C6"/>
<stop offset="1" stop-color="#E5E5E7"/>
</radialGradient>
<radialGradient id="paint7_radial_9797_9718" cx="0" cy="0" r="1" gradientUnits="userSpaceOnUse" gradientTransform="translate(77.8034 99.7805) scale(59.062 40.2714)">
<stop stop-color="#F2FBFE"/>
<stop offset="0.400537" stop-color="#F2FBFE"/>
<stop offset="1" stop-color="#869AA4"/>
</radialGradient>
</defs>
</svg>
