<svg width="192" height="192" viewBox="0 0 192 192" fill="none" xmlns="http://www.w3.org/2000/svg">
<path d="M34.9206 33.9931C52.8377 30.8968 70.8325 29.1349 88.9698 28.7851C111.447 28.3576 133.756 30.1583 155.922 33.9801C155.961 34.2263 156.013 34.4206 156.013 34.6149C156.285 42.3103 156.505 49.9928 156.376 57.6882C156.246 65.6168 155.754 73.5195 154.627 81.3833C153.163 91.579 150.714 101.503 146.659 110.999C138.653 129.719 125.905 144.449 108.921 155.565C104.84 158.234 100.565 160.54 96.147 162.587C95.6547 162.82 95.266 162.833 94.7608 162.587C67.7362 149.657 49.3786 129.162 40.4136 100.44C38.4315 94.0924 37.136 87.5888 36.2032 80.9946C34.804 71.1098 34.3895 61.1602 34.4801 51.1847C34.532 45.7564 34.7263 40.3411 34.8429 34.9129C34.8558 34.6409 34.8818 34.3429 34.9206 33.9931ZM37.3951 36.5064C37.3951 37.0117 37.408 37.3614 37.3951 37.7242C37.3303 40.393 37.2526 43.0488 37.1748 45.7176C36.9157 54.7344 37.0064 63.7383 37.7578 72.7292C38.276 78.7922 39.1052 84.8164 40.3748 90.7758C42.331 99.987 45.2977 108.848 49.7284 117.179C59.9501 136.352 75.0818 150.357 94.6183 159.711C95.2272 159.996 95.7065 159.944 96.2895 159.672C101.096 157.417 105.695 154.813 110.061 151.808C124.506 141.845 135.686 129.084 143.123 113.137C147.774 103.161 150.52 92.6414 152.075 81.7719C153.15 74.245 153.707 66.6662 153.746 59.0614C153.785 52.8818 153.642 46.7022 153.565 40.5096C153.552 39.2011 153.461 37.8926 153.409 36.5064C134.637 33.2417 115.774 31.5705 96.7688 31.4927C76.8696 31.402 57.1129 33.0733 37.3951 36.5064Z" fill="black"/>
<path d="M37.3949 36.5065C57.1128 33.0863 76.8695 31.4021 96.7687 31.4799C115.774 31.5576 134.637 33.2288 153.409 36.4935C153.461 37.8797 153.551 39.1882 153.564 40.4967C153.642 46.6763 153.772 52.856 153.746 59.0486C153.707 66.6533 153.15 74.2321 152.075 81.7591C150.52 92.6155 147.773 103.148 143.122 113.124C135.699 129.084 124.506 141.832 110.061 151.795C105.695 154.814 101.096 157.405 96.2893 159.659C95.7193 159.931 95.227 159.983 94.6181 159.698C75.0816 150.344 59.937 136.352 49.7283 117.166C45.2976 108.835 42.3309 99.9741 40.3746 90.7629C39.105 84.8035 38.2759 78.7923 37.7577 72.7163C36.9933 63.7254 36.9156 54.7215 37.1747 45.7047C37.2524 43.0359 37.3172 40.3801 37.3949 37.7113C37.4079 37.3615 37.3949 36.9988 37.3949 36.5065ZM151.245 38.4239C113.999 32.2054 76.8565 32.2054 39.6621 38.4109C39.6362 38.8125 39.6103 39.1364 39.5973 39.4603C39.5196 42.712 39.4159 45.9638 39.3771 49.2285C39.2734 57.4162 39.3512 65.6039 40.1285 73.7657C40.7114 79.8546 41.5924 85.9047 42.9527 91.8641C44.7664 99.8057 47.3445 107.488 51.0627 114.756C60.792 133.774 75.4573 147.753 94.5792 157.145C95.2141 157.456 95.6934 157.43 96.3153 157.133C106.083 152.417 114.828 146.237 122.524 138.581C134.222 126.934 142.138 113.072 146.569 97.1887C149.846 85.4643 151.155 73.4548 151.453 61.3287C151.569 56.6648 151.504 51.988 151.479 47.3241C151.44 44.4092 151.323 41.4813 151.245 38.4239Z" fill="white"/>
<path d="M151.245 38.4238C151.323 41.4812 151.44 44.4091 151.466 47.324C151.504 51.9879 151.556 56.6647 151.44 61.3286C151.142 73.4547 149.82 85.4642 146.556 97.1887C142.125 113.072 134.209 126.934 122.511 138.581C114.828 146.237 106.083 152.417 96.3022 157.132C95.6804 157.43 95.201 157.456 94.5662 157.145C75.4443 147.753 60.779 133.787 51.0496 114.756C47.3315 107.488 44.7534 99.8056 42.9397 91.8641C41.5794 85.8917 40.6984 79.8546 40.1154 73.7656C39.3381 65.6038 39.2474 57.4162 39.364 49.2285C39.4029 45.9767 39.5065 42.7249 39.5843 39.4602C39.5972 39.1363 39.6231 38.8125 39.649 38.4108C76.8435 32.2053 113.986 32.2053 151.245 38.4238ZM101.549 139.552C102.262 138.296 102.883 137.22 103.466 136.119C104.036 135.057 104.762 134.15 105.695 133.386C110.993 129.02 116.279 124.628 121.604 120.275C122.355 119.666 122.847 118.992 123.081 118.047C124.039 114.108 124.661 110.118 124.92 106.076C125.128 102.785 125.063 99.5077 124.713 96.23C124.635 95.4786 124.376 94.8308 123.962 94.2349C121.176 90.1929 118.002 86.4618 114.634 82.8991C114.245 82.4845 113.779 82.2124 113.118 82.1088C113.157 82.4197 113.17 82.6788 113.222 82.925C113.844 85.814 114.478 88.703 115.074 91.605C115.217 92.3175 115.541 92.8746 116.059 93.3798C117.73 95.0252 119.272 96.7612 120.619 98.6915C121.241 99.5854 121.604 100.557 121.656 101.632C121.928 106.724 121.889 111.815 121.332 116.894C121.215 117.917 120.788 118.63 120.01 119.29C115.204 123.384 110.436 127.53 105.682 131.675C104.464 132.738 103.298 133.852 102.598 135.355C102.573 135.407 102.495 135.42 102.417 135.458C101.562 133.204 101.083 130.95 101.808 128.527C102.611 125.82 103.324 123.086 104.062 120.366C104.166 119.99 104.244 119.614 104.334 119.251C104.27 119.226 104.205 119.2 104.14 119.174C103.998 119.446 103.842 119.718 103.726 120.003C102.78 122.179 101.821 124.33 100.914 126.519C100.267 128.1 99.6965 129.706 99.0746 131.3C98.7508 132.142 98.7508 132.932 99.1135 133.774C99.8001 135.368 100.422 137 101.083 138.607C101.199 138.866 101.329 139.112 101.549 139.552ZM86.8449 84.9978C86.7283 85.0108 86.6117 85.0108 86.4951 85.0237C86.534 85.801 86.5599 86.5654 86.6376 87.3427C86.7413 88.3921 86.8708 89.4285 86.9874 90.4779C87.0781 91.2552 86.9226 91.9807 86.4951 92.6414C86.0028 93.4187 85.5623 94.2219 85.0571 94.9992C81.3519 100.596 77.2969 105.933 72.944 111.051C72.2832 111.828 71.8298 112.657 71.7132 113.681C71.5318 115.507 71.3246 117.334 71.1173 119.161C71.0266 119.977 71.195 120.728 71.6484 121.415C72.2832 122.374 72.8792 123.358 73.5658 124.278C77.1933 129.201 81.1446 133.865 85.3551 138.321C86.6765 139.721 88.0886 140.977 89.8894 141.716C90.4594 141.949 91.0035 142.273 91.5606 142.545C91.742 142.636 91.9363 142.674 92.1306 142.726C92.1695 142.661 92.2084 142.597 92.2472 142.545C91.8974 142.221 91.5995 141.832 91.1979 141.586C89.7987 140.757 88.6198 139.669 87.5574 138.451C83.5413 133.917 79.7714 129.201 76.2994 124.239C75.5609 123.19 74.9132 122.089 74.2395 121C73.8508 120.366 73.6565 119.679 73.7342 118.928C73.8767 117.619 74.0063 116.311 74.1747 115.015C74.2654 114.303 74.6411 113.745 75.1723 113.253C76.3512 112.152 77.5171 111.051 78.6443 109.898C81.909 106.581 81.1835 107.786 83.2952 103.278C84.9275 99.8056 86.4174 96.2559 87.972 92.745C88.2311 92.162 88.4384 91.5661 88.2829 90.9313C87.8295 88.9362 87.3242 86.967 86.8449 84.9978ZM93.4909 63.259C93.5039 63.3496 93.5039 63.4403 93.5168 63.544C94.035 63.5569 94.5403 63.6087 95.0585 63.5828C98.0512 63.4792 101.031 63.3756 104.024 63.233C105.099 63.1812 106.109 63.3367 107.094 63.7772C108.584 64.4638 110.074 65.1634 111.589 65.7982C112.185 66.0443 112.833 66.2257 113.468 66.3034C114.712 66.4459 115.968 66.433 117.199 66.5884C117.937 66.6791 118.715 66.8475 119.35 67.1973C121.979 68.6742 124.583 70.2289 127.174 71.7705C127.745 72.1074 128.289 72.3665 129.196 72.2887C127.278 70.4621 125.503 68.7649 123.728 67.0678C123.612 66.9512 123.456 66.8735 123.314 66.7957C119.168 64.4508 115.01 62.1319 110.67 60.1497C109.724 59.7222 108.752 59.489 107.729 59.4501C105.721 59.3724 103.726 59.2558 101.717 59.1781C96.0949 58.9708 90.4853 59.1392 84.8757 59.5538C83.9041 59.6315 83.2693 60.0072 82.8417 60.8363C82.2588 61.9764 81.3908 62.8444 80.4191 63.6476C78.5536 65.2022 76.6751 66.7569 74.6022 68.0394C74.1747 68.2985 73.7472 68.5835 73.5529 69.2443C74.4986 68.7131 75.3277 68.2467 76.1568 67.7933C79.6548 65.9018 83.1527 64.0233 86.6506 62.1319C87.5574 61.6396 88.5161 61.3545 89.5655 61.3286C91.2108 61.2898 92.8432 61.1213 94.4885 61.1084C98.6342 61.0566 102.767 61.0307 106.913 61.0177C107.625 61.0177 108.286 61.212 108.869 61.6266C103.7 62.1059 98.5823 62.5335 93.4909 63.259ZM58.4989 84.7258C58.4341 85.827 58.2009 86.7856 57.4366 87.5629C56.737 88.2625 56.1022 89.0269 55.4674 89.7783C55.0139 90.3095 54.9751 90.5556 55.3896 91.0868C56.1929 92.1232 57.0349 93.1337 57.89 94.1312C58.0973 94.3774 58.46 94.494 58.8228 94.7142C59.0948 93.5094 59.3539 92.46 59.5612 91.3977C59.7037 90.7111 60.0535 90.3224 60.779 90.1929C62.6834 89.8431 64.5749 89.4285 66.4793 89.0658C67.6194 88.8455 68.7724 88.6512 70.0549 88.418C69.757 88.0552 69.5626 87.7961 69.3424 87.5629C68.6558 86.8504 67.9303 86.1767 67.2955 85.4253C66.5182 84.5055 65.5854 84.065 64.3676 84.1039C63.668 84.1169 62.9555 83.9873 62.243 83.9225C62.217 83.8578 62.1911 83.793 62.1782 83.7282C62.4243 83.5468 62.6575 83.3395 62.9166 83.1841C63.1109 83.0675 63.3441 83.0286 63.5644 82.9509C66.8809 81.6942 70.1975 80.4376 73.514 79.1809C74.5634 78.7923 75.2759 78.0538 75.7941 77.0822C75.6516 77.0822 75.522 77.121 75.4314 77.1988C74.2654 78.2611 72.8533 78.7275 71.3375 78.9995C70.8582 79.0902 70.3788 79.2327 69.8995 79.3493C69.3165 79.4918 68.7594 79.5178 68.1764 79.2587C67.8785 79.1291 67.4769 79.1291 67.14 79.1809C66.4275 79.2975 65.7279 79.5048 65.0283 79.6603C64.834 79.6991 64.6397 79.7121 64.264 79.7509C64.8599 79.1421 65.3263 78.7145 65.9741 78.4943C66.6607 78.2611 67.3214 77.9631 68.008 77.7299C68.5262 77.5486 68.8372 77.2895 68.8631 76.6935C68.889 76.0717 69.0703 75.4628 69.1351 74.8409C69.1869 74.3745 69.3942 74.0507 69.757 73.7786C70.5732 73.1697 71.3764 72.5478 72.1796 71.913C72.4128 71.7317 72.6849 71.5762 72.7496 71.1098C71.5318 71.8353 70.4566 72.5349 69.3294 73.1308C67.3343 74.1802 65.7279 75.6182 64.4712 77.4967C64.1215 78.0279 63.5903 78.4684 63.085 78.857C60.7142 80.6837 58.3175 82.4715 55.9467 84.2982C55.273 84.8164 54.6641 85.4383 54.0941 86.0731C53.4204 86.8245 53.5889 87.6925 54.5216 88.3143C54.9751 87.9905 55.4544 87.6407 55.9338 87.3038C56.6593 86.7856 57.3718 86.2804 57.7475 85.4124C57.877 85.1274 58.2398 84.946 58.4989 84.7258ZM109.53 73.1827C110.851 73.3252 111.952 73.5195 113.092 73.1179C113.947 72.8069 114.893 72.7163 115.761 72.4442C116.81 72.1203 117.678 72.3535 118.52 73.0272C120.49 74.6207 122.459 76.2142 124.454 77.7688C125.063 78.2481 125.762 78.6368 126.475 78.9736C127.783 79.5825 129.131 80.1266 130.452 80.6967C131.178 81.0076 131.618 81.5258 131.761 82.3031C131.812 82.5622 131.903 82.8084 131.942 83.0675C132.331 85.801 132.706 88.5346 133.121 91.2681C133.38 92.9523 133.082 94.5329 132.305 96.0357C131.307 97.953 130.323 99.8963 129.299 101.801C129.066 102.228 128.768 102.682 128.379 102.928C127.136 103.692 126.592 104.742 126.708 106.18C126.747 106.711 126.656 107.242 126.63 107.773C127.006 107.553 127.213 107.307 127.408 107.048C130.141 103.368 132.37 99.3781 134.378 95.2583C134.546 94.9086 134.676 94.5199 134.701 94.1312C135.142 89.2342 135.038 84.3501 134.144 79.4918C134.015 78.8052 133.717 78.287 133.134 77.8854C128.872 74.8927 124.415 72.2499 119.699 70.0216C118.741 69.5681 117.834 69.5034 116.862 69.9309C114.66 70.8896 112.457 71.8224 110.255 72.7681C110.048 72.8458 109.866 72.9754 109.53 73.1827ZM97.2091 143.529C97.2609 142.506 97.1443 141.547 96.6909 140.628C96.2374 139.721 95.8617 138.762 95.499 137.816C94.346 134.849 93.193 131.87 92.0918 128.877C91.8456 128.216 91.7161 127.452 91.7808 126.752C91.9622 124.757 92.1825 122.762 92.5582 120.793C93.5557 115.533 94.6569 110.286 95.7063 105.04C95.9395 103.848 95.4731 102.759 95.2269 101.632C95.0196 101.904 94.8901 102.163 94.7864 102.436C94.1776 104.029 93.5557 105.623 92.9727 107.229C91.1719 112.204 89.4748 117.217 88.1275 122.335C87.7518 123.747 87.8554 125.004 88.4384 126.338C90.9258 132.038 93.7889 137.544 96.8334 142.972C96.95 143.167 97.0925 143.348 97.2091 143.529ZM70.4695 74.7502C70.4954 74.828 70.5213 74.9057 70.5472 74.9834C71.2598 74.9834 71.9723 75.0223 72.6719 74.9705C74.2654 74.8539 75.8977 74.9705 77.4524 74.4911C79.4604 73.8822 81.4685 73.2733 83.4636 72.6126C83.8652 72.4831 84.3186 72.1851 84.5389 71.8353C85.6142 70.0734 86.6376 68.2726 87.6611 66.4848C87.6999 66.4071 87.7 66.3034 87.7388 66.0961C86.3137 66.0443 84.9016 65.85 83.5672 66.3812C81.313 67.2751 79.0847 68.2467 76.8823 69.2572C76.3382 69.5034 75.8718 69.9698 75.4573 70.4102C74.8095 71.1098 74.2136 71.8483 73.6565 72.6256C73.0735 73.4288 72.3739 74.0118 71.4282 74.3098C71.0784 74.4134 70.7804 74.6077 70.4695 74.7502ZM70.6379 90.0244C70.625 90.0892 70.612 90.154 70.5991 90.2317C70.8841 90.3483 71.182 90.4779 71.4671 90.5815C73.0476 91.1515 74.6281 91.7086 76.1957 92.2916C77.4135 92.745 77.8022 93.7426 77.2062 94.8826C76.118 96.9166 74.8484 98.834 73.3844 100.622C73.0994 100.959 72.7108 101.283 72.3092 101.425C70.897 101.943 69.4461 102.371 68.008 102.863C67.5157 103.031 67.1271 102.941 66.7514 102.604C66.285 102.189 65.8056 101.775 65.3392 101.373C65.1838 101.244 64.9895 101.127 64.7303 100.946C64.6267 102.202 64.4972 103.304 64.9895 104.431C65.4558 105.467 65.7149 106.607 66.0259 107.708C66.285 108.628 66.4534 109.561 66.6866 110.494C66.855 111.141 67.0493 111.297 67.6712 111.154C68.6299 110.934 69.5886 110.701 70.5084 110.338C70.9877 110.144 71.3634 109.69 71.778 109.341C71.4671 109.211 71.2598 109.211 71.0525 109.263C70.2881 109.431 69.5238 109.639 68.7465 109.768C68.0598 109.898 67.9432 109.794 67.8007 109.12C67.6064 108.149 67.438 107.177 67.2825 106.206C67.1271 105.325 67.1789 105.26 68.0858 104.949C70.0679 104.262 72.063 103.576 74.0581 102.915C74.5763 102.746 75.0297 102.513 75.3018 102.021C76.7657 99.4429 78.2297 96.8777 79.6677 94.2997C79.7973 94.0665 79.9009 93.6908 79.8102 93.4576C79.4863 92.6284 79.0847 91.8382 78.0742 91.605C76.0014 91.1127 73.9286 90.5686 71.8557 90.0763C71.4541 89.9985 71.0395 90.0374 70.6379 90.0244ZM103.35 85.9824C103.298 85.6585 103.272 85.4642 103.233 85.2828C102.832 83.3525 102.43 81.4222 102.015 79.5048C101.86 78.7664 101.821 78.0927 102.378 77.4708C102.728 77.0822 102.974 76.6158 103.259 76.1623C104.866 73.5584 104.853 74.3227 104.127 70.9544C104.101 70.8248 104.075 70.6953 104.024 70.5787C103.946 70.4361 103.855 70.2677 103.726 70.2029C102.922 69.7754 102.145 69.322 101.135 69.5422C98.4398 70.1252 95.7322 70.6175 93.0245 71.1616C91.8715 71.3948 91.2497 72.1333 91.0813 73.4158C91.6513 73.5195 92.2343 73.5972 92.8043 73.7397C93.6334 73.96 94.3978 73.8304 95.1881 73.4936C96.8463 72.794 98.5564 72.211 100.228 71.5114C100.862 71.2394 101.445 71.3171 102.028 71.5632C103.013 71.9778 103.441 73.4029 102.819 74.2579C102.093 75.2684 101.342 76.266 100.564 77.2506C100.228 77.6781 100.137 78.0797 100.305 78.6109C100.94 80.5801 101.536 82.5622 102.132 84.5314C102.313 85.1274 102.637 85.5678 103.35 85.9824ZM72.1019 49.8244C69.0963 50.0317 66.1943 50.239 63.2794 50.4333C63.2794 49.6689 63.2794 49.0341 63.2794 48.3086C65.9093 48.1013 68.4874 47.907 71.1043 47.6997C71.1043 47.2463 71.1043 46.8706 71.1043 46.3783C68.4744 46.5726 65.9093 46.754 63.2923 46.9354C63.2923 46.2617 63.2923 45.6658 63.2923 44.9921C66.2591 44.7719 69.161 44.5516 72.076 44.3314C72.1019 44.0593 72.1278 43.865 72.1278 43.6707C72.1278 43.4893 72.1019 43.295 72.063 42.984C68.604 43.2431 65.2226 43.5022 61.8413 43.7613C61.8413 46.5467 61.8413 49.1896 61.8413 51.9102C65.3004 51.6511 68.6946 51.392 72.0889 51.1329C72.1019 50.6794 72.1019 50.3296 72.1019 49.8244ZM99.554 49.1378C97.1314 49.1378 94.8253 49.1507 92.5322 49.1248C91.8068 49.1248 91.5347 48.8268 91.5217 48.0884C91.4958 47.0649 91.5088 46.0544 91.5217 45.031C91.5217 43.8261 91.6772 43.6577 92.882 43.6448C95.0456 43.6318 97.222 43.6448 99.3856 43.6577C99.7353 43.6577 100.085 43.6577 100.461 43.6577C100.461 43.1525 100.461 42.7897 100.461 42.3751C100.241 42.3492 100.085 42.3233 99.9297 42.3233C97.5589 42.3104 95.201 42.2974 92.8302 42.3104C92.4675 42.3104 92.1047 42.3622 91.7549 42.4399C90.7574 42.6472 90.2003 43.1654 90.1485 44.163C90.0708 45.7046 90.0837 47.2593 90.1485 48.8009C90.1874 49.7208 90.7315 50.2131 91.6383 50.3685C92.0529 50.4462 92.4934 50.4722 92.9079 50.4851C95.3047 50.511 97.7014 50.511 100.111 50.524C100.396 50.524 100.681 50.4851 101.031 50.4592C101.07 48.8398 101.096 47.2852 101.018 45.7176C99.0617 45.7176 97.235 45.7176 95.4342 45.7176C95.4342 46.171 95.4342 46.5467 95.4342 47.0261C96.8463 47.0261 98.1807 47.0261 99.541 47.0261C99.554 47.7516 99.554 48.3993 99.554 49.1378ZM105.98 43.8002C108.985 43.9039 111.9 44.0205 114.854 44.1241C114.854 43.6577 114.854 43.282 114.854 42.8286C111.408 42.6602 108.014 42.4658 104.529 42.4529C104.529 45.2253 104.516 47.8682 104.529 50.5499C108.066 50.6794 111.46 50.809 114.919 50.9515C114.893 50.4333 114.88 50.0576 114.854 49.6171C111.836 49.4876 108.921 49.371 105.98 49.2544C105.98 48.5289 105.98 47.8811 105.98 47.2333C107.353 47.2333 108.649 47.2333 109.957 47.2333C111.253 47.2463 112.548 47.4665 113.831 47.3499C113.831 46.8706 113.831 46.4949 113.831 46.0674C111.175 45.9637 108.597 45.8601 105.967 45.7435C105.98 45.0957 105.98 44.5257 105.98 43.8002ZM129.584 47.9329C129.584 47.9329 129.597 47.9329 129.584 47.9329C129.584 47.3111 129.584 46.6892 129.584 46.0674C129.584 46.0026 129.584 45.9378 129.584 45.8731C129.532 44.7978 129.066 44.1759 128.03 43.852C127.719 43.7484 127.395 43.6836 127.071 43.6577C125.076 43.5022 123.081 43.3468 121.086 43.2043C120.723 43.1784 120.36 43.1913 120.01 43.2302C118.961 43.3338 118.43 43.8132 118.391 44.8496C118.326 46.3524 118.326 47.8682 118.404 49.3839C118.443 50.4074 118.961 50.9256 119.958 51.1588C120.399 51.2624 120.865 51.3142 121.319 51.3531C122.757 51.4697 124.195 51.5863 125.633 51.677C126.423 51.7288 127.213 51.7806 127.991 51.7418C129.014 51.6899 129.545 51.1329 129.584 50.1094C129.61 49.3839 129.584 48.6584 129.584 47.9329ZM49.2618 50.7572C51.1274 50.5499 52.8634 50.3556 54.5864 50.1483C55.4026 50.0446 56.2188 49.9539 57.009 49.7855C57.7993 49.6171 58.4082 49.0989 58.5118 48.2698C58.6155 47.4277 58.6155 46.5726 58.5248 45.7305C58.4471 44.9662 57.9159 44.5128 57.1515 44.3962C56.8018 44.3443 56.4261 44.3184 56.0763 44.3573C54.4828 44.5128 52.8763 44.6812 51.2828 44.8625C50.1557 44.9921 49.0286 45.1476 47.8886 45.303C47.8886 48.0495 47.8886 50.6924 47.8886 53.413C48.355 53.3612 48.7695 53.3093 49.2618 53.2446C49.2618 52.4413 49.2618 51.664 49.2618 50.7572ZM77.0508 42.7897C76.5196 42.8156 76.105 42.8415 75.5868 42.8674C75.5868 43.295 75.5868 43.6577 75.5868 44.0075C75.5868 45.5233 75.5739 47.039 75.5868 48.5418C75.6127 50.2131 76.1698 50.7701 77.8669 50.8219C77.9317 50.8219 77.9965 50.8219 78.0613 50.8219C80.16 50.7442 82.2717 50.6924 84.3705 50.5628C86.0676 50.4592 86.6117 49.8503 86.6247 48.1143C86.6376 46.5079 86.6247 44.8885 86.6247 43.282C86.6247 43.0229 86.5988 42.7768 86.5728 42.4788C86.1065 42.4788 85.6919 42.4788 85.2126 42.4788C85.1996 42.8415 85.1607 43.1654 85.1607 43.4893C85.1607 45.0698 85.1737 46.6504 85.1478 48.2309C85.1348 49.0341 84.9794 49.2285 84.1632 49.2673C82.0903 49.371 80.0305 49.4487 77.9576 49.5135C77.2321 49.5394 77.0508 49.3321 77.0378 48.5548C77.0248 47.7386 77.0378 46.9095 77.0378 46.0933C77.0508 45.0569 77.0508 44.0075 77.0508 42.7897ZM142.993 45.2771C139.365 44.8755 135.829 44.4739 132.214 44.0723C132.214 44.5775 132.214 44.9532 132.214 45.4067C133.769 45.588 135.284 45.7565 136.904 45.9378C136.904 48.2309 136.904 50.4462 136.904 52.6875C137.422 52.7523 137.837 52.817 138.381 52.8818C138.381 50.5888 138.381 48.3993 138.381 46.1062C139.987 46.2747 141.477 46.4301 142.993 46.5985C142.993 46.1322 142.993 45.7824 142.993 45.2771ZM75.1852 96.3466C75.1075 96.2688 75.0427 96.2041 74.965 96.1263C72.8014 97.9142 70.625 99.702 68.4615 101.49C68.4874 101.555 68.5262 101.606 68.5521 101.671C69.7181 101.27 70.8841 100.868 72.0371 100.44C72.2055 100.376 72.3739 100.233 72.4905 100.078C73.3974 98.8469 74.2913 97.6032 75.1852 96.3466ZM62.4632 93.6001C61.2713 93.898 60.3903 94.3385 59.8721 95.349C60.5458 96.1263 61.1418 96.8 61.8154 97.5773C61.9061 97.2534 61.9709 97.0721 61.9968 96.8907C62.1523 95.8543 62.2948 94.8308 62.4632 93.6001ZM71.0655 76.0846C71.0395 76.7712 71.0136 77.3413 70.9877 77.9243C72.944 77.717 73.2549 77.3672 72.7367 75.9939C72.2444 76.0198 71.7262 76.0458 71.0655 76.0846Z" fill="black"/>
<path d="M101.549 139.552C101.329 139.112 101.2 138.853 101.083 138.593C100.422 136.987 99.8004 135.355 99.1138 133.761C98.751 132.919 98.751 132.116 99.0749 131.287C99.6968 129.693 100.254 128.087 100.915 126.506C101.821 124.317 102.78 122.153 103.726 119.99C103.855 119.705 103.998 119.433 104.14 119.161C104.205 119.187 104.27 119.212 104.335 119.238C104.244 119.614 104.166 119.99 104.063 120.352C103.311 123.073 102.612 125.82 101.808 128.514C101.083 130.924 101.575 133.191 102.417 135.445C102.482 135.406 102.573 135.393 102.599 135.342C103.298 133.839 104.464 132.725 105.682 131.662C110.45 127.517 115.217 123.384 120.011 119.277C120.788 118.616 121.215 117.904 121.332 116.88C121.889 111.802 121.928 106.711 121.656 101.619C121.604 100.544 121.228 99.5723 120.619 98.6784C119.285 96.7481 117.73 95.0121 116.059 93.3667C115.554 92.8615 115.23 92.3044 115.075 91.5919C114.479 88.6899 113.844 85.8139 113.222 82.9119C113.17 82.6657 113.157 82.4066 113.118 82.0957C113.766 82.1993 114.233 82.4714 114.634 82.886C118.003 86.4487 121.177 90.1798 123.962 94.2218C124.376 94.8307 124.636 95.4655 124.713 96.2169C125.063 99.4946 125.128 102.772 124.921 106.063C124.674 110.105 124.04 114.095 123.081 118.033C122.848 118.992 122.355 119.653 121.604 120.262C116.279 124.602 110.994 128.994 105.695 133.372C104.775 134.137 104.037 135.044 103.467 136.106C102.884 137.22 102.262 138.295 101.549 139.552Z" fill="white"/>
<path d="M86.8448 84.9978C87.3371 86.967 87.8294 88.9362 88.2958 90.9183C88.4513 91.5531 88.244 92.1491 87.9849 92.7321C86.4303 96.2429 84.9404 99.7927 83.3081 103.265C81.1964 107.773 81.9219 106.568 78.6571 109.885C77.53 111.038 76.3641 112.139 75.1851 113.24C74.654 113.732 74.2783 114.29 74.1876 115.002C74.0192 116.311 73.8896 117.606 73.7471 118.915C73.6694 119.666 73.8637 120.353 74.2524 120.987C74.926 122.076 75.5738 123.177 76.3122 124.226C79.7842 129.188 83.5542 133.917 87.5703 138.438C88.6456 139.656 89.8116 140.744 91.2107 141.573C91.6124 141.806 91.9103 142.208 92.2601 142.532C92.2213 142.597 92.1824 142.661 92.1435 142.713C91.9492 142.649 91.7549 142.61 91.5735 142.532C91.0164 142.26 90.4723 141.936 89.9023 141.703C88.1015 140.951 86.6894 139.695 85.3679 138.309C81.1575 133.865 77.2191 129.201 73.5787 124.265C72.8921 123.345 72.2961 122.361 71.6613 121.402C71.2208 120.715 71.0395 119.964 71.1302 119.148C71.3374 117.321 71.5447 115.494 71.7261 113.668C71.8297 112.644 72.2832 111.815 72.9568 111.038C77.2839 105.92 81.3518 100.583 85.057 94.9863C85.5623 94.2219 86.0027 93.4057 86.495 92.6284C86.9226 91.9548 87.078 91.2422 86.9873 90.4649C86.8708 89.4155 86.7282 88.3791 86.6376 87.3297C86.5598 86.5654 86.5469 85.7881 86.495 85.0108C86.6116 85.0108 86.7282 84.9978 86.8448 84.9978Z" fill="white"/>
<path d="M93.4913 63.2588C98.5827 62.5333 103.7 62.1058 108.843 61.6653C108.26 61.2378 107.587 61.0435 106.887 61.0564C102.741 61.0694 98.6087 61.0824 94.463 61.1471C92.8177 61.173 91.1853 61.3415 89.54 61.3674C88.4906 61.3933 87.5449 61.6783 86.6251 62.1706C83.1272 64.0621 79.6293 65.9406 76.1313 67.832C75.3022 68.2855 74.4731 68.7518 73.5273 69.283C73.7217 68.6093 74.1492 68.3373 74.5767 68.0782C76.6495 66.7956 78.5281 65.2539 80.3936 63.6864C81.3653 62.8831 82.2462 62.0022 82.8162 60.8751C83.2438 60.0459 83.8656 59.6702 84.8502 59.5925C90.4598 59.165 96.0694 59.0095 101.692 59.2168C103.7 59.2945 105.695 59.3982 107.703 59.4889C108.74 59.5277 109.711 59.7609 110.644 60.1884C114.984 62.1706 119.143 64.4896 123.288 66.8345C123.431 66.9122 123.586 66.9899 123.703 67.1065C125.478 68.8037 127.253 70.5008 129.17 72.3275C128.276 72.4052 127.719 72.1461 127.149 71.8093C124.558 70.2547 121.967 68.713 119.324 67.2361C118.689 66.8863 117.912 66.7179 117.173 66.6272C115.943 66.4717 114.673 66.4847 113.442 66.3422C112.808 66.2644 112.16 66.096 111.564 65.8369C110.048 65.2021 108.558 64.5155 107.068 63.8159C106.084 63.3625 105.073 63.22 103.998 63.2718C101.005 63.4143 98.0257 63.5179 95.033 63.6216C94.5278 63.6345 94.0095 63.5957 93.4913 63.5827C93.5043 63.4402 93.5043 63.3495 93.4913 63.2588Z" fill="white"/>
<path d="M58.4991 84.7258C58.253 84.946 57.8902 85.1274 57.7607 85.4124C57.385 86.2804 56.6595 86.7857 55.947 87.3039C55.4676 87.6537 54.9883 87.9905 54.5348 88.3144C53.6021 87.6796 53.4336 86.8245 54.1073 86.0731C54.6773 85.4383 55.2862 84.8294 55.9599 84.2983C58.3178 82.4586 60.7274 80.6838 63.0982 78.8571C63.6164 78.4555 64.1347 78.015 64.4845 77.4968C65.7411 75.6183 67.3605 74.1932 69.3427 73.1309C70.4698 72.5349 71.545 71.8354 72.7628 71.1099C72.711 71.5763 72.426 71.7447 72.1928 71.9131C71.3896 72.5349 70.5864 73.1697 69.7702 73.7786C69.4074 74.0507 69.1872 74.3746 69.1483 74.841C69.0836 75.4628 68.9151 76.0717 68.8763 76.6936C68.8504 77.2895 68.5394 77.5616 68.0212 77.73C67.3346 77.9632 66.6739 78.2611 65.9873 78.4943C65.3395 78.7146 64.8601 79.1421 64.2772 79.751C64.6399 79.7121 64.8472 79.7121 65.0415 79.6603C65.7411 79.5048 66.4407 79.2976 67.1532 79.181C67.4901 79.1291 67.8917 79.1162 68.1896 79.2587C68.7726 79.5178 69.3297 79.4919 69.9127 79.3494C70.392 79.2328 70.8714 79.0903 71.3507 78.9996C72.8535 78.7146 74.2786 78.2611 75.4446 77.1988C75.5352 77.1211 75.6518 77.0822 75.8073 77.0822C75.2891 78.0409 74.5766 78.7794 73.5272 79.181C70.2107 80.4376 66.8941 81.6943 63.5776 82.9509C63.3573 83.0287 63.1242 83.0805 62.9298 83.1841C62.6707 83.3396 62.4375 83.5469 62.1914 83.7283C62.2173 83.793 62.2432 83.8578 62.2562 83.9226C62.9687 83.9874 63.6683 84.1169 64.3808 84.1039C65.5986 84.078 66.5314 84.5056 67.3087 85.4254C67.9435 86.1768 68.6819 86.8505 69.3556 87.563C69.5758 87.7962 69.7702 88.0553 70.0681 88.418C68.7856 88.6512 67.6326 88.8456 66.4925 89.0658C64.5881 89.4415 62.6966 89.8561 60.7922 90.1929C60.0667 90.3225 59.7169 90.7111 59.5744 91.3977C59.3542 92.4601 59.108 93.5094 58.836 94.7143C58.4732 94.494 58.1234 94.3774 57.9032 94.1313C57.0352 93.1337 56.2061 92.1232 55.4028 91.0868C54.9883 90.5557 55.0271 90.3095 55.4806 89.7783C56.1154 89.0269 56.7502 88.2626 57.4498 87.563C58.1882 86.7857 58.4214 85.827 58.4991 84.7258Z" fill="white"/>
<path d="M109.53 73.1826C109.88 72.9754 110.048 72.8458 110.242 72.7681C112.445 71.8224 114.66 70.8896 116.849 69.9309C117.821 69.5034 118.728 69.5681 119.687 70.0216C124.402 72.2369 128.859 74.8927 133.121 77.8854C133.704 78.3 134.002 78.8052 134.132 79.4918C135.026 84.35 135.129 89.2342 134.689 94.1312C134.65 94.5199 134.533 94.9086 134.365 95.2583C132.37 99.3781 130.142 103.355 127.395 107.048C127.201 107.307 126.993 107.553 126.618 107.773C126.644 107.242 126.734 106.711 126.695 106.18C126.579 104.729 127.123 103.679 128.367 102.928C128.755 102.682 129.066 102.228 129.286 101.801C130.31 99.8834 131.295 97.953 132.292 96.0357C133.069 94.5329 133.367 92.9523 133.108 91.2681C132.694 88.5346 132.331 85.801 131.929 83.0675C131.89 82.8084 131.8 82.5622 131.748 82.3031C131.605 81.5258 131.152 81.0076 130.44 80.6967C129.105 80.1266 127.771 79.5955 126.462 78.9736C125.763 78.6368 125.063 78.2481 124.441 77.7688C122.433 76.2142 120.464 74.6336 118.508 73.0272C117.679 72.3535 116.798 72.1333 115.748 72.4442C114.867 72.7163 113.935 72.8069 113.08 73.1179C111.952 73.5195 110.851 73.3252 109.53 73.1826Z" fill="white"/>
<path d="M97.2092 143.529C97.0796 143.348 96.9371 143.167 96.8335 142.972C93.789 137.557 90.913 132.051 88.4385 126.338C87.8555 125.004 87.7519 123.734 88.1276 122.335C89.4749 117.204 91.1721 112.204 92.9728 107.229C93.5558 105.623 94.1777 104.029 94.7866 102.436C94.8902 102.163 95.0198 101.904 95.227 101.632C95.4862 102.759 95.9525 103.848 95.7064 105.04C94.657 110.286 93.5688 115.533 92.5583 120.793C92.1826 122.762 91.9753 124.757 91.781 126.752C91.7162 127.452 91.8457 128.216 92.0919 128.877C93.1801 131.87 94.3461 134.837 95.4991 137.816C95.8619 138.762 96.2505 139.721 96.691 140.628C97.1444 141.534 97.274 142.506 97.2092 143.529Z" fill="white"/>
<path d="M70.4697 74.7501C70.7807 74.5947 71.0916 74.4004 71.4155 74.2967C72.3612 73.9987 73.0608 73.4158 73.6438 72.6125C74.2008 71.8352 74.7968 71.0968 75.4445 70.3972C75.8591 69.9567 76.3384 69.4903 76.8696 69.2442C79.072 68.2337 81.3003 67.262 83.5545 66.3681C84.8889 65.837 86.301 66.0313 87.7261 66.0831C87.6872 66.2904 87.7002 66.407 87.6483 66.4718C86.6119 68.2596 85.6014 70.0733 84.5261 71.8223C84.3059 72.1721 83.8654 72.47 83.4508 72.5996C81.4557 73.2603 79.4477 73.8692 77.4396 74.4781C75.8721 74.9574 74.2526 74.8279 72.6592 74.9574C71.9596 75.0092 71.247 74.9704 70.5345 74.9704C70.5086 74.9056 70.4956 74.8279 70.4697 74.7501Z" fill="white"/>
<path d="M70.638 90.0244C71.0396 90.0374 71.4541 89.9985 71.8298 90.0892C73.9027 90.5815 75.9755 91.1256 78.0483 91.6179C79.0589 91.8641 79.4605 92.6414 79.7843 93.4705C79.875 93.7037 79.7714 94.0664 79.6418 94.3126C78.2038 96.8907 76.7399 99.4688 75.2759 102.034C75.0039 102.526 74.5375 102.759 74.0322 102.928C72.0371 103.601 70.055 104.288 68.0599 104.962C67.153 105.273 67.1141 105.337 67.2566 106.218C67.4251 107.19 67.5935 108.162 67.7749 109.133C67.9044 109.807 68.034 109.898 68.7206 109.781C69.4979 109.639 70.2623 109.431 71.0266 109.276C71.2339 109.237 71.4541 109.224 71.7521 109.354C71.3246 109.69 70.9618 110.157 70.4825 110.351C69.5756 110.714 68.604 110.947 67.6453 111.167C67.0235 111.31 66.8291 111.154 66.6607 110.507C66.4275 109.587 66.2461 108.641 66 107.721C65.6891 106.62 65.43 105.48 64.9636 104.444C64.4583 103.316 64.6008 102.215 64.7045 100.959C64.9636 101.14 65.1579 101.244 65.3134 101.386C65.7927 101.788 66.2721 102.189 66.7255 102.617C67.1012 102.954 67.4898 103.044 67.9821 102.876C69.4072 102.384 70.8582 101.956 72.2833 101.438C72.6849 101.283 73.0865 100.972 73.3586 100.635C74.8225 98.8469 76.0921 96.9296 77.1803 94.8956C77.7763 93.7685 77.3876 92.758 76.1698 92.3045C74.6023 91.7216 73.0217 91.1645 71.4412 90.5944C71.1432 90.4908 70.8582 90.3613 70.5732 90.2447C70.6121 90.154 70.625 90.0892 70.638 90.0244Z" fill="white"/>
<path d="M103.35 85.9823C102.638 85.5678 102.314 85.1143 102.132 84.5184C101.536 82.5362 100.928 80.5671 100.306 78.5979C100.137 78.0667 100.228 77.6651 100.565 77.2376C101.342 76.253 102.093 75.2554 102.819 74.2449C103.441 73.3899 103 71.9648 102.029 71.5502C101.446 71.3041 100.876 71.2393 100.228 71.4984C98.5567 72.185 96.8466 72.781 95.1884 73.4805C94.3981 73.8174 93.6337 73.934 92.8046 73.7267C92.2346 73.5842 91.6516 73.5065 91.0815 73.4028C91.25 72.1203 91.8718 71.3818 93.0248 71.1486C95.7195 70.6045 98.4401 70.0992 101.135 69.5292C102.145 69.309 102.923 69.7624 103.726 70.1899C103.855 70.2547 103.946 70.4231 104.024 70.5656C104.089 70.6822 104.102 70.8118 104.127 70.9413C104.853 74.3097 104.866 73.5453 103.259 76.1493C102.987 76.6028 102.728 77.0691 102.378 77.4578C101.821 78.0797 101.86 78.7533 102.016 79.4918C102.43 81.4221 102.832 83.3395 103.234 85.2698C103.272 85.4641 103.298 85.6585 103.35 85.9823Z" fill="white"/>
<path d="M72.1023 49.8245C72.1023 50.3168 72.1023 50.6666 72.1023 51.1459C68.6951 51.405 65.3138 51.6641 61.8547 51.9232C61.8547 49.2156 61.8547 46.5727 61.8547 43.7744C65.236 43.5153 68.6303 43.2562 72.0764 42.9971C72.1023 43.308 72.1412 43.4894 72.1412 43.6837C72.1412 43.878 72.1153 44.0724 72.0894 44.3444C69.1744 44.5647 66.2725 44.7849 63.3057 45.0051C63.3057 45.6788 63.3057 46.2747 63.3057 46.9484C65.9227 46.7541 68.4878 46.5727 71.1177 46.3913C71.1177 46.8966 71.1177 47.2723 71.1177 47.7128C68.5008 47.9201 65.9227 48.1144 63.2928 48.3217C63.2928 49.0342 63.2928 49.682 63.2928 50.4463C66.1947 50.239 69.0837 50.0318 72.1023 49.8245Z" fill="white"/>
<path d="M99.5542 49.1377C99.5542 48.3993 99.5542 47.7515 99.5542 47.0001C98.1809 47.0001 96.8595 47.0001 95.4473 47.0001C95.4473 46.5208 95.4473 46.1451 95.4473 45.6916C97.2481 45.6916 99.0748 45.6916 101.031 45.6916C101.109 47.2592 101.083 48.8139 101.044 50.4333C100.694 50.4592 100.409 50.498 100.124 50.498C97.7275 50.498 95.3307 50.4851 92.9211 50.4592C92.4936 50.4592 92.066 50.4203 91.6515 50.3426C90.7446 50.1871 90.2005 49.6819 90.1616 48.775C90.0968 47.2333 90.0968 45.6787 90.1616 44.137C90.2134 43.1395 90.7705 42.6213 91.7681 42.414C92.1179 42.3362 92.4806 42.2844 92.8433 42.2844C95.2141 42.2844 97.572 42.2974 99.9428 42.2974C100.098 42.2974 100.254 42.3233 100.474 42.3492C100.474 42.7638 100.474 43.1395 100.474 43.6318C100.098 43.6318 99.7485 43.6318 99.3987 43.6318C97.2352 43.6318 95.0587 43.6188 92.8952 43.6188C91.6903 43.6188 91.5349 43.8002 91.5349 45.005C91.5349 46.0285 91.5219 47.039 91.5349 48.0624C91.5478 48.8009 91.8199 49.0989 92.5454 49.0989C94.8384 49.1507 97.1315 49.1377 99.5542 49.1377Z" fill="white"/>
<path d="M105.98 43.8002C105.98 44.5257 105.98 45.0957 105.98 45.7435C108.61 45.8471 111.188 45.9508 113.844 46.0674C113.844 46.5079 113.844 46.8706 113.844 47.35C112.561 47.4665 111.266 47.2334 109.97 47.2334C108.662 47.2204 107.353 47.2334 105.993 47.2334C105.993 47.8811 105.993 48.5159 105.993 49.2544C108.934 49.371 111.849 49.5005 114.867 49.6171C114.893 50.0446 114.906 50.4203 114.932 50.9515C111.473 50.822 108.079 50.6924 104.542 50.5499C104.529 47.8682 104.542 45.2253 104.542 42.4529C108.027 42.4658 111.421 42.6602 114.867 42.8286C114.867 43.282 114.867 43.6577 114.867 44.1241C111.901 44.0075 108.999 43.9039 105.98 43.8002Z" fill="white"/>
<path d="M129.584 47.9331C129.584 48.6586 129.61 49.3841 129.572 50.0966C129.52 51.1201 128.989 51.6771 127.978 51.7289C127.201 51.7678 126.397 51.716 125.62 51.6642C124.182 51.5735 122.744 51.4569 121.306 51.3403C120.853 51.3014 120.386 51.2496 119.946 51.146C118.948 50.9128 118.443 50.3946 118.391 49.3711C118.326 47.8683 118.326 46.3525 118.378 44.8368C118.417 43.8004 118.961 43.321 119.998 43.2174C120.36 43.1785 120.723 43.1655 121.073 43.1915C123.068 43.334 125.063 43.4765 127.058 43.6449C127.382 43.6708 127.706 43.7485 128.017 43.8392C129.053 44.1631 129.52 44.7849 129.572 45.8602C129.572 45.925 129.572 45.9898 129.572 46.0546C129.597 46.6894 129.597 47.3112 129.584 47.9331C129.597 47.9331 129.584 47.9331 129.584 47.9331ZM128.185 47.8165C128.185 47.2205 128.198 46.6375 128.185 46.0416C128.159 45.3291 127.952 45.07 127.265 45.0181C125.076 44.8238 122.887 44.6554 120.697 44.4999C120.088 44.4611 119.803 44.6813 119.79 45.2772C119.751 46.5598 119.751 47.8294 119.79 49.112C119.803 49.6691 120.101 49.9152 120.684 49.967C122.874 50.1484 125.063 50.3039 127.253 50.4593C127.913 50.4982 128.133 50.265 128.159 49.6043C128.211 48.9954 128.185 48.3995 128.185 47.8165Z" fill="white"/>
<path d="M49.2622 50.7572C49.2622 51.6511 49.2622 52.4284 49.2622 53.2576C48.7699 53.3223 48.3553 53.3612 47.8889 53.426C47.8889 50.6924 47.8889 48.0496 47.8889 45.316C49.029 45.1735 50.1561 45.0051 51.2832 44.8755C52.8767 44.6942 54.4831 44.5257 56.0766 44.3703C56.4264 44.3314 56.8021 44.3573 57.1519 44.4091C57.9163 44.5257 58.4474 44.9792 58.5252 45.7435C58.6029 46.5856 58.6158 47.4407 58.5122 48.2828C58.4086 49.1119 57.7997 49.6171 57.0094 49.7985C56.2062 49.9799 55.39 50.0576 54.5868 50.1613C52.8637 50.3556 51.1277 50.5499 49.2622 50.7572ZM49.3269 49.3969C50.0654 49.3192 50.6743 49.2414 51.2961 49.1767C52.9544 48.9953 54.6127 48.8139 56.2709 48.6066C56.9964 48.5159 57.1519 48.3087 57.1778 47.5832C57.1908 47.2593 57.1908 46.9225 57.1778 46.5986C57.1519 45.7824 56.9446 45.601 56.1673 45.6788C54.9625 45.7954 53.7576 45.9249 52.5528 46.0674C51.4905 46.197 50.4281 46.3395 49.3269 46.482C49.3269 47.4666 49.3269 48.3605 49.3269 49.3969Z" fill="white"/>
<path d="M77.0511 42.7897C77.0511 44.0075 77.0511 45.0568 77.0511 46.1062C77.0511 46.9224 77.0382 47.7515 77.0511 48.5677C77.0641 49.3321 77.2455 49.5393 77.9709 49.5264C80.0438 49.4616 82.1166 49.3839 84.1765 49.2802C84.9927 49.2414 85.1481 49.047 85.1611 48.2438C85.174 46.6633 85.1611 45.0827 85.1741 43.5022C85.1741 43.1783 85.2 42.8674 85.2259 42.4917C85.7052 42.4917 86.1068 42.4917 86.5862 42.4917C86.5991 42.7767 86.638 43.0358 86.638 43.2949C86.638 44.9014 86.6509 46.5208 86.638 48.1272C86.625 49.8503 86.0809 50.4721 84.3838 50.5758C82.285 50.6924 80.1863 50.7442 78.0746 50.8349C78.0098 50.8349 77.945 50.8349 77.8803 50.8349C76.1961 50.7701 75.626 50.226 75.6001 48.5547C75.5742 47.039 75.6001 45.5232 75.6001 44.0204C75.6001 43.6706 75.6001 43.3079 75.6001 42.8804C76.1054 42.8415 76.52 42.8156 77.0511 42.7897Z" fill="white"/>
<path d="M142.993 45.2771C142.993 45.7823 142.993 46.1451 142.993 46.6115C141.477 46.456 139.987 46.2876 138.381 46.1192C138.381 48.4122 138.381 50.6017 138.381 52.8948C137.837 52.817 137.422 52.7652 136.904 52.7004C136.904 50.4592 136.904 48.2309 136.904 45.9508C135.284 45.7694 133.769 45.601 132.214 45.4196C132.214 44.9662 132.214 44.5905 132.214 44.0852C135.816 44.4739 139.365 44.8755 142.993 45.2771Z" fill="white"/>
<path d="M75.1852 96.3467C74.2913 97.5904 73.3974 98.847 72.4905 100.091C72.3739 100.246 72.2055 100.389 72.0371 100.453C70.884 100.881 69.7051 101.283 68.5521 101.684C68.5262 101.619 68.4873 101.568 68.4614 101.503C70.6249 99.715 72.8014 97.9272 74.9649 96.1394C75.0297 96.2042 75.1075 96.2819 75.1852 96.3467Z" fill="white"/>
<path d="M62.4634 93.6001C62.2949 94.8179 62.1524 95.8543 61.997 96.8907C61.9711 97.0721 61.9063 97.2535 61.8156 97.5773C61.1419 96.8 60.546 96.1264 59.8723 95.3491C60.3905 94.3385 61.2585 93.8981 62.4634 93.6001Z" fill="white"/>
<path d="M71.0655 76.0846C71.7262 76.0457 72.2445 76.0198 72.7367 75.9939C73.255 77.3671 72.944 77.704 70.9878 77.9242C71.0137 77.3412 71.0267 76.7712 71.0655 76.0846Z" fill="white"/>
<path d="M128.185 47.8163C128.185 48.4122 128.198 48.9952 128.185 49.5912C128.159 50.2519 127.926 50.4851 127.278 50.4462C125.089 50.3037 122.899 50.1353 120.71 49.9539C120.127 49.9021 119.829 49.6559 119.816 49.0989C119.777 47.8163 119.777 46.5467 119.816 45.2641C119.829 44.6811 120.114 44.4479 120.723 44.4868C122.912 44.6423 125.102 44.8107 127.291 45.005C127.978 45.0698 128.185 45.3159 128.211 46.0285C128.198 46.6244 128.185 47.2204 128.185 47.8163Z" fill="black"/>
<path d="M49.3269 49.3968C49.3269 48.3604 49.3269 47.4664 49.3269 46.4819C50.4281 46.3393 51.4904 46.1968 52.5527 46.0673C53.7576 45.9248 54.9624 45.7952 56.1673 45.6786C56.9446 45.6009 57.1519 45.7952 57.1778 46.5984C57.1907 46.9223 57.1907 47.2592 57.1778 47.583C57.1519 48.3085 56.9964 48.5158 56.2709 48.6065C54.6126 48.8138 52.9544 48.9822 51.2961 49.1765C50.6742 49.2413 50.0654 49.319 49.3269 49.3968Z" fill="black"/>
</svg>
