<svg width="450" height="450" viewBox="0 0 450 450" fill="none" xmlns="http://www.w3.org/2000/svg">
<path fill-rule="evenodd" clip-rule="evenodd" d="M297.081 337.803C278.09 355.107 261.739 364.431 227.299 382.5C195.237 367.92 174.312 353.547 156.165 339.385C131.088 319.863 113.073 288.16 111.512 268.718L99 83.6584C183.757 61.627 273.91 62.1288 351.893 85.1396L339.199 268.323C337.583 284.91 322.743 317.169 297.081 337.803Z" fill="#EDC95E" stroke="black" stroke-width="0.5"/>
<path fill-rule="evenodd" clip-rule="evenodd" d="M324.676 262.257L336.132 98.6743C269.018 77.2999 188.626 76.9845 114.556 96.4282L126.249 262.151C127.465 279.373 139.872 305.712 163.655 325.894C177.967 338.049 206.007 358.446 226.717 366.263C250.578 354.19 272.273 339.181 289.467 324.366C310.791 304.947 323.383 280.798 324.676 262.257Z" fill="#EDC95E" stroke="black" stroke-width="0.5"/>
<path fill-rule="evenodd" clip-rule="evenodd" d="M286.717 320.048C270.234 334.26 248.041 350.189 226.717 360.362C207.672 354.471 179.525 332.753 165.981 321.076C142.359 300.682 132.756 279.336 131.302 259.153L119.819 100.962C190.344 82.4421 267.323 82.4421 331.287 102.813L319.94 258.892C318.302 279.651 308.646 299.494 286.717 320.048Z" fill="#EDC95E" stroke="black" stroke-width="0.5"/>
<path d="M125.092 104.034L124.842 104.055L127.116 131.319L127.366 131.299L127.615 131.278L125.341 104.014L125.092 104.034ZM127.366 131.299L127.426 131.541C194.71 114.725 265.188 116.414 323.685 134.103L323.758 133.864L323.83 133.625C265.24 115.908 194.67 114.22 127.305 131.056L127.366 131.299ZM323.758 133.864L324.007 133.886L326.518 106.146L326.269 106.124L326.02 106.101L323.509 133.841L323.758 133.864ZM326.269 106.124L326.342 105.885C265.637 87.2734 191.945 86.2687 125.028 103.794L125.092 104.036L125.155 104.278C191.988 86.7742 265.585 87.7805 326.195 106.363L326.269 106.124Z" fill="black"/>
<path fill-rule="evenodd" clip-rule="evenodd" d="M206.212 108.366C206.56 108.694 206.762 109.148 206.771 109.626L206.853 114.936L211.483 114.749L211.429 109.969C211.403 107.936 211.058 106.483 209.736 105.505C211.323 104.421 211.243 101.805 211.084 99.7719C210.954 98.0537 209.34 95.9957 206.588 96.2048L185.319 97.7905L186.298 116.467L190.926 115.992L190.635 108.913L204.921 107.882C205.399 107.863 205.864 108.038 206.212 108.366ZM219.227 107.737C217.377 107.737 215.896 107.235 214.916 105.597C214.071 104.25 214.071 99.8641 214.916 98.4107C215.842 96.7204 217.507 96.2447 218.884 96.2447L240.415 96.2726L240.471 100.92L220.102 100.894C219.097 100.894 219.071 103.14 220.181 103.14H236.237C238.115 103.14 239.783 104.278 240.311 105.754C240.893 107.341 240.787 110.935 240.311 112.412C239.861 113.894 238.167 114.709 236.05 114.709H214.81L214.782 109.955H233.696C234.275 109.909 234.722 109.426 234.722 108.845C234.722 108.264 234.275 107.781 233.696 107.735H219.227V107.737ZM292.51 114.153L277.327 111.646L276.741 118.776L271.798 118.039L272.962 99.1217L278.015 99.8605L277.484 107.127L292.881 109.61L293.381 102.344L298.541 103.323L296.979 122.291L291.956 121.366L292.51 114.153Z" fill="black"/>
<path fill-rule="evenodd" clip-rule="evenodd" d="M203.736 103.564C205.56 103.458 205.402 100.631 203.736 100.79L190.139 101.819L190.297 104.407L203.736 103.564V103.564Z" fill="#EDC95E"/>
<path d="M159.19 101.082C163.556 100.052 172.497 98.627 177.179 98.282C179.321 98.1251 180.988 99.2334 181.279 100.899C181.968 104.73 182.391 108.69 181.914 114.004C181.781 115.535 180.459 116.75 178.712 117.121C172.708 118.442 165.962 119.155 160.961 119.63C159.691 119.763 157.681 118.759 157.338 117.173C156.465 113.315 156.146 107.925 156.413 104.226C156.519 102.854 157.789 101.401 159.19 101.082V101.082Z" fill="black"/>
<path fill-rule="evenodd" clip-rule="evenodd" d="M176.181 112.461C176.789 112.327 177.054 111.669 177.108 111.193C177.318 109.739 177.134 105.934 176.789 104.667C176.684 104.165 176.261 103.846 175.309 103.926C172.716 104.087 165.864 105.062 162.479 105.801C161.579 106.014 161.234 106.542 161.182 107.018C161.022 108.258 161.393 111.667 161.71 113.568C161.79 114.019 162.372 114.335 162.82 114.309C167.398 113.941 172.796 113.202 176.181 112.461V112.461Z" fill="#EDC95E"/>
<path fill-rule="evenodd" clip-rule="evenodd" d="M249.424 102.98C249.503 102.452 250.191 101.844 251.195 101.87C255.002 102.024 259.523 102.574 263.332 103.037C265.428 103.292 267.308 103.52 268.734 103.642L269.051 98.7805C260.77 97.6722 255.743 97.1163 249.423 96.8776C247.333 96.8235 245.481 97.829 245.059 99.7563C244.423 102.9 244.209 108.29 244.341 111.857C244.423 114.023 246.063 115.236 248.313 115.396C251.384 115.608 254.407 115.928 257.378 116.241C261.034 116.627 264.611 117.005 268.098 117.165L268.391 112.278C263.576 111.963 254.739 111.17 250.189 110.534C249.686 110.456 249.104 109.504 249.104 109.161C249.104 106.545 249.186 104.54 249.424 102.98ZM149.716 114.464C155.06 113.143 154.083 101.783 147.681 103.288L129.161 107.647L130.828 126.773L135.51 125.532L134.796 118.189L149.716 114.464Z" fill="black"/>
<path fill-rule="evenodd" clip-rule="evenodd" d="M147.602 110.729C149.136 110.384 148.925 107.638 147.283 107.981L133.818 111.231L134.136 114.058L147.602 110.729V110.729Z" fill="#EDC95E"/>
<path d="M305.914 116.989L305.597 120.054L320.384 123.78L319.987 128.058L300.147 123.384L301.866 104.123L321.837 108.957L321.389 113.448L306.522 109.856L306.229 113.106L320.99 116.699L320.619 120.504L305.914 116.989V116.989Z" fill="black"/>
<path d="M185.827 184.878L185.577 184.877V184.878H185.827ZM185.845 178.117L185.595 178.116V178.116L185.845 178.117ZM185.854 174.84L185.853 174.591L185.604 174.591L185.604 174.84L185.854 174.84ZM223.866 174.813L223.866 175.063L224.116 175.062L224.116 174.813L223.866 174.813ZM134.585 232.826L134.336 232.845L134.353 233.076H134.585V232.826ZM185.826 232.826V233.076H186.076V232.826H185.826ZM185.827 200.913H186.077V184.878H185.827H185.577V200.913H185.827ZM185.827 184.878L186.077 184.878L186.095 178.117L185.845 178.117L185.595 178.116L185.577 184.877L185.827 184.878ZM185.845 178.117L186.095 178.117L186.104 174.841L185.854 174.84L185.604 174.84L185.595 178.116L185.845 178.117ZM185.854 174.84L185.854 175.09L223.866 175.063L223.866 174.813L223.866 174.563L185.853 174.591L185.854 174.84ZM223.866 174.813L224.116 174.813L224.092 122.875L223.842 122.875L223.592 122.875L223.616 174.813L223.866 174.813ZM223.842 122.875V122.625C194.249 122.625 161.822 125.425 127.429 135.026L127.496 135.267L127.564 135.507C161.901 125.922 194.281 123.125 223.842 123.125V122.875ZM127.496 135.267L127.247 135.285L134.336 232.845L134.585 232.826L134.834 232.808L127.746 135.248L127.496 135.267ZM134.585 232.826V233.076H185.826V232.826V232.576H134.585V232.826ZM185.826 232.826H186.076V200.913H185.826H185.576V232.826H185.826Z" fill="black"/>
<path d="M185.773 183.318C185.773 182.975 181.567 182.656 179.476 182.919C173.92 183.58 160.032 187.939 154.16 191.982C154.029 192.326 154.053 194.253 153.658 195.152C153.314 195.969 152.441 196.816 151.594 197.186C150.085 197.844 148.339 195.839 147.573 196.13C146.778 196.419 145.086 197.107 143.26 195.812C142.441 195.232 142.019 193.594 142.308 192.378C142.573 191.505 143.314 190.818 143.897 190.264C144.427 189.736 144.054 187.703 145.959 186.486C147.282 185.643 149.108 186.331 150.511 187.068C150.828 186.962 151.04 186.831 151.277 186.62C151.46 186.063 151.753 184.372 152.018 183.052C152.337 181.624 152.443 180.699 152.865 179.38C153.923 176.184 156.461 171.587 159.108 169.182C161.198 167.334 164.451 165.854 166.858 166.013C166.619 166.38 163.63 169.05 162.756 170.24C160.692 172.985 158.79 177.212 157.89 180.805C157.572 182.02 157.572 182.471 157.784 183.262C159.741 182.389 162.28 181.546 163.763 181.069C164.345 179.776 164.662 178.294 165.166 177.108C165.959 175.257 166.464 174.464 167.281 173.171C169.635 169.526 174.609 165.932 178.286 166.013C177.067 167.069 174.529 169.71 173.525 171.294C172.706 172.615 171.937 174.042 171.355 175.522C170.853 176.843 170.695 177.82 170.562 178.902C172.467 178.35 174.346 177.953 175.562 177.873C176.383 177.423 176.646 176.552 177.097 175.733C178.498 173.117 181.248 170.184 182.996 169.235C184.397 168.468 186.46 167.727 187.941 168.205C186.354 169.393 184.688 171.293 183.947 172.431C183.18 173.645 181.936 175.998 181.989 177.108C183.287 177.212 184.975 177.144 185.718 176.96L185.773 183.318L185.791 176.555L185.773 183.318V183.318Z" fill="black"/>
<path d="M168.928 140.529C170.939 137.731 176.228 133.505 180.303 133.742C178.082 135.669 176.123 137.809 174.748 140.081C172.948 143.012 171.493 146.688 171.178 149.512C172.525 149.01 175.7 148.113 177.526 147.716C179.139 144.203 181.257 140.318 183.876 138.231C185.753 136.725 188.45 135.431 190.965 135.722C190.383 136.541 189.429 137.175 188.715 137.837C187.417 138.971 186.519 140.505 185.805 142.063C185.275 143.225 184.376 146.712 184.35 146.872C186.174 146.846 189.403 147.055 190.09 147.268C192.233 144.468 196.915 140.4 202.525 141.324C200.09 142.645 195.647 146.501 195.912 148.615C199.561 150.967 205.01 155.906 205.248 160.475C202.762 157.887 198.662 155.324 196.598 154.611C191.651 152.867 185.753 152.63 180.831 153.527C170.568 155.456 161.494 159.895 152.792 165.1C152.581 166.501 151.812 168.613 151.178 169.325C150.544 170.038 149.591 170.726 148.561 170.887C147.264 171.096 145.942 170.57 144.83 169.988C144.115 169.59 142.237 170.094 141.048 169.456C140.228 169.034 138.957 167.846 139.302 165.971C139.593 164.307 141.259 163.303 141.496 161.717C141.841 159.394 143.532 158.387 144.406 158.232C145.358 158.046 146.337 158.365 147.21 158.758C147.58 158.943 147.975 159.262 148.322 159.368C148.665 159.262 149.167 158.839 149.46 158.708C149.538 158.441 150.411 153.609 150.887 151.495C151.363 149.382 152.183 147.583 152.872 145.605C154.935 139.742 161.311 133.822 166.417 134.139C166.152 134.51 164.51 135.699 162.236 138.339C158.56 142.647 157.633 147.217 156.258 155.062C159.088 153.742 161.548 152.792 164.113 151.865C164.723 149.436 165.542 147.057 166.548 144.759C167.21 143.279 168.003 141.824 168.928 140.529V140.529Z" fill="black"/>
<path fill-rule="evenodd" clip-rule="evenodd" d="M323.101 147.026L228.555 147.107L228.634 174.898L320.983 174.846L323.101 147.026V147.026Z" fill="#CA3132"/>
<path d="M250.284 271.341C249.623 274.005 249.304 278.498 249.358 278.607C250.972 277.943 252.479 277.361 253.804 276.968C253.906 276.807 255.788 272.714 256.635 271.604C258.617 268.541 261.288 265.923 264.541 264.181C266.58 263.149 269.065 262.199 271.263 263.02C268.377 264.391 266.131 266.876 264.778 268.302C263.536 269.623 262.079 271.576 261.419 273.584C261.312 273.927 261.208 274.641 261.208 274.641C262.555 274.22 266.868 273.584 268.668 273.345C268.879 273.317 269.433 272.13 269.856 271.548C270.388 270.837 270.703 270.388 271.552 269.438C273.723 267.085 277.398 264.574 280.969 265.129C279.012 266.371 276.867 268.352 275.148 271.47C274.91 271.946 274.594 272.606 274.727 272.895C275.255 273.003 277.876 272.949 279.461 273.137C281.286 272.001 283.218 270.994 285.308 270.548C287.66 270.016 290.729 270.442 291.949 271.548C290.52 271.47 289.168 271.735 287.875 272.237C287.132 272.529 285.653 273.216 285.093 274.166C286.5 274.561 288.8 276.068 290.253 277.283C291.257 278.126 292.475 279.343 293.242 280.455C295.174 283.068 295.57 287.768 294.538 289.171C294.249 288.35 293.928 287.535 293.484 286.764C292.555 285.208 291.098 283.518 289.856 282.591C283.853 278.024 275.201 277.785 268.142 279.209C262.079 280.455 251.155 282.725 244.014 287.796C244.197 288.699 243.639 290.199 242.822 290.785C241.736 291.574 240.201 290.492 239.408 290.917C238.326 291.471 236.976 291.124 236.42 290.889C235.467 290.49 234.834 289.514 234.752 288.378C234.674 287.479 235.545 286.397 235.731 285.421C235.813 285.022 235.388 283.068 237.056 282.065C237.373 281.882 238.326 281.537 238.985 281.643C239.645 281.775 240.177 282.197 240.835 282.303C241.734 281.984 242.595 281.568 243.402 281.061C243.934 279.026 244.328 276.673 244.594 274.587L250.284 271.341V271.341Z" fill="black"/>
<path d="M285.071 315.143L284.896 314.963L284.896 314.964L285.071 315.143ZM316.282 237.103L316.531 237.121L316.551 236.853L316.282 236.853L316.282 237.103ZM244.596 274.587L244.485 274.364C239.778 276.7 233.623 278.277 228.395 278.487L228.406 278.737L228.416 278.986C233.713 278.774 239.938 277.179 244.707 274.811L244.596 274.587ZM228.406 278.736L228.156 278.737L228.183 354.739L228.433 354.739L228.683 354.739L228.656 278.736L228.406 278.736ZM228.433 354.739L228.546 354.962C250.658 343.753 274.908 325.404 285.245 315.321L285.071 315.143L284.896 314.964C274.595 325.011 250.386 343.33 228.32 354.516L228.433 354.739ZM285.071 315.143L285.245 315.322C301.958 299.048 313.249 282.536 314.972 258.727L314.722 258.709L314.473 258.691C312.763 282.329 301.564 298.734 284.896 314.963L285.071 315.143ZM314.721 258.711L314.97 258.729L316.531 237.121L316.282 237.103L316.033 237.085L314.471 258.693L314.721 258.711ZM316.282 237.103L316.282 236.853L266.101 236.799L266.101 237.049L266.101 237.299L316.282 237.353L316.282 237.103ZM266.103 237.047H265.853C265.853 249.249 261.8 261.863 250.108 271.084L250.263 271.28L250.417 271.476C262.257 262.139 266.353 249.363 266.353 237.047H266.103ZM250.263 271.28L250.137 271.064L244.47 274.372L244.596 274.588L244.722 274.803L250.389 271.496L250.263 271.28Z" fill="black"/>
<path fill-rule="evenodd" clip-rule="evenodd" d="M252.728 296.888C252.261 297.706 251.697 298.694 251.195 299.459C249.874 299.987 247.917 300.886 246.645 301.491C246.755 299.722 247.415 297.713 248.13 296.366C248.923 294.836 249.797 293.541 250.934 292.116C251.549 291.353 252.12 290.911 253.05 290.191C253.118 290.138 253.189 290.083 253.262 290.027C249.796 290.081 246.882 292.458 245.246 294.969C244.108 296.711 243.207 298.375 242.597 300.25C242.463 300.657 242.303 301.095 242.137 301.551C241.848 302.343 241.539 303.191 241.304 304.028C240.985 304.189 240.564 304.399 239.954 304.689C239.693 304.637 239.445 304.507 239.19 304.373C238.797 304.167 238.388 303.953 237.89 304C236.434 304.189 235.374 305.164 235.534 306.775C235.534 306.775 234.475 307.832 234.214 308.571C233.87 309.549 234.424 311.084 235.296 311.427C236.146 311.786 237.327 311.393 237.754 311.251C237.764 311.247 237.775 311.244 237.784 311.241C237.857 311.219 238.017 311.299 238.242 311.412C238.845 311.713 239.914 312.247 241.011 311.69C241.726 311.347 242.334 309.894 242.069 308.655C246.087 305.908 253.947 302.737 260.345 301.916C265.292 301.256 271.484 301.732 276.218 303.502C277.313 303.924 278.088 304.401 278.905 304.903C279.214 305.093 279.53 305.287 279.871 305.483C280.742 305.987 281.828 306.964 282.621 307.968C283.098 306.621 282.249 304.561 281.699 303.69C280.14 301.209 277.497 299.807 274.961 298.461L274.95 298.455C275.532 297.638 276.089 297.216 277.382 296.634C278.28 296.235 279.421 296.131 280.636 296.106C278.972 294.336 276.328 294.915 274.711 295.364C273.826 295.609 272.173 296.538 271.259 297.052C270.891 297.26 270.642 297.399 270.613 297.399C269.605 297.265 267.755 297.082 266.777 297C266.828 296.765 267.066 296.316 267.331 295.89C268.523 294.069 271.749 291.534 273.573 290.952C271.67 290.133 268.628 291.137 267.199 292.14C265.427 293.409 263.048 296.129 262.145 297.265C260.903 297.265 258.493 297.636 256.485 298.083C256.668 297.582 257.149 296.633 257.86 295.575C258.495 294.625 260.981 292.351 262.252 291.48C263.498 290.609 264.845 289.791 266.619 289.366C265.005 288.573 261.38 289.209 259.134 290.291C257.491 291.056 255.084 293.038 253.417 295.706C253.242 295.988 253.002 296.409 252.728 296.888ZM253.488 313.22C252.535 313.116 251.584 313.381 250.684 313.748C248.673 314.567 246.427 316.944 245.418 318.793C245.021 319.509 244.254 321.095 243.989 321.728C243.348 321.982 242.729 322.292 242.141 322.653C242.141 322.043 242.191 320.75 242.324 320.09C242.773 318.03 244.124 315.545 245.788 313.748C243.327 313.642 240.471 316.601 239.596 319.034C238.964 320.75 238.643 322.336 238.511 324.054C238.473 324.079 238.433 324.106 238.392 324.133C238.262 324.221 238.113 324.321 237.932 324.422C237.35 324.054 236.66 323.944 235.972 324.261C235.13 324.645 234.943 325.59 234.843 326.092C234.812 326.251 234.789 326.365 234.757 326.403C234.746 326.413 234.735 326.424 234.725 326.434C234.255 326.877 233.701 327.4 233.75 328.252C233.804 329.071 234.254 329.759 234.254 329.759C234.451 330.011 235.028 330.017 235.566 330.024C236.042 330.029 236.487 330.034 236.61 330.209C237.087 330.895 238.356 330.657 238.938 330.181C239.811 329.47 239.941 328.543 239.917 327.778C243.855 325.532 248.461 323.523 252.932 322.519C254.096 322.256 256.398 321.912 258.249 321.991C261.077 322.123 266.265 324.58 267.851 325.952C267.218 323.998 266.186 322.862 265.472 322.256C264.12 321.092 262.666 320.166 261.027 319.349C261.075 319.047 261.296 318.793 261.475 318.588C261.484 318.577 261.493 318.567 261.502 318.556C262.242 317.853 263.09 317.273 264.013 316.838C262.161 316.256 259.462 317.814 258.536 318.635C258.414 318.635 257.981 318.649 257.482 318.665C256.806 318.687 256.011 318.713 255.705 318.713C255.494 318.713 255.602 318.162 255.759 317.87C256.661 316.232 257.852 314.935 259.911 314.013C256.768 313.22 254.49 315.334 252.904 317.448C252.455 318.03 251.794 318.901 251.53 319.455C251.21 319.611 250.22 319.844 249.479 320.018C249.234 320.075 249.016 320.126 248.858 320.166C248.621 320.006 248.621 319.481 248.672 319.213C249.228 316.733 251.266 314.646 253.488 313.22Z" fill="black"/>
<path fill-rule="evenodd" clip-rule="evenodd" d="M137.115 261.507C137.433 270.7 141.19 281.796 146.348 289.485H223.302L223.143 278.757C213.249 278.757 198.144 272.233 192.165 261.563L137.115 261.507Z" fill="#CA3132"/>
<path d="M261.628 179.227L261.878 179.227L261.878 178.977L261.628 178.977L261.628 179.227ZM190.019 179.2L190.019 178.95L189.769 178.95V179.2H190.019ZM190.017 237.53H189.767C189.767 249.814 194.267 259.047 201.033 265.214C207.795 271.378 216.805 274.467 225.807 274.498C234.81 274.53 243.82 271.504 250.582 265.42C257.349 259.331 261.85 250.193 261.85 238.033H261.6H261.35C261.35 250.059 256.903 259.06 250.248 265.048C243.588 271.04 234.703 274.03 225.809 273.998C216.916 273.967 208.03 270.915 201.37 264.844C194.714 258.778 190.267 249.682 190.267 237.53H190.017ZM261.6 238.033L261.85 238.033L261.878 179.227L261.628 179.227L261.378 179.226L261.35 238.033L261.6 238.033ZM261.628 179.227L261.628 178.977L190.019 178.95L190.019 179.2L190.019 179.45L261.628 179.477L261.628 179.227ZM190.019 179.2H189.769V237.528H190.019H190.269V179.2H190.019Z" fill="black"/>
<path fill-rule="evenodd" clip-rule="evenodd" d="M233.851 186.903L233.851 186.904V186.903H233.851ZM235.756 186.903H233.851C233.879 186.216 233.668 185.32 233.112 185.108C232.527 184.897 231.92 185.08 231.659 185.477C231.206 186.218 231.206 187.222 231.234 188.752C231.234 189.677 231.262 190.973 231.445 191.58C231.894 192.981 233.084 193.061 233.666 192.188C233.959 191.766 233.959 190.947 233.931 190.208H232.713V188.675H235.862V194.276H234.355V193.509C234.327 193.563 233.666 194.063 233.347 194.223C232.819 194.46 231.816 194.46 230.995 194.115C230.307 193.826 229.648 192.902 229.355 191.714C229.133 190.758 229.158 189.586 229.181 188.471C229.188 188.135 229.195 187.803 229.195 187.485C229.223 186.033 229.988 184.42 231.045 183.813C231.788 183.39 233.163 183.39 234.037 183.707C235.095 184.078 235.912 185.61 235.756 186.903ZM239.41 192.104L238.828 194.323H236.711L239.464 183.912H241.87L244.514 194.244H242.4L241.87 192.104H239.41ZM213.078 214.11C213.925 213.184 214.667 211.968 214.824 210.938C214.955 210.093 212.576 210.147 211.701 210.675C211.225 210.966 210.774 211.546 210.405 212.076C210.14 212.472 209.188 212.789 208.713 212.339C208.402 212.046 208.626 211.622 208.837 211.222C208.968 210.974 209.094 210.735 209.084 210.543C209.084 210.085 208.608 210.249 208.054 210.439C207.588 210.6 207.066 210.78 206.728 210.623C206.226 210.384 206.198 209.621 206.543 209.171C206.634 209.053 206.808 209.019 206.99 208.983C207.178 208.947 207.375 208.908 207.496 208.774C207.675 208.576 207.72 208.306 207.765 208.039L207.765 208.039C207.78 207.948 207.795 207.858 207.815 207.77C207.886 207.505 208.097 207.336 208.308 207.166C208.414 207.081 208.52 206.996 208.608 206.899C209.614 205.921 211.518 204.257 211.888 204.283C212.134 204.306 212.41 204.358 212.696 204.412L212.696 204.412C213.424 204.549 214.22 204.699 214.77 204.414C214.928 204.337 215.219 204.074 214.955 203.914L212.891 202.567C212.872 202.136 213.046 201.72 213.365 201.431C213.985 200.881 214.827 200.934 215.683 200.988C216.144 201.017 216.608 201.046 217.044 200.981C217.915 200.849 218.738 200.505 219.37 199.897C219.462 200.264 219.367 200.632 219.272 201.004C219.202 201.275 219.131 201.548 219.131 201.826C219.533 202.2 219.94 202.546 220.344 202.89C220.741 203.226 221.134 203.56 221.514 203.914C223.788 206.186 224.767 209.487 224.926 212.393C225.058 213.74 225.058 215.115 225.058 217.361C225.429 216.412 225.666 215.009 225.746 213.794C226.09 210.201 225.534 207.005 223.498 204.283C222.67 203.137 221.731 202.076 220.693 201.115C220.799 200.059 221.7 198.261 222.545 198.921C222.822 199.132 222.758 199.394 222.696 199.651C222.633 199.909 222.572 200.162 222.864 200.348C223.5 200.746 224.425 200.692 224.821 200.612L224.952 200.578C225.833 200.353 226.687 200.134 227.491 200.059C227.568 200.054 227.655 200.043 227.745 200.031L227.746 200.031C228.125 199.982 228.574 199.923 228.683 200.244C228.791 200.507 228.5 200.692 228.207 200.798C228.09 200.834 227.951 200.849 227.808 200.864C227.531 200.894 227.236 200.925 227.043 201.117C226.804 201.354 226.567 201.617 226.647 201.96C226.75 202.358 227.175 202.569 227.597 202.436C229.193 201.996 230.837 201.747 232.492 201.695C233.367 201.695 233.18 202.33 232.757 202.569C232.467 202.725 232.014 202.86 231.725 202.886L231.575 202.903C230.09 203.078 229.006 203.206 229.186 204.076C229.257 204.401 229.571 204.384 229.88 204.368C230.147 204.354 230.409 204.34 230.507 204.548C230.647 204.827 230.478 205.033 230.325 205.22C230.217 205.352 230.117 205.475 230.139 205.606C230.296 206.608 232.229 206.399 233.128 206.186C233.294 206.146 233.485 206.083 233.684 206.017L233.684 206.017L233.684 206.017L233.684 206.017C234.274 205.822 234.927 205.606 235.167 205.923C235.456 206.291 235.217 206.873 234.846 206.979C233.893 207.244 232.253 207.718 231.804 208.248C231.382 208.749 231.885 209.779 232.386 209.832C232.756 209.875 233.138 209.904 233.515 209.933C234.297 209.992 235.061 210.05 235.667 210.229C236.01 210.333 236.303 210.572 236.303 210.942C236.303 211.339 235.904 211.471 235.588 211.576C235.317 211.658 234.962 211.704 234.603 211.75C234.155 211.808 233.7 211.866 233.389 211.998L233.355 212.012L233.332 212.022C233.139 212.104 232.84 212.23 232.889 212.421C233.005 212.713 233.466 212.733 233.965 212.754C234.144 212.762 234.328 212.77 234.503 212.79C234.874 212.818 235.588 213.108 235.588 213.503C235.588 213.927 235.217 214.057 234.553 214.007C233.522 213.927 232.572 214.057 232.122 214.244C232.097 214.253 232.05 214.265 231.989 214.28C231.722 214.344 231.201 214.47 231.22 214.774C231.247 214.999 231.478 215.037 231.726 215.077C231.969 215.116 232.227 215.158 232.33 215.38C232.432 215.611 232.303 215.787 232.158 215.987C232.038 216.15 231.906 216.33 231.884 216.568C231.884 216.781 231.986 216.886 232.201 216.966C232.889 217.257 233.682 217.229 234.369 217.098C235.083 216.966 235.348 217.917 235.165 218.023C234.636 218.309 233.739 218.261 232.976 218.22C232.401 218.189 231.902 218.162 231.697 218.287C231.261 218.566 231.885 219.076 232.344 219.451C232.58 219.644 232.773 219.802 232.755 219.874C232.701 220.111 232.49 220.348 232.33 220.402C231.879 220.575 231.361 220.494 230.873 220.417C230.391 220.342 229.937 220.271 229.608 220.454C229.289 220.652 229.232 221.024 229.176 221.39C229.134 221.661 229.093 221.928 228.947 222.12C228.701 222.441 228.277 222.497 227.882 222.548C227.596 222.586 227.325 222.621 227.147 222.755C226.593 223.15 226.565 224.1 227.175 224.682C227.651 225.131 228.101 225.447 228.71 225.736C231.464 227.111 234.32 228.486 236.991 228.299C238.366 228.221 240.612 228.143 241.858 228.46C243.167 228.781 244.491 229.658 245.399 230.259L245.399 230.259L245.399 230.259C245.611 230.399 245.799 230.524 245.96 230.624C246.645 231.046 247.757 231.156 248.632 230.838C249.264 230.624 249.686 229.885 249.557 229.253C249.364 228.231 248.448 227.548 247.547 226.877C246.585 226.16 245.64 225.456 245.612 224.365C245.561 221.936 245.35 220.615 244.554 219.079C244.265 218.499 244.211 217.152 244.901 216.967C245.182 216.9 245.368 217.065 245.542 217.22C245.711 217.369 245.868 217.509 246.089 217.417C247.081 217.03 247.609 216.069 248.134 215.113C248.687 214.105 249.237 213.104 250.324 212.792C250.803 212.66 251.721 212.57 252.647 212.48C254.119 212.337 255.612 212.191 255.401 211.867C254.53 210.626 254.926 209.199 255.401 208.539C255.719 208.117 256.593 207.692 256.937 208.117C257.191 208.413 256.969 208.739 256.719 209.105C256.503 209.422 256.266 209.769 256.304 210.15C256.328 210.385 256.45 210.688 256.582 211.017C256.88 211.76 257.233 212.638 256.647 213.188C256.48 213.346 255.948 213.469 255.272 213.625C253.919 213.938 251.989 214.385 251.249 215.512C250.561 216.542 250.484 217.363 251.303 217.283C251.749 217.23 252.146 216.852 252.543 216.473L252.544 216.473C252.735 216.291 252.927 216.108 253.124 215.962C254.21 215.171 255.084 214.852 255.694 215.432C256.011 215.723 255.588 216.279 255.006 216.436C254.53 216.595 253.366 217.839 253.682 218.152C253.914 218.397 254.662 217.976 255.444 217.536C256.266 217.074 257.126 216.59 257.466 216.833C257.633 216.961 257.333 217.423 257.014 217.917C256.673 218.443 256.308 219.006 256.459 219.238C256.641 219.531 257.037 219.426 257.421 219.324C257.764 219.233 258.097 219.145 258.259 219.344C258.759 219.979 257.385 221.219 256.592 221.773C256.319 221.952 256.217 222.349 256.107 222.773C255.973 223.292 255.829 223.851 255.349 224.098C254.37 224.574 253.92 225.417 254.025 225.55C254.131 225.76 254.368 225.917 254.739 225.682C255.821 224.994 257.172 224.176 257.728 224.389C258.045 224.522 257.599 226.025 257.2 226.738C256.991 227.111 257.441 227.182 257.876 227.251C258.274 227.314 258.661 227.374 258.521 227.663C258.271 228.218 258.198 228.836 258.31 229.434C258.402 229.906 257.672 230.167 256.994 230.409C256.493 230.588 256.021 230.757 255.931 230.993C255.693 231.629 256.166 231.786 256.407 231.814C257.81 232.025 257.622 233.318 257.067 233.874C256.329 234.616 255.056 234.906 253.946 234.721C252.993 234.561 250.85 234.163 249.583 233.213C249.184 232.924 248.604 233.135 248.522 233.531C248.47 233.826 248.658 234.28 248.853 234.752C248.955 234.999 249.059 235.251 249.132 235.488C249.424 236.516 249.264 237.812 248.921 238.816C248.601 239.717 248.049 240.555 247.48 241.418C246.732 242.551 245.955 243.729 245.64 245.154C245.507 245.818 245.694 246.635 245.96 247.271C246.539 248.642 247.386 249.939 248.339 251.099C248.352 251.135 248.365 251.172 248.379 251.209C248.504 251.552 248.641 251.926 248.499 252.235C248.354 252.599 247.532 253.249 246.878 253.766C246.581 254.001 246.319 254.209 246.171 254.349C244.664 255.749 243.367 257.573 243.075 259.553C242.968 260.264 241.438 260.978 240.403 261.271L240.396 261.273C239.633 261.479 238.841 261.694 238.207 262.193C238.16 262.546 238.268 262.87 238.377 263.2L238.377 263.2C238.448 263.414 238.52 263.629 238.551 263.857C238.683 264.86 237.415 265.364 236.434 265.681C235.969 265.86 235.478 265.958 234.98 265.97C234.797 265.97 234.741 265.653 234.769 265.498C235.059 264.123 235.324 263.013 235.852 261.881C236.066 261.455 236.409 261.112 236.754 260.823L240.536 257.651L243.5 253.398C243.761 253.002 243.867 252.659 243.867 252.37C243.867 251.549 243.524 250.784 242.942 250.256C242.484 249.846 241.891 249.65 241.312 249.459C240.958 249.342 240.608 249.226 240.297 249.064C239.563 248.7 238.599 247.875 238.008 247.368L238.008 247.368L238.007 247.368L238.007 247.368C237.746 247.144 237.558 246.983 237.493 246.95C236.911 246.661 236.568 247.715 236.489 248.325C236.414 248.855 236.476 249.367 236.538 249.881C236.585 250.265 236.632 250.65 236.622 251.045C236.622 251.47 236.568 251.709 236.357 251.971C235.522 252.45 234.617 252.827 233.716 253.204C231.934 253.948 230.162 254.688 228.951 256.198C228.89 256.274 228.83 256.35 228.77 256.427C228.516 256.751 228.263 257.074 227.919 257.308C227.461 257.624 226.869 257.64 226.286 257.655C225.55 257.674 224.828 257.693 224.399 258.312C224.199 258.605 224.251 258.952 224.302 259.3C224.339 259.549 224.376 259.799 224.321 260.03C224.241 260.347 223.633 260.769 223.159 261.008C222.523 261.292 221.842 261.461 221.148 261.508C220.452 261.174 220.779 260.253 221.042 259.511L221.042 259.511C221.069 259.435 221.095 259.361 221.12 259.289C221.385 258.497 221.756 257.707 222.364 257.176L222.452 257.099C223.337 256.322 224.422 255.371 225.117 255.034C225.431 254.884 225.831 254.812 226.247 254.737C226.633 254.667 227.033 254.595 227.39 254.456C228.171 254.216 228.911 253.859 229.585 253.398C230.671 252.713 231.675 251.866 232.284 250.702C232.973 249.385 232.894 247.616 232.02 246.478C231.839 246.243 231.652 246.01 231.464 245.776L231.464 245.776L231.464 245.776L231.464 245.776C230.826 244.982 230.181 244.178 229.773 243.279C229.481 242.646 229.692 241.775 230.145 241.193C230.117 241.168 229.801 240.954 229.613 241.01C225.832 241.17 221.996 240.748 218.478 239.346C218.037 239.169 217.59 238.807 217.171 238.468C216.711 238.095 216.284 237.75 215.937 237.709C215.594 237.663 215.326 237.888 215.048 238.12C214.834 238.3 214.614 238.484 214.35 238.553C213.459 238.794 212.328 238.684 211.275 238.583C211.171 238.572 211.067 238.562 210.964 238.553C209.641 238.42 206.89 237.838 204.905 237.206L204.866 237.212C204.56 237.264 204.233 237.32 203.954 237.498C203.53 237.788 203.452 238.42 203.424 238.952C203.399 239.288 203.433 239.613 203.468 239.94C203.506 240.305 203.545 240.673 203.502 241.062C203.493 241.201 203.458 241.343 203.423 241.484C203.364 241.722 203.306 241.959 203.372 242.176C203.449 242.482 203.693 242.663 203.932 242.841C204.022 242.908 204.111 242.974 204.191 243.047C204.666 243.496 204.747 244.418 204.747 245.157C204.747 245.341 204.732 245.538 204.717 245.739C204.665 246.437 204.61 247.185 205.144 247.618C205.39 247.817 205.689 247.748 206.001 247.677C206.226 247.625 206.457 247.572 206.679 247.618C207.261 247.72 207.444 248.435 207.472 248.989C207.5 249.622 206.97 250.97 206.625 251.314C206.388 251.55 205.995 251.371 205.707 251.238L205.7 251.235C204.935 250.892 204.219 250.336 203.797 249.599C203.704 249.437 203.658 249.257 203.611 249.075C203.565 248.895 203.518 248.713 203.426 248.545C203.17 248.033 202.729 247.706 202.268 247.363L202.267 247.363L202.267 247.362L202.267 247.362C202.204 247.315 202.14 247.268 202.077 247.22C201.443 246.745 201.31 245.877 201.204 245.107C201.147 244.594 201.2 244.091 201.254 243.583C201.275 243.387 201.296 243.191 201.31 242.993C201.446 241.579 201.357 240.152 201.045 238.765C200.977 238.462 200.88 238.158 200.783 237.855C200.542 237.102 200.302 236.348 200.489 235.597C200.622 235.094 200.965 234.62 201.443 234.409C204.008 234.276 206.548 233.851 208.981 233.085L207.395 231.525C207.195 231.525 207.017 231.625 206.838 231.725C206.66 231.824 206.482 231.924 206.283 231.924C205.86 231.924 205.278 231.318 205.121 231.103C204.3 229.889 203.772 228.489 203.401 227.064C203.056 226.51 202.635 225.95 201.998 225.689C201.557 225.496 201.078 225.405 200.597 225.424C199.273 226.006 198.057 227.142 197.95 228.596C197.938 228.772 197.979 228.937 198.02 229.1C198.065 229.28 198.11 229.458 198.083 229.65C198.011 230.233 197.604 230.636 197.19 231.045C197.153 231.082 197.115 231.12 197.077 231.157C196.628 231.607 196.204 232.056 196.02 232.689C195.861 233.217 196.048 233.771 196.283 234.275L196.317 234.348C196.468 234.667 196.618 234.986 196.495 235.329C196.177 236.2 194.089 237.099 193.481 237.099C193.27 237.099 193.083 236.81 193.005 236.571C192.766 235.779 192.82 234.935 192.979 234.139C193.535 233.532 193.958 232.821 194.195 232.029C194.327 231.59 194.377 231.136 194.426 230.685C194.495 230.054 194.563 229.429 194.857 228.857C196.178 226.614 199.564 222.124 200.228 221.462C200.519 221.171 201.232 221.012 201.524 221.197C202.166 221.612 202.69 222.07 203.197 222.513C203.82 223.057 204.417 223.578 205.173 223.971C205.24 224.004 205.307 224.038 205.376 224.073L205.376 224.073C206.079 224.431 206.9 224.849 207.503 224.366C207.89 224.057 208.087 222.715 208.269 221.475C208.397 220.598 208.518 219.773 208.693 219.4C209.271 218.214 210.641 216.743 211.915 215.376L211.915 215.376C212.322 214.939 212.719 214.513 213.078 214.11ZM198.414 184.071C199.261 184.599 199.71 185.577 199.554 186.715H197.884C197.884 185.659 197.435 185.153 196.537 185.129C195.981 185.101 195.293 185.737 195.293 186.213C195.267 187.529 196.37 187.865 197.204 188.12L197.205 188.12C197.256 188.135 197.307 188.151 197.356 188.166C197.991 188.353 198.757 188.748 199.128 189.302C199.817 190.304 199.895 191.364 199.341 192.737C199.078 193.396 198.071 194.188 197.226 194.373C196.272 194.586 195.108 194.479 194.157 193.765C193.39 193.183 193.045 192.047 193.204 191.017H195.082C195.082 191.521 195.161 191.888 195.373 192.207C195.532 192.42 195.823 192.761 196.326 192.789C196.73 192.82 197.126 192.669 197.407 192.378C197.688 192.087 197.824 191.686 197.78 191.284C197.715 190.303 196.691 189.879 195.69 189.466C195.046 189.2 194.412 188.938 194.049 188.534C192.937 187.267 193.284 185.232 194.183 184.413C195.425 183.254 197.119 183.254 198.414 184.071ZM251.863 191.861C251.85 191.46 251.839 191.124 251.829 190.959C251.747 190.168 251.43 189.375 250.876 188.846C251.934 188.396 251.962 187.314 251.962 186.389C251.962 184.989 251.059 183.958 249.262 183.958H245.688V194.261H247.673V189.849H248.945C249.836 189.849 249.88 191.721 249.907 192.912C249.912 193.101 249.916 193.272 249.923 193.416L249.925 193.441C249.952 193.831 249.984 194.288 250.24 194.288H252.225C252.225 194.281 252.207 194.253 252.181 194.211C252.106 194.09 251.956 193.851 251.935 193.655C251.905 193.128 251.882 192.429 251.863 191.861Z" fill="black"/>
<path fill-rule="evenodd" clip-rule="evenodd" d="M249.109 185.447H247.624V188.223H248.71C250.512 188.223 250.484 185.447 249.109 185.447Z" fill="#EDC95E"/>
<path fill-rule="evenodd" clip-rule="evenodd" d="M217.218 194.307V185.615H214.942V183.872H221.529V185.615H219.203V194.307H217.218ZM204.447 194.307H202.462V185.615H200.186V183.872H206.747V185.615H204.447V194.307ZM229.009 183.874H222.422V185.646H224.696V194.31H226.68V185.646H229.009V183.874ZM256.836 185.646V194.338H254.851V185.646H252.573V183.878H259.136V185.646H256.836ZM211.936 183.892V191.315C211.936 192.955 209.5 192.955 209.499 191.341V183.892H207.57V191.263C207.57 195.462 213.866 195.462 213.866 191.13V183.892H211.936Z" fill="black"/>
<path d="M216.391 199.109C216.973 198.609 217.792 197.919 218.745 197.314C219.592 196.759 218.638 198.027 218.586 198.555C218.426 199.981 217.342 200.139 216.152 199.876C215.941 199.824 216.021 199.426 216.391 199.109" stroke="black" stroke-width="0.5"/>
<path fill-rule="evenodd" clip-rule="evenodd" d="M266.138 232.415L316.665 232.387L318.912 204.492L266.138 204.518V232.415V232.415ZM223.525 319.298L171.411 319.192C182.151 328.834 207.017 346.88 223.366 354.197L223.525 319.298V319.298Z" fill="#CA3132"/>
<path d="M185.827 209.286V213.752C183.764 212.22 174.187 211.11 168.288 213.409C166.861 213.961 162.205 215.97 160.088 217.635L154.137 222.338C153.553 222.81 153.503 223.843 153.503 224.636C153.503 226.379 151.466 227.7 150.328 227.329C149.402 227.011 148.132 226.828 146.968 227.09C145.724 227.355 144.614 225.797 144.507 224.898C144.349 223.789 145.224 222.338 145.274 221.86C145.326 221.411 145.035 219.642 146.675 218.558C147.416 218.082 148.449 218.109 149.188 218.506C149.403 218.633 149.66 218.67 149.902 218.61C150.167 218.506 150.882 217.872 151.067 217.713C151.147 216.659 150.988 214.993 151.094 214.069C151.331 212.271 151.438 211.243 151.994 209.497C152.469 207.991 153.503 205.799 154.268 204.558C155.644 202.312 158.37 200.146 160.405 200.331C159.61 201.387 159.347 201.943 158.765 203.027C157.681 205.008 156.676 208.284 156.2 210.501C155.881 211.928 155.723 213.038 155.801 214.543C157.362 213.381 159.002 212.431 160.086 211.821C160.61 209.2 161.5 206.666 162.731 204.293C164.054 201.784 167.625 199.062 169.953 199.273C167.757 201.652 166.197 204.954 165.615 207.068C165.377 207.911 165.086 208.889 165.218 209.418C166.089 208.944 167.891 208.469 168.762 208.389C169.344 206.935 170.137 205.191 170.799 204.163C172.863 200.991 176.116 199.062 177.97 199.142C176.515 201.096 175.269 202.868 174.372 205.482C174.105 206.247 173.974 207.068 173.974 207.463C175.111 207.277 176.883 207.277 177.599 207.277C179.526 205.546 179.336 205.072 181.462 203.448C182.785 202.417 185.244 201.016 185.826 200.909V204.032C184.819 204.933 182.783 206.867 182.384 207.873C183.261 208.193 185.007 208.732 185.827 209.286V209.286Z" fill="black"/>
<path fill-rule="evenodd" clip-rule="evenodd" d="M241.578 190.212L240.628 186.037L239.729 190.212H241.578V190.212Z" fill="#EDC95E"/>
<path fill-rule="evenodd" clip-rule="evenodd" d="M323.69 136.525L323.207 144.373L228.43 144.243L228.444 122.839C258.015 122.839 289.566 125.994 323.69 136.525ZM266.327 177.637L320.705 177.615L320.64 178.566L319.037 201.777L266.327 201.713V177.637ZM190.863 258.683C187.167 251.859 185.709 244.364 185.709 237.026L135.526 237.08L137.087 258.688L190.863 258.683ZM223.345 293.135L223.336 315.657L167.307 315.693C167.095 315.489 166.887 315.287 166.687 315.09C159.384 307.98 153.123 300.834 148.247 293.054L223.345 293.135Z" fill="black"/>
</svg>
