<svg width="362" height="362" viewBox="0 0 362 362" fill="none" xmlns="http://www.w3.org/2000/svg">
<path d="M180.502 36.6364C260.231 36.3628 325.088 100.773 325.364 180.502C325.637 260.23 261.227 325.088 181.498 325.363C101.768 325.638 36.9119 261.228 36.6365 181.498C36.362 101.768 100.773 36.9109 180.502 36.6364V36.6364Z" fill="url(#paint0_linear_11798_8847)"/>
<path fill-rule="evenodd" clip-rule="evenodd" d="M324.928 180.503C324.653 101.015 259.992 36.7991 180.503 37.0719C101.015 37.3456 36.7983 102.007 37.072 181.497C37.3465 260.986 102.007 325.202 181.496 324.927C260.985 324.653 325.201 259.991 324.928 180.503ZM180.5 36.2008C260.47 35.9264 325.523 100.531 325.799 180.5C326.074 260.47 261.469 325.523 181.499 325.798C101.529 326.074 36.4771 261.47 36.2009 181.5C35.9255 101.529 100.531 36.4762 180.5 36.2008Z" fill="#141414"/>
<path d="M181.001 310.624C146.375 310.624 113.822 297.143 89.3383 272.657C64.8538 248.176 51.3686 215.62 51.3686 181.001C51.3686 146.371 64.8538 113.82 89.3383 89.3392C113.822 64.8537 146.375 51.3712 181.001 51.3712C215.629 51.3712 248.181 64.8537 272.664 89.3392C297.15 113.821 310.63 146.371 310.63 181.001C310.63 215.62 297.148 248.172 272.664 272.658C248.181 297.143 215.629 310.624 181.001 310.624Z" fill="#141414"/>
<path d="M181.001 300.104C149.185 300.104 119.275 287.715 96.779 265.219C74.2798 242.722 61.8908 212.811 61.8908 181C61.8908 149.185 74.2798 119.274 96.779 96.7778C119.275 74.283 149.185 61.8905 181.001 61.8905C212.818 61.8905 242.728 74.283 265.225 96.7778C287.724 119.274 300.113 149.186 300.113 181C300.113 212.812 287.724 242.723 265.225 265.22C242.728 287.715 212.818 300.104 181.001 300.104" fill="white"/>
<path fill-rule="evenodd" clip-rule="evenodd" d="M151.909 80.7108C161.569 77.8113 171.791 76.2576 182.381 76.2576C184.937 76.2576 186.99 76.347 189.495 76.5208C191.942 76.6976 193.803 77.503 195.616 79.1382C208.339 90.6574 215.923 100.204 220.986 108.813C225.851 117.085 228.377 124.474 230.898 131.849C231 132.146 231.101 132.443 231.203 132.741C236.687 148.791 236.99 160.921 237.079 173.04C237.164 184.492 235.395 200.183 228.197 225.996C228.197 225.997 228.197 225.996 228.197 225.996C227.886 227.12 227.874 228.646 228.32 229.871C228.541 230.477 228.864 230.985 229.291 231.341C229.711 231.69 230.259 231.917 230.98 231.928L230.986 231.928C231.613 231.945 232.229 231.939 232.856 231.934C233.175 231.931 233.497 231.928 233.825 231.928C234.259 231.928 234.689 231.682 235.032 231.24C235.375 230.797 235.578 230.219 235.578 229.698V225.307C235.579 224.816 235.686 224.332 235.892 223.886C236.098 223.44 236.397 223.044 236.77 222.725C237.143 222.406 237.581 222.172 238.053 222.038C238.525 221.904 239.021 221.873 239.506 221.949C251.711 223.898 262.915 229.475 271.801 237.814C271.802 237.814 271.801 237.813 271.801 237.814C272.188 238.175 272.497 238.612 272.708 239.097C272.919 239.582 273.028 240.106 273.028 240.635C273.028 241.164 272.919 241.688 272.708 242.173C272.497 242.658 272.189 243.095 271.802 243.456C262.916 251.789 251.713 257.367 239.508 259.316C237.45 259.634 235.578 258.051 235.578 255.961V251.158C235.578 250.219 234.838 249.555 233.761 249.555H136.157C135.248 249.555 134.652 249.558 134.048 249.919L134.044 249.922L133.828 250.048C129.822 252.39 125.826 254.727 121.83 257.071C121.831 257.07 121.833 257.069 121.834 257.068L121.545 256.595L121.826 257.073C121.827 257.072 121.829 257.071 121.83 257.071C121.022 257.562 120.092 257.816 119.146 257.805L119.149 257.25L119.142 257.805C119.144 257.805 119.145 257.805 119.146 257.805H106.2C105.655 257.805 105.167 257.715 104.733 257.469C104.298 257.222 103.971 256.85 103.693 256.381C103.693 256.381 103.693 256.382 103.693 256.381C98.1167 247.019 91.5962 238.184 84.4839 229.994C84.4835 229.994 84.4842 229.995 84.4839 229.994C82.9938 228.287 82.6714 226.268 83.3898 224.64C84.1099 223.009 85.8184 221.901 88.1123 221.901H117.774C118.619 221.901 119.458 222.203 120.141 222.519L120.145 222.52C124.951 224.777 129.757 227.027 134.566 229.279C136.048 229.973 137.531 230.667 139.014 231.362C141.107 232.345 142.866 232.043 144.034 231.152C145.217 230.248 145.871 228.683 145.63 226.987C145.63 226.986 145.63 226.987 145.63 226.987C142.555 205.66 131.775 192.582 119.169 184.365C106.541 176.133 92.0642 172.771 81.6128 170.942C81.6126 170.942 81.6129 170.942 81.6128 170.942C79.0134 170.489 77.2032 168.166 77.6091 165.518C79.4958 153.335 83.4855 141.311 89.277 131.249C90.4285 129.249 92.7846 128.686 94.8722 129.22C103.881 131.54 115.7 135.256 127.996 141.717C127.996 141.717 127.996 141.717 127.996 141.717C131.16 143.376 133.786 144.368 135.936 144.673C137.784 144.934 139.246 144.683 140.406 143.937C140.573 144.087 140.739 144.238 140.906 144.39L141.279 143.98L140.922 143.556C140.757 143.694 140.585 143.822 140.406 143.937C126.972 131.811 112.417 122.474 103.092 117.529C102.318 117.118 101.578 116.509 101.275 115.68C100.953 114.798 101.18 113.832 102.009 112.87C110.719 102.768 118.125 96.7557 129.097 90.3759C131.054 89.2518 132.983 89.7538 134.78 90.7599C144.714 96.3387 157.227 104.495 169.248 115.936C172.673 119.218 176.594 122.079 181.586 121.94C181.74 122.198 181.892 122.456 182.043 122.716L182.522 122.437L182.469 121.885C182.171 121.914 181.877 121.932 181.586 121.94C172.691 106.995 160.031 95.0002 150.628 86.9553C149.584 86.0556 148.8 84.8478 148.885 83.6178C148.976 82.3126 150.007 81.2855 151.909 80.7108ZM152.228 81.7729C150.535 82.2847 150.036 83.0515 149.991 83.6946C149.942 84.4128 150.417 85.3089 151.35 86.1136M189.418 77.6272C186.932 77.4548 184.905 77.3666 182.381 77.3666C171.901 77.3666 161.786 78.9042 152.228 81.7729" fill="black"/>
<path d="M271.424 238.219C262.617 229.955 251.517 224.428 239.422 222.497C239.016 222.434 238.601 222.459 238.206 222.571C237.81 222.683 237.444 222.88 237.132 223.147C236.819 223.414 236.569 223.745 236.396 224.118C236.224 224.491 236.135 224.897 236.134 225.308V229.698C236.134 231.003 235.135 232.482 233.826 232.482C232.876 232.482 231.927 232.508 230.972 232.482C227.6 232.43 226.988 228.287 227.664 225.847C234.853 200.067 236.61 184.429 236.526 173.044C236.436 160.94 236.134 148.883 230.68 132.92C225.423 117.565 220.626 102.529 195.246 79.5501C193.523 77.9963 191.78 77.2418 189.458 77.0741C186.962 76.9009 184.922 76.8121 182.382 76.8121C171.847 76.8121 161.678 78.3578 152.069 81.242C148.473 82.3284 149.012 84.8295 150.989 86.534C160.569 94.7299 173.561 107.049 182.523 122.437C176.849 122.988 172.513 119.831 168.867 116.337C156.889 104.937 144.417 96.8076 134.51 91.2438C132.784 90.2776 131.085 89.8739 129.376 90.8553C118.457 97.205 111.099 103.178 102.43 113.233C100.955 114.942 101.91 116.274 103.352 117.039C112.829 122.065 127.67 131.598 141.28 143.98C138.507 146.314 134.11 145.548 127.739 142.208C115.494 135.774 103.72 132.071 94.7357 129.757C92.8115 129.265 90.7499 129.804 89.7586 131.525C84.0055 141.521 80.0359 153.477 78.1582 165.602C77.8012 167.931 79.3864 169.991 81.709 170.396C102.651 174.06 139.98 183.905 146.18 226.908C146.715 230.673 143.289 233.983 138.78 231.864C132.486 228.916 126.198 225.975 119.91 223.022C119.249 222.717 118.499 222.455 117.775 222.455H88.1134C83.8961 222.455 82.1602 226.488 84.9026 229.63C92.0346 237.842 98.5753 246.703 104.171 256.098C104.665 256.931 105.231 257.25 106.201 257.25H119.15C119.995 257.261 120.825 257.034 121.546 256.595C125.616 254.208 129.686 251.828 133.765 249.443C134.52 248.992 135.275 249.001 136.158 249.001H233.762C235.073 249.001 236.134 249.846 236.134 251.158V255.961C236.134 257.708 237.696 259.035 239.422 258.768C251.516 256.837 262.617 251.31 271.424 243.051C271.755 242.742 272.02 242.368 272.2 241.952C272.381 241.537 272.474 241.088 272.474 240.635C272.474 240.182 272.381 239.734 272.2 239.318C272.02 238.902 271.755 238.528 271.424 238.219Z" fill="url(#paint1_linear_11798_8847)"/>
<path d="M198.71 224.164C189.094 224.164 181.313 216.378 181.313 206.781C181.313 197.173 189.094 189.39 198.71 189.39C208.3 189.39 216.095 197.173 216.095 206.781C216.095 216.378 208.3 224.164 198.71 224.164ZM262.627 240.622C256.024 235.236 249.065 231.754 240.612 230.002C239.846 229.844 239.474 230.138 239.474 230.926V231.35C239.474 233.427 237.396 235.846 235.309 235.846H229.819C225.183 235.846 221.045 232.027 222.76 225.896C242.6 155.094 220.432 111.315 192.436 86.8085C184.831 80.1646 184.15 79.7967 176.571 80.0856C170.598 80.3117 163.597 81.0455 157.676 82.4818C156.512 82.7644 155.541 83.6884 157.079 84.9784C171.448 97.0866 190.659 117.959 199.847 150.447C200.163 151.576 199.496 151.497 198.636 151.544C190.407 152.041 187.635 147.002 185.064 143.797C166.409 120.581 145.494 106.459 129.839 97.1808C128.282 96.2469 128.03 96.263 126.844 96.9565C120.551 100.59 113.487 106.39 108.51 111.667C107.472 112.784 107.734 113.307 108.882 113.921C123.042 121.51 144.577 136.46 164.588 161.811C165.832 163.38 165.917 164.103 165.213 164.518C161.363 166.81 154.939 166.778 147.902 162.395C128.822 150.495 109.444 142.067 94.2817 137.698C92.666 137.227 92.3834 137.322 91.7232 138.706C88.0253 146.477 83.9973 156.579 82.5449 165.336C82.361 166.479 82.2615 166.569 83.3209 166.783C125.046 175.258 147.939 198.145 150.55 228.74C151.006 234.047 145.002 239.159 139.027 237.271C132.539 235.21 126.242 232.898 119.749 230.842C119.059 230.616 118.336 230.504 117.609 230.51C108.642 230.505 99.6625 230.501 90.6843 230.501C89.4885 230.501 88.7861 231.251 89.9756 232.756C96.7514 241.326 100.691 246.182 105.468 254.196C105.956 255.029 106.522 255.348 107.503 255.348C110.796 255.348 114.1 255.342 117.41 255.342C118.72 255.342 119.843 255.04 120.981 254.368C124.574 252.264 128.145 250.303 131.737 248.195C132.879 247.524 133.856 247.12 135.177 247.12C167.756 247.11 202.675 247.12 235.248 247.114C237.324 247.114 239.475 249.542 239.475 251.635V252.355C239.475 253.14 239.847 253.435 240.613 253.282C249.066 251.53 256.025 247.472 262.628 242.087C263.224 241.592 263.224 241.12 262.627 240.622" fill="#42BD3B"/>
<path d="M216.837 204.796C218.406 215.522 210.983 225.474 200.256 227.042C189.54 228.611 179.579 221.2 178.01 210.474C176.441 199.749 183.863 189.786 194.579 188.219C205.304 186.65 215.267 194.071 216.837 204.796Z" fill="url(#paint2_linear_11798_8847)"/>
<path d="M200.569 188.252L194.671 227.073C203.121 228.277 211.69 223.808 215.342 215.619C219.758 205.718 215.315 194.132 205.423 189.721C203.875 189.023 202.244 188.53 200.569 188.252V188.252Z" fill="url(#paint3_linear_11798_8847)"/>
<path d="M213.985 207.132C213.985 214.384 208.097 220.279 200.827 220.279C193.565 220.279 187.686 214.384 187.686 207.132C187.686 199.864 193.565 193.973 200.827 193.973C208.097 193.973 213.985 199.864 213.985 207.132Z" fill="white"/>
<path fill-rule="evenodd" clip-rule="evenodd" d="M200.827 194.484C193.848 194.484 188.197 200.145 188.197 207.132C188.197 214.103 193.848 219.768 200.827 219.768C207.815 219.768 213.475 214.102 213.475 207.132C213.475 200.146 207.815 194.484 200.827 194.484ZM187.175 207.132C187.175 199.582 193.282 193.463 200.827 193.463C208.379 193.463 214.496 199.582 214.496 207.132C214.496 214.667 208.379 220.79 200.827 220.79C193.282 220.79 187.175 214.666 187.175 207.132Z" fill="#141414"/>
<defs>
<linearGradient id="paint0_linear_11798_8847" x1="181.593" y1="325.781" x2="180.876" y2="121.031" gradientUnits="userSpaceOnUse">
<stop stop-color="#99A2A7"/>
<stop offset="0.476" stop-color="#98A3A8"/>
<stop offset="0.535" stop-color="#E6E6E6"/>
<stop offset="1" stop-color="#E6E6E6"/>
</linearGradient>
<linearGradient id="paint1_linear_11798_8847" x1="89.8315" y1="266.52" x2="225.437" y2="142.444" gradientUnits="userSpaceOnUse">
<stop stop-color="#151313"/>
<stop offset="0.085" stop-color="#151313"/>
<stop offset="0.128" stop-color="#F8F1F1"/>
<stop offset="0.229" stop-color="#151313"/>
<stop offset="0.304" stop-color="#141414"/>
<stop offset="0.382" stop-color="#F8F1F1"/>
<stop offset="0.45" stop-color="#151313"/>
<stop offset="0.566" stop-color="#F8F1F4"/>
<stop offset="0.627" stop-color="#141414"/>
<stop offset="0.787" stop-color="#F8F1F1"/>
<stop offset="1" stop-color="#F8F1F2"/>
</linearGradient>
<linearGradient id="paint2_linear_11798_8847" x1="195.817" y1="205.337" x2="214.371" y2="229.598" gradientUnits="userSpaceOnUse">
<stop stop-color="#151313"/>
<stop offset="0.163" stop-color="#CCC4C4"/>
<stop offset="0.496" stop-color="#B7ACAD"/>
<stop offset="1" stop-color="#151313"/>
</linearGradient>
<linearGradient id="paint3_linear_11798_8847" x1="204.01" y1="206.586" x2="176.328" y2="217.832" gradientUnits="userSpaceOnUse">
<stop stop-color="#151313"/>
<stop offset="0.25" stop-color="#CCC4C4"/>
<stop offset="0.5" stop-color="#B7ACAD"/>
<stop offset="1" stop-color="#151313"/>
</linearGradient>
</defs>
</svg>
