<svg width="192" height="192" viewBox="0 0 192 192" fill="none" xmlns="http://www.w3.org/2000/svg">
<path d="M72.4149 55.7978C57.3254 65.753 41.5264 72.4858 38.5884 73.705L113.095 125.888C113.132 125.914 113.163 125.949 113.184 125.99C113.205 126.031 113.216 126.077 113.215 126.123V126.126C113.214 126.173 113.203 126.219 113.18 126.26C113.158 126.301 113.125 126.336 113.086 126.362L109.76 128.551C109.713 128.582 109.657 128.598 109.601 128.598C109.544 128.597 109.489 128.58 109.442 128.548L82.233 109.819C71.851 102.805 60.3989 104.294 52.6229 106.78C45.1586 109.162 39.6586 112.811 38.2971 113.763C38.9491 114.22 94.5793 153.098 94.9536 153.362C96.1542 152.235 104.304 144.792 121.434 134.224C139.497 123.097 150.147 119.207 152.611 118.384L77.9675 66.1137C77.9298 66.0875 77.899 66.0525 77.8778 66.0118C77.8566 65.9711 77.8455 65.9259 77.8455 65.88V65.8766C77.8461 65.8301 77.8579 65.7843 77.88 65.7433C77.9022 65.7023 77.9339 65.6673 77.9725 65.6413L81.1493 63.5347C81.1958 63.5041 81.2502 63.4877 81.3059 63.4877C81.3616 63.4877 81.4161 63.5041 81.4626 63.5347C81.5625 63.5991 91.5702 70.1693 109.56 82.8356C126.428 94.7027 149.954 80.4717 153.188 78.4058C152.504 77.9334 95.9916 38.561 95.6343 38.3104C94.2203 39.5161 83.796 48.3114 72.4149 55.7978Z" fill="#D52B1E"/>
</svg>
