<svg width="192" height="192" viewBox="0 0 192 192" fill="none" xmlns="http://www.w3.org/2000/svg">
<path d="M95.7498 171.765L114.502 66.3027C132.376 66.3027 138.014 68.2627 138.828 76.2628C138.828 76.2628 150.818 71.792 156.865 62.7121C133.266 51.7768 109.555 51.2836 109.555 51.2836L95.7186 68.1359L95.7498 68.1337L81.9137 51.281C81.9137 51.281 58.2016 51.7747 34.6057 62.71C40.6479 71.7899 52.643 76.2607 52.643 76.2607C53.4618 68.2601 59.0927 66.3001 76.8467 66.2874L95.7498 171.765Z" fill="#E82127"/>
<path d="M95.7425 46.416C114.819 46.2701 136.654 49.3671 159.007 59.1093C161.994 53.7321 162.762 51.3556 162.762 51.3556C138.328 41.6884 115.445 38.38 95.7398 38.297C76.0359 38.38 53.1542 41.6889 28.7227 51.3556C28.7227 51.3556 29.8126 54.2829 32.4756 59.1093C54.824 49.3671 76.6628 46.2701 95.7398 46.416H95.7425Z" fill="#E82127"/>
</svg>
