<svg width="192" height="192" viewBox="0 0 192 192" fill="none" xmlns="http://www.w3.org/2000/svg">
<g opacity="0.8">
<path fill-rule="evenodd" clip-rule="evenodd" d="M95.7426 143.723C53.5092 143.723 19.1486 122.223 19.1486 95.7968C19.1486 69.3688 53.5086 47.8713 95.742 47.8713C137.975 47.8713 172.336 69.3688 172.337 95.7968C172.337 122.223 137.975 143.723 95.7426 143.723ZM95.7428 50.2259C54.8039 50.2259 21.4992 70.6698 21.4992 95.7968C21.4992 120.93 54.8039 141.372 95.7428 141.373C136.681 141.373 169.986 120.929 169.986 95.7968C169.986 70.6698 136.681 50.2259 95.7428 50.2259Z" fill="black"/>
<path fill-rule="evenodd" clip-rule="evenodd" d="M55.3389 68.6896C57.5583 62.4298 70.579 57.6785 88.5056 56.5838L92.2051 56.354L89.3129 58.6715C84.2084 62.7571 80.2486 71.4102 78.4446 82.4142L78.2495 83.5765L77.0861 83.3861C66.0961 81.5111 58.3733 78.0154 55.8854 73.7764C55.2931 72.7669 54.9946 71.711 54.9946 70.6551C54.9964 69.9851 55.1129 69.3203 55.3389 68.6896ZM57.3423 70.6633C57.3423 71.2967 57.5309 71.9396 57.9141 72.5912C59.9336 76.034 66.8027 79.0778 76.356 80.8453C78.0383 71.5582 81.263 63.9141 85.4568 59.1704C70.7555 60.5178 59.2473 64.6944 57.5533 69.4764C57.4111 69.8736 57.3423 70.2637 57.3423 70.6633ZM85.2276 83.1176L84.9978 84.3962L86.2946 84.4949C89.3702 84.7247 92.5497 84.8487 95.7398 84.8487C98.9328 84.8487 102.114 84.7247 105.19 84.4949L106.485 84.3962L106.254 83.1176C104.486 73.1883 100.553 67.257 95.7415 67.257C90.9267 67.257 86.9951 73.1883 85.2276 83.1176ZM103.669 82.2227C102.069 74.5333 99.0318 69.6074 95.7424 69.6074C92.4536 69.6074 89.4121 74.5333 87.8168 82.2227C90.4152 82.3925 93.0658 82.4982 95.74 82.4982C98.4177 82.4982 101.067 82.3925 103.669 82.2227ZM102.17 58.6727C107.272 62.7583 111.236 71.4125 113.04 82.4154L113.233 83.5777L114.395 83.3873C125.389 81.5123 133.116 78.0154 135.595 73.7771C136.56 72.1482 136.743 70.3889 136.147 68.6914C133.928 62.4322 120.907 57.6808 102.981 56.585L99.2863 56.3552L102.17 58.6727ZM133.926 69.4764C132.237 64.7021 120.729 60.5178 106.032 59.1704C110.226 63.9147 113.446 71.5588 115.128 80.8453C124.677 79.0778 131.548 76.0334 133.575 72.5912C133.949 71.9396 134.142 71.2967 134.142 70.6633C134.142 70.2637 134.073 69.8736 133.926 69.4764ZM43.9955 73.3028C35.9389 80.0514 31.6812 88.0687 31.6812 96.492C31.6812 116.307 55.8434 133.056 87.8813 135.443L91.4598 135.712L88.7351 133.384C81.7161 127.379 77.3573 113.132 77.3573 96.2005L77.4307 92.2001L76.4483 92.0003C59.5964 88.9801 47.6075 81.8942 45.9006 73.9592L45.4922 72.0542L43.9955 73.3028ZM44.1725 76.3166C37.5573 82.3372 34.034 89.2692 34.034 96.492C34.034 114.411 55.6872 129.659 84.8793 132.774C78.7348 125.458 75.0094 111.9 75.0094 96.2005C75.0094 96.2005 75.0276 95.0394 75.0482 94.1216C58.7704 91.0138 47.2545 84.3345 44.1725 76.3166ZM84.2704 94.3743L84.2634 94.8009C84.2634 110.539 89.1981 122.413 95.7422 122.413C102.284 122.413 107.219 110.539 107.219 94.8009L107.203 93.1027L105.941 93.2108C102.613 93.5023 99.1861 93.6468 95.7434 93.6468C92.3006 93.6468 88.869 93.5023 85.5496 93.2108L84.2828 93.0962L84.2704 94.3743ZM95.7424 120.064C100.065 120.064 104.678 110.28 104.855 95.6359C101.862 95.8562 98.8185 95.9937 95.7424 95.9937C92.671 95.9937 89.6184 95.8562 86.6298 95.6359C86.802 110.28 91.4158 120.064 95.7424 120.064ZM145.58 73.9592C143.875 81.8942 131.883 88.9795 115.037 92.0004L114.05 92.1837L114.128 96.2C114.128 113.132 109.767 127.379 102.75 133.383L100.025 135.711L103.599 135.442C135.64 133.056 159.803 116.307 159.803 96.4914C159.803 88.0681 155.54 80.0509 147.484 73.3022L145.992 72.0536L145.58 73.9592ZM157.453 96.492C157.453 89.2692 153.928 82.3372 147.308 76.3166C144.225 84.3339 132.71 91.0138 116.437 94.1216C116.453 95.0389 116.476 96.2005 116.476 96.2005C116.476 111.9 112.751 125.458 106.606 132.774C135.801 129.659 157.453 114.411 157.453 96.492Z" fill="black"/>
<path d="M146.413 67.9091C146.521 68.2076 146.62 68.512 146.697 68.8181C147.14 70.5786 147.049 72.3073 146.474 73.992C154.118 80.2952 158.624 88.0692 158.624 96.4925C158.624 117.517 130.469 134.564 95.742 134.564C61.0123 134.564 32.8602 117.517 32.8602 96.4925C32.8602 88.0762 37.3706 80.2958 45.0048 73.992C44.4354 72.3073 44.3437 70.5786 44.7868 68.8181C44.8785 68.4841 45.0006 68.1591 45.1517 67.8474C34.7217 75.2782 28.3979 85.0166 28.3979 95.6822C28.3979 118.97 58.5467 137.847 95.7414 137.847C132.931 137.847 163.085 118.97 163.085 95.6822C163.086 85.0389 156.787 75.3229 146.413 67.9091Z" fill="url(#paint0_linear_9797_9710)"/>
<path fill-rule="evenodd" clip-rule="evenodd" d="M95.7423 55C117.646 55 137.133 60.7379 139.497 68.5513C141.547 75.3293 130.339 81.6026 112.674 84.0905L114.204 82.2213C128.502 79.7892 136.995 74.6019 135.037 69.086C132.664 62.3909 115.404 57.5408 95.7406 57.5408C76.0764 57.5408 58.8209 62.3897 56.4452 69.086C54.485 74.6013 62.9817 79.7886 77.2769 82.2213L78.8123 84.0905C61.1407 81.6026 49.9398 75.3293 51.9918 68.5513C54.3557 60.7391 73.8424 55 95.7423 55ZM95.74 83.6685C99.0018 83.6685 102.13 83.5469 105.098 83.3242L107.048 84.7333C103.468 85.0453 99.6893 85.2222 95.7417 85.2222C91.7948 85.2222 88.0159 85.0453 84.4374 84.7333L86.3771 83.3242H86.3865C89.3545 83.5469 92.4805 83.6685 95.74 83.6685Z" fill="url(#paint1_linear_9797_9710)"/>
<path d="M86.41 83.3243C88.0511 74.2047 91.6114 68.5055 95.7405 68.5055C99.8743 68.5055 103.432 74.2047 105.075 83.3243H105.108L107.028 84.7175C105.407 72.674 100.968 64.9775 95.7435 64.9775C90.515 64.9775 86.078 72.674 84.4597 84.7175L86.3788 83.3243H86.41Z" fill="url(#paint2_linear_9797_9710)"/>
<path d="M107.61 91.5415L106.04 94.3808C106.04 94.5876 106.049 94.8004 106.049 95.016C106.049 110.133 101.426 121.594 95.7412 121.594C90.0508 121.594 85.4376 110.132 85.4376 95.016C85.4376 94.7774 85.4423 94.5406 85.447 94.3121L83.8745 91.5415C83.8283 92.6938 83.8054 93.8469 83.8058 95.0001C83.8058 112.139 89.1495 125.121 95.7435 125.121C102.338 125.121 107.686 112.139 107.686 95.0001C107.684 93.8469 107.658 92.6938 107.61 91.5415V91.5415Z" fill="url(#paint3_linear_9797_9710)"/>
<path d="M78.8374 84.0977C81.0962 67.3581 87.8101 54.999 95.7428 54.999C87.2384 54.999 79.9897 65.9484 77.2997 82.2544L78.8145 84.0977H78.8374Z" fill="url(#paint4_linear_9797_9710)"/>
<path d="M112.65 84.0977H112.666L114.181 82.2544C111.495 65.9484 104.242 54.999 95.7422 54.999C103.675 55.0002 110.393 67.3581 112.65 84.0977Z" fill="url(#paint5_linear_9797_9710)"/>
<path d="M115.236 93.1479L113.308 90.8457H113.293C113.401 92.6749 113.462 94.5341 113.462 96.4226C113.462 119.3 105.527 137.846 95.7427 137.846C106.714 137.846 115.299 120.645 115.299 96.4226C115.299 95.3144 115.276 94.2274 115.236 93.1479Z" fill="url(#paint6_linear_9797_9710)"/>
<path d="M78.0268 96.4231C78.0268 94.5346 78.0885 92.6754 78.1943 90.8462H78.1814L76.2487 93.1414C76.2078 94.2348 76.1864 95.3289 76.1847 96.4231C76.1847 120.646 84.776 137.846 95.7431 137.846C85.9618 137.846 78.0268 119.3 78.0268 96.4231Z" fill="url(#paint7_linear_9797_9710)"/>
<path fill-rule="evenodd" clip-rule="evenodd" d="M44.7874 68.8176C44.3444 70.5781 44.436 72.3068 45.0054 73.9915C42.0833 76.4012 39.623 79.0319 37.6951 81.8254C38.367 77.3839 40.1339 73.1795 42.8366 69.5915C43.5965 68.9942 44.3685 68.4125 45.1523 67.8469C45.0013 68.1587 44.8791 68.4836 44.7874 68.8176ZM153.79 81.8254C151.862 79.0319 149.397 76.4018 146.474 73.9914C147.049 72.3068 147.14 70.5786 146.695 68.8188C146.619 68.5126 146.52 68.2083 146.412 67.9098C147.172 68.4503 147.918 69.0111 148.648 69.5915C151.355 73.1772 153.122 77.3826 153.79 81.8254Z" fill="#2D2F34"/>
<path fill-rule="evenodd" clip-rule="evenodd" d="M95.7428 49.0483C54.0876 49.0483 20.324 69.9811 20.324 95.7969C20.324 121.618 54.0876 142.542 95.7428 142.543C137.392 142.543 171.156 121.618 171.156 95.7969C171.156 69.9811 137.392 49.0483 95.7428 49.0483ZM163.086 95.6816C163.086 118.969 132.933 137.846 95.7425 137.846C58.5478 137.846 28.3967 118.969 28.3967 95.6816C28.3967 72.3926 58.5472 53.5082 95.7425 53.5082C132.933 53.5082 163.086 72.3914 163.086 95.6816Z" fill="url(#paint8_linear_9797_9710)"/>
<path fill-rule="evenodd" clip-rule="evenodd" d="M95.7422 55C85.9621 55 78.0271 73.7857 78.0271 96.4231C78.0271 119.3 85.9574 137.846 95.7422 137.846C105.527 137.846 113.463 119.301 113.463 96.4231C113.463 73.7857 105.527 55 95.7422 55ZM107.685 95.0069C107.685 112.138 102.337 125.121 95.7422 125.121C89.1481 125.121 83.8045 112.138 83.8045 95.0069C83.8045 77.2278 89.1481 64.978 95.7422 64.978C102.336 64.978 107.685 77.2278 107.685 95.0069Z" fill="url(#paint9_linear_9797_9710)"/>
<path fill-rule="evenodd" clip-rule="evenodd" d="M95.7421 49.9209C70.2389 49.9209 46.7313 61.1218 44.7875 68.8176C41.7002 81.0286 64.3541 92.0785 95.7421 92.0785C127.125 92.0785 149.78 81.028 146.697 68.8176C143.943 57.9241 121.243 49.9209 95.7421 49.9209ZM51.9916 68.5515C54.3555 60.7393 73.8422 55.0002 95.7421 55.0002C117.647 55.0002 137.133 60.7381 139.497 68.5515C142.143 77.3027 122.697 85.2224 95.7421 85.2224C68.7929 85.2224 49.3427 77.3038 51.9916 68.5515Z" fill="url(#paint10_linear_9797_9710)"/>
<path fill-rule="evenodd" clip-rule="evenodd" d="M76.237 93.1579C56.8302 89.6682 44.0622 81.1074 44.5211 71.4578C44.9295 80.189 58.3404 87.9242 78.1814 90.8387L78.1767 90.8457L76.237 93.1579ZM146.963 71.4578C146.559 80.1884 133.139 87.9236 113.301 90.8387L113.308 90.8457L115.243 93.1579C134.654 89.6688 147.423 81.098 146.963 71.4578ZM83.8501 91.5185L83.8637 91.5279L85.4819 94.3807C88.7754 94.6622 92.2006 94.8232 95.7421 94.8232C99.3 94.8232 102.733 94.6628 106.049 94.3737L107.623 91.5268L107.633 91.5174C103.846 91.8776 99.8747 92.0773 95.7432 92.0773C91.7723 92.0796 87.8034 91.8931 83.8501 91.5185Z" fill="url(#paint11_linear_9797_9710)"/>
</g>
<defs>
<linearGradient id="paint0_linear_9797_9710" x1="146.989" y1="132.638" x2="146.989" y2="79.3691" gradientUnits="userSpaceOnUse">
<stop stop-color="#F0F3F5"/>
<stop offset="0.056" stop-color="#E2E5E8"/>
<stop offset="0.138" stop-color="#D4D8DD"/>
<stop offset="0.242" stop-color="#CCD0D6"/>
<stop offset="0.44" stop-color="#CACED4"/>
<stop offset="0.568" stop-color="#B3B7BD"/>
<stop offset="0.835" stop-color="#797C83"/>
<stop offset="1" stop-color="#52545C"/>
</linearGradient>
<linearGradient id="paint1_linear_9797_9710" x1="137.763" y1="92.0501" x2="137.763" y2="63.1847" gradientUnits="userSpaceOnUse">
<stop stop-color="#F0F3F5"/>
<stop offset="0.056" stop-color="#E2E5E8"/>
<stop offset="0.138" stop-color="#D4D8DD"/>
<stop offset="0.242" stop-color="#CCD0D6"/>
<stop offset="0.44" stop-color="#CACED4"/>
<stop offset="0.568" stop-color="#B3B7BD"/>
<stop offset="0.835" stop-color="#797C83"/>
<stop offset="1" stop-color="#52545C"/>
</linearGradient>
<linearGradient id="paint2_linear_9797_9710" x1="113.971" y1="78.8623" x2="98.2599" y2="61.6304" gradientUnits="userSpaceOnUse">
<stop stop-color="#F0F3F5"/>
<stop offset="0.056" stop-color="#E2E5E8"/>
<stop offset="0.138" stop-color="#D4D8DD"/>
<stop offset="0.242" stop-color="#CCD0D6"/>
<stop offset="0.44" stop-color="#CACED4"/>
<stop offset="0.568" stop-color="#B3B7BD"/>
<stop offset="0.835" stop-color="#797C83"/>
<stop offset="1" stop-color="#52545C"/>
</linearGradient>
<linearGradient id="paint3_linear_9797_9710" x1="112.555" y1="93.4259" x2="84.2553" y2="85.163" gradientUnits="userSpaceOnUse">
<stop stop-color="#F0F3F5"/>
<stop offset="0.056" stop-color="#E2E5E8"/>
<stop offset="0.138" stop-color="#D4D8DD"/>
<stop offset="0.242" stop-color="#CCD0D6"/>
<stop offset="0.44" stop-color="#CACED4"/>
<stop offset="0.568" stop-color="#B3B7BD"/>
<stop offset="0.835" stop-color="#797C83"/>
<stop offset="1" stop-color="#52545C"/>
</linearGradient>
<linearGradient id="paint4_linear_9797_9710" x1="72.0124" y1="49.0443" x2="72.0124" y2="94.8279" gradientUnits="userSpaceOnUse">
<stop stop-color="#F0F3F5"/>
<stop offset="0.056" stop-color="#E2E5E8"/>
<stop offset="0.138" stop-color="#D4D8DD"/>
<stop offset="0.242" stop-color="#CCD0D6"/>
<stop offset="0.44" stop-color="#CACED4"/>
<stop offset="0.568" stop-color="#B3B7BD"/>
<stop offset="0.835" stop-color="#797C83"/>
<stop offset="1" stop-color="#52545C"/>
</linearGradient>
<linearGradient id="paint5_linear_9797_9710" x1="90.4563" y1="49.0443" x2="90.4563" y2="94.8279" gradientUnits="userSpaceOnUse">
<stop stop-color="#F0F3F5"/>
<stop offset="0.056" stop-color="#E2E5E8"/>
<stop offset="0.138" stop-color="#D4D8DD"/>
<stop offset="0.242" stop-color="#CCD0D6"/>
<stop offset="0.44" stop-color="#CACED4"/>
<stop offset="0.568" stop-color="#B3B7BD"/>
<stop offset="0.835" stop-color="#797C83"/>
<stop offset="1" stop-color="#52545C"/>
</linearGradient>
<linearGradient id="paint6_linear_9797_9710" x1="89.6242" y1="48.6593" x2="89.6242" y2="125.068" gradientUnits="userSpaceOnUse">
<stop stop-color="#F0F3F5"/>
<stop offset="0.056" stop-color="#E2E5E8"/>
<stop offset="0.138" stop-color="#D4D8DD"/>
<stop offset="0.242" stop-color="#CCD0D6"/>
<stop offset="0.44" stop-color="#CACED4"/>
<stop offset="0.568" stop-color="#B3B7BD"/>
<stop offset="0.835" stop-color="#797C83"/>
<stop offset="1" stop-color="#52545C"/>
</linearGradient>
<linearGradient id="paint7_linear_9797_9710" x1="70.0655" y1="48.6592" x2="70.0655" y2="125.068" gradientUnits="userSpaceOnUse">
<stop stop-color="#F0F3F5"/>
<stop offset="0.056" stop-color="#E2E5E8"/>
<stop offset="0.138" stop-color="#D4D8DD"/>
<stop offset="0.242" stop-color="#CCD0D6"/>
<stop offset="0.44" stop-color="#CACED4"/>
<stop offset="0.568" stop-color="#B3B7BD"/>
<stop offset="0.835" stop-color="#797C83"/>
<stop offset="1" stop-color="#52545C"/>
</linearGradient>
<linearGradient id="paint8_linear_9797_9710" x1="20.3237" y1="49.0483" x2="20.3237" y2="142.543" gradientUnits="userSpaceOnUse">
<stop stop-color="#F0F3F5"/>
<stop offset="0.253" stop-color="#EDF0F3"/>
<stop offset="0.406" stop-color="#E5E8EA"/>
<stop offset="0.531" stop-color="#D7DADC"/>
<stop offset="0.642" stop-color="#C3C5C9"/>
<stop offset="0.744" stop-color="#A9ABAF"/>
<stop offset="0.839" stop-color="#888B90"/>
<stop offset="0.926" stop-color="#63656B"/>
<stop offset="1" stop-color="#3D3F46"/>
</linearGradient>
<linearGradient id="paint9_linear_9797_9710" x1="75.7482" y1="49.0435" x2="75.7482" y2="142.544" gradientUnits="userSpaceOnUse">
<stop stop-color="#F0F3F5"/>
<stop offset="0.253" stop-color="#EDF0F3"/>
<stop offset="0.406" stop-color="#E5E8EA"/>
<stop offset="0.531" stop-color="#D7DADC"/>
<stop offset="0.642" stop-color="#C3C5C9"/>
<stop offset="0.744" stop-color="#A9ABAF"/>
<stop offset="0.839" stop-color="#888B90"/>
<stop offset="0.926" stop-color="#63656B"/>
<stop offset="1" stop-color="#3D3F46"/>
</linearGradient>
<linearGradient id="paint10_linear_9797_9710" x1="-17.8904" y1="49.0536" x2="-17.8904" y2="142.552" gradientUnits="userSpaceOnUse">
<stop stop-color="#F0F3F5"/>
<stop offset="0.253" stop-color="#EDF0F3"/>
<stop offset="0.406" stop-color="#E5E8EA"/>
<stop offset="0.531" stop-color="#D7DADC"/>
<stop offset="0.642" stop-color="#C3C5C9"/>
<stop offset="0.744" stop-color="#A9ABAF"/>
<stop offset="0.839" stop-color="#888B90"/>
<stop offset="0.926" stop-color="#63656B"/>
<stop offset="1" stop-color="#3D3F46"/>
</linearGradient>
<linearGradient id="paint11_linear_9797_9710" x1="37.3149" y1="68.4392" x2="37.3149" y2="95.0859" gradientUnits="userSpaceOnUse">
<stop stop-color="#CACED4"/>
<stop offset="1" stop-color="#52545C"/>
</linearGradient>
</defs>
</svg>
