<svg width="192" height="192" viewBox="0 0 192 192" fill="none" xmlns="http://www.w3.org/2000/svg">
<path d="M93.4582 19.1484H99.0222C110.474 19.712 121.82 22.7104 131.94 28.1282C149.479 37.385 163.057 53.7939 168.961 72.7186C170.536 77.7783 171.617 83.003 172.071 88.2837C172.523 92.4155 172.255 96.5971 172.283 100.748C171.576 112.436 168.114 123.96 162.214 134.082C156.506 143.956 148.582 152.54 139.173 158.988C127.372 167.099 113.258 171.692 98.9693 172.34H92.6393C89.4229 172.115 86.2003 171.848 83.0212 171.29C67.1012 168.631 52.0623 160.81 40.8688 149.162C27.8226 135.817 19.8424 117.546 19.3193 98.8608C19.0172 96.5847 19.1729 94.293 19.3504 92.0139C19.3006 89.9121 19.7085 87.8478 19.7801 85.7554L19.9358 85.5655C22.4018 64.8691 34.1776 45.6299 51.0628 33.5085C63.3493 24.644 78.3228 19.6248 93.4582 19.1484V19.1484ZM88.9216 26.5589C88.1089 26.7457 87.2776 26.8018 86.4494 26.8765C85.2164 27.1256 83.9616 27.2564 82.7317 27.521C82.2242 27.6456 81.7073 27.7421 81.1966 27.8417C80.7794 27.9538 80.356 28.0441 79.9325 28.1375C78.7026 28.4582 77.4603 28.7478 76.2615 29.1837C76.0903 29.2273 75.7447 29.3082 75.5703 29.3487C75.2589 29.467 74.9476 29.5854 74.6362 29.6975C74.3217 29.7909 74.0073 29.8843 73.6928 29.9777C73.5309 30.0867 73.369 30.1925 73.2102 30.3015C73.4842 30.8402 73.7426 31.3882 73.9792 31.9455C74.3342 32.7582 74.7047 33.5677 75.0721 34.3741C75.5267 35.4359 76.0155 36.4852 76.4546 37.5532C76.8811 38.4779 77.3046 39.4089 77.6938 40.3523C78.5002 42.0866 79.2413 43.8521 80.0384 45.5895C83.9149 54.3388 87.8536 63.0601 91.7394 71.8063C92.1504 72.7404 92.5832 73.6652 92.9818 74.6055C93.3928 75.5396 93.8194 76.4674 94.2335 77.4015C94.6818 78.3699 94.9714 79.4752 95.8401 80.1727C96.6185 79.5282 96.9454 78.5598 97.3066 77.6569C97.7768 76.6449 98.222 75.6237 98.6704 74.6024C102.889 65.1338 107.149 55.6777 111.355 46.2029C111.766 45.2688 112.19 44.3409 112.598 43.4068C113.009 42.4727 113.432 41.5417 113.84 40.6076C114.254 39.6736 114.671 38.7426 115.082 37.8054C115.531 36.7872 115.982 35.7691 116.431 34.7509C116.842 33.8137 117.268 32.8858 117.667 31.9455C117.928 31.3757 118.187 30.8028 118.479 30.2455C117.997 30.0617 117.53 29.85 117.05 29.6694C116.73 29.5698 116.415 29.4639 116.101 29.355C115.929 29.3114 115.584 29.2242 115.409 29.1806C114.211 28.754 112.968 28.48 111.745 28.1344C110.81 27.9538 109.88 27.739 108.958 27.5023C107.712 27.2999 106.461 27.1287 105.225 26.8734C104.39 26.8018 103.549 26.7457 102.734 26.5558C101.18 26.4126 99.6107 26.4966 98.0695 26.232C95.0119 26.0732 91.9698 26.4375 88.9216 26.5589ZM61.4406 35.4639C51.8973 41.0467 43.7613 48.9304 37.6368 58.1219C37.8018 58.8754 38.1599 59.5604 38.5149 60.236C38.985 61.1483 39.4209 62.0793 39.8693 63.0009C40.383 64.0378 40.8968 65.0746 41.4261 66.1053C46.8532 77.1338 52.4048 88.1062 57.8101 99.1472C57.9627 99.4368 58.1121 99.7263 58.2616 100.019C58.8812 101.268 59.5008 102.522 60.108 103.78C64.3643 112.361 68.6456 120.93 72.9019 129.511C73.0825 130.035 73.534 130.268 74.0695 130.259C74.549 129.374 74.9756 128.459 75.371 127.534C75.7135 126.675 76.0996 125.834 76.467 124.984C76.822 124.175 77.1614 123.359 77.5194 122.549C77.8837 121.696 78.2729 120.856 78.6217 119.996C78.986 119.193 79.3347 118.38 79.6865 117.567C82.4016 111.331 85.1354 105.1 87.8816 98.8763C88.1712 98.1975 88.8531 97.6931 89.6159 97.7897C93.7695 97.7834 97.9262 97.7803 102.083 97.7928C102.896 97.6931 103.571 98.2878 103.848 99.0071C106.56 105.194 109.291 111.371 111.975 117.571C112.33 118.383 112.682 119.196 113.049 120.002C113.398 120.859 113.781 121.702 114.148 122.549C114.503 123.359 114.843 124.178 115.194 124.99C115.998 126.718 116.627 128.531 117.576 130.187L118.336 130.212C121.783 123.589 125.027 116.854 128.381 110.179C135.838 95.0528 143.373 79.9641 150.867 64.8567C151.45 63.7545 151.939 62.6086 152.53 61.5126C153.059 60.4447 153.495 59.3175 154.212 58.3523C153.583 57.5832 153.053 56.7488 152.493 55.9361C146.62 47.6569 138.989 40.6326 130.252 35.4733C129.925 35.2709 129.573 35.1183 129.2 35.0436C125.339 43.55 121.497 52.0721 117.676 60.5972C117.184 61.7399 116.642 62.8577 116.16 64.0004C115.799 64.8162 115.431 65.6289 115.051 66.4353C114.597 67.5002 114.111 68.5526 113.666 69.6206C113.196 70.6325 112.735 71.6475 112.286 72.6688C109.655 78.5505 107.009 84.4228 104.356 90.292C104.063 90.9179 103.836 91.5873 103.416 92.1415C102.924 92.6802 102.111 92.6522 101.445 92.6833C97.5931 92.6708 93.7415 92.6926 89.893 92.6739C89.0835 92.6926 88.1712 92.4124 87.891 91.5686C85.0389 85.2728 82.1961 78.9739 79.3752 72.6688C78.9237 71.6475 78.466 70.6325 78.0052 69.6174C77.5506 68.5526 77.0617 67.5064 76.5916 66.4509C76.137 65.4296 75.6886 64.4083 75.234 63.387C71.0306 53.8967 66.6746 44.4686 62.4868 34.972C62.1349 35.1245 61.78 35.2771 61.4406 35.4639ZM160.7 71.5043C159.312 74.5463 157.736 77.5012 156.288 80.5152C155.865 81.3434 155.448 82.1716 155.046 83.0092C154.641 83.8405 154.227 84.6688 153.825 85.5032C153.667 85.799 153.508 86.0979 153.349 86.3937C153.203 86.7144 153.053 87.0351 152.901 87.3527C152.82 87.5146 152.661 87.8354 152.58 87.9973C152.424 88.2899 152.272 88.5889 152.119 88.8846C151.879 89.4326 151.615 89.9682 151.356 90.5069C146.281 100.782 141.1 111.007 136.034 121.288C135.956 121.444 135.804 121.752 135.726 121.908C135.508 122.319 135.309 122.739 135.103 123.16C134.891 123.571 134.689 123.988 134.493 124.411C134.287 124.822 134.076 125.233 133.879 125.654C133.805 125.809 133.652 126.124 133.574 126.279C133.425 126.569 133.272 126.859 133.123 127.148C132.622 128.194 132.092 129.225 131.585 130.268C127.783 138.04 123.888 145.765 120.011 153.499C119.476 154.822 117.773 155.523 116.53 154.707C115.251 153.807 114.942 152.154 114.288 150.827C113.821 149.815 113.367 148.794 112.922 147.773C108.31 137.361 103.634 126.977 99.0067 116.571C98.5988 115.634 98.1629 114.709 97.7674 113.766C97.3502 112.829 96.9081 111.901 96.5656 110.932C96.2978 110.549 95.809 110.275 95.3731 110.59C94.7161 111.717 94.2864 112.959 93.7477 114.146C89.0742 124.635 84.3539 135.104 79.7146 145.609C79.3503 146.412 78.9828 147.219 78.6186 148.025C78.1764 149.09 77.6845 150.133 77.233 151.198C76.794 152.123 76.4639 153.11 75.9035 153.978C75.2994 154.86 74.1007 155.314 73.0856 154.906C72.3352 154.66 71.8869 153.954 71.5319 153.297C67.6803 145.528 63.7634 137.791 59.9367 130.013C59.7406 129.595 59.535 129.181 59.3327 128.77C58.9341 127.933 58.5169 127.105 58.0965 126.279C58.0187 126.124 57.8661 125.809 57.7883 125.651C57.5921 125.233 57.3773 124.825 57.1687 124.414C56.9663 123.997 56.7608 123.583 56.5491 123.172C56.3965 122.833 56.2408 122.5 56.082 122.166C55.8236 121.668 55.5745 121.17 55.3223 120.672C55.014 120.046 54.712 119.42 54.3882 118.804C49.3348 108.504 44.1101 98.2878 39.0722 87.9786C38.9975 87.8198 38.8418 87.5053 38.764 87.3496C38.4121 86.6086 38.0416 85.8769 37.6804 85.1389C37.3068 84.4321 36.9643 83.7098 36.5906 83.003C36.4474 82.6729 36.298 82.3429 36.1516 82.016C35.9928 81.7264 35.8402 81.4368 35.6877 81.1472C34.1277 77.9807 32.5709 74.8141 30.983 71.6631C30.382 72.6221 30.1361 73.7368 29.7655 74.7923C24.1672 92.0294 25.8704 111.462 34.3083 127.494C34.3395 127.578 34.4017 127.749 34.436 127.833C35.2393 129.219 35.9835 130.639 36.8366 131.996C44.3685 144.304 55.8236 154.171 69.0939 159.835C69.6139 160.044 70.1308 160.259 70.6539 160.461C71.0368 160.62 71.4229 160.766 71.809 160.925C72.2512 161.074 72.6964 161.236 73.1417 161.389C73.453 161.501 73.7644 161.613 74.0758 161.728C74.3871 161.828 74.6985 161.928 75.013 162.024C75.8132 162.276 76.6258 162.488 77.4229 162.74C78.6621 163.073 79.9107 163.372 81.1593 163.671C81.6761 163.761 82.1961 163.858 82.7099 163.976C83.2299 164.076 83.7561 164.176 84.276 164.303C86.7794 164.608 89.2703 165.069 91.8048 165.082C94.3767 165.346 96.9859 165.387 99.5609 165.1C102.189 165.051 104.795 164.683 107.385 164.281C107.905 164.157 108.432 164.07 108.958 163.979C109.472 163.855 109.992 163.765 110.515 163.671C111.76 163.369 113.009 163.073 114.248 162.74C115.045 162.488 115.851 162.27 116.649 162.018C116.966 161.903 117.281 161.794 117.601 161.685C117.763 161.641 118.087 161.551 118.252 161.507C119.174 161.155 120.105 160.825 121.023 160.464C121.54 160.252 122.06 160.038 122.58 159.826C130.218 156.594 137.223 151.92 143.248 146.229C151.711 138.314 158.051 128.197 161.703 117.213C166.557 102.466 166.358 85.9952 160.7 71.5043Z" fill="#1F2F57"/>
</svg>
